<?xml version="1.0" encoding="utf-8"?>
<!-- Generator: Adobe Illustrator 17.0.0, SVG Export Plug-In . SVG Version: 6.00 Build 0)  -->
<!DOCTYPE svg PUBLIC "-//W3C//DTD SVG 1.1//EN" "http://www.w3.org/Graphics/SVG/1.1/DTD/svg11.dtd">
<svg version="1.1" id="Layer_1" xmlns="http://www.w3.org/2000/svg" xmlns:xlink="http://www.w3.org/1999/xlink" x="0px" y="0px"
	 width="251.794px" height="25.609px" viewBox="6.336 16.579 251.794 25.609"
	 style="enable-background:new 6.336 16.579 251.794 25.609;" xml:space="preserve">
<style type="text/css">
	.st0{fill:#C83446;}
</style>
<g id="RULES">
</g>
<path class="st0" d="M207.522,20.284c-8.545,0.69-17.003-1.1-25.518-1.433c-7.921-0.309-15.838,0.196-23.814-0.119
	c-13.655-0.54-34.987-1.653-53.654-0.81c-12.924,0.585-25.762,1.65-38.68,1.739c-11.882,0.083-23.51-0.747-35.336,0.429
	c-5.849,0.58-12.667-0.086-19.407,0.174c-8.219,0.317-4.247,6.768,3.306,8.069c14.402,2.48,29.346,0.251,43.855,0.943
	c10.457,0.499,27.615-3.578,36.789,2.349c5.204,3.361-9.935,2.843-5.663,6.529c5.358,4.624,30.138,1.277,36.661,0.914
	c7.867-0.439,28.577,1.206,30.98-1.862c3.06-3.908-12.936-4.682-5.584-7.299c7.351-2.617,7.622-0.01,12.902,0.066
	c8.403,0.122,16.904-0.817,25.301-1.14c10.362-0.399,68.373-0.975,67.795-6.263C256.877,17.284,213.744,19.784,207.522,20.284z"/>
</svg>
