<?xml version="1.0" encoding="utf-8"?>
<!-- Generator: Adobe Illustrator 17.0.0, SVG Export Plug-In . SVG Version: 6.00 Build 0)  -->
<!DOCTYPE svg PUBLIC "-//W3C//DTD SVG 1.1//EN" "http://www.w3.org/Graphics/SVG/1.1/DTD/svg11.dtd">
<svg version="1.1" id="Layer_1" xmlns="http://www.w3.org/2000/svg" xmlns:xlink="http://www.w3.org/1999/xlink" x="0px" y="0px"
	 width="408px" height="580.007px" viewBox="0 0 408 580.007" style="enable-background:new 0 0 408 580.007;" xml:space="preserve"
	>
<style type="text/css">
	.st0{fill:#0B1F28;}
	.st1{fill:#EEF0F8;}
	.st2{fill:#D6DAE2;}
	.st3{fill:#BEC3CB;}
	.st4{fill:#E7555E;}
</style>
<g id="RULES">
</g>
<g id="Layer_1_1_">
	<g>
		<g>
			<path class="st0" d="M396.719,0.216L12.46,0.304c-6.105,0-11.07,4.968-11.066,11.072l0.128,557.152
				c0.002,6.103,4.967,11.068,11.072,11.066l384.259-0.089c6.103-0.002,11.067-4.968,11.065-11.071l-0.13-557.152
				C407.787,5.179,402.822,0.215,396.719,0.216z"/>
			<path class="st1" d="M396.719,1.797L12.46,1.887c-5.241,0.001-9.486,4.25-9.486,9.488l0.129,557.152
				c0.002,5.24,4.25,9.486,9.49,9.484l384.259-0.088c5.241-0.002,9.488-4.25,9.486-9.49l-0.13-557.151
				C406.208,6.043,401.959,1.796,396.719,1.797z"/>
			<path class="st2" d="M107.435,10.431c-17.247-0.869-31.767-0.032-47.866,1.545c-10.932,1.069-39.033-2.789-46.124,5.395
				c-2.548,2.941-0.81,13.192-0.992,27.945c-0.26,21.301-1.207,48.743,3.007,49.898c7.13,1.953,8.946-25.535,15.959-31.939
				c6.293-5.749,8.102-6.32,15.925-8.143c0.152-5.825-0.796-10.338-1.049-16.018c11.35,0.673,18.216-1.618,26.335-7.764
				c4.666-3.531,1.515-5.788,7.787-8.893c5.219-2.585,11.021-1.013,16.542-1.544c19.216-1.845,40.577-0.865,59.757-4.766
				C150.422,7.523,118.444,10.988,107.435,10.431z"/>
			<path class="st0" d="M83.407,23.197c2.504,0.332,5.547,0.214,7.88-0.853l0,1.997c12.415-0.003,40.601,2.801,50.045-4.946
				C134.854,13.572,84.327,14.195,83.407,23.197z"/>
			<path class="st0" d="M167.984,17.507c-2.8-0.257-1.945-1.968-3.845-3.164l-1.997,1.996c-4.941-1.256-7.869,0.828-6.832,5.838
				c4.169,0.198,8.5,0.198,12.671-0.004C168.208,20.651,168.313,19.03,167.984,17.507z"/>
			<path class="st2" d="M399.701,457.814c1.15-24.345-0.029-48.581-0.393-74.254c-0.354-24.87,3.986-48.916,1.601-73.864
				c-0.93-9.716-3.959-28.166-11.925-14.857c-4.71,7.876-1.492,24.938-1.495,34.348c-0.006,24.075,8.794,44.335,1.661,67.352
				c-6.362,20.522-2.566,45.943-9.187,65.929c-3.871,11.677-0.204,24.429-3.822,36.083c-1.786,5.749-4.941,9.497-10.583,11.779
				c-3.291,1.329-7.703,0.635-10.768,2.162c-5.337,2.652-1.778,3.523-4.64,9.116c-3.865,7.55-14.822,7.18-22.055,6.811
				c-14.271-0.725-21.066-4.916-33.263,2.662c-10.472,6.51-19.359,17.672-31.38,21.108c-12.219,3.491-27.402-0.869-40.116,0.4
				c-24.324,2.426-43.529,7.521-67.781,5.207c-25.531-2.433-56.512,8.42-80.488,6.186c-9.244-0.861-42.596-6.552-43.232,5.427
				c-0.638,11.978,101.733,0.727,149.038,2.965c35.457,1.68,72.789-4.337,107.781-0.926c24.843,2.423,46.915,1.716,72.479,0.301
				c10.11-0.559,26.497,3.577,34.045-3.373c8.16-7.518,4.804-25.561,4.78-35.641C399.899,507.881,398.526,482.634,399.701,457.814z"
				/>
			<path class="st3" d="M395.362,566.945l-381.279,0.089l-0.13-554.17l381.279-0.089L395.362,566.945z M17.074,564.04l375.291-0.086
				l-0.127-548.182L16.946,15.859L17.074,564.04z"/>
		</g>
		<g>
			<g>
				<path class="st0" d="M333.361,84.248c-0.303-0.304-0.732-0.442-1.157-0.373l-2.756,0.455c-6.083,1.004-11.94,1.509-17.412,1.501
					c-16.877-0.024-30.928-4.767-42.961-14.5c-10.997-8.896-20.449-9.371-20.847-9.387c-0.702-0.027-1.346,0.538-1.377,1.27
					l-0.083,1.932l-10.558,60.271c-0.181,0.209-0.289,0.471-0.312,0.751l-0.324,3.967c-0.06,0.729,0.483,1.371,1.214,1.431
					c4.844,0.393,11.864,3.676,19.994,7.477c13.245,6.191,28.254,13.209,43.852,13.232c6.368,0.009,12.417-1.203,17.977-3.603
					l0.766-0.332c0.329-0.141,0.585-0.408,0.713-0.74l0.302-0.779c5.054-13.081,12.549-56.807,12.866-58.661l0.47-2.755
					C333.801,84.984,333.664,84.551,333.361,84.248z"/>
			</g>
			<g>
				<path class="st4" d="M266.991,73.911c-10.27-8.307-18.894-8.652-18.894-8.652l-11.038,63.003
					c16.582,1.351,50.37,30.257,80.241,17.365c4.994-12.928,12.69-58.025,12.69-58.025
					C296.149,93.189,277.261,82.217,266.991,73.911z"/>
			</g>
			<g>
				<g>
					<path class="st0" d="M342.377,340.592c2.329-24.303-1.838-48.787-12.054-70.835c-0.661-2.384-0.616-5.736-0.576-8.705
						l0.014-1.151c0.028-2.806,0-5.794-0.647-8.737c-1.574-7.159-4.857-14.234-10.039-21.633
						c-4.304-6.149-10.358-11.734-19.047-17.581c-5.177-3.485-11.495-5.668-18.269-6.317c-0.546-0.054-1.176-0.111-1.872-0.173
						c-0.83-0.075-1.757-0.158-2.739-0.253c-2.273-0.218-9.194-0.881-12.414-1.945l-0.403-0.133
						c-13.752-6.514-28.441-10.666-43.697-12.356c-0.123-0.083-0.248-0.163-0.372-0.242c-3.453-2.164-7.1-3.348-10.877-3.494
						c-4.062-0.156-7.513,0.029-11.151,1.444c-1.411,0.547-2.662,1.247-3.65,1.865c-31.669,2.481-61.708,16.025-84.7,38.219
						c-23.532,22.714-38.214,53.18-41.339,85.784c-3.336,34.801,6.563,69.225,27.869,96.933c0.635,0.824,1.585,3.162,1.723,5.411
						c0.348,5.694,3.815,11.212,6.942,14.479c4.982,5.201,10.522,6.384,15.768,6.885c1.999,0.193,4.165,1.014,5.941,2.255
						c19.311,13.49,41.979,21.813,65.552,24.072c24.877,2.384,49.613-1.708,71.534-11.839c21.2-9.799,39.42-25.034,52.719-44.082
						c1.142-1.011,2.573-2.602,4.27-4.518c0.398-0.45,0.734-0.83,0.96-1.073c4.046-4.367,8.041-10.402,10.953-16.559
						c2.534-5.354,4.092-9.957,4.63-13.681C337.787,369.977,341.585,348.851,342.377,340.592z"/>
				</g>
				<g>
					<path class="st1" d="M337.964,340.169c2.348-24.487-2.105-48.054-11.8-68.844c-1.054-3.412-0.869-7.823-0.835-11.469
						c0.026-2.627,0.004-5.25-0.544-7.742c-1.597-7.271-5.092-13.977-9.339-20.042c-4.65-6.638-11.122-11.891-17.892-16.447
						c-4.752-3.198-10.525-5.038-16.218-5.583c-4.188-0.402-13.467-1.079-17.991-2.572c0,0,0.013,0.043,0.034,0.116
						c-13.592-6.569-28.539-10.915-44.416-12.531c-0.333-0.272-0.681-0.531-1.058-0.767c-2.62-1.643-5.563-2.7-8.694-2.82
						c-3.696-0.143-6.468,0.017-9.373,1.144c-1.363,0.53-2.6,1.266-3.791,2.072c-63.739,4.442-116.791,54.384-123.089,120.088
						c-3.348,34.942,7.138,68.017,26.972,93.808c1.216,1.582,2.446,4.804,2.631,7.844c0.252,4.109,2.907,8.744,5.721,11.682
						c4.193,4.378,8.964,5.152,12.988,5.538c2.995,0.287,5.858,1.497,8.056,3.032c18.18,12.701,39.787,21.028,63.435,23.294
						c49.811,4.773,94.679-17.135,120.53-54.525c1.287-0.976,4.288-4.517,5.279-5.588c3.982-4.297,7.64-10.039,10.198-15.442
						c1.73-3.654,3.667-8.39,4.248-12.418C333.356,369.646,337.157,348.589,337.964,340.169z"/>
				</g>
				<g>
					<path class="st2" d="M134.659,270.028c-0.298-2.15-1.023-4.341-1.148-6.512c-0.068-1.211,0.484-3.411-0.186-4.462
						c-2.719-4.255-4.572,1.824-5.053,3.768c-0.987,3.995-3.617,5.003-4.378,9.006c-0.592,3.118-2.141,7.231-3.203,10.19
						c-1.202,3.349-3.649,6.766-4.15,10.1l-5.797,7.396c-1.805,3.564-7.544,7.593-10.798,9.78c-2.485,1.67-4.093,2.84-5.95,4.822
						c-2.747,2.934-0.969,11.31-1.177,16.444c-0.167,4.064-2.245,13.464,1.281,13.165c1.7-0.145,6.946-10.657,10.058-12.801
						c3.68-2.537,6.925-2.645,9.272-7.072c2.005-3.78,0.291-7.327,1.527-11.203c1.257-3.937,4.933-6.666,7.407-9.741
						c1.993-2.474,3.242-5.335,5.117-7.835c3.991-5.324,6.544-9.457,7.188-16.169C134.963,275.838,135.071,272.999,134.659,270.028z
						"/>
				</g>
				<g>
					<path class="st2" d="M166.927,218.036c-0.016-0.082-0.03-0.167-0.045-0.251c-1.853,0.004-3.852,1.469-5.367,2.54
						c-3.554,2.514-6.729,3.921-10.332,5.768l-9.52,6.404c-5.068,2.778-9.929,5.207-15.78,5.89
						c-3.042,0.355-11.612-0.405-11.499,3.844c2.606,1.267,4.193,0.731,2.484,4.184c-1.172,2.366-5.375,5.118-0.684,5.585
						c3.439,0.345,6.032-2.871,8.809-4.179c2.441-1.149,5.445,0.452,7.731-0.828c0.944-0.526,1.487-2.254,2.195-3.055
						c1.248-1.409,2.84-2.264,4.453-3.306c3.456-2.235,6.222-4.874,9.868-6.988C151.766,232.18,169.35,221.061,166.927,218.036z"/>
				</g>
				<g>
					<path class="st2" d="M335.044,318.88c-1.612-9.913-1.007-19.101-5.387-27.979c-1.738-3.519-3.506-7.194-5.092-10.846
						c-2.009-4.629-3.167-3.596-4.848-8.015c-1.622-4.256-0.663-6.197,0.506-9.708c1.311-3.935-3.17-6.613-6.34-9.09
						c-4.69-3.666-9.505-8.186-14.648-11.053c-3.154-1.759-11.081-12.249-14.162-6.977c-2.486,4.274,1.014,16.254,3.035,20.038
						c2.529,4.74,6.983,9.727,7.584,15.253c0.851,7.821-7.249,7.561-12.746,8.637c-6.568,1.285-11.391,3.732-13.146,10.715
						c-1.465,5.828-0.806,12.368,1.346,18.015c1.964,5.163,5.933,9.667,6.184,15.396c0.293,6.685,0.835,16.533-6.846,18.046
						c-4.769,0.941-9.138,3.568-11.267,8.06c-2.747,5.795,1.18,10.318-0.2,15.853c-1.632,6.554-12,6.329-15.607,11.37
						c-3.5,4.891-3.412,11.304-5.298,16.815c-2.572,7.506-6.742,8.472-13.678,10.635c-3.054,0.951-5.08,3.73-8.483,3.922
						c-2.993,0.168-5.983-1.587-8.41-3.121c-5.278-3.331-9.941-8.736-16.606-8.949c-4.968-0.158-9.115,2.774-13.865,3.502
						c-3.155,0.484-6.241-0.194-9.35-0.665c-5.076-0.77-11.535-2.081-15.506,2.123c-3.214,3.403-0.764,11.508-5.539,12.794
						c0,0-0.334-0.865-0.339-0.881c0.129,0.334-8.862-3.981-9.771-4.531c-4.201-2.557-8.427-5.084-12.799-7.335
						c-4.192-2.158-8.64-4.781-13.349-5.575c-7.06-1.19-8.603,1.356-8.003,7.708c0.344,3.608-0.651,6.022,1.664,9.098
						c1.948,2.588-0.689,9.032,1.843,10.758c3,2.043,7.126,8.486,10.71,8.221c14.951-1.114,22.18,10.708,35.093,15.897
						c18.991,7.63,39.89,11.221,59.488,10.149c9.723-0.531,20.445-2.159,29.786-5.332c7.625-2.588,15.36-5.154,22.747-8.31
						c13.762-5.879,22.588-16.32,33.643-25.909c10.901-9.454,18.526-16.251,26.34-28.13c8.685-13.2,7.803-26.689,10.793-41.803
						C336.193,339.218,336.448,327.518,335.044,318.88z"/>
				</g>
				<g>
					<path class="st3" d="M298.307,413.553c-3.341-0.319-3.826-8.048-6.72-9.55c0.057-10.211,1.871-11.98,3.232-21.751
						c-4.708,4.341-8.072,9.994-11.516,15.137c-3.26,4.87-5.659,4.935-10.864,7.45c-3.784,1.829-7.06,4.539-10.875,6.42
						c-3.21,1.581-6.454,3.59-9.884,4.204c-2.883,0.515-4.397-1.831-7.555,0.055c-4.316,2.58-2.946,8.839-8.246,11.81
						c-6.041,3.385-11.369,2.673-16.631,7.912c-10.856,10.807-21.285,10.676-36.055,6.202c-8.418-2.55-18.664,0.033-26.567-3.293
						c-5.372-2.261-11.376-6.812-16.989-8.627c-8.294-2.683-10.271,1.95-3.815,6.632c4.714,3.418,12.6,7.887,18.127,10.007
						c12.124,4.659,26.924,6.519,39.86,8.924c17.396,3.239,31.932-0.411,48.261-5.92c24.453-8.248,43.823-15.74,61.4-36.39
						L298.307,413.553z"/>
				</g>
				<g>
					<path class="st1" d="M290.261,288.408c-2.381-0.118-4.054-2.784-6.417-3.486c-3.081-0.914-7.416-0.237-8.495,3.01
						c-0.951,2.859-1.339,13.87,3.483,13.012c-0.211-3.222-1.444-8.803,1.456-11.201c2.86-2.362,7.558-1.126,10.076,0.901
						L290.261,288.408z"/>
				</g>
				<g>
					<path class="st1" d="M190.337,406.713c-5.403-1.729-12.145-3.908-17.752-2.348l-1.576-0.151
						c-1.538,0.752-5.369-0.27-6.429,1.373c-1.529,2.372,1.681,2.213,3.228,2.156c4.983-0.184,9.72,0.428,14.478,1.681
						c3.633,0.955,7.655,1.414,11.119,2.654c4.169,1.492,7.833,3.659,12.398,3.687C205.414,410.954,194.074,407.909,190.337,406.713
						z"/>
				</g>
				<g>
					<path class="st1" d="M118.483,417.013c-2.806-4.265-6.38-7.46-11.855-8.151l1.019,2.643c0.569,1.922,3.555,2.62,5.113,3.981
						c1.63,1.42,2.483,3.371,3.627,5.127c1.172,1.798,5.349,9.529,7.486,6.76C125.886,424.767,119.798,419.011,118.483,417.013z"/>
				</g>
				<g>
					<path class="st0" d="M119.374,262.017c-1.885-0.978-4.976,0.069-8.396,2.858c-5.101,4.159-9.314,8.9-12.807,14.371
						c-3.856,6.037-7.795,11.482-9.093,18.541c-0.667,3.617-1.693,6.755,1.035,10.046c4.282,5.168,6.906-1.124,11.673-5.575
						c5.735-5.35,11.947-11.779,13.595-15.993c2.189-5.59,4.493-10.956,5.596-16.9C121.741,265.256,121.014,262.87,119.374,262.017z
						"/>
				</g>
				<g>
					<path class="st0" d="M214.493,333.215c0.422-4.224,0.006-8.755-0.134-11.186c-0.564-9.743-9.353-14.291-11.613-2.247
						c-1.087,5.793-2.61,13.319,0.424,18.702c1.299,2.309,3.29,4.918,5.847,4.271C212.664,341.829,214.048,337.694,214.493,333.215z
						"/>
				</g>
				<g>
					<path class="st0" d="M284.437,290.301c-12.197-6.127,0.194,28.332,6.514,18.431
						C294.384,303.353,289.618,292.902,284.437,290.301z"/>
				</g>
				<g>
					<path class="st0" d="M328.535,363.907c-1.677-8.359-10.557-4.295-14.893-0.343c-6.115,5.577-9.267,12.366-11.273,20.263
						c-1.269,5-3.988,14.779,2.673,17.128c7.886,2.78,13.882-7.492,17.413-13.2C326.772,380.767,330.208,372.243,328.535,363.907z"
						/>
				</g>
				<g>
					<path class="st0" d="M198.347,414.365c-5.702-3.055-12.823-3.406-18.963-5.185c-4.029-1.166-9.899-2.671-13.668-0.07
						c-5.07,3.5-2.194,9.116,2.826,10.882c7.675,2.698,14.973,5.665,23.094,6.878c2.514,0.377,8.552,0.501,10.63-1.208
						C205.807,422.751,204.337,417.576,198.347,414.365z"/>
				</g>
				<g>
					<path class="st0" d="M119.634,427.72c-0.928-3.038-4.099-7.172-5.285-8.432c-2.399-2.552-8.146-7.162-9.52-1.691
						c-1.018,4.038,6.583,12.868,11.8,13.521C119.815,431.512,120.3,429.896,119.634,427.72z"/>
				</g>
				<g>
					<path class="st0" d="M312.792,231.621c-3.891-4.914-8.471-9.364-13.389-12.636c-3.275-2.179-14.805-8.517-14.406-0.034
						c0.206,4.397,4.845,5.918,7.317,9.321c3.065,4.223,5.339,10.032,9.578,13.031c3.797,2.688,8.683,5.016,12.875,7.147
						c5.568,2.832,8.793,1.313,5.534-5.138C318.301,239.352,315.746,235.353,312.792,231.621z"/>
				</g>
				<g>
					<path class="st0" d="M211.443,193.842c-2.593-0.1-5.17-0.054-7.768,0.261c-0.786,0.096-3.199-0.082-3.623,0.936
						c-0.768,1.854,2.822,2.691,3.704,2.825c3.195,0.485,7.227,0.486,10.393-0.779c2.468-0.989,0.536-2.547-0.912-2.969
						C212.645,193.943,212.046,193.864,211.443,193.842z"/>
				</g>
				<g>
					<path class="st0" d="M142.215,346.18c-3.563-1.44-6.712,0.731-8.044,4.044c-1.129,2.809-1.424,8.414,3.302,7.234
						c3.162-0.79,6.613-1.04,7.803-4.532C146.248,350.074,145.118,347.353,142.215,346.18z"/>
				</g>
				<g>
					<path class="st0" d="M258.442,381.424c-5.161-1.537-8.933,8.232-3.653,8.237l1.262,0.122
						C259.472,388.98,263.383,382.895,258.442,381.424z"/>
				</g>
				<g>
					<path class="st0" d="M241.404,248.019c-1.425-1.538-4.542-4.65-6.874-3.609c-5.479,2.444,3.364,10.789,7.194,9.443
						C244.745,252.792,243.31,250.076,241.404,248.019z"/>
				</g>
				<g>
					<path class="st0" d="M136.522,251.184c0,0-0.066,0.074-0.192,0.22c-0.115,0.144-0.326,0.362-0.648,0.647
						c-0.611,0.537-1.557,1.204-2.854,1.848c-1.289,0.652-2.902,1.304-4.781,1.919c-0.937,0.309-1.937,0.629-2.998,0.92
						c-0.972,0.282-2.169,0.606-3.209,0.991c-2.11,0.756-4.424,1.757-6.651,3.101c-2.233,1.353-4.469,2.981-6.605,4.902
						c-2.126,1.927-4.201,4.084-6.196,6.404c-0.999,1.157-1.971,2.361-2.929,3.591l-0.36,0.461l-0.332,0.435
						c-0.238,0.316-0.485,0.639-0.675,0.929c-0.403,0.574-0.827,1.233-1.228,1.881c-1.61,2.614-3.047,5.403-4.384,8.17
						c-1.341,2.761-2.592,5.556-3.511,8.233c-0.944,2.694-1.508,5.369-1.656,7.936c-0.143,2.563,0.119,4.998,0.687,7.189
						c0.141,0.546,0.299,1.078,0.474,1.595c0.173,0.53,0.357,1.112,0.504,1.647c0.306,1.078,0.549,2.102,0.753,3.07
						c0.417,1.933,0.644,3.642,0.776,5.063c0.127,1.423,0.107,2.563-0.005,3.37c-0.084,0.8-0.414,1.301-0.414,1.301
						c-0.142,0.217-0.435,0.278-0.653,0.136c-0.204-0.134-0.271-0.403-0.158-0.615l0.003-0.007
						c-0.002-0.007,0.025-0.045,0.058-0.184c0.037-0.134,0.072-0.377,0.072-0.717c0.008-0.68-0.133-1.735-0.4-3.067
						c-0.266-1.333-0.702-2.943-1.257-4.764c-0.283-0.906-0.605-1.868-0.984-2.853c-0.19-0.499-0.389-0.963-0.615-1.503
						c-0.232-0.551-0.449-1.125-0.649-1.723c-0.79-2.378-1.346-5.113-1.316-8.02c0.018-2.898,0.478-5.954,1.394-8.928
						c0.925-2.994,2.115-5.872,3.418-8.788c1.324-2.901,2.796-5.778,4.484-8.602c0.431-0.709,0.857-1.396,1.359-2.127
						c0.247-0.374,0.48-0.685,0.714-1.003l0.176-0.242l0.214-0.271l0.379-0.471c1.005-1.259,2.032-2.499,3.091-3.697
						c2.111-2.409,4.343-4.681,6.731-6.651c2.376-1.978,4.865-3.703,7.41-5.008c2.547-1.323,5.05-2.279,7.505-2.904
						c1.233-0.332,2.269-0.522,3.411-0.745c1.055-0.205,2.057-0.383,2.99-0.583c1.865-0.398,3.458-0.83,4.737-1.256
						c1.266-0.441,2.213-0.896,2.796-1.255c0.271-0.167,0.491-0.323,0.642-0.46c0.149-0.123,0.226-0.186,0.226-0.186
						c0.2-0.168,0.498-0.141,0.666,0.059C136.678,250.748,136.67,251.01,136.522,251.184z"/>
				</g>
				<g>
					<path class="st0" d="M151.275,402.968c0,0,0.258,0.202,0.741,0.582c0.238,0.201,0.539,0.404,0.881,0.731
						c0.341,0.332,0.733,0.725,1.168,1.178c0.404,0.455,0.812,0.97,1.279,1.534c0.422,0.574,0.883,1.209,1.332,1.896
						c0.901,1.375,1.834,2.93,2.821,4.578c0.252,0.403,0.511,0.814,0.773,1.232l0.098,0.157l0.024,0.039l0.013,0.02
						c0.016,0.026-0.103-0.167-0.045-0.076l0.057,0.077l0.229,0.313c0.154,0.209,0.308,0.42,0.465,0.633
						c0.635,0.946,1.258,1.478,1.889,2.197c1.443,1.378,3.229,2.527,5.228,3.58c2.001,1.056,4.285,1.892,6.662,2.783
						c2.349,0.882,4.742,1.695,7.165,2.367c2.414,0.677,4.833,1.266,7.23,1.604c2.395,0.325,4.747,0.508,7,0.394
						c2.251-0.119,4.385-0.508,6.343-1.106c0.247-0.077,0.489-0.15,0.732-0.224l0.046-0.012l0.022-0.007
						c-0.038,0.017,0.118-0.05-0.081,0.036l0.096-0.039l0.191-0.08l0.377-0.161c0.499-0.211,0.991-0.42,1.475-0.626
						c0.835-0.456,1.628-0.787,2.462-1.309c0.818-0.471,1.605-0.946,2.364-1.42c0.773-0.46,1.507-0.897,2.197-1.305
						c0.685-0.417,1.37-0.784,2.001-1.11c0.316-0.162,0.62-0.318,0.908-0.466c0.305-0.131,0.594-0.257,0.871-0.377
						c0.553-0.228,1.023-0.464,1.474-0.599c0.448-0.132,0.83-0.243,1.14-0.333c0.616-0.172,0.943-0.262,0.943-0.262
						c0.372-0.104,0.757,0.114,0.861,0.486c0.089,0.319-0.059,0.646-0.335,0.799l-0.088,0.049c0,0-0.276,0.152-0.795,0.439
						c-0.258,0.138-0.575,0.309-0.948,0.51c-0.367,0.206-0.768,0.51-1.226,0.802c-0.229,0.153-0.468,0.312-0.719,0.479
						c-0.243,0.187-0.5,0.384-0.764,0.588c-0.527,0.416-1.11,0.826-1.715,1.338c-1.224,0.978-2.571,2.155-4.211,3.355
						c-0.76,0.615-1.778,1.233-2.741,1.879c-0.467,0.249-0.942,0.501-1.424,0.759l-0.365,0.192l-0.181,0.096l-0.091,0.049
						l-0.206,0.088c-0.279,0.111-0.56,0.226-0.84,0.34c-2.249,0.929-4.769,1.592-7.397,1.843c-2.623,0.266-5.346,0.241-8.038-0.115
						c-2.693-0.34-5.376-0.891-7.976-1.642c-2.595-0.757-5.132-1.66-7.575-2.615c-2.407-0.963-4.826-2.016-7.105-3.334
						c-2.288-1.293-4.362-2.946-6.037-4.798c-0.796-1.004-1.691-2.059-2.123-2.94c-0.134-0.229-0.265-0.454-0.395-0.68l-0.194-0.333
						l-0.049-0.084l-0.07-0.117l-0.011-0.021l-0.021-0.045l-0.086-0.177c-0.229-0.473-0.456-0.936-0.677-1.389
						c-0.806-1.775-1.544-3.4-2.199-4.842c-0.329-0.701-0.669-1.319-0.961-1.921c-0.327-0.558-0.621-1.097-0.903-1.549
						c-0.297-0.422-0.558-0.811-0.784-1.158c-0.237-0.345-0.518-0.632-0.704-0.867c-0.393-0.474-0.601-0.726-0.601-0.726
						c-0.285-0.343-0.237-0.852,0.105-1.137C150.559,402.735,150.983,402.738,151.275,402.968z"/>
				</g>
				<g>
					<path class="st0" d="M321.034,397.121c-6.142,7.683-13.192,9.222-19.256,10.084c-6.236,0.887-11.952,5.217-11.938,6.173
						c0.027,1.718,4.047-1.838,10.91-3.195c4.524-0.894,12.025-0.549,17.623-4.143"/>
				</g>
				<g>
					<path class="st0" d="M195.648,327.99c0,0,0.02,0.13,0.06,0.374c0.031,0.244,0.081,0.61,0.161,1.039
						c0.143,0.866,0.359,2.126,0.715,3.581c0.168,0.729,0.362,1.515,0.617,2.327c0.219,0.819,0.498,1.667,0.808,2.527
						c0.328,0.852,0.652,1.732,1.049,2.586c0.399,0.851,0.813,1.705,1.295,2.497c0.483,0.789,0.979,1.564,1.552,2.225
						c0.561,0.669,1.133,1.298,1.748,1.798c0.612,0.503,1.228,0.961,1.875,1.284c0.636,0.341,1.287,0.6,1.924,0.779
						c0.635,0.209,1.259,0.293,1.832,0.37c0.572,0.091,1.087,0.085,1.527,0.123c0.437,0.019,0.786-0.001,1.031,0.011
						c0.247,0.008,0.378,0.011,0.378,0.011l0.021,0.001c0.271,0.009,0.485,0.235,0.477,0.507c-0.004,0.163-0.089,0.303-0.21,0.39
						c0,0-0.114,0.08-0.339,0.21c-0.225,0.127-0.547,0.347-0.997,0.54c-0.45,0.204-1.009,0.432-1.695,0.598
						c-0.339,0.113-0.713,0.167-1.111,0.216c-0.399,0.067-0.826,0.082-1.278,0.093c-0.904,0.018-1.9-0.13-2.914-0.437
						c-1.023-0.299-2.02-0.828-2.968-1.468c-1.886-1.313-3.368-3.224-4.441-5.221c-1.093-2.002-1.78-4.134-2.209-6.144
						c-0.192-1.009-0.357-1.985-0.446-2.916c-0.081-0.932-0.105-1.814-0.114-2.622c0.019-1.63,0.191-2.96,0.371-3.9
						c0.082-0.475,0.181-0.818,0.24-1.059c0.065-0.239,0.101-0.368,0.101-0.368c0.071-0.257,0.336-0.408,0.592-0.337
						C195.486,327.652,195.618,327.808,195.648,327.99z"/>
				</g>
				<g>
					<path class="st0" d="M213.394,305.297c0,0,0.234,0.012,0.631,0.062c0.192,0.012,0.443,0.069,0.745,0.171
						c0.309,0.084,0.645,0.207,0.971,0.372c0.348,0.142,0.698,0.346,1.058,0.584c0.368,0.226,0.703,0.53,1.063,0.832
						c0.33,0.329,0.678,0.669,0.971,1.065c0.313,0.377,0.568,0.804,0.827,1.227c0.23,0.438,0.459,0.877,0.627,1.334
						c0.188,0.447,0.309,0.91,0.428,1.354c0.09,0.451,0.189,0.882,0.216,1.302c0.045,0.418,0.054,0.813,0.04,1.177
						c0.008,0.362-0.04,0.696-0.082,0.988c-0.031,0.291-0.086,0.541-0.142,0.747c-0.112,0.409-0.187,0.633-0.187,0.633
						c-0.101,0.308-0.434,0.472-0.74,0.371c-0.194-0.065-0.332-0.222-0.381-0.405l-0.017-0.061c0,0-0.055-0.216-0.132-0.58
						c-0.077-0.36-0.192-0.871-0.369-1.458c-0.069-0.296-0.192-0.605-0.298-0.932c-0.101-0.328-0.252-0.659-0.379-1.006
						c-0.158-0.337-0.291-0.692-0.476-1.029c-0.154-0.354-0.37-0.678-0.547-1.024c-0.217-0.32-0.402-0.661-0.635-0.959
						c-0.205-0.321-0.449-0.599-0.664-0.891c-0.241-0.265-0.451-0.553-0.691-0.783c-0.228-0.244-0.446-0.478-0.667-0.677
						c-0.218-0.216-0.416-0.382-0.589-0.539c-0.169-0.157-0.338-0.306-0.512-0.422c-0.32-0.239-0.494-0.393-0.494-0.393
						c-0.251-0.219-0.276-0.602-0.056-0.854C213.041,305.359,213.219,305.291,213.394,305.297z"/>
				</g>
				<g>
					<path class="st0" d="M294.501,294.759c0,0,0.067,0.097,0.191,0.279c0.12,0.175,0.313,0.47,0.52,0.841
						c0.416,0.738,0.95,1.837,1.382,3.232c0.437,1.39,0.781,3.074,0.88,4.911c0.102,1.834-0.056,3.824-0.565,5.76
						c-0.249,0.968-0.608,1.915-1.044,2.812c-0.224,0.448-0.462,0.885-0.725,1.3c-0.135,0.207-0.26,0.417-0.408,0.611l-0.398,0.534
						c-0.28,0.36-0.49,0.678-0.691,0.982c-0.198,0.329-0.408,0.66-0.593,0.99c-0.388,0.654-0.691,1.318-0.996,1.923
						c-0.58,1.224-1.018,2.286-1.322,3.031c-0.298,0.746-0.469,1.17-0.469,1.17l-0.002,0.007c-0.098,0.246-0.375,0.364-0.62,0.267
						c-0.196-0.078-0.31-0.272-0.301-0.47c0,0,0.027-0.488,0.158-1.313c0.122-0.829,0.366-1.999,0.795-3.38
						c0.213-0.694,0.491-1.429,0.833-2.202c0.159-0.391,0.367-0.773,0.579-1.175c0.234-0.416,0.479-0.828,0.713-1.173l0.363-0.547
						c0.117-0.16,0.219-0.338,0.327-0.509c0.212-0.347,0.403-0.714,0.584-1.09c0.363-0.752,0.633-1.57,0.868-2.4
						c0.458-1.666,0.652-3.424,0.673-5.079c-0.003-0.826-0.017-1.634-0.093-2.395c-0.074-0.761-0.16-1.481-0.276-2.143
						c-0.234-1.32-0.536-2.406-0.78-3.155c-0.235-0.733-0.419-1.182-0.419-1.182c-0.1-0.241,0.015-0.518,0.256-0.617
						c0.212-0.087,0.449-0.009,0.572,0.172L294.501,294.759z"/>
				</g>
				<g>
					<path class="st0" d="M274.882,292.826c0,0,0.035,0.376,0.075,1.029c0.006,0.329,0.04,0.727,0.085,1.15
						c0.041,0.431,0.078,0.903,0.156,1.434c0.057,0.527,0.147,1.093,0.264,1.682c0.08,0.595,0.254,1.203,0.396,1.835
						c0.176,0.624,0.323,1.276,0.572,1.908c0.208,0.642,0.461,1.282,0.72,1.916c0.305,0.617,0.567,1.252,0.89,1.852
						c0.294,0.611,0.666,1.173,0.965,1.753c0.352,0.553,0.67,1.102,1.006,1.607c0.323,0.515,0.654,0.985,0.957,1.43
						c0.608,0.883,1.137,1.626,1.512,2.151c0.375,0.522,0.576,0.845,0.576,0.845l0.011,0.019c0.143,0.228,0.072,0.526-0.154,0.668
						c-0.154,0.094-0.339,0.094-0.489,0.014c0,0-0.335-0.182-0.901-0.544c-0.288-0.174-0.623-0.406-0.989-0.696
						c-0.379-0.276-0.789-0.607-1.213-1.001c-0.443-0.373-0.877-0.825-1.328-1.316c-0.477-0.467-0.878-1.05-1.336-1.62
						c-0.425-0.596-0.85-1.227-1.213-1.91c-0.402-0.662-0.715-1.389-1.022-2.112c-0.274-0.742-0.563-1.476-0.744-2.234
						c-0.219-0.745-0.324-1.506-0.455-2.23c-0.072-0.735-0.148-1.44-0.145-2.113c-0.031-0.672,0.03-1.305,0.076-1.883
						c0.022-0.576,0.15-1.117,0.222-1.583c0.068-0.477,0.182-0.86,0.27-1.172c0.185-0.629,0.3-0.988,0.3-0.988
						c0.084-0.254,0.357-0.391,0.608-0.308C274.739,292.475,274.863,292.64,274.882,292.826z"/>
				</g>
				<g>
					<path class="st0" d="M118.341,412.827c0,0,0.066,0.028,0.189,0.083c0.123,0.061,0.301,0.116,0.535,0.253
						c0.237,0.149,0.567,0.342,0.867,0.572c0.295,0.226,0.647,0.476,0.973,0.786c0.696,0.592,1.397,1.363,2.101,2.233
						c0.327,0.45,0.704,0.892,1.005,1.393c0.321,0.487,0.632,0.997,0.921,1.517c0.288,0.52,0.531,1.069,0.788,1.597
						c0.227,0.548,0.449,1.079,0.617,1.622c0.19,0.533,0.329,1.063,0.437,1.577c0.134,0.502,0.196,0.999,0.247,1.459
						c0.076,0.449,0.074,0.882,0.079,1.258c0.017,0.372-0.004,0.702-0.04,0.976c-0.06,0.544-0.11,0.846-0.11,0.846
						c-0.089,0.519-0.583,0.868-1.102,0.778c-0.357-0.061-0.635-0.314-0.743-0.636l-0.04-0.124c0,0-0.087-0.259-0.206-0.694
						c-0.048-0.217-0.14-0.479-0.242-0.779c-0.098-0.3-0.202-0.632-0.347-0.997c-0.134-0.362-0.284-0.751-0.463-1.16
						c-0.16-0.414-0.374-0.837-0.57-1.283c-0.178-0.45-0.453-0.888-0.659-1.356c-0.245-0.457-0.471-0.929-0.743-1.382
						c-0.251-0.462-0.501-0.926-0.775-1.368c-0.268-0.447-0.53-0.887-0.785-1.311c-0.278-0.405-0.513-0.833-0.768-1.203
						c-0.25-0.376-0.49-0.73-0.708-1.06c-0.222-0.331-0.434-0.607-0.616-0.873c-0.172-0.237-0.323-0.444-0.447-0.614
						c-0.323-0.374-0.508-0.589-0.508-0.589l-0.007-0.007c-0.348-0.405-0.305-1.013,0.1-1.362
						C117.613,412.729,118.011,412.683,118.341,412.827z"/>
				</g>
				<g>
					<path class="st0" d="M310.92,358.065c0,0-0.304,0.306-0.85,0.817c-0.299,0.25-0.56,0.571-0.888,0.91
						c-0.326,0.328-0.677,0.749-1.071,1.208c-0.404,0.438-0.779,0.981-1.216,1.509c-0.42,0.544-0.828,1.152-1.268,1.761
						c-0.422,0.627-0.846,1.279-1.26,1.959c-0.441,0.663-0.825,1.38-1.233,2.079c-0.382,0.718-0.801,1.414-1.152,2.139
						c-0.362,0.716-0.729,1.417-1.061,2.11c-0.331,0.696-0.648,1.369-0.95,2.006c-0.274,0.651-0.577,1.253-0.814,1.823
						c-0.989,2.294-1.648,3.823-1.648,3.823l-0.005,0.012c-0.209,0.483-0.771,0.707-1.255,0.499
						c-0.383-0.167-0.604-0.555-0.574-0.95c0,0,0.032-0.436,0.123-1.198c0.1-0.76,0.268-1.845,0.59-3.116
						c0.14-0.644,0.347-1.324,0.565-2.045c0.231-0.715,0.473-1.474,0.783-2.235c0.308-0.761,0.609-1.56,1-2.333
						c0.36-0.788,0.784-1.562,1.195-2.343c0.464-0.755,0.901-1.521,1.402-2.241c0.468-0.736,1.018-1.406,1.53-2.066
						c0.523-0.651,1.074-1.248,1.612-1.8c0.548-0.545,1.066-1.054,1.604-1.47c0.509-0.437,1.006-0.815,1.492-1.126
						c0.469-0.323,0.885-0.594,1.212-0.746c0.665-0.345,1.054-0.528,1.054-0.528c0.479-0.225,1.048-0.021,1.273,0.459
						C311.285,357.355,311.195,357.788,310.92,358.065z"/>
				</g>
				<g>
					<path class="st0" d="M169.073,203.635c-1.687-0.205-7.144,1.371-9.086,2.605c-9.566,4.795-19.006,9.703-27.925,16.06
						c-5.598,3.989-11.971,6.288-12.617,13.711c0.448,0.134,0.919,0.12,1.373,0.25c2.637,0.755,9.646-4.244,12.071-5.417
						c5.06-2.447,9.852-5.25,14.707-8.119c6.153-3.636,12.143-7.308,17.952-11.47C167.469,209.878,175.38,204.401,169.073,203.635z"
						/>
				</g>
				<g>
					<path class="st0" d="M261.904,417.891c0.63,0.463,1.934,0.254,2.184-0.788c0.346-1.445-1.631-1.769-2.302-0.6
						C261.41,417.158,261.552,417.631,261.904,417.891z"/>
				</g>
				<g>
					<path class="st0" d="M314.511,330.905c0.571,1.063,1.922,0.355,2.325-2.271c0.559-3.64-1.4-4.168-2.247-1.163
						C314.112,329.157,314.19,330.309,314.511,330.905z"/>
				</g>
				<g>
					<path class="st0" d="M285.59,428.524c0.129,1.201,1.648,1.055,3.011-1.227c1.89-3.159,0.275-4.387-1.642-1.923
						C285.884,426.753,285.519,427.85,285.59,428.524z"/>
				</g>
				<g>
					<path class="st0" d="M158.606,235.395c-0.261,1.178,1.224,1.524,3.243-0.201c2.8-2.393,1.66-4.07-0.942-2.349
						C159.447,233.81,158.752,234.735,158.606,235.395z"/>
				</g>
				<g>
					<path class="st0" d="M260.334,338.449c0.63,0.464,1.934,0.254,2.184-0.788c0.347-1.445-1.631-1.771-2.302-0.6
						C259.841,337.717,259.983,338.19,260.334,338.449z"/>
				</g>
				<g>
					<path class="st0" d="M271.911,255.686c0.63,0.463,1.933,0.254,2.183-0.788c0.348-1.445-1.63-1.77-2.301-0.6
						C271.418,254.954,271.559,255.426,271.911,255.686z"/>
				</g>
				<g>
					<path class="st0" d="M161.305,274.245c0.629,0.464,1.933,0.257,2.182-0.787c0.348-1.444-1.629-1.77-2.3-0.599
						C160.811,273.514,160.952,273.986,161.305,274.245z"/>
				</g>
				<g>
					<path class="st0" d="M167.86,325.345c0.629,0.463,1.932,0.254,2.184-0.789c0.346-1.444-1.631-1.769-2.302-0.599
						C167.365,324.614,167.506,325.086,167.86,325.345z"/>
				</g>
				<g>
					<path class="st0" d="M117.802,329.878c0.629,0.464,1.932,0.255,2.183-0.789c0.347-1.443-1.63-1.768-2.302-0.598
						C117.308,329.146,117.448,329.617,117.802,329.878z"/>
				</g>
				<g>
					<path class="st0" d="M109.791,373.643c0.629,0.463,1.932,0.254,2.183-0.788c0.347-1.445-1.63-1.769-2.302-0.599
						C109.296,372.912,109.438,373.383,109.791,373.643z"/>
				</g>
				<g>
					<path class="st0" d="M164.566,443.784c0.63,0.463,1.933,0.255,2.182-0.789c0.348-1.443-1.629-1.769-2.3-0.599
						C164.072,443.052,164.213,443.523,164.566,443.784z"/>
				</g>
				<g>
					<path class="st0" d="M312.405,344.013c0.63,0.463,1.934,0.255,2.184-0.789c0.348-1.444-1.631-1.769-2.301-0.6
						C311.913,343.281,312.053,343.753,312.405,344.013z"/>
				</g>
				<g>
					<path class="st0" d="M236.915,211.088c0.628,0.463,1.932,0.255,2.182-0.79c0.347-1.444-1.631-1.77-2.302-0.599
						C236.42,210.356,236.561,210.829,236.915,211.088z"/>
				</g>
				<g>
					<path class="st0" d="M82.607,345.695c0.63,0.464,1.934,0.256,2.183-0.789c0.348-1.444-1.63-1.769-2.3-0.599
						C82.114,344.963,82.256,345.435,82.607,345.695z"/>
				</g>
				<g>
					<path class="st0" d="M230.856,402.636c0.63,0.462,1.933,0.254,2.184-0.788c0.348-1.444-1.631-1.771-2.301-0.6
						C230.363,401.903,230.504,402.376,230.856,402.636z"/>
				</g>
				<g>
					<path class="st0" d="M204.72,228.51c0.63,0.463,1.933,0.254,2.183-0.788c0.349-1.445-1.63-1.769-2.301-0.6
						C204.228,227.778,204.368,228.249,204.72,228.51z"/>
				</g>
				<g>
					<path class="st0" d="M239.707,295.542c0.275,0.203,0.845,0.111,0.955-0.344c0.152-0.632-0.714-0.775-1.008-0.263
						C239.49,295.221,239.552,295.428,239.707,295.542z"/>
				</g>
				<g>
					<path class="st0" d="M236.512,322.481c0.206,0.152,0.633,0.083,0.716-0.257c0.114-0.474-0.535-0.582-0.755-0.197
						C236.35,322.239,236.396,322.397,236.512,322.481z"/>
				</g>
				<g>
					<path class="st0" d="M242.043,334.576c0.208,0.152,0.636,0.083,0.718-0.258c0.114-0.473-0.536-0.581-0.757-0.197
						C241.883,334.334,241.928,334.49,242.043,334.576z"/>
				</g>
				<g>
					<path class="st0" d="M255.899,323.632c0.207,0.151,0.635,0.082,0.716-0.259c0.114-0.474-0.533-0.581-0.754-0.197
						C255.737,323.392,255.784,323.545,255.899,323.632z"/>
				</g>
				<g>
					<path class="st0" d="M182.934,384.895c0.276,0.202,0.845,0.11,0.957-0.345c0.152-0.632-0.714-0.773-1.008-0.263
						C182.719,384.575,182.78,384.782,182.934,384.895z"/>
				</g>
				<g>
					<path class="st0" d="M140.246,391.418c0.276,0.204,0.845,0.112,0.955-0.344c0.152-0.63-0.714-0.774-1.006-0.262
						C140.03,391.098,140.092,391.304,140.246,391.418z"/>
				</g>
				<g>
					<path class="st0" d="M136.205,400.104c0.276,0.204,0.846,0.112,0.956-0.342c0.152-0.634-0.714-0.776-1.007-0.264
						C135.99,399.783,136.051,399.991,136.205,400.104z"/>
				</g>
				<g>
					<path class="st0" d="M128.278,392.392c0.276,0.203,0.845,0.11,0.955-0.344c0.152-0.633-0.713-0.775-1.006-0.263
						C128.061,392.071,128.124,392.278,128.278,392.392z"/>
				</g>
				<g>
					<path class="st0" d="M269.201,346.946c0.276,0.203,0.845,0.11,0.955-0.345c0.153-0.63-0.713-0.774-1.007-0.262
						C268.985,346.624,269.047,346.832,269.201,346.946z"/>
				</g>
				<g>
					<path class="st0" d="M328.334,291.962c0.276,0.203,0.845,0.111,0.957-0.345c0.151-0.631-0.714-0.773-1.008-0.262
						C328.119,291.642,328.18,291.849,328.334,291.962z"/>
				</g>
				<g>
					<path class="st0" d="M292.755,274.544c0.276,0.203,0.846,0.111,0.955-0.345c0.153-0.631-0.713-0.774-1.006-0.261
						C292.539,274.225,292.6,274.431,292.755,274.544z"/>
				</g>
				<g>
					<path class="st0" d="M296.26,268.942c0.277,0.203,0.846,0.111,0.956-0.346c0.154-0.632-0.714-0.772-1.007-0.261
						C296.045,268.621,296.107,268.829,296.26,268.942z"/>
				</g>
				<g>
					<path class="st0" d="M289.168,268.864c0.276,0.203,0.846,0.112,0.955-0.344c0.152-0.632-0.712-0.774-1.006-0.262
						C288.951,268.544,289.014,268.751,289.168,268.864z"/>
				</g>
				<g>
					<path class="st0" d="M270.997,232.77c0.276,0.203,0.845,0.11,0.956-0.345c0.151-0.631-0.713-0.774-1.008-0.263
						C270.78,232.449,270.843,232.656,270.997,232.77z"/>
				</g>
				<g>
					<path class="st0" d="M271.936,358.234c0.276,0.203,0.845,0.111,0.955-0.344c0.154-0.631-0.713-0.775-1.006-0.262
						C271.721,357.915,271.781,358.12,271.936,358.234z"/>
				</g>
				<g>
					<path class="st0" d="M282.856,347.996c0.276,0.202,0.846,0.112,0.955-0.345c0.152-0.631-0.713-0.773-1.007-0.261
						C282.641,347.676,282.702,347.882,282.856,347.996z"/>
				</g>
				<g>
					<path class="st0" d="M211.231,265.895c0.276,0.203,0.845,0.11,0.955-0.345c0.152-0.632-0.713-0.774-1.007-0.261
						C211.014,265.575,211.076,265.781,211.231,265.895z"/>
				</g>
				<g>
					<path class="st0" d="M197.736,273.933c0.276,0.203,0.845,0.111,0.957-0.345c0.152-0.631-0.714-0.774-1.008-0.261
						C197.521,273.613,197.582,273.82,197.736,273.933z"/>
				</g>
				<g>
					<path class="st0" d="M175.011,300.549c0.276,0.203,0.845,0.111,0.956-0.345c0.152-0.631-0.714-0.774-1.008-0.262
						C174.795,300.229,174.856,300.435,175.011,300.549z"/>
				</g>
				<g>
					<path class="st0" d="M182.595,290.295c0.276,0.202,0.846,0.11,0.956-0.345c0.153-0.632-0.714-0.774-1.007-0.264
						C182.379,289.975,182.441,290.181,182.595,290.295z"/>
				</g>
				<g>
					<path class="st0" d="M174.158,292.031c0.276,0.204,0.845,0.112,0.957-0.344c0.152-0.631-0.715-0.775-1.007-0.263
						C173.944,291.711,174.004,291.917,174.158,292.031z"/>
				</g>
				<g>
					<path class="st0" d="M197.503,391.135c0.276,0.203,0.845,0.11,0.956-0.344c0.152-0.631-0.714-0.775-1.007-0.262
						C197.287,390.815,197.349,391.02,197.503,391.135z"/>
				</g>
				<g>
					<path class="st0" d="M201.62,381.35c0.278,0.203,0.847,0.111,0.959-0.346c0.15-0.631-0.715-0.774-1.009-0.261
						C201.404,381.03,201.465,381.236,201.62,381.35z"/>
				</g>
				<g>
					<path class="st0" d="M142.019,322.032c0.276,0.203,0.846,0.111,0.955-0.345c0.152-0.631-0.712-0.773-1.006-0.263
						C141.801,321.712,141.864,321.918,142.019,322.032z"/>
				</g>
				<g>
					<path class="st0" d="M149.532,310.029c0.276,0.203,0.845,0.11,0.955-0.344c0.153-0.633-0.714-0.775-1.007-0.263
						C149.316,309.709,149.378,309.915,149.532,310.029z"/>
				</g>
				<g>
					<path class="st0" d="M153.218,271.575c0.274,0.202,0.843,0.11,0.954-0.344c0.153-0.631-0.713-0.774-1.005-0.263
						C153.001,271.255,153.064,271.46,153.218,271.575z"/>
				</g>
				<g>
					<path class="st0" d="M264.273,232.125c0.276,0.204,0.844,0.11,0.955-0.344c0.153-0.632-0.713-0.775-1.006-0.263
						C264.057,231.804,264.119,232.012,264.273,232.125z"/>
				</g>
				<g>
					<path class="st0" d="M195.8,263.145c0.276,0.203,0.846,0.11,0.956-0.345c0.153-0.631-0.713-0.775-1.007-0.262
						C195.586,262.824,195.646,263.031,195.8,263.145z"/>
				</g>
				<g>
					<path class="st0" d="M204.006,266.051c0.275,0.203,0.844,0.112,0.954-0.345c0.153-0.631-0.713-0.774-1.006-0.262
						C203.788,265.73,203.851,265.936,204.006,266.051z"/>
				</g>
				<g>
					<path class="st0" d="M211.196,390.16c0.276,0.203,0.846,0.11,0.956-0.346c0.152-0.632-0.714-0.773-1.007-0.262
						C210.98,389.84,211.042,390.047,211.196,390.16z"/>
				</g>
				<g>
					<path class="st0" d="M173.352,362.1c0.277,0.203,0.845,0.111,0.957-0.345c0.152-0.631-0.714-0.774-1.007-0.262
						C173.137,361.78,173.198,361.988,173.352,362.1z"/>
				</g>
				<g>
					<path class="st0" d="M156.418,390.848c0.276,0.204,0.845,0.11,0.956-0.344c0.152-0.632-0.714-0.775-1.007-0.263
						C156.202,390.528,156.263,390.735,156.418,390.848z"/>
				</g>
				<g>
					<path class="st0" d="M244.715,440.617c0.276,0.203,0.846,0.11,0.955-0.345c0.153-0.631-0.713-0.774-1.006-0.262
						C244.499,440.297,244.561,440.503,244.715,440.617z"/>
				</g>
				<g>
					<path class="st0" d="M259.776,437.218c0.274,0.202,0.845,0.11,0.955-0.346c0.153-0.632-0.713-0.775-1.008-0.263
						C259.56,436.897,259.622,437.103,259.776,437.218z"/>
				</g>
				<g>
					<path class="st0" d="M242.743,450.441c0.275,0.202,0.844,0.11,0.954-0.345c0.153-0.632-0.713-0.775-1.007-0.263
						C242.526,450.121,242.586,450.326,242.743,450.441z"/>
				</g>
				<g>
					<path class="st0" d="M231.826,431.58c0.276,0.204,0.845,0.111,0.956-0.344c0.152-0.631-0.713-0.774-1.007-0.263
						C231.61,431.262,231.671,431.468,231.826,431.58z"/>
				</g>
				<g>
					<path class="st0" d="M327.54,313.516c0.276,0.203,0.846,0.112,0.957-0.345c0.152-0.631-0.714-0.775-1.006-0.262
						C327.325,313.196,327.386,313.402,327.54,313.516z"/>
				</g>
				<g>
					<path class="st0" d="M328.142,347.08c0.276,0.204,0.845,0.112,0.956-0.345c0.152-0.631-0.714-0.774-1.007-0.262
						C327.925,346.76,327.988,346.966,328.142,347.08z"/>
				</g>
				<g>
					<path class="st0" d="M104.334,403.245c0.276,0.204,0.846,0.111,0.955-0.345c0.152-0.631-0.713-0.772-1.006-0.262
						C104.117,402.925,104.18,403.131,104.334,403.245z"/>
				</g>
				<g>
					<path class="st0" d="M96.672,399.118c0.276,0.203,0.845,0.111,0.955-0.344c0.152-0.632-0.712-0.774-1.006-0.263
						C96.455,398.798,96.518,399.004,96.672,399.118z"/>
				</g>
				<g>
					<path class="st0" d="M86.872,386.304c0.277,0.202,0.845,0.11,0.957-0.344c0.152-0.632-0.714-0.775-1.007-0.263
						C86.657,385.984,86.718,386.19,86.872,386.304z"/>
				</g>
				<g>
					<path class="st0" d="M101.202,387.253c0.276,0.205,0.845,0.111,0.956-0.344c0.153-0.631-0.713-0.774-1.007-0.263
						C100.987,386.932,101.046,387.14,101.202,387.253z"/>
				</g>
				<g>
					<path class="st0" d="M100.564,395.841c0.275,0.202,0.845,0.11,0.955-0.345c0.153-0.632-0.715-0.775-1.007-0.263
						C100.347,395.52,100.409,395.726,100.564,395.841z"/>
				</g>
				<g>
					<path class="st0" d="M150.718,261.957c0.276,0.205,0.845,0.111,0.955-0.343c0.153-0.632-0.714-0.775-1.006-0.263
						C150.5,261.638,150.563,261.844,150.718,261.957z"/>
				</g>
				<g>
					<path class="st0" d="M98.783,259.526c0.276,0.203,0.846,0.111,0.955-0.345c0.153-0.632-0.713-0.774-1.006-0.262
						C98.568,259.205,98.629,259.413,98.783,259.526z"/>
				</g>
				<g>
					<path class="st0" d="M97.143,271.065c0.276,0.204,0.845,0.112,0.955-0.345c0.152-0.633-0.713-0.775-1.006-0.262
						C96.926,270.744,96.987,270.951,97.143,271.065z"/>
				</g>
				<g>
					<path class="st0" d="M90.223,271.688c0.276,0.202,0.845,0.111,0.957-0.345c0.151-0.633-0.714-0.774-1.008-0.263
						C90.006,271.366,90.069,271.574,90.223,271.688z"/>
				</g>
				<g>
					<path class="st0" d="M79.759,301.222c0.277,0.202,0.846,0.11,0.956-0.345c0.152-0.632-0.712-0.775-1.006-0.262
						C79.542,300.9,79.604,301.107,79.759,301.222z"/>
				</g>
				<g>
					<path class="st0" d="M108.943,249.718c0.277,0.203,0.847,0.11,0.957-0.344c0.152-0.632-0.714-0.775-1.006-0.263
						C108.727,249.398,108.789,249.605,108.943,249.718z"/>
				</g>
				<g>
					<path class="st0" d="M219.916,436.378c0.276,0.204,0.845,0.111,0.955-0.344c0.153-0.632-0.714-0.774-1.006-0.263
						C219.699,436.058,219.761,436.264,219.916,436.378z"/>
				</g>
				<g>
					<path class="st0" d="M142.695,425.325c0.275,0.203,0.845,0.111,0.955-0.344c0.153-0.631-0.713-0.775-1.007-0.263
						C142.478,425.005,142.54,425.212,142.695,425.325z"/>
				</g>
				<g>
					<path class="st0" d="M90.511,372.398c0.275,0.203,0.845,0.11,0.955-0.346c0.152-0.632-0.714-0.774-1.006-0.262
						C90.294,372.078,90.357,372.284,90.511,372.398z"/>
				</g>
				<g>
					<path class="st0" d="M116.384,248.488c0.275,0.203,0.844,0.11,0.954-0.345c0.153-0.632-0.714-0.774-1.006-0.264
						C116.166,248.167,116.229,248.373,116.384,248.488z"/>
				</g>
				<g>
					<path class="st0" d="M189.494,211.386c0.276,0.204,0.845,0.111,0.956-0.346c0.153-0.63-0.713-0.774-1.007-0.262
						C189.278,211.066,189.34,211.272,189.494,211.386z"/>
				</g>
				<g>
					<path class="st0" d="M144.208,303.322c0.276,0.204,0.846,0.112,0.955-0.344c0.154-0.631-0.712-0.773-1.006-0.262
						C143.994,303.003,144.054,303.209,144.208,303.322z"/>
				</g>
				<g>
					<path class="st0" d="M312.527,288.751c0.275,0.203,0.843,0.111,0.955-0.345c0.152-0.632-0.714-0.775-1.008-0.263
						C312.311,288.43,312.372,288.637,312.527,288.751z"/>
				</g>
				<g>
					<path class="st0" d="M256.928,222.774c0.274,0.201,0.845,0.111,0.955-0.346c0.152-0.631-0.715-0.773-1.007-0.262
						C256.712,222.452,256.774,222.66,256.928,222.774z"/>
				</g>
				<g>
					<path class="st0" d="M229.054,372.773c0.276,0.202,0.845,0.11,0.955-0.345c0.154-0.632-0.713-0.775-1.006-0.261
						C228.837,372.454,228.899,372.659,229.054,372.773z"/>
				</g>
				<g>
					<path class="st0" d="M106.842,305.181c0,0,0.376-0.35,1.055-0.93c0.172-0.144,0.359-0.303,0.565-0.478
						c0.181-0.177,0.375-0.37,0.583-0.575c0.402-0.426,0.874-0.821,1.354-1.383c0.478-0.545,1.024-1.095,1.536-1.751
						c0.262-0.32,0.529-0.646,0.804-0.981c0.26-0.349,0.526-0.705,0.797-1.067c0.567-0.699,1.038-1.522,1.606-2.283
						c0.515-0.807,1.054-1.609,1.54-2.458c0.518-0.826,1.011-1.67,1.473-2.52c0.467-0.849,0.926-1.686,1.373-2.495
						c0.862-1.655,1.669-3.2,2.36-4.525c0.688-1.337,1.289-2.454,1.72-3.233c0.437-0.782,0.703-1.222,0.703-1.222
						c0.236-0.387,0.738-0.51,1.125-0.276c0.301,0.185,0.441,0.537,0.377,0.864c0,0-0.1,0.503-0.305,1.371
						c-0.213,0.868-0.527,2.108-0.992,3.578c-0.453,1.472-1.071,3.169-1.831,4.956c-0.408,0.88-0.786,1.814-1.273,2.718
						c-0.467,0.912-0.973,1.827-1.506,2.728c-0.528,0.903-1.148,1.761-1.725,2.618c-0.622,0.836-1.233,1.651-1.909,2.388
						c-0.331,0.37-0.645,0.743-0.973,1.091c-0.351,0.333-0.693,0.658-1.024,0.973c-0.637,0.653-1.348,1.172-1.975,1.661
						c-0.6,0.51-1.294,0.889-1.844,1.243c-0.282,0.168-0.543,0.351-0.789,0.472c-0.245,0.113-0.468,0.217-0.671,0.31
						c-0.812,0.373-1.288,0.565-1.288,0.565c-0.419,0.172-0.898-0.03-1.068-0.447C106.507,305.769,106.599,305.406,106.842,305.181z
						"/>
				</g>
				<g>
					<path class="st0" d="M136.408,234.333c0,0,0.506-0.369,1.42-0.96c0.451-0.294,0.995-0.654,1.621-1.064
						c0.623-0.402,1.331-0.874,2.108-1.356c0.773-0.499,1.613-1.033,2.506-1.582c0.88-0.578,1.832-1.142,2.803-1.745
						c1.935-1.225,4.022-2.484,6.107-3.743c1.035-0.639,2.071-1.278,3.089-1.909c1.017-0.63,2.03-1.234,2.98-1.861
						c0.965-0.605,1.898-1.189,2.765-1.764c0.869-0.572,1.693-1.114,2.45-1.612c0.743-0.519,1.424-0.994,2.029-1.413
						c0.571-0.449,1.109-0.812,1.525-1.135c0.805-0.661,1.29-1.038,1.29-1.038l0.044-0.035c0.265-0.205,0.645-0.156,0.848,0.108
						c0.163,0.211,0.166,0.495,0.025,0.705c0,0-0.351,0.527-1.011,1.446c-0.351,0.431-0.779,0.954-1.296,1.536
						c-0.531,0.561-1.126,1.197-1.812,1.854c-0.704,0.622-1.427,1.365-2.272,2.03c-0.83,0.686-1.701,1.421-2.645,2.116
						c-0.934,0.714-1.924,1.403-2.924,2.12c-1.019,0.683-2.063,1.365-3.114,2.032c-2.1,1.337-4.26,2.58-6.341,3.634
						c-2.066,1.081-4.049,1.988-5.782,2.697c-1.72,0.719-3.221,1.239-4.26,1.562c-1.04,0.319-1.648,0.47-1.648,0.47
						c-0.329,0.081-0.661-0.118-0.744-0.448C136.111,234.728,136.212,234.476,136.408,234.333z"/>
				</g>
				<g>
					<path class="st0" d="M293.324,237.588c0,0,0.063,0.077,0.181,0.224c0.115,0.14,0.28,0.387,0.495,0.623
						c0.216,0.21,0.478,0.467,0.781,0.762c0.331,0.304,0.686,0.638,1.109,1.001c0.402,0.369,0.879,0.734,1.364,1.14
						c0.475,0.409,1.028,0.807,1.547,1.251c0.564,0.41,1.097,0.876,1.691,1.305c0.573,0.445,1.161,0.893,1.754,1.333
						c0.592,0.444,1.184,0.885,1.766,1.321c0.587,0.428,1.165,0.852,1.724,1.259c0.565,0.395,1.096,0.817,1.622,1.17
						c0.519,0.372,1.007,0.725,1.461,1.05c0.461,0.319,0.882,0.611,1.257,0.872c0.381,0.248,0.707,0.502,0.988,0.667
						c0.56,0.355,0.884,0.6,0.884,0.6l0.036,0.026c0.216,0.161,0.259,0.47,0.096,0.687c-0.094,0.125-0.237,0.191-0.381,0.195
						c0,0-0.408,0.008-1.13-0.049c-0.367-0.016-0.791-0.088-1.281-0.189c-0.245-0.049-0.506-0.101-0.783-0.156
						c-0.265-0.08-0.543-0.165-0.834-0.25c-0.29-0.092-0.602-0.177-0.91-0.286c-0.305-0.119-0.617-0.243-0.94-0.369
						c-0.651-0.253-1.293-0.587-1.969-0.924c-0.664-0.353-1.331-0.749-1.998-1.169c-0.65-0.44-1.321-0.879-1.945-1.379
						c-2.54-1.938-4.744-4.326-6.007-6.465c-0.342-0.502-0.577-1.049-0.798-1.501c-0.229-0.448-0.364-0.963-0.485-1.306
						c-0.106-0.355-0.097-0.619-0.136-0.806c-0.018-0.187-0.028-0.286-0.028-0.286c-0.03-0.269,0.165-0.511,0.435-0.539
						c0.171-0.018,0.33,0.055,0.432,0.178L293.324,237.588z"/>
				</g>
				<g>
					<path class="st0" d="M325.33,259.856c-0.479,4.51-0.74,13.868-0.173,17.9c0.569,4.029,2.144,4.181,2.344-1.208
						c0.198-5.389,1.476-8.765,1.476-8.765"/>
				</g>
				<g>
					<path class="st2" d="M216.52,353.603c-3.176-1.568-6.878-2.739-10.422-3.608c-5.179-1.27-9.538-6.542-10.912-12.169
						l-1.77-1.443c0.962,5.693,1.476,11.646,1.582,17.408c0.058,3.102-0.261,7.392,1.829,10.043c1.955,2.48,4.141,2.157,5.436,5.525
						c0.866,2.25,1.025,5.401,3.163,6.991c5.631,4.186,5.279-7.04,6.103-9.92c0.795-2.777,3.115-3.991,4.414-6.257
						C217.381,357.668,216.012,356.131,216.52,353.603z"/>
				</g>
				<g>
					<path class="st0" d="M172.245,401.286c0,0,0.455-0.157,1.256-0.382c0.393-0.118,0.947-0.188,1.559-0.282
						c0.636-0.114,1.281-0.128,2.029-0.174c0.742-0.047,1.528-0.016,2.371,0.006c0.829,0.058,1.717,0.097,2.613,0.22
						c1.804,0.219,3.696,0.588,5.558,1.056c1.863,0.469,3.689,1.059,5.37,1.691c0.85,0.293,1.645,0.653,2.403,0.977
						c0.761,0.307,1.458,0.681,2.104,0.992c1.29,0.654,2.325,1.292,3.033,1.762c0.705,0.496,1.087,0.797,1.087,0.797
						c0.298,0.237,0.348,0.672,0.11,0.97c-0.176,0.221-0.462,0.306-0.718,0.236L201,409.15c0,0-1.788-0.489-4.47-1.225
						c-1.34-0.353-2.904-0.765-4.577-1.207c-0.831-0.238-1.704-0.429-2.58-0.665c-0.877-0.22-1.768-0.446-2.658-0.671
						c-1.783-0.44-3.562-0.87-5.232-1.242c-0.834-0.184-1.641-0.363-2.406-0.534c-0.763-0.12-1.493-0.295-2.159-0.404
						c-0.66-0.087-1.304-0.239-1.812-0.288c-0.532-0.052-0.977-0.164-1.4-0.179c-0.833-0.046-1.31-0.105-1.31-0.105
						c-0.383-0.044-0.657-0.387-0.614-0.769C171.812,401.591,172.003,401.372,172.245,401.286z"/>
				</g>
				<g>
					<path class="st1" d="M316.008,354.9c-3.703,2.243-7.843,5.739-9.464,9.855c-0.614,1.563-1.037,3.272-0.818,4.922
						c2.505-4.901,4.261-6.558,8.839-9.597c2.241-1.487,6.466-2.586,9.158-2.62c2.342-0.032,6.34,3.831,6.243,1.234
						C329.612,349.118,317.76,353.837,316.008,354.9z"/>
				</g>
				<g>
					<path class="st0" d="M205.207,201.353c0,0,0.187-0.05,0.514-0.111c0.311-0.054,0.758-0.13,1.292-0.22
						c0.516-0.071,1.12-0.154,1.769-0.243c0.638-0.076,1.306-0.167,1.962-0.253c0.33-0.048,0.654-0.085,0.97-0.142
						c0.312-0.045,0.622-0.09,0.92-0.133c0.295-0.039,0.58-0.077,0.85-0.113c0.281-0.021,0.52-0.072,0.77-0.089
						c0.473-0.063,0.886-0.117,1.196-0.165c0.143-0.034,0.273-0.053,0.364-0.066c0.091-0.014,0.14-0.022,0.14-0.022l0.069-0.013
						c0.196-0.032,0.381,0.101,0.414,0.298c0.01,0.066,0.002,0.134-0.023,0.193c0,0-0.02,0.05-0.057,0.143
						c-0.036,0.095-0.096,0.235-0.192,0.403c-0.192,0.327-0.538,0.752-1.04,1.147c-0.251,0.177-0.538,0.382-0.851,0.532
						c-0.315,0.164-0.655,0.298-1.01,0.417c-0.714,0.226-1.498,0.343-2.267,0.379c-0.769,0.048-1.534,0.005-2.241-0.091
						c-0.707-0.081-1.353-0.263-1.899-0.423c-1.11-0.348-1.748-0.772-1.748-0.772l-0.01-0.005c-0.166-0.111-0.21-0.335-0.1-0.502
						C205.049,201.426,205.124,201.376,205.207,201.353z"/>
				</g>
				<g>
					<path class="st2" d="M221.134,201.58c-2.331-1.651-5.009-0.08-8.39,0.617c-2.746,0.567-5.771-0.341-7.586-0.515
						c-2.089-0.201-12.813-2.727-12.759,0.05c0.086,4.339,9.995,2.23,9.354,4.502c-0.308,1.086-5.014,1.427-5.115,2.479
						c-0.101,1.049,14.709,1.409,15.121-0.673c0.307-1.55-3.711-0.173-3.796-1.968c-0.085-1.796,6.385-1.221,9.931-2.32
						C219.469,203.264,222.071,202.242,221.134,201.58z"/>
				</g>
				<g>
					<path class="st0" d="M306.422,410.725c0.205-1.863-5.392-0.432-9.386,0.453c-4.256,0.945-8.293,3.202-11.985,5.474
						c-6.999,4.31-11.644,7.733-16.882,13.851c-5.649,6.596-16.203,9.583-23.868,13.286c-3.597,1.739-7.244,4.225-11.103,5.213
						c-3.334,0.855-8.624-0.376-10.642,3.636c-2.764,5.498,13.767,2.752,17.344,1.652c7.454-2.294,14.794-5.651,21.653-9.169
						c6.726-3.449,13.254-4.618,19.136-9.295c3.269-2.598,7.563-6.327,10.633-9.157c2.762-2.547,4.96-6.22,7.906-8.576
						C300.889,416.767,306.258,412.2,306.422,410.725z"/>
				</g>
				<g>
					<path class="st0" d="M215.446,452.868c-0.389-3.005-13.292-3.094-16.238-3.229c-6.464-0.296-13.005,0.109-19.496-0.163
						c-2.925-0.121-13.532-4.168-13.927-0.134c10.311,3.484,22.735,12.4,34.256,9.293l1.462-1.979
						C204.137,457.061,215.933,456.613,215.446,452.868z"/>
				</g>
				<g>
					<path class="st0" d="M335.428,333.77c-0.209-4.802,1.075-7.291,1.125-11.066c0.033-2.569,0.875-13.538-4.776-10.424
						c-3.788,2.089-0.398,9.639-1.045,12.983c-0.906,4.688-1.733,10.28-3.923,14.467c-1.726,3.302-6.405,5.073-5.949,9.546
						c2.378,0.35,5.368-2.711,7.282-2.195c1.839,0.496,4.391,6.502,5.133,3.878C334.679,346,335.677,339.477,335.428,333.77z"/>
				</g>
			</g>
			<g>
				<path class="st0" d="M222.961,203.962c-0.12,0-0.241-0.009-0.363-0.028c-1.284-0.201-2.165-1.407-1.965-2.691
					c0.163-1.038,16.277-104.175,23.8-141.497c0.256-1.275,1.498-2.098,2.774-1.844c1.277,0.257,2.103,1.499,1.846,2.776
					c-7.502,37.222-23.601,140.256-23.762,141.292C225.109,203.133,224.106,203.964,222.961,203.962z"/>
			</g>
			<g>
				<g>
					<g>
						<path class="st1" d="M270.317,119.007c0.26,0.084,0.392,0.128,0.657,0.212c-0.343,1.233-0.519,1.845-0.888,3.052
							c-0.264-0.085-0.396-0.13-0.658-0.212C269.796,120.855,269.974,120.241,270.317,119.007z"/>
						<path class="st1" d="M272.529,119.759c0.528,0.171,0.794,0.258,1.328,0.43c0.806,0.257,1.281,0.955,0.988,1.962
							c-0.255,0.882-0.923,1.384-1.873,1.08c-0.536-0.172-0.801-0.257-1.329-0.425C272.011,121.602,272.186,120.991,272.529,119.759
							z M272.487,122.464c0.241,0.076,0.362,0.115,0.606,0.193c0.396,0.127,0.85,0.013,1.046-0.66
							c0.179-0.614,0.063-1.082-0.61-1.297c-0.194-0.062-0.291-0.093-0.485-0.156C272.825,121.319,272.716,121.703,272.487,122.464z
							"/>
						<path class="st1" d="M276.631,123.074c-0.076,0.259-0.114,0.389-0.191,0.646c0.718,0.221,1.077,0.327,1.799,0.541
							c-0.065,0.226-0.1,0.338-0.166,0.562c-0.996-0.295-1.491-0.449-2.476-0.755c0.367-1.208,0.542-1.819,0.885-3.052
							c0.925,0.287,1.391,0.428,2.325,0.704c-0.063,0.227-0.094,0.339-0.161,0.566c-0.66-0.195-0.989-0.293-1.647-0.495
							c-0.079,0.276-0.118,0.414-0.197,0.689c0.423,0.121,0.635,0.18,1.059,0.3c-0.068,0.238-0.104,0.356-0.174,0.594
							C277.266,123.253,277.052,123.193,276.631,123.074z"/>
						<path class="st1" d="M279.146,125.133c0.945-1.013,1.413-1.529,2.337-2.577c0.272,0.066,0.408,0.098,0.68,0.163
							c0.248,1.366,0.364,2.042,0.588,3.384c-0.291-0.081-0.435-0.119-0.726-0.201c-0.023-0.202-0.033-0.304-0.06-0.507
							c-0.648-0.177-0.974-0.267-1.622-0.457c-0.158,0.165-0.238,0.246-0.395,0.41C279.628,125.263,279.466,125.219,279.146,125.133
							z M281.636,123.378c-0.368,0.453-0.551,0.68-0.924,1.127c0.474,0.125,0.709,0.186,1.182,0.306
							C281.794,124.239,281.743,123.952,281.636,123.378z"/>
						<path class="st1" d="M284.61,125.612c-0.046,0.419,0.314,0.558,0.573,0.615c0.245,0.054,0.639,0.064,0.731-0.251
							c0.191-0.657-1.827-0.65-1.502-1.803c0.178-0.634,0.878-0.794,1.454-0.672c0.55,0.117,1.006,0.411,1.036,0.913
							c-0.276,0.048-0.413,0.072-0.689,0.117c0.016-0.378-0.309-0.46-0.525-0.506c-0.223-0.049-0.506-0.011-0.58,0.245
							c-0.065,0.229,0.076,0.323,0.818,0.675c0.221,0.104,0.887,0.388,0.686,1.088c-0.164,0.567-0.741,0.903-1.612,0.714
							c-0.571-0.127-1.036-0.467-1.083-0.987C284.194,125.7,284.332,125.672,284.61,125.612z"/>
					</g>
					<g>
						<path class="st1" d="M305.06,107.69c-1.474,0.098-2.201,0.12-3.646,0.125c-4.424,4.136-6.367,6.188-10.549,9.863
							c0.903-4.162,1.328-6.259,2.347-10.343c-1.209-0.17-1.827-0.278-3.075-0.527c-1.486,5.931-2.033,9.041-3.416,15.045
							c1.24,0.264,1.855,0.381,3.064,0.57c0.015-0.059,0.021-0.088,0.034-0.148c2.451-2.129,3.542-3.293,5.948-5.628
							c0.827,2.606,1.245,3.91,2.095,6.496c1.399,0.05,2.118,0.065,3.575,0.049c-1.29-3.585-1.919-5.407-3.114-9.009
							C300.949,111.678,302.313,110.368,305.06,107.69z"/>
						<path class="st1" d="M316.513,105.805c-3.045,3.964-4.483,6.038-7.355,9.942c-1.319-3.187-1.976-4.783-3.156-7.891
							c-1.029,1.064-1.539,1.594-2.555,2.636c1.23,3.352,1.9,5.065,3.257,8.462c-1.288,1.726-1.927,2.571-3.212,4.21
							c1.505-0.061,2.267-0.115,3.798-0.283c4.512-6.053,8.802-12.261,13.403-18.247
							C318.98,105.157,318.146,105.392,316.513,105.805z"/>
						<path class="st1" d="M268.173,112.978c0,0-2.353-0.612-3.773-1.092c-2.581-0.876-3.846-3.597-3.212-7.082
							c0.63-3.046,0.937-4.581,1.584-7.548c-1.055-0.47-1.572-0.701-2.599-1.149c-0.709,3.241-1.052,4.922-1.751,8.245
							c-0.878,4.67,1.202,9.459,5.638,10.82c3.609,1.11,6.267,1.841,6.267,1.841c1.395-6.021,1.925-9.227,3.323-15.215
							c-1.157-0.444-1.722-0.667-2.807-1.1C270.84,100.697,268.306,112.354,268.173,112.978z"/>
						<path class="st1" d="M257.48,109.605c-3.117-1.023-4.636-1.519-7.676-2.858c1.275-5.227,1.894-8.096,3.158-13.426
							c-1.016-0.388-1.529-0.581-2.573-0.962c-1.582,6.533-2.365,10.16-3.938,16.192c5.157,2.927,7.784,3.493,13.287,5.126
							C259.005,113.071,257.805,111.151,257.48,109.605z"/>
						<path class="st1" d="M273.073,109.722c-0.965,5.687,3.463,9.681,6.543,10.742c4.183,1.439,6.228,0.096,6.228,0.096
							c0.329-1.498,0.49-2.252,0.811-3.757c0,0-2.922,1.982-6.208,0.731c-3.467-1.321-4.57-4.364-4.186-6.613
							c0.557-3.284,3.779-4.671,7.251-3.244c2.621,1.075,4.391,3.522,4.391,3.522c0.314-1.4,0.475-2.096,0.808-3.481
							c0,0-1.057-1.616-4.216-2.896C278.467,102.381,273.955,104.525,273.073,109.722z"/>
					</g>
				</g>
			</g>
			<g>
				<path class="st0" d="M215.497,117.595c-0.071-0.299-0.13-0.599-0.172-0.903c-0.489-3.609,0.109-6.803-2.561-9.58
					c-2.659-2.764-6.444-4.061-10.106-4.067c-3.897-0.006-7.859,1.439-10.54,4.533c-1.158,1.334-2.058,2.714-2.298,4.536
					c-0.26,1.981,0.473,3.956,0.01,5.93c-0.414,1.764-1.4,3.071-1.401,5.017c-0.01,6.118,6.341,11.088,14.185,11.1
					c7.842,0.01,14.208-4.94,14.218-11.058C216.833,121.188,215.935,119.437,215.497,117.595z"/>
			</g>
			<path class="st0" d="M201.63,138.266c-11.437-0.305-20.492-9.857-20.186-21.294c0.305-11.436,9.857-20.49,21.294-20.185
				c11.436,0.305,20.491,9.858,20.186,21.294C222.619,129.515,213.066,138.571,201.63,138.266z M202.698,98.249
				c-10.629-0.283-19.508,8.133-19.792,18.762c-0.283,10.631,8.134,19.507,18.762,19.791c10.63,0.283,19.508-8.132,19.791-18.761
				C221.744,107.41,213.328,98.533,202.698,98.249z"/>
			<g>
				<path class="st0" d="M216.04,147.38c-3.761-6.134-3.24-17.919-3.24-17.919l-19.106,1.621
					c-0.004,2.828-1.276,12.962-2.537,16.261c-1.263,3.298-3.786,10.601-0.778,16.498s10.799,7.323,14.818,7.093
					c4.023-0.23,9.808-3.051,11.824-6.582C219.036,160.82,219.8,153.515,216.04,147.38z"/>
			</g>
			<g>
				<path class="st0" d="M196.612,138.11c-20.514,7.812-0.503,12.305-4.248,18.324c-2.675,4.3-16.941-8.789-8.201-19.001
					C191.297,128.864,206.228,129.043,196.612,138.11z"/>
			</g>
			<g>
				<path class="st0" d="M212.695,130.875c2.357,0.24,19.839,8.544,21.437,9.461c3.297,1.89,2.819,6.838-3.308,5.181
					c-6.126-1.661-14.135-5.914-17.672-4.27"/>
			</g>
			<g>
				<path class="st0" d="M190.38,162.664c-1.419,3.298-1.01,7.449-0.849,10.605c0.137,2.651,3.71,5.011,4.468,7.55
					c0.522,1.75-0.373,5.406-1.425,6.834c-2.596,3.531-7.708,5.882-7.084,9.182c0.338,1.795,2.974,1.112,5.677-0.505
					c2.273-1.358,5.3-2.665,6.351-4.427c2.992-5.025,3.414-6.774,4.257-10.129c0.711-2.829-2.123-2.727-1.76-5.07
					c0.665-4.289,2.721-7.068,2.721-7.068"/>
			</g>
			<g>
				<path class="st0" d="M217.656,162.705c1.409,3.301,0.987,7.454,0.817,10.607c-0.144,2.651-3.726,5-4.489,7.537
					c-0.529,1.749,0.358,5.407,1.401,6.837c2.588,3.539,7.691,5.904,7.058,9.203c-0.345,1.793-2.977,1.103-5.677-0.521
					c-2.268-1.364-5.29-2.681-6.337-4.447c-2.977-5.033-3.394-6.782-4.228-10.142c-0.703-2.829,2.131-2.722,1.775-5.066
					c-0.651-4.29-2.701-7.075-2.701-7.075"/>
			</g>
			<g>
				<path class="st0" d="M200.005,104.221c-0.917-16.502-6.561-25.94-11.747-25.24c-4.679,0.631-4.95,0.935-6.136,4.47
					c-1.184,3.533-1.667,11.548-3.559,15.315c-1.891,3.77-1.188,7.071,1.881,4.011c3.067-3.059,7.087-10.832,7.564-13.661
					c5.173,8.023,6.574,16.982,6.573,17.689"/>
			</g>
			<g>
				<path class="st0" d="M205.895,106.822c0,0-0.926-12.259,2.15-19.798c3.076-7.538,10.553-15.248,11.809-15.067
					c1.615,0.232,2.121,3.1,0.933,6.129c-1.237,3.157-4.227,6.535-5.435,9.421c-2.364,5.653-4.739,17.908-5.454,22.149"/>
			</g>
		</g>
	</g>
</g>
</svg>
