<?xml version="1.0" encoding="utf-8"?>
<!-- Generator: Adobe Illustrator 17.0.0, SVG Export Plug-In . SVG Version: 6.00 Build 0)  -->
<!DOCTYPE svg PUBLIC "-//W3C//DTD SVG 1.1//EN" "http://www.w3.org/Graphics/SVG/1.1/DTD/svg11.dtd">
<svg version="1.1" id="Layer_1" xmlns="http://www.w3.org/2000/svg" xmlns:xlink="http://www.w3.org/1999/xlink" x="0px" y="0px"
	 width="852px" height="176px" viewBox="-0.907 -0.525 852 176" enable-background="new -0.907 -0.525 852 176"
	 xml:space="preserve">
<g>
	<path fill="#BFBDC3" d="M829.067,97.273c-0.627,0.396-0.866,0.252-1.588-0.388c-0.723-0.642-0.812-1.503-1.275-1.444
		c-0.467,0.061-1.044,1.081-1.351,1.642c-0.306,0.56-0.815,1.385-1.582,1.67c-0.768,0.289-1.255-0.38-1.316-0.847
		c-0.059-0.465-0.021-0.895,0.419-1.522c0.439-0.622,0.413-1.186,0.523-1.983c0.111-0.791,0.291-1.788-0.305-1.996
		c-0.595-0.203-1.913-0.887-1.866-1.982c0.048-1.094,1.515-1.473,2.244-1.498c0.732-0.023,1.124,0.447,1.167-0.314
		c0.043-0.762-0.062-2.854,0.976-3.438c1.037-0.581,1.79,0.122,2.043,1.157c0.252,1.028,0.176,1.729,0.627,2.659
		c0.453,0.939,0.53,0.077,1.56,0.157c1.026,0.08,1.815,0.691,1.815,0.691s1.912-1.502,2.722,0.002
		c0.81,1.502-1.156,2.041-2.023,2.457c-0.87,0.421-2.438,1.098-2.609,1.428C829.078,94.053,830.139,96.589,829.067,97.273z"/>
	<path fill="#EDF1FA" d="M809.275,50.584c2-14-7.243-8.172-25.069-15.512c-21.816-8.983-47.463,3.096-70.2-0.796
		c-21.63-3.702-42.767-7.276-65.842-7.906c-46.746-1.279-92.521-3.429-138.481-7.069c4.454-5.179,17.699-5.055,25.279-5.155
		c11.743-0.156,28.102,1.662,13.814-7.14c-11.027-6.794-36.71-5.609-50.581-5.971c-33.971-0.886-74.304-3.996-103.714,7.805
		c12.814,5.34,33.237,0.395,46.88,5.873c-32.049,7.12-71.024-0.462-104.357,0.154c-23.787,0.439-82.592-9.378-100.209,4.864
		c4.714,2.774,11.299,4.503,15.097,7.746c-37.337,8.457-96.261-6.028-127.566,18c2.791,2.072,4.827,7.33,6.555,9.065
		c-19.535,4.483-44.377,0.974-64.564,1.459c-22.309,0.539-42.427,6.528-63.94,10.75c-0.42,14.454,38.039-2.707,27.593,18.323
		C25.211,94.655-4.196,96.49,0.508,109.016c4.479,11.927,33.186,5.89,42.633,5.304c18.162-1.128,36.153-0.662,53.817,3.544
		c-8.67,25.957,55.847,6.242,72.883,5.976c33.585-0.528,70.892,5.967,104.604,1.936c7.957,15.143-16.344,6.468-20.444,14.663
		c-5.895,11.78,22.115,9.383,30.235,9.623c20.653,0.612,65.989-11.945,82.763,0.317c-7.948,4.629-16.478,9.421-25.247,12.135
		c0.525,16.162,66.785,10.666,81.928,11.078c8.17,0.222,40.984,3.048,35.786-6.285c-4.858-8.722,2.475-12.722,9.809-16.055
		c7.333-3.333,39.992,0.96,84.194-1.49c10.341-0.573,56.846,1.766,40.759-10.952c-9.738-7.698-37.859,0.249-41.694-11.592
		c26.152-3.99,55.172-3.643,82.881-4.114c12.515-0.213,81.554,8.109,79.442-8.122c-18.244-8.008-39.621-2.348-56.741-12.436
		c8.358-9.758,31.18-5.228,44.036-4.873c25.657,0.707,51.187-3.292,76.848-2.558c23.477,0.671,50.263,7.072,71.274-6.968
		c-13.414-4.494-82.998-1.563-84.998-13.563S807.275,64.584,809.275,50.584z"/>
	<path fill="#D7DBE3" d="M635.275,97.249c-11.718,6.068-21.548,7.48-34.486,8.671c-13.588,1.251-27.207,2.229-40.701,4
		c-6.189,0.812-12.458,1.826-18.183,4.481c-5.12,2.374-9.144,7.136-14.129,9.351c-6.239,2.771-15.665,1.799-22.503,2.684
		c-4.336,0.562-8.398,0.646-12.68,1.52c-4.193,0.854-5.246,2.373-7.987,3.945c-5.86,3.359-14.181,4.027-22.679,4.018
		c-6.121-0.007-16.675-1.516-19.233,5.183c0.614,0.325,1.163,0.62,1.798,0.934c2.838,9.197-35.158,6.956-40.452,5.101
		c-1.85-4.26-0.3-7.141,3.883-7.717c-10.408-4.154-23.638,1.588-33.865-2.283c2.353-12.135-42.473-6.271-50.116-5.884
		c-14.891,0.753-36.014-3.441-47.333,5.333l-7.333,4.667c10.266,3.233,24.701-0.263,35.333-0.667
		c10.917-0.415,21.636-0.666,32.667-0.666c8.512,0,24.214-0.705,30.682,5.317c11.607,10.81-14.985,11.958-12.581,20.566
		c9.447,3.384,22.408-0.352,32.566,0.116c12.764,0.587,25.586,1.333,38.671,1.333c4.883,0,16.486,1.955,20.008-2.002
		c3.615-4.061-0.363-10.316,4.508-14.194c3.259-2.595,11.308-3.067,15.495-4.322c5.646-1.692,10.517-2.758,16.651-2.814
		c24.685-0.229,48.974-1.687,73.798-1.302c-6.087-3.89-20.005-6.219-16.646-16.181c2.734-8.107,16.925-6.659,23.533-7.333
		c25.347-2.583,81.097-0.496,105.981-3.853c1.147-4.049-28.72-7.631-25.835-10.648c2.394-2.502,5.335-4.637,7.668-6.85
		c6.238-5.915,14.172-6.09,22.779-7.301C663.057,81.299,645.709,91.845,635.275,97.249z"/>
	<path fill="#D7DBE3" d="M203.224,113.584c-39.948-1-18.467-9.769-29.948-13c-8.117-2.285-22.38,1.532-32,2l-16,8
		c-6.619-0.762-22.336,1.741-21.845,9.829c9.659,3.368,26.817,1.666,37.571,1.171c14.38-0.661,28.356-4.339,43.004-5
		c27.447-1.238,55.333,2.452,82.116,3.849c0.013-3.932-2.245-8.116-16.845-8.849C234.675,110.851,207.731,113.697,203.224,113.584z"
		/>
	<path fill="#D7DBE3" d="M798.758,88.435c-9.645-0.462-19.319-1.021-28.85-1.852c-14.219-1.237-28.231-3.85-42.481-4.651
		c-8.087-0.455-16.105-1.321-24.133,0.151c-2.216,0.407-10.024,1.425-11.281,3.301c-2.809,4.192,2.059,7.583,5.93,6.532
		c21.636-6.562,49.218-1.312,71.333,0.034c10.829,0.66,21.448,0.225,32.13,1.297c6.596,0.661,20.136,2.865,25.283-1.297
		C823.248,86.097,805.081,88.738,798.758,88.435z"/>
	<path fill="#081F29" d="M739.308,86.586c-4.626-3.669-19.483-1.609-25.378-1.335c-6.18,0.286-16.377-2.281-21.962,0.615
		c-9.55,4.953,3.787,6.476,7.995,6.722c7.778,0.456,15.547-0.671,23.314-0.671C727.49,91.917,748.199,93.638,739.308,86.586z"/>
	<path fill="#081F29" d="M774.609,87.25l-2-0.667c-4.878,0-9.287,0.363-13.899,0.768c-1.948,7.032,12.027,4.808,16.566,4.566
		C788.277,91.224,782.559,83.01,774.609,87.25z"/>
	<path fill="#081F29" d="M666.509,115.35c-9.253-2.021-18.893-2.743-28.566-2.768c-2.33-0.006-12.782,0.221-6.699,4.715
		c2.214,1.636,11.744,2.619,14.698,2.619l7.333-0.667C656.842,120.121,667.474,120.966,666.509,115.35z"/>
	<path fill="#081F29" d="M614.644,112.932c-6.194-2.197-10.098,5.503-3.368,6.527h0.667
		C617.851,120.229,619.427,114.628,614.644,112.932z"/>
	<path fill="#081F29" d="M417.93,161.235c-7.086,1.034-14.21-0.208-21.315,0.336c-4.024,0.309-14.006,0.346-13.339,3.012
		c1.538,6.149,14.449,7.121,22,6.667c12.677-0.763,22.047-3.055,27.341-3.333c6.6-0.348,8.962-1.636,13.323-6.003
		c2.298-2.301,8.791-6.559,8.569-9.881C441.905,147.612,429.394,159.561,417.93,161.235z"/>
	<path fill="#081F29" d="M554.328,138.799l-16.223,0.999c-3.041,4.603,18.042,5.334,26.5,3.499
		C579.237,140.12,563.952,138.076,554.328,138.799z"/>
</g>
</svg>
