<?xml version="1.0" encoding="utf-8"?>
<!-- Generator: Adobe Illustrator 17.0.0, SVG Export Plug-In . SVG Version: 6.00 Build 0)  -->
<!DOCTYPE svg PUBLIC "-//W3C//DTD SVG 1.1//EN" "http://www.w3.org/Graphics/SVG/1.1/DTD/svg11.dtd">
<svg version="1.1" id="Layer_1" xmlns="http://www.w3.org/2000/svg" xmlns:xlink="http://www.w3.org/1999/xlink" x="0px" y="0px"
	 width="1592.766px" height="253.188px" viewBox="0 0 1592.766 253.188" style="enable-background:new 0 0 1592.766 253.188;"
	 xml:space="preserve">
<style type="text/css">
	.st0{fill:#EEF0F8;}
	.st1{fill:#D6DAE2;}
	.st2{fill:#0B1F28;}
</style>
<g>
	<g>
		<path class="st0" d="M1503.001,99.349c-5.315-12.278,27.993-9.736,27.972-40.953c-0.018-25.661-188.006-13.782-292.005-15.803
			c-72.202-1.402-189.731-1.253-196.678-14.055c-5.506-10.147-5.651-12.704-29.931-22.192c-17.49-6.836-62.654-5.478-81.219-5.899
			c-38.433-0.873-77.027,0.092-115.396,1.95c-69.159,3.35-142.577,0.27-212.008,0.297c-50.543,0.02-115.372-3.445-166.486,18.061
			c-53.818,22.644-155.511,8.693-203.461,24.074C185.84,60.207,147.15,61.398,109.376,62.076
			c-41.747,0.755-65.126,5.74-65.114,23.079c0.011,17.337,15.648,21.17,10.94,41.509c-3.714,16.049-56.557,15.87-55.059,36.263
			c1.321,18.005,90.174,11.65,107.812,13.014c65.999,5.105,178.732,32.403,210.556,34.066
			c98.002,5.127,146.009,16.968,212.698,16.046c38.659-0.536,158.493-8.236,154.877,0.72c-3.617,8.958-43.373-1.247-44.124,14.046
			c-0.75,15.294,123.028,9.824,151.367,10.495c15.289,0.359,73.505,7.235,71.229-8.882c-2.099-14.877-0.813,0.941-7.83-13.338
			c-7.02-14.277,95.592,0.874,178.298-2.719c19.35-0.841,144.068,14.64,135.47-16.468c-3.599-13.02-48.137-2.282-50.102-19.376
			c-1.965-17.095,148.637-4.867,184.48-13.795c40.917-10.192,91.204-6.379,113.987-7.515c50.321-2.509,176.986-2.412,173.726-35.569
			C1590.628,113.727,1508.316,111.628,1503.001,99.349z"/>
		<path class="st0" d="M1274.004,199.063c-17.652,0.001-35.312-1.97-53.003-0.38c-8.524,0.766-27.176,4.521-22.621,14.684
			c4.607,10.276,31.79,5.149,41.062,5.149c21.994,0.002,85.4,5.073,88.559-9.078
			C1331.759,192.593,1286.021,199.061,1274.004,199.063z"/>
		<path class="st0" d="M1098.677,25.633c-18.14-0.878-37.496-4.329-31.327-14.705c5.004-8.415,36.44-10.147,45.418-10.28
			c10.327-0.152,29.566-0.235,38.449,5.192c17.778,10.859-18.108,18.5-26.064,19.441
			C1121.714,25.689,1110.452,26.203,1098.677,25.633z"/>
		<path class="st0" d="M179.926,29.079c-18.083-1.557-55.183,0.352-64.649,5.699c-9.361,5.29,8.693,9.012,24.6,10.145
			c21.397,1.523,42.782-1.155,56.673-5.957C208.23,34.929,194.219,30.31,179.926,29.079z"/>
	</g>
	<path class="st1" d="M1075.85,196.117c-12.888-1.851-27.539,0.078-40.61,0.078c-26.432,0-51.352-2.656-76.496-6.333
		c-27.053-3.956-53.519-5.048-81.001-1.243c-12.747,1.765-26.06,2.958-38.993,4.243c-5.638,0.561-10.407,2.755-16.5,1.833
		c-6.672-1.009-9.802-5.486-16.499-7.201c-23.108-5.917-51.315,2.05-74.996,0.867c-23.475-1.172-50.37-0.997-73.531-5.631
		c-22.18-4.438-41.701-11.279-65.962-7.569c-24.879,3.805-47.297,10.627-70.531,14.999c-46.333,8.722-92.335,0.495-139.458-4.465
		c-27.716-2.918-56.281-6.242-84.074-10.465c-10.677-1.622-20.788-3.827-31.42-4.868c-9.449-0.925-25.617,1.211-33.003-4.169
		c-7.979-5.808-18.858-6.497-28.145-3.82c-28.505,8.215,17.5,20.842,26.651,21.745c25.257,2.489,49.767,9.624,75.029,13.499
		c50.97,7.818,100.748,11.963,152.958,15.082c45.054,2.691,90.552,6.726,136.493,4.489c21.832-1.062,43.499-5.914,65.997-4.495
		c15.734,0.993,45.121,10.71,25.648,28.538c14.374,9.422,54.964,1.46,73.347,1.46c18.13,0,68.901,9.58,82.496-1.5
		c10.325-8.416-3.004-20.495,11.965-25.832c12.204-4.352,26.029-2.667,39.033-2.667c25.635,0,49.605,1.536,74.961,3
		c17.117,0.989,133.186,24.978,136.262-7.243C1095.298,205.006,1086.663,197.67,1075.85,196.117z"/>
	<path class="st1" d="M1505.052,138.032c-20.094,2.525-40.996,3.483-61.604,2.439c-2.087-7.728,2.298-12.123,10.081-12.069
		c-3.492-13.9-89.953,0.345-102.209,5.89c-8.438,3.818-11.006,9.177-20.593,10.906c-10.116,1.823-21.233-0.927-31.498,0
		c-11.516,1.038-45.28,1.502-52.48,8.98c-1.209,1.256-18.188-1.257-21.901,0.587c-16.311,8.102,1.267,10.164,12.64,10.866
		c16.88,1.042,33.125-3.032,49.742-5.513c24.855-3.71,49.322-3.116,74.996-4.387c32.481-1.608,66.04-1.535,99.035-1.535
		c18.741,0,79.959,4.897,92.828-10.171C1569.299,126.216,1512.32,137.118,1505.052,138.032z"/>
	<path class="st1" d="M1270.73,205.194c-12.2,0-40.302-5.137-47.997,4.5l-6,4.5c29.37,5.023,64.155-0.21,94.269-1.727
		C1312.236,200.021,1280.338,205.194,1270.73,205.194z"/>
	<path class="st2" d="M1122.236,211.79c-3.309-1.865-11.082,0.121-14.957-2.029c-6.387-3.546-0.455-6.21-2.97-8.948
		c-10.897-11.86-52.206,2.121-70.534,3.665c-25.436,2.141-48.448,3.932-73.566,6.438c-5.705,0.569-12.084,0.997-17.743,1.982
		c-0.169,1.203-0.21,2.208,0.005,3.415c19.882-0.521,40.904,2.432,61.271,1.985l22.499,1.846c21.99,4.267,56.114,1.425,79.501,0.923
		C1116.245,220.84,1135.396,219.21,1122.236,211.79z"/>
	<path class="st2" d="M892.688,200.1c-6.248-2.565-20.281-2.404-23.862-2.403c-17.916,0-36.199-1.09-54.075,0
		c-4.327,0.264-19.68,0.678-21.14,5.962c-2.158,7.809,13.075,9.265,15.097,12.08c10.83,15.075-20.436,5.382-31.263,9.253
		c1.621,15.967,31.134,12.56,43.306,13.203c20.403,1.079,29.598-0.831,12.229-16.81c-9.083-8.356,29.382-11.301,30.47-11.327
		c7.031-0.168,19.621,3.54,25.952-0.333C897.561,204.733,896.854,201.811,892.688,200.1z"/>
	<path class="st2" d="M739.755,226.196h-12c-7.312,0-22.922-2.881-28.456,1.877c-8.895,7.647,0.231,12.962,8.886,14.701
		c12.901,2.59,26.608,0.411,39.356-1.965C774.605,235.766,761.237,224.793,739.755,226.196z"/>
	<path class="st2" d="M1254.656,208.337c-4.426,12.032,45.003,6.37,44.526,3.015c-1.502-10.564-21.275-7.537-28.021-6.876
		c-3.576,0.344-12.897-1.321-15.419,1.976c-0.008,0.011-0.017,0.021-0.026,0.034C1255.22,207.142,1254.873,207.753,1254.656,208.337
		z"/>
</g>
</svg>
