<?xml version="1.0" encoding="utf-8"?>
<!-- Generator: Adobe Illustrator 16.0.0, SVG Export Plug-In . SVG Version: 6.00 Build 0)  -->
<!DOCTYPE svg PUBLIC "-//W3C//DTD SVG 1.1//EN" "http://www.w3.org/Graphics/SVG/1.1/DTD/svg11.dtd">
<svg version="1.1" id="Layer_1" xmlns="http://www.w3.org/2000/svg" xmlns:xlink="http://www.w3.org/1999/xlink" x="0px" y="0px"
	 width="1592.766px" height="454.898px" viewBox="0 0 1592.766 454.898" enable-background="new 0 0 1592.766 454.898"
	 xml:space="preserve">
<g>
	<path fill="#BEBCC2" d="M1363.108,201.011c-0.947,0.901-1.31,0.579-2.396-0.873c-1.097-1.46-1.23-3.405-1.931-3.274
		c-0.703,0.138-1.577,2.448-2.04,3.723c-0.463,1.271-1.23,3.138-2.387,3.789c-1.161,0.646-1.902-0.87-1.995-1.927
		c-0.083-1.05-0.027-2.026,0.639-3.449c0.661-1.411,0.624-2.69,0.791-4.498c0.167-1.795,0.435-4.055-0.462-4.524
		c-0.898-0.462-2.893-2.01-2.818-4.488c0.072-2.484,2.286-3.346,3.388-3.403c1.109-0.05,1.698,1.018,1.763-0.709
		s-0.094-6.478,1.476-7.8c1.568-1.318,2.702,0.275,3.087,2.627c0.379,2.337,0.263,3.919,0.942,6.027
		c0.685,2.124,0.807,0.172,2.355,0.362c1.555,0.176,2.744,1.56,2.744,1.56s2.888-3.405,4.108,0.009
		c1.227,3.401-1.744,4.623-3.054,5.568c-1.313,0.955-3.683,2.49-3.941,3.233C1363.121,193.717,1364.729,199.466,1363.108,201.011z"
		/>
	<path fill="#EEF0F8" d="M1502.791,207.308c-9.538-29.459,25.738-30.455,15.679-54.999c-10.059-24.547-77.992-14.316-81.147-32.46
		c-3.157-18.135,7.689-9.853,0.768-39.959c-2.277-9.91-185.724-4.244-228.676-5.976c-0.037-0.007-0.065-0.007-0.106-0.007
		c-45.003-2.91-211.255,10.845-218.135-11.747c-5.456-17.904,24.671-39.033,0.592-55.756c-17.347-12.042-42.443-0.09-60.858-0.812
		C892.779,4.094,854.5,5.844,816.434,9.175c-68.603,5.986-141.432,0.646-210.31,0.767c-50.135,0.094-154.752,13.373-165.161,32.077
		c-38.261,68.764-154.272,15.529-201.844,42.732c-47.574,27.199-78.068,22.556-115.54,23.803
		c-41.413,1.375-72.494,16.994-72.494,47.6c0,30.604,30.175,16.938,10.822,73.256c-8.817,25.657-63.397,30.495-54.643,64.075
		c8.338,31.97,61.613,15.875,79.148,14.327c33.714-2.965,67.111-1.668,99.91,9.652c-16.044,69.524,103.68,16.89,135.305,16.225
		c62.341-1.313,131.605,16.193,194.179,5.491c14.798,40.596-30.328,17.282-37.921,39.228
		c-10.922,31.554,41.068,25.206,56.144,25.873c38.339,1.701,157.23-14.723,153.635,1.093c-3.595,15.816-29.73,6.235-46.001,13.478
		c1.006,43.315,124.253,28.559,152.367,29.711c15.167,0.621,72.907,12.687,70.663-15.754c-2.068-26.263-0.805,1.655-7.757-23.54
		s94.823,1.437,176.869-5.006c19.197-1.509,105.532,4.895,75.642-29.227c-18.092-20.653-70.279,0.558-77.423-31.188
		c48.541-10.609,102.414-9.597,153.866-10.777c34.245-0.777,73.58,20.688,104.394-10.287c6.306-6.337,15.959-14.982,17.796-27.133
		c1.921-12.676-8.957-18.12-2.161-28.447c7.825-11.897,29.446-7.51,39.271-7.555c22.589-0.104,47.99,0.541,70.593-1.493
		c49.917-4.492,174.281,16.767,171.172-18.217C1583.85,204.961,1533.729,210.665,1502.791,207.308z"/>
	<path fill="#D6DAE2" d="M1248.601,305.031c-7.844-6.192-21.955-4.593-31.187-4.581c-18.244,0.035-36.417-2.525-54.604-1.508
		c-23.412,1.321-46.718,7.884-70.076,10.492c-13.584,1.52-28.377,5.219-41.305,10.92c-0.463,4.931,1.133,6.984,3.868,8.815
		l9.063-3.027c37.239,1.47,75.75-6.773,112.779-9.142c11.79-0.754,23.594-2.216,35.467-1.436c10.59,0.692,21.612,6.888,31.994,6.041
		C1255.029,320.754,1258.284,312.673,1248.601,305.031z"/>
	<path fill="#D6DAE2" d="M1016.005,345.796c1.032-9.723,8.247-8.608,12.229-15.113c-14.77-17.432-23.052,23.901-35.363,30.221
		c-18.541,9.521-26.859-0.336-46.321,3.023c-10.388,1.789-42.712-4.559-52.581,0.381c-10.661,5.324-21.174,2.242-32.023,5.636
		c-7.756,2.419-14.612,10.144-22.349,11.788c-8.741,1.855-21.253-1.799-8.843-11.753c5.196-4.175,17.852,1.951,16.944-10.317
		c-13.146-6.216-31.731-4.148-45.362-0.305c-4.378,1.242-19.669,4.637-21.945,10.923c-4.409,12.174,9.633,9.212,13.937,15.066
		c-1.136,14.333-38.02,9.621-45.935,8.474c-6.073-0.888-53.571-20.829-3.227-25.356c-9.488-23.513-52.059-15.484-67.238-13.261
		c-14.984,2.189-52.168-2.824-62.751,13.261c0.928,0.934,1.812,2.278,2.938,3.285c-0.174,12.932-22.717,9.768-30.027,10.316
		c-12.326,0.921-17.992-2.116-29.054-9.333c-1.725-19.466-20.966-18.421-30.356-14.845v-1.514
		c-0.768,13.927-14.203,16.482-21.17,19.607c-8.375,3.754-16.981,7.458-6.046,16.707c13.113,11.09,39.237,1.162,53.372-0.078
		c20.467-1.806,41.051-2.638,61.447-2.986c18.2-0.315,38.168-5.693,56.389-1.548c6.048,1.374,16.579,6.461,19.184,16.58
		c4.419,17.203-8.782,13.819-10.929,21.549c-5.013,18.07,43.313,11.778,51.154,11.778c20.134,0,40.273,0,60.412,0
		c13.64,0,45.311,9.131,46.315-18.139c0.555-14.931-3.711-19.501,8.989-25.348c12.018-5.537,26.801-7.436,39.354-7.897
		c26.685-0.982,53.062,2.102,79.566,0.003c19.91-1.571,40.847,5.699,60.391,1.508
		C1055.052,382.124,1014.192,362.883,1016.005,345.796z"/>
	<path fill="#D6DAE2" d="M468.536,307.676c-23.926-3.726-46.351-4.164-70.485-4.197c-10.811-0.022-45.409,9.396-47.517-13.757
		c2.605-1.241,6.681-4.89,8.897-5.519c-15.512-10.119-40.172-2.742-55.149,5.932c-0.761,13.508,15.871,4.923,18.854,16.062
		c-11.848,6.231-26.987,5.659-39.369,6.347c-6.084,0.335-15.077,2.476-19.711-3.068c-4.127-4.941-5.978-12.807-1.286-17.79
		c-10.276-2.744-30.288,4.506-38.186,13.3l-5.03,9.062c-5.497,3.997-18.008,5.486-16.967,19.421
		c40.834,3.111,81.635-4.864,122.422-7.326c46.251-2.785,92.127-2.176,137.995,1.514c8.648,0.692,32.454,11.737,38.737,0.375
		C511.47,310.434,475.634,308.784,468.536,307.676z"/>
	<path fill="#D6DAE2" d="M1554.61,235.427c-17.785-2.661-37.395,0.591-55.366-3.027c-14.932-2.996-27.535-14.463-42.29-16.576
		c-16.158-2.318-34.218,4.797-50.189,7.776c5.53,37.309-116.456-9.441-111.77,25.243c3.345-0.423,6.964,0.195,9.916,1.737
		l2.013-1.515c18.105,8.684,44.877,1.515,64.189,1.515c22.825,0,45.65,0,68.476,0c37.558,0,72.806,10.828,110.006,4.871
		c5.067-0.814,22.017,0.421,23.96-7.864C1576.654,234.387,1559.229,236.117,1554.61,235.427z"/>
	<path fill="#D6DAE2" d="M109.686,276.347c-15.768-2.313-32.227-1.59-48.332-1.59l-22.153,6.044
		c-6.263,0.666-12.243,1.855-17.948,4.802c-6.383,25.028,41.261,11.81,51.177,11.823c22.666,0.035,44.324-4.848,66.307-7.785
		C141.688,274.151,116.735,277.379,109.686,276.347z"/>
	<g>
		<path fill="#0B1F28" d="M1498.958,236.24c-14.038-2.634-28.262,0.835-42.115,0.716c-13.622-0.12-29.086-3.752-41.948,0.897
			c-1.019,13.397,13.146,13.781,19.618,12.839l12.183,0.338c14.326,3.712,30.585,3.884,45.387,3.106
			C1508.48,253.276,1523.758,240.885,1498.958,236.24z"/>
		<path fill="#0B1F28" d="M1533.225,242.67l3.213,9.062c7.611,0.172,22.686,4.187,22.181-13.471
			C1551.969,237.548,1535.048,233.573,1533.225,242.67z"/>
	</g>
	<path fill="#0B1F28" d="M1177.029,315.243c-6.898,3.571-15.833-1.407-20.258,9.057c4.541,5.544,17.038,4.761,23.331,4.542
		c13.104-0.454,11.724-13.643-1.061-13.599"/>
	<path fill="#0B1F28" d="M1278.579,307.908c-12.368-0.808-8.648-4.572-20.993-4.759c-6.237-0.095-12.984,18.456-44.308,15.11
		l-7.047,4.535C1215.762,331.643,1284.279,336.942,1278.579,307.908z"/>
	<path fill="#0B1F28" d="M848.036,418.509c-6.219-6.437-30.001-0.085-37.529,0.374c-11.744,0.714-28.021-2.224-38.089,5.27
		c-0.456,1.954-0.456,5.186-0.021,7.165c2.572,0.035,5.456,1.66,7.903,1.448l3.019,2.525c10.883,4.729,29.356,3.282,41.285,2.527
		C830.152,437.469,862.935,433.929,848.036,418.509z"/>
	<path fill="#0B1F28" d="M1036.063,378.717c-6.658,0-17.37-2.277-23.2,2.646c-15.811,13.419,22.575,14.061,26.583,14.255
		c12.932,0.642,26.208,0.268,38.751-5.037C1077.966,376.119,1044.229,378.717,1036.063,378.717z"/>
	<path fill="#0B1F28" d="M1091.574,377.461c-0.837,2.464,0.837,1.944,0.874,2.763l-2.013,10.58
		C1103.257,398.766,1107.402,375.898,1091.574,377.461z"/>
</g>
</svg>
