<?xml version="1.0" encoding="utf-8"?>
<!-- Generator: Adobe Illustrator 17.0.0, SVG Export Plug-In . SVG Version: 6.00 Build 0)  -->
<!DOCTYPE svg PUBLIC "-//W3C//DTD SVG 1.1//EN" "http://www.w3.org/Graphics/SVG/1.1/DTD/svg11.dtd">
<svg version="1.1" id="Layer_1" xmlns="http://www.w3.org/2000/svg" xmlns:xlink="http://www.w3.org/1999/xlink" x="0px" y="0px"
	 width="408px" height="580.007px" viewBox="0 0 408 580.007" style="enable-background:new 0 0 408 580.007;" xml:space="preserve"
	>
<style type="text/css">
	.st0{fill:#BEBCC2;}
	.st1{fill:#0B1F28;}
	.st2{fill:#EEF0F8;}
	.st3{fill:#D6DAE2;}
	.st4{fill:#BEC3CB;}
	.st5{fill:none;stroke:#000000;stroke-miterlimit:10;}
	.st6{fill:#E7555E;}
</style>
<g id="RULES">
</g>
<g id="Layer_1_1_">
	<path class="st0" d="M134.172,241.212c0.059-1.107,0.341-2.746-0.709-3.423c-0.864-0.56-2.361-0.007-2.529,0.847l-1.527-0.22
		c-1.299,1.589-2.235,3.664,0.051,4.751C132.084,244.419,132.39,241.988,134.172,241.212z"/>
	<path class="st0" d="M249.512,408.154c-0.5-0.218-1.967,0.964-3.244,1.802c-1.282,0.838-9.573,6.815-11.004,7.608
		c-1.431,0.798-3.93,2.809-4.644,3.33c-0.709,0.519-0.962,1.41,0.011,1.366c0.973-0.043,2.174,0.542,2.332,0.825
		c0.158,0.289-0.953,1.656-2.587,3.437c-1.633,1.782-4.112,5.408-5.289,6.438c-1.174,1.028-1.315,1.227-1.769,1.98
		c-0.457,0.753-1.323,2.108-0.465,1.635c0.857-0.479,1.282-0.844,2.415-1.719c1.134-0.881,14.605-12.359,15.316-12.879
		c0.713-0.519,1.039-0.83,0.391-1.093c-0.645-0.262-1.6-0.859-1.6-0.859s9.046-10.015,9.741-10.777
		C249.819,408.481,249.512,408.154,249.512,408.154z"/>
	<path class="st1" d="M396.832,0L11.087,0.171C5.09,0.173,0.216,5.052,0.218,11.048L0.459,568.53
		c0.004,5.995,4.883,10.869,10.878,10.866l385.748-0.168c5.994-0.003,10.869-4.881,10.867-10.878l-0.24-557.847
		C407.708,4.504,402.83-0.004,396.832,0z"/>
	<path class="st2" d="M395.095,3.717L9.349,3.886C4.201,3.887,0.03,8.063,0.034,13.211l0.241,557.48
		c0.003,5.147,4.176,9.318,9.322,9.316l385.749-0.172c5.146-0.002,9.316-4.177,9.315-9.323l-0.242-557.48
		C404.417,7.888,400.244,3.716,395.095,3.717z"/>
	<path class="st3" d="M264.357,438.247c-17.039-7.742-38.921-13.966-43.124-14.194c-12.513-0.677-25.037,1.401-37.543,0.203
		c-13.321-1.274-26.748-2.925-40.143-1.859c-11.462,0.913-22.6,5.758-34.172,3.567l-63.355,22.46
		c7.659,10.518,31.766,11.616,43.677,13.106c19.525,2.442,39.941,7.121,59.709,7.792c33.574,1.139,67.976-9.717,101.628-7.272
		c9.779,0.709,25.165,5.477,32.386-3.758C290.742,448.93,270.414,440.998,264.357,438.247z"/>
	<path class="st3" d="M385.87,12.076c-12.861-6.863-36.656,3.888-48.129-5.259l-1.958-0.064c-4.355,1.968-12.811-0.065-10.29,6.575
		c1.391,3.665,6.124,3.375,8.957,4.17c6.99,1.964,16.507,11.208,22.12,16.074c6.974,6.047,3.156,13.373,13.423,16.89
		c10.471,3.588,9.919,1.987,15.293,12.199c3.869,7.349,7.895,13.549,11.659,3.375C401.021,55.025,395.685,17.314,385.87,12.076z"/>
	<path class="st3" d="M96.351,13.592c-18.987,2.621-73.7,0.553-73.7,0.553C11.156,9.464,11.914,28.867,11.326,40.647
		c-0.613,12.311-0.322,20.247-0.915,33.148c-0.594,12.902,6.753,17.706,10.469-0.638c3.713-18.344,47.701-22.668,76.595-31.819
		c0.239-1.516,0.404-3.035,0.126-4.559c-3.398-1.583-2.392-12.318-3.412-15.216c11.772-6.448,34.06,4.829,43.32-6.623
		C129.057,7.34,106.605,12.177,96.351,13.592z"/>
	<path class="st3" d="M156.211,13.763c-1.249,3.138,0.32,2.692,1.688,3.833l0.979,0.033c11.34,0.371,34.433,3.384,42.477-5.5
		C191.583,2.628,168.068,12.679,156.211,13.763z"/>
	<path class="st3" d="M9.403,535.595c-0.738-27.989-4.951-115.058,2.888-114.058c7.84,1,6.574,50.311,12.028,62.373
		c4.581,10.133,16.201,15.336,19.594,27.727c3.09,11.295,1.41,24.17,15.197,29.305c-4.384,28.872,100.854,14.26,122.469,15.582
		c48.102,2.941,107.761,11.429,154.458,6.267c9.74-1.077,45.656-1.446,46.492,2.995c1.133,6.036-11.107,5.427-18.809,5.268
		c-16.621-0.34-62.098,5.523-78.673,4.298c-31.079-2.296-67.708-0.592-99.081-1.294c-51.456-1.149-103.051-3.148-154.014-1.795
		C5.492,572.964,10.116,562.594,9.403,535.595z"/>
	<path class="st4" d="M12.796,567.061L12.557,12.505l382.82-0.167l0.239,554.553L12.796,567.061z M15.5,15.445l0.235,548.673
		l376.939-0.166L392.437,15.28L15.5,15.445z"/>
	<path class="st1" d="M114.723,562.724c-5.236,1.888-32.499,3.78-33.238-0.499c8.775-2.694,33.676-1.717,42.185-0.003
		c-0.364,1.173-1.087,0.22-2.062,0.732L114.723,562.724z"/>
	<path class="st1" d="M12.619,552.771c0,0-0.109-5.647-0.113-5.872c0.001-0.015,0-0.03,0-0.048c-0.032-1.807-0.108-3.24,0.801-4.748
		c0.614-1.018,5.308-2.824,5.928-2.205c4.078,4.091,10.383,18.653,16.054,19.084c6.605,0.5,24.286-0.229,26.471,6.401
		c-9.963,0.772-20.207,0.561-30.255,0.753C19.886,566.356,12.054,566.696,12.619,552.771z"/>
	<path class="st1" d="M194.246,565.444c-9.353-0.101-18.691-0.091-28.116-0.329c-8.712-0.221-22.013,1.129-29.928-1.286
		c-0.066-0.581-0.048-1.07,0.027-1.65c11.989-0.112,23.411-0.596,35.187,0.821c10.144,1.221,25.419-2.221,34.035,2.648
		C201.708,565.548,197.976,565.487,194.246,565.444z"/>
	<path class="st1" d="M17.322,310.727c-1.087,19.854-0.594,40.085-0.594,59.887c0.001,16.189-3.735,46.121,0.742,59.741
		c1.306-2.383,1.629-5.745,0.778-8.95l-0.45-8.832c3.534-13.496,2.728-36.359,3.39-51.164
		C21.628,351.537,23.343,314.916,17.322,310.727z"/>
	<path class="st1" d="M336.562,13.644c-12.726,0.209-25.486-1.488-38.21-1.251c-7.263,0.132-26.658-2.476-31.535,3.849
		c-4.871,6.322,4.914,17.928,9.049,18.542c9.177,1.362,13.507-13.474,21.714-15.061c11.663-2.252,25.323-0.265,37.34-0.759
		c2.661-0.109,29.643-4.101,29.218-4.472C358.247,9.352,344.186,13.519,336.562,13.644z"/>
	<g>
		<path class="st1" d="M174.745,349.836c-1.209-6-4.005-16.496-9.32-20.604c-7.53-13.541-21.933-29.562-47.992-30.114
			c-1.132-0.025-2.289-0.019-3.449,0.015c-21.211,0.645-38.277,8.123-50.726,22.224c-14.871,16.844-20.028,40.231-18.545,55.938
			l0.185,1.939l1.944,0.092c5.702,0.266,11.628,0.466,17.612,0.593c57.462,1.218,108.984-4.51,109.498-4.568l1.614-0.182l0.33-1.591
			C177.001,368.281,176.538,358.738,174.745,349.836z"/>
		<path class="st3" d="M46.95,377.082c-2.17-22.986,10.993-74.003,67.106-75.708c25.417-0.771,40.83,13.269,49.648,29.374
			c8.162,5.598,12.084,32.359,10,42.372C173.704,373.12,111.728,380.116,46.95,377.082z"/>
		<path class="st4" d="M165.983,332.976c0.447,2.778,1.083,5.529,1.648,8.288c0.845,4.13,1.307,8.299,1.626,12.5
			c0.493,6.562,0.668,13.141,1.059,19.71c2.201-0.223,3.388-0.356,3.388-0.356C175.581,364.091,172.578,341.442,165.983,332.976z"/>
		<path class="st1" d="M149.559,330.728c-5.705-17.594-19.609-29.292-37.191-31.291c-1.365-0.156-2.741-0.248-4.094-0.278
			c-14.402-0.304-23.085,6.596-23.448,6.889l-8.392,5.751c0,0,10.66-5.086,21.87-4.523c8.881,0.445,17.091,4.057,23.101,10
			c9.488,9.376,14.731,25.716,13.683,42.644l-0.118,1.935l18.405,1.663l0.13-2.044C153.544,360.838,154.437,345.771,149.559,330.728
			z"/>
		<path class="st3" d="M147.66,331.344c-5.617-17.322-19.35-28.088-35.517-29.926c-5.587-0.635-7.936-0.217-11.146,0.346
			c-6.079,1.064-11.244,2.899-12.011,4.026c10.552-2.096,24.573,0.925,33.819,10.067c9.283,9.173,15.413,25.759,14.272,44.187
			l14.435,1.302C151.512,361.345,152.477,346.198,147.66,331.344z"/>
		<path class="st1" d="M176.039,375.996c-0.771-0.316-19.176-7.734-49.31-8.373c-4.276-0.091-8.633-0.037-12.956,0.158
			c-17.362,0.788-67.097,15.23-69.206,15.847l-1.754,0.513l-1.255,59.203l1.049,0.765c0.778,0.568,19.551,13.937,61.514,14.828
			l0.002,0c2.208,0.046,4.472,0.059,6.732,0.032c46.92-0.519,63.669-18.932,64.359-19.715l0.592-0.675l1.829-61.929L176.039,375.996
			z"/>
		<path class="st3" d="M45.263,386.022l-1.188,56.074c0,0,20.393,14.896,66.749,14.38c46.353-0.513,62.513-18.871,62.513-18.871
			l1.752-59.305c0,0-23.7-9.727-61.205-8.028C96.623,371.054,45.263,386.022,45.263,386.022z"/>
		<path class="st2" d="M80.103,447.365c-0.001-1.524-0.072-3.022-0.068-4.588c0.011-3.518,0.264-7.033,0.343-10.631
			c0.067-3.272-0.045-6.358,0.023-9.642c0.073-3.396,0.218-7.461,0.291-10.799c0.093-4.486,0.284-7.84,0.365-11.628
			c0.097-4.65,0.642-9.651-0.255-12.791c-0.04,0.318-0.076,0.651-0.093,0.981l-0.066,0.33c-0.064,3.007-0.288,5.183-0.291,8.139
			c-0.007,3.007-0.09,6.6-0.202,9.471c-0.212,5.416-0.479,11.043-0.408,16.449c0.038,2.683-0.204,4.906-0.16,7.642
			c0.041,2.847-0.175,5.88-0.127,8.64c0.028,1.444,0.152,2.778,0.145,4.327c-0.006,1.308-0.088,2.875-0.089,4.152
			C79.513,449.6,80.103,450.14,80.103,447.365z"/>
		<path class="st2" d="M62.822,446.005c0.017-1.523-0.036-3.021-0.014-4.591c0.055-3.515,0.353-7.029,0.471-10.624
			c0.109-3.271,0.031-6.357,0.14-9.639c0.113-3.398,0.308-7.46,0.417-10.796c0.151-4.485,0.383-7.837,0.507-11.622
			c0.155-4.652,0.76-9.645-0.099-12.794c-0.044,0.316-0.083,0.648-0.106,0.98l-0.07,0.33c-0.1,3.002-0.35,5.179-0.388,8.134
			c-0.043,3.005-0.54,6.26-0.686,9.131c-0.275,5.41-0.246,11.373-0.236,16.778c0.007,2.684-0.261,4.902-0.253,7.641
			c0.01,2.846-0.244,5.877-0.227,8.638c0.01,1.443,0.118,2.78,0.093,4.328c-0.023,1.308-0.123,2.872-0.139,4.15
			C62.208,448.231,62.789,448.779,62.822,446.005z"/>
		<path class="st2" d="M102.71,447.177c0-1.52-0.07-3.019-0.063-4.588c0.011-3.515,0.267-7.033,0.341-10.63
			c0.069-3.27-0.045-6.356,0.025-9.641c0.073-3.395,0.218-7.461,0.287-10.797c0.095-4.487,0.288-7.843,0.367-11.63
			c0.097-4.651,0.642-9.65-0.252-12.79c-0.044,0.318-0.076,0.65-0.093,0.981l-0.068,0.33c-0.062,3.006-0.286,5.183-0.291,8.14
			c-0.005,3.006-0.088,6.598-0.202,9.47c-0.21,5.415-0.481,11.042-0.406,16.449c0.038,2.682-0.206,4.904-0.164,7.642
			c0.045,2.847-0.173,5.879-0.121,8.641c0.023,1.442,0.148,2.777,0.141,4.325c-0.008,1.31-0.09,2.875-0.089,4.153
			C102.124,449.413,102.711,449.955,102.71,447.177z"/>
		<path class="st2" d="M124.675,452.133c-0.001-1.524-0.072-3.021-0.07-4.589c0.013-3.516,0.264-7.032,0.343-10.631
			c0.069-3.271-0.045-6.358,0.025-9.641c0.071-3.396,0.218-7.463,0.289-10.796c0.093-4.487,0.286-7.842,0.367-11.629
			c0.099-4.652,0.641-9.653-0.257-12.792c-0.038,0.318-0.072,0.651-0.093,0.981l-0.066,0.332c-0.064,3.005-0.288,5.181-0.295,8.138
			c-0.003,3.006-0.085,6.599-0.2,9.472c-0.208,5.414-0.479,11.042-0.405,16.446c0.037,2.685-0.204,4.907-0.162,7.644
			c0.043,2.847-0.175,5.881-0.125,8.641c0.028,1.443-0.282,3.015-0.286,4.565c-0.008,1.308,0.342,2.635,0.343,3.914
			C124.085,454.368,124.675,454.907,124.675,452.133z"/>
		<path class="st4" d="M122.494,451.239c-4.591-0.051-9.257,0.015-13.835-0.295c-1.454-0.095-3.374,0.026-4.421-0.828
			c-0.092-0.076-0.402-1.617-0.687-1.965c-0.39-0.481-1.356-0.897-1.913-1.15c-2.787-1.26-6.381-1.713-9.448-2.426
			c-0.275-1.423,0.971-2.644,0.327-3.938c-0.653-1.322-3.835-2.072-5.174-2.353c-4.324-0.91-6.303-0.298-8.421-4.687
			c-0.669-1.379-1.568-6.447-3.932-5.382c-1.368,0.621-2.565,6.965-2.364,8.253l0.196,2.497c-0.065,3.162-1.541,10.06,1.549,11.952
			c3.332,2.042,10.215,1.769,14.13,2.081c5.818,0.463,11.623,1.633,17.476,1.878c7.077,0.297,15.932,1.575,22.681-0.704
			c1.042-0.354,2.02-0.99,2.747-1.748C130.05,449.934,124.76,451.265,122.494,451.239z"/>
		<path class="st4" d="M172.862,420.641c0.529-9.296,0.673-16.021,0.844-24.083c0.103-4.819,0.178-8.306,0.257-12.129
			c0.079-3.654-8.222-2.135-12.084-2.25c-9.803-0.291-18.22-0.998-27.415-0.746c-9.476,0.258-19.426,0.355-28.945,1.048
			c-5.306,0.386-10.634,0.933-15.985,1.323c-3.734,0.271-19.165,2.3-20.657,2.52c-0.796,0.117-2.68,0.502-2.473,1.592
			c0.238,1.269,3.918,1.485,4.8,1.598c4.51,0.581,9.125,0.445,13.597,1.351c2.421,0.488,5.231,1.345,7.178,3.117
			c1.915,1.741,1.944,2.543,4.953,3.067c1.775,0.309,3.692,0.427,5.434,0.67c4.479,0.62,11.963-1.887,16.492-1.326
			c5.251,0.651,8.627,5.175,13.867,2.272c2.177-1.208,3.489-2.903,6.351-3.367c2.061-0.334,4.607-0.036,6.687,0.129
			c1.144,2.335-0.722,7.424-1.108,9.901c-0.646,4.117-1.289,9.16-0.343,13.208c0.614,2.616,1.783,5.712,2.09,8.252
			c0.316,2.642-1.368,4.798-1.157,7.481c0.459,5.737,0.375,11.209-5.105,14.153c-1.704,0.915-5.291,3.502-1.519,3.727
			c1.982,0.118,6.234-1.908,8.244-2.449c5.127-1.384,9.583-3.86,14.533-5.531c3.995-1.351,10.145-3.679,10.991-8.577
			C173.139,431.225,172.614,425.048,172.862,420.641z"/>
		<path class="st2" d="M146.395,446.776c0.003-1.525-0.072-3.021-0.068-4.589c0.013-3.518,0.267-7.033,0.345-10.632
			c0.067-3.27-0.047-6.356,0.022-9.641c0.073-3.395,0.222-7.461,0.293-10.798c0.093-4.487,0.284-7.841,0.365-11.627
			c0.099-4.652,0.642-9.653-0.252-12.792c-0.04,0.318-0.077,0.65-0.095,0.98l-0.064,0.332c-0.066,3.005-0.288,5.182-0.293,8.139
			c-0.007,3.004-0.09,6.598-0.202,9.47c-0.212,5.415-0.479,11.042-0.406,16.448c0.037,2.683-0.206,4.903-0.164,7.643
			c0.041,2.846-0.175,5.881-0.123,8.64c0.026,1.441-0.284,3.017-0.288,4.564c-0.008,1.312,0.344,2.637,0.344,3.914
			C145.805,449.01,146.398,449.55,146.395,446.776z"/>
		<path class="st2" d="M162.062,442.95c0-1.524-0.068-3.021-0.061-4.588c0.013-3.518,0.271-7.034,0.35-10.633
			c0.071-3.27-0.039-6.356,0.033-9.64c0.073-3.395,0.224-7.462,0.295-10.798c0.097-4.484,0.294-7.84,0.379-11.628
			c0.099-4.65,0.648-9.65-0.246-12.791c-0.04,0.318-0.076,0.65-0.093,0.982l-0.066,0.33c-0.066,3.004-0.294,5.182-0.3,8.14
			c-0.005,3.004-0.096,6.598-0.207,9.47c-0.214,5.415-0.489,11.041-0.418,16.446c0.033,2.685-0.211,4.905-0.17,7.644
			c0.04,2.847-0.179,5.88-0.13,8.64c0.026,1.442-0.284,3.016-0.29,4.565c-0.006,1.308,0.342,2.635,0.341,3.914
			C161.474,445.185,162.06,445.728,162.062,442.95z"/>
		<path class="st1" d="M179.627,368.383c0.004-1.067-0.668-2.019-1.674-2.37c-0.73-0.254-18.138-6.236-37.14-6.851
			c-1.05-0.033-2.097-0.051-3.121-0.049c-52.638,0.036-95.25,12.872-95.676,13.003c-1.001,0.305-1.704,1.204-1.76,2.248
			l-0.619,11.451c-0.04,0.764,0.268,1.504,0.839,2.008c0.442,0.385,0.996,0.602,1.569,0.618c0.176,0.008,0.354-0.006,0.532-0.039
			c0.632-0.117,64.558-9.383,95.065-7.906c18.192,0.879,36.133,1.016,38.631,0.82c0.692-0.055,2.001-1.18,2.501-1.65
			c0.502-0.468,0.79-1.124,0.793-1.81L179.627,368.383z"/>
		<path class="st3" d="M42.068,383.96l0.678-9.459c0,0,42.087-14.013,94.95-12.894c23.774,0.505,39.438,6.763,39.438,6.763
			l-0.056,9.476c0,0-20.7-1.371-39.124-2.263C106.823,374.079,42.068,383.96,42.068,383.96z"/>
		<path class="st1" d="M157.486,319.062c12.758,19.486,11.673,45.4,11.661,45.664l1.992,0.096c0.01-0.221,0.761-17.952-6.106-35.362
			C164.321,327.654,159.167,320.78,157.486,319.062z"/>
		<path class="st1" d="M81.982,308.841c0,0,9.968-2.589,19.777,0.086c11.239,3.064,16.256,7.811,22.072,17.422
			c5.3,8.755,8.047,20.285,7.244,34.729l2.668-0.443l2.498-0.113c0,0,3.32-23.533-12.229-42.646
			C110.639,301.444,85.54,305.591,81.982,308.841z"/>
		<path class="st1" d="M152.346,361.362l17.704,3.869c0,0-0.142-18.97-6.717-36.049c-1.787-4.646-5.369-8.528-8.377-12.644
			c-14.053-19.248-34.911-15.369-34.911-15.369s20.371,6.527,27.999,27.856C154.635,347.449,152.346,361.362,152.346,361.362z"/>
		<path class="st1" d="M70.782,429.324c-0.475-1.5-9.067-1.407-11.951-1.072c-2.638,0.31-3.335,0.086-3.551,2.861
			c-0.162,2.079-0.38,3.94-0.632,5.972c-0.323,2.616-0.684,9.086-0.984,11.449l16.761,5.508c-0.034-3.719,0.172-8.093,0.254-11.963
			C70.752,438.627,71.83,432.648,70.782,429.324z"/>
		<path class="st1" d="M58.576,394.061c0-0.007,0-0.013-0.001-0.021c-2.071-0.251-4.84,0.141-7.004,0.468
			c-1.668,0.254-1.519,0.761-1.555,2.586c-0.026,1.289-0.132,3.573-0.098,4.815c0.059,2.043-0.154,7.147,0.507,7.329
			c1.065,0.291,3.209,0.285,4.312,0.46c1.229,0.195,2.519,0.568,3.787,0.516c-0.208-2.99-0.152-5.991-0.051-8.984
			C58.552,398.847,58.582,396.445,58.576,394.061z"/>
		<path class="st1" d="M69.242,393.307c0.061-0.077,0.13-0.146,0.207-0.203c0.866-0.664,3.136-0.071,4.208-0.203
			c1.291-0.159,2.421-0.457,3.725-0.381c3.465,0.199,2.611,3.6,2.688,6.372c0.076,2.708,0.197,5.555-0.007,8.31
			c-0.083,1.11-0.021,2.73-0.891,3.522c-1.003,0.91-3.398,0.606-4.679,0.517c-1.21-0.084-3.244,0.068-4.313-0.424
			c-1.419-0.654-1.266-2.283-1.25-3.812c0.027-2.561,0.065-5.129,0.008-7.693C68.905,398.028,68.233,394.543,69.242,393.307z"/>
		<path class="st5" d="M103.68,379.032c-1.641,20.864-2.012,41.879-1.869,62.822c0.039,5.637,0.119,11.27,0.204,16.905"/>
		<path class="st5" d="M80.948,381.044c-1.605,19.238-1.943,38.616-1.765,57.932c0.047,5.199,0.137,10.394,0.231,15.589"/>
		<path class="st5" d="M64.06,383.553c-1.58,17.966-1.891,36.064-1.688,54.103c0.055,4.853,0.152,9.706,0.256,14.559"/>
		<path class="st5" d="M54.547,385.096c0.327,18.098-1.833,33.531-1.602,50.305c0.061,4.514,0.166,9.027,0.276,13.539"/>
		<path class="st5" d="M48.968,385.972c-1.009,15.757-1.304,31.623-1.308,47.433c-0.002,4.253,0.021,8.507,0.046,12.76"/>
		<path class="st5" d="M125.145,377.992c-0.602,20.681-0.508,39.602-1.356,62.055c-0.212,5.632-0.395,12.037-0.309,17.67"/>
		<path class="st5" d="M147.065,378.954c-1.61,19.436-0.626,57.086-1.546,74.271"/>
		<path class="st5" d="M162.528,378.784c-1.579,17.998-0.537,52.87-1.431,68.786"/>
		<path class="st5" d="M172.158,379.32c-1.538,16.06-0.414,47.19-1.275,61.393"/>
		<path class="st1" d="M142.822,402.289c-0.018-2.16,0.571-5.892-0.744-7.817c-1.919-2.792-8.624-2.576-11.371-1.472
			c-3.914,1.572-2.929,5.64-2.896,9.25c0.063,6.783,1.023,8.797,8.242,9.053C143.071,411.553,142.872,408.573,142.822,402.289z"/>
		<path class="st1" d="M158.326,401.68c0.043-2.016,0.515-5.517-0.286-7.283c-1.171-2.559-5.502-2.191-7.304-1.091
			c-2.565,1.567-2.032,5.347-2.101,8.715c-0.13,6.335,0.441,8.193,5.093,8.251C158.25,410.328,158.2,407.55,158.326,401.68z"/>
		<path class="st1" d="M170.061,400.376c0.029-1.73,0.343-4.744-0.196-6.232c-0.79-2.159-3.717-1.717-4.933-0.723
			c-1.731,1.418-1.366,4.638-1.412,7.527c-0.081,5.43,0.304,7.004,3.444,6.92C170.017,407.787,169.981,405.408,170.061,400.376z"/>
		<path class="st1" d="M160.178,313.389c-10.072-16.693-26.29-21.069-26.975-21.248c-0.906-0.235-1.869,0.056-2.486,0.754
			l-7.404,8.293l3.722,3.32l0.009-0.014l20.99,18.438l-0.05,0.062l3.853,3.165l8.134-9.898
			C160.637,315.444,160.723,314.292,160.178,313.389z"/>
		<path class="st1" d="M158.757,311.31c-4.1-10.001-10.743-14.589-15.595-16.679c-5.29-2.279-9.632-2.153-9.814-2.148
			c-0.768,0.027-1.455,0.494-1.762,1.201c-0.303,0.705-0.18,1.524,0.33,2.102c0.488,0.562,12.114,13.782,24.324,18.157
			c0.409,0.148,0.844,0.153,1.244,0.033c0.324-0.097,0.625-0.277,0.867-0.532C158.898,312.876,159.058,312.038,158.757,311.31z"/>
		<path class="st4" d="M133.664,295.01c-0.181-0.97,7.002-0.953,14.69,4.907c4.793,3.648,5.394,6.705,4.163,7.509
			c-1.015,0.661-4.843,0.555-8.667-2.46C137.639,300.062,133.957,296.57,133.664,295.01z"/>
		<g>
			<path class="st4" d="M139.642,305.331c-0.087-0.198-0.265-0.38-0.504-0.592c-2.21-1.966-4.621-3.897-6.542-6.582
				c-0.465-0.646-0.801-1.126-1.063-1.998c-0.541,0.538-1.147,1.046-1.697,1.59c-0.595,0.589-1.037,1.307-1.517,1.987
				c-0.336,0.471-0.917,0.939-0.933,1.564c-0.023,1.149,0.962,2.029,1.71,2.771c2.049,2.024,3.958,4.055,6.296,5.765
				c0.654,0.48,0.994,0.312,1.462-0.29c0.483-0.618,1.057-1.197,1.556-1.806C138.874,307.178,140.028,306.189,139.642,305.331z"/>
			<path class="st4" d="M138.233,311.694c0.033,0.106,0.107,0.214,0.241,0.324c0.322,0.266,0.556,0.672,1.016,0.509
				c0.537-0.191,0.739-0.847,1.027-1.257c0.466-0.676,0.96-1.334,1.408-2.025c0.219-0.336,0.424-0.681,0.614-1.038
				c0.281-0.532-0.417-1.34-0.917-1.388c-0.491-0.046-0.783,0.314-1.059,0.665c-0.55,0.697-0.913,1.517-1.392,2.253
				C138.827,310.265,138.02,310.974,138.233,311.694z"/>
			<path class="st4" d="M140.692,313.165c-0.146,0.275-0.142,0.422,0.498,0.51c0.167,0.023,0.871-1.091,1.205-1.617
				c0.423-0.664,0.895-1.279,1.333-1.939c0.165-0.251,0.426-0.933,0.365-1.261c-0.097-0.532-0.588-0.231-0.771,0.083
				c-0.319,0.55-0.473,1.041-0.827,1.517c-0.246,0.333-0.902,1.375-1.192,1.672C140.935,312.505,140.834,312.897,140.692,313.165z"
				/>
		</g>
		<path class="st4" d="M125.898,303.434c0.715,1.639,2.243,3.202,2.243,3.202l-2.95-1.675L125.898,303.434z"/>
		<path class="st3" d="M143.661,297.842c-0.472-0.315-0.995-0.574-1.447-0.775c-1.639-0.73-3.434-1.548-5.314-1.743
			c-0.603-0.063-1.154-0.155-0.952,0.512c0.114,0.359,0.509,0.851,0.744,1.152c0.708,0.901,1.763,1.41,2.7,2.066
			c1.155,0.806,2.322,1.39,3.805,1.721c0.711,0.159,1.376,0.095,1.628-0.581C145.199,299.206,144.526,298.423,143.661,297.842z"/>
		<path class="st3" d="M146.947,303.177c-0.355-0.496-0.829-0.961-1.081-1.143c-1.672-1.202-3.767-0.057-1.746,1.609
			c0.611,0.502,1.568,1.142,2.409,1.124C147.724,304.742,147.474,303.924,146.947,303.177z"/>
		<path class="st3" d="M146.175,299.879c-0.287-0.091-0.606-0.032-0.784,0.256c-0.545,0.888,1.375,1.654,1.377,0.467
			C146.769,300.257,146.494,299.977,146.175,299.879z"/>
		<path class="st4" d="M129.108,345.807c-1.51-6.362-3.16-14.199-6.935-19.658c-3.335-4.817-8.582-10.654-10.113-9.189
			c-1.525,1.462,1.668,8,3.317,9.832c1.688,1.876,2.193,2.362,1.526,4.902c-0.368,1.397-0.927,2.69-1.085,4.13
			c-0.246,2.237-0.259,1.863-1.743,3.413c-1.125,1.172-1.227,2.854-1.121,4.339c0.14,2.022-0.178,2.053-2.178,2.613
			c-1.857,0.521-3.597,0.665-5.495,0.881c-3.852,0.437-6.785,3.173-10.57,3.645c-1.708,0.213-3.404-0.268-5.128-0.155
			c-1.81,0.119-3.844,0.843-5.534,1.582c-3.656,1.603-7.216,2.889-11.092,4.005c-1.906,0.549-4.362,0.835-6.137,1.694
			c-1.554,0.751-2.442,2.277-3.892,3.167c-2.386,1.461-5.211,1.791-7.718,2.911c-1.346,0.601-4.403,1.881-4.728,3.431l-1.034,1.807
			c1.595,0.07,3.201-1.062,4.686-1.563c1.894-0.636,3.917-1.279,5.889-1.668c3.198-0.631,6.435-1.213,9.646-1.785
			c6.931-1.234,14.035-2.549,21.061-3.048c9.424-0.669,18.716-2.01,28.081-2.608c2.634-0.17,7.831,0.047,9.705-2.113
			C130.55,354.026,129.772,348.607,129.108,345.807z"/>
		<path class="st4" d="M149.417,342.684c-0.541-3.5-1.718-5.493-2.762-8.905c-0.481-1.573-1.033-3.117-1.646-4.66
			c-0.351-0.882-0.897-3.579-1.906-3.984c-1.484-0.599-1.316,2.056-1.156,3.101c0.425,2.843,1.4,5.899,2.107,8.729
			c0.765,3.055,2.261,6.648,2.093,9.782c-1.186,2.327-2.242-0.015-3.16,1.458c-0.649,1.032-1.163,2.126-2.684,2.074
			c-0.025-0.917,0.286-2.262-0.152-3.099c-0.5-0.963-1.12-1.089-1.456-2.229c-0.18-0.611-1.663-6.879-2.363-4.373l0.142,1.167
			c0.951,2.323,0.786,5.652,0.988,8.167c0.154,1.937-0.251,6.131,1.124,7.55c1.414,1.459,5.545,1.237,7.499,1.277
			c1.317,0.028,2.512,0.306,3.534-0.545c1.107-0.917,0.958-2.706,1.053-4.143C150.898,350.635,149.929,345.993,149.417,342.684z"/>
		<path class="st4" d="M175.874,374.459c-0.126-1.148,0.37-3.462,0.396-4.609c0.018-0.832-2.367-1.457-4.451-1.923
			c-2.652-0.594-5.143-1.295-7.769-1.993c-2.793-0.742-8.273-1.839-11.757-2.077c-3.489-0.241-10.265-2.047-10.484,0.443
			c-0.089,1.028,6.855,2.642,1.099,3.145c-2.464,0.214-5.664-0.639-5.073,2.726c-6.069,1.408-13.04-0.173-18.971,1.833
			c-1.514,0.513-2.248,1.492-0.339,2.115c1.228,0.404,3.123,0.155,4.416,0.252c3.461,0.259,6.993,0.152,10.465,0.222
			c3.399,0.067,6.823,0.473,10.208,0.216c4.01-0.306,8.238,0.125,12.255,0.592c3.182,0.372,6.348,0.133,9.632,0.37
			c1.643,0.119,3.208,0.461,4.806,0.771c1.168,0.226,2.887,0.908,4.143,0.583C175.958,376.733,176.035,375.935,175.874,374.459z"/>
		<path class="st4" d="M104.568,372.938c-3.579,0.232-7.121,0.62-10.729,0.43c0.262-2.716-8.692-0.679-9.931-0.517
			c-3.055,0.398-6.04,0.974-9.062,1.552c-1.851,0.355-3.765,0.118-5.619,0.541c-1.749,0.403-1.079,2.146-0.292,3.104
			c1.168,1.427,2.308,1.293,3.99,0.941c3.345-0.697,6.59-1.203,9.997-1.47c6.924-0.545,13.81-1.667,20.729-2.187
			c3.348-0.252,6.489-0.131,9.7-1.287c-0.682-1.893-5.178-1.28-6.711-1.218C105.948,372.854,105.257,372.893,104.568,372.938z"/>
		<path class="st1" d="M170.104,431.304c-0.264-1.251-2.221,0.074-3.213,0.514c-1.797,0.801-2.521,1.031-3.63,2.75
			c-1.31,2.021-0.722,6.55-0.906,9.288c1.027-0.064,3.029-0.819,3.921-1.36c1.113-0.673,3.161-1.774,3.776-2.963
			C170.612,438.446,170.367,432.558,170.104,431.304z"/>
		<path class="st1" d="M160.554,434.719c0.102-4.737-3.322,1.246-4.374,2.128c-1.804,1.51-3.603,2.365-5.591,3.395
			c-2.774,1.438-3.655,1.916-3.848,5.155c-0.142,2.352,0.071,3.233,0.134,5.363c1.639-0.09,4.243-1.573,5.904-2.119
			c1.698-0.557,4.314-1.908,5.916-2.699C160.712,444.944,160.474,438.558,160.554,434.719z"/>
		<path class="st1" d="M170.367,421.605c-0.327-2.684-2.197,0.24-2.304,1.808c-0.013,0.227,0.295,2.227-0.403,3.519
			c-0.725,1.342-3.722,2.882-3.652,3.745c0.135,1.693,4.504-0.572,5.846-1.373c0.827-0.492,0.652-1.588,0.68-2.334
			c0.07-1.702-0.02-3.379-0.141-5.079C170.384,421.789,170.377,421.694,170.367,421.605z"/>
		<path class="st1" d="M174.397,402.928c-0.065-2.883-0.209-5.815-0.167-8.705c0.036-2.457,0.357-4.954,0.146-7.401
			c-0.073-0.861-0.277-2.735-0.769-2.761c-1.832-0.099-1.592,26.564-1.545,29.744c0.083,5.573-0.273,9.922-0.412,16.396
			c-0.039,1.836-0.279,3.85-0.168,5.678c0.115,1.833,0.901,4.533,1.489,1.461c0.646-3.379,0.673-8.983,0.716-12.719
			c0.027-2.19,0.086-4.402,0.193-6.451C174.143,413.244,173.888,407.772,174.397,402.928z"/>
		<g>
			<path class="st1" d="M144.836,447.101c0.098-1.267,0.305-3.581-0.545-3.752c-1.337-0.267-3.494,2.685-3.969,3.381
				c-0.916,1.347-2.185,1.236-3.606,1.415c-1.722,0.216-3.302,0.831-4.785,1.644c-1.459,0.801-2.712,1.638-4.283,2.187
				c-0.649,0.227-1.682,0.507-2.169,1.039c-2.663,2.927,7.392,1.214,7.987,1.104c2.637-0.491,5.496-0.723,8.006-1.729
				C143.742,451.479,144.496,451.332,144.836,447.101z"/>
		</g>
		<path class="st1" d="M175.461,368.668c-1.006-1.041-3.119-0.773-4.461-1.257c-1.777-0.642-3.395-0.563-5.454-0.425
			c0.048,1.087-0.363,1.967-0.611,2.927c-0.74,0.284-1.54,0.063-2.311,0.348c-0.746,0.276-1.11,0.998-2.019,1.254
			c-1.971,0.553-4.54,0.065-6.608,0.021c-2.847-0.061-5.238,0.34-8.031,0.666c-1.301,0.153-2.814-0.041-4.049,0.501
			c-3.261,1.447,1.557,2.712,2.76,2.695c2.031-0.026,3.959-0.691,6-0.522c3.242,0.266,6.472,0.688,9.72,0.895
			c3.02,0.194,6.086-0.101,9.091,0.249c2.217,0.256,5.921,2.351,6.551-0.027C176.627,373.76,176.705,369.958,175.461,368.668z"/>
		<path class="st1" d="M136.598,372.68c-0.647-1.027-4.323-1.121-5.441-1.195c-1.78-0.116-3.553-0.156-5.314-0.23
			c-3.33-0.141-6.757-0.17-9.969,0.442c-1.03,0.195-4.939,1.143-2.685,2.654c1.312,0.88,5.819-0.194,7.322-0.133l0.497,0.002
			c2.939,0.016,5.924,0.059,8.808,0.215C130.996,374.5,138.101,375.074,136.598,372.68z"/>
		<path class="st1" d="M108.221,372.731c-1.218-0.392-5.497-0.368-4.994,1.529c0.703,0.275,1.487,0.479,2.294,0.406l0.497,0.176
			C107.462,374.732,111.073,373.643,108.221,372.731z"/>
		<path class="st4" d="M154.255,308.787c-0.348-0.385-1.135-0.537-1.553-0.294c-1.571,0.912-0.135,1.452,0.306,1.808
			c0.429,0.341,1.698,1.199,2.219,0.386C155.498,310.265,154.611,309.18,154.255,308.787z"/>
		<path class="st1" d="M129.492,349.492c-0.177-3.062-0.98-6.598-1.794-9.514c-0.25-0.888-1.283-5.524-2.736-4.129
			c-0.513,0.488,0.753,2.801,0.834,3.758c0.153,1.899,1.826,9.421,0.021,10.722c-1.126,0.813-1.991,0.283-3.027,1.6
			c-1.079,1.375-1.789,2.897-3.891,3.241c-1.53,0.251-3.888-2.43-5.441-2.275c-1.521,0.15-2.704,0.67-4.168,1.111
			c-3.451,1.04-5.205,2.877-8.728,3.602c-3.777,0.779-8.126,1.445-11.851,2.243c-2.069,0.441-5.101,1.089-7.177,1.51
			c-1.562,0.324-2.349,0.946-2.287,1.705c0.062,0.778,3.603-0.465,5.257-0.812c2.805-0.588,5.793-1.104,8.626-1.542
			c2.718-0.419,5.47-0.161,8.209-0.322c6.397-0.379,12.731-1.514,19.147-1.694c2.035-0.058,7.643,0.078,8.667-1.064
			C130.013,356.667,129.591,351.27,129.492,349.492z"/>
		<path class="st1" d="M65.04,365.422c0.139,0.555,5.887-0.497,6.402-0.581c1.073-0.176,2.363-0.273,3.332-0.742
			c2.579-1.251-0.097-1.673-1.575-1.632C71.599,362.51,64.383,362.701,65.04,365.422z"/>
		<path class="st1" d="M150.739,350.94c-0.184-2.696-0.216-6.458-1.104-9.049c-0.28-0.822-0.843-2.252-1.461-2.037
			c-0.616,0.213,0.388,3.736,0.722,5.647c0.165,0.96,0.841,4.746,0.053,5.53c-0.507,0.51-1.422-0.196-2.207-0.092
			c-1.291,0.173-1.171,0.453-1.817,1.458c-0.255,0.402-0.862,1.77-1.192,1.981c-0.653,0.414-1.945,0.037-2.68-0.04
			c-0.6,1.293-2.193,0.473-2.51-0.581l-0.491-0.342c-0.019,1.001-0.512,3.278-0.096,4.16c0.607,1.284,2.382,0.873,3.646,0.902
			c1.748,0.036,8.292,0.922,8.965,0.603C151.317,358.724,150.845,352.565,150.739,350.94z"/>
		<path class="st1" d="M173.463,358.01c-0.149-1.205-0.42-2.358-0.66-3.547c-0.129-0.641-0.283-1.895-0.739-2.36
			c-0.104-0.106-0.129-0.24-0.234-0.337c-0.344,0.297-0.265,0.895-0.395,1.322l-0.017,2.079c-0.046,1.059,0.141,2.059,0.181,3.109
			c0.037,1.022-0.005,2.034,0.084,3.04c0.048,0.568-0.172,1.476,0,2.016c0.23,0.712,1.017,0.949,1.546,0.385
			C174.398,362.464,173.645,359.491,173.463,358.01z"/>
		<path class="st1" d="M170.341,413.508c-0.936-2.271-1.936,1.755-2.048,2.673c-0.112,0.914-0.185,2.297,0.2,3.144
			c0.643,1.409,1.801,0.822,1.971-0.787C170.569,417.553,170.744,414.492,170.341,413.508z"/>
		<path class="st1" d="M147.75,382.129c-0.667,0.96-0.433,1.158,0.164,1.954c1.194,1.597,2.977,0.812,5.955,1.498
			c2.448,0.565,6.907,1.969,7.632-0.502c1.048-3.549-4.684-3.918-7.537-3.787c-1.317,0.058-4.573-0.269-5.664,0.342
			C148.068,381.763,147.887,381.933,147.75,382.129z"/>
		<path class="st1" d="M170.585,381.951c-2.347-0.098-4.695,0.271-6.98-0.008c-0.186-0.021-0.86,4.02-0.303,4.602
			c1.126,1.173,4.516,1.002,5.859,0.712C171.783,386.686,171.206,384.195,170.585,381.951z"/>
		<path class="st1" d="M145.222,384.311c0.768-2.376-1.81-2.479-3.552-2.679c-1.301-0.149-5.869-0.788-6.941,0.257
			c-1.405,1.369,4.209,1.134,4.747,1.195c1.408,0.164,3.33,1.134,4.706,0.823"/>
		<path class="st2" d="M93.886,313.267c1.49-5.468-9.795-2.184-12.306-1.194c-5.985,2.36-8.642,4.651-12.917,9.451
			c-4.93,5.531-9.301,11.664-13.35,17.918c-1.972,3.047-3.543,8.164-4.486,11.623c-0.41,1.51-2.574,8.856-1.966,10.43
			c1.059,2.702,4.471-2.167,6.985-4.205c2.052-1.664,5.728-4.111,8.281-4.54c3.303-0.554,8.059-0.464,10.379-3.797
			c0.692-0.991,0.728-2.409,1.432-3.472c1.204-1.819,3.261-2.424,4.626-3.953c1.291-1.444,3.207-3.81,2.789-5.805
			c-0.224-1.059-1.159-1.275-1.291-2.76c-0.099-1.109,0.202-2.747,0.818-3.709c1.238-1.931,3.933-2.174,5.695-3.596
			c2.605-2.097,0.729-3.391,1.303-6.092C90.393,317.145,93.233,315.665,93.886,313.267z"/>
		<path class="st2" d="M116.087,303.497c-9.417-2.693-19.952,0.324-19.952,0.324c6.58,0.14,12.921,1.493,18.597,4.822
			c3.715,2.178,5.44,3.268,9.591,4.255c3.054,0.724,5.411,4.491,4.839-0.858c0.769,0.075,1.647-0.1,2.416-0.024
			C132.251,309.051,118.439,304.168,116.087,303.497z"/>
		<path class="st2" d="M93.029,366.127c-3.151-0.036-7.266,0.789-10.354,1.302c-3.081,0.51-6.331,1.017-9.316,1.479
			c-6.949,1.075-13.678,2.591-20.583,3.808l-6.769,1.852c-2.607,0.521-2.441,4.665-1.849,6.657c1.654,0.158,2.952-1.083,4.485-1.677
			c1.672-0.647,3.33-0.833,5.013-1.32c0.659-0.191,1.692-0.294,2.259-0.71c0.872-0.638,0.575-1.558,1.277-2.171
			c1.23-1.071,3.961-0.907,5.528-1.118c4.001-0.535,7.907-1.565,11.809-2.569c1.725-0.445,3.439-0.935,5.158-1.397
			c1.037-0.278,2.139-0.476,3.151-0.827c2.384-0.831,3.771-1.488,6.36-1.578c0.794-0.027,1.892,0.057,2.627-0.306
			C91.913,367.509,96.725,366.168,93.029,366.127z"/>
	</g>
	<path class="st1" d="M133.819,298.876c0,0,6.854-52.784,18.969-115.602C145.878,233.857,133.819,298.876,133.819,298.876z"/>
	<path class="st1" d="M150.425,317.875c0,0,63.516-27.382,138.666-54.818C214.706,294.846,150.425,317.875,150.425,317.875z"/>
	<g>
		<path class="st1" d="M383.628,129.918c-11.017-4.794-27.611-1.358-28.791-14.544c-1.156-12.917,13.794-5.26,15.869-14.324
			c2.105-9.184-21.77-11.756-27.521-12.292c-5.611-0.524-57.138-1.264-45.227-14.552c3.048-3.402,14.937-0.258,15.485-7.488
			c0.548-7.231-41.893-1.534-40.337-11.652c3.303-1.617,12.589-5.244,12.866-8.834c0.604-8.375-84.257-7.758-92.654-7.628
			c-10.136,0.158-19.388,1.737-29.525,1.771c-5.359,0.019-24.629,2.062-13.832,9.469c6.029,4.138,16.918,1.758,21.715,8.168
			c-10.989,3.713-24.704,3.757-36.493,4.951c-12.161,1.234-28.542-0.544-40.053,3.943c-4.775,1.861-11.014,6.734-7.204,12.299
			c2.437,3.566,11.037,5.15,14.932,7.471c4.368,2.602,12.711,6.568,9.552,12.331c-2.709,4.946-11.52,4.141-15.727,6.831
			c-9.619,6.148-0.895,10.093,4.757,14.102c11.789,8.368-1.641,13.075-9.865,16.709c-5.257,2.323-26.297,6.691-26.259,13.223
			c0.042,7.523,13.297,5.737,15.609,12.721c-5.377,7.376-29.474,7.905-37.82,9.12c-4.954,0.721-18.288,0.395-20.672,5.796
			c-3.24,7.341,7.644,5.683,12.005,5.87c12.408,0.531,24.068,1.806,36.004,3.546c7.935,1.158,29.17-2.65,33.019,6.959
			c5.104,12.741-23.676,8.339-24.102,20.216c-0.533,14.926,29.877,10.654,40.347,11.104c5.058,0.216,13.096-0.271,17.33,2.753
			c7.907,5.647-0.285,6.793-4.332,10.043c-13.85,11.119,19.186,15.516,27.265,16.238c7.76,0.693,19.387,1.82,12.408,11.413
			c-1.55,2.129-5.869,3.205-4.979,6.486c0.821,3.032,9.119,4.176,11.607,4.532c10.848,1.556,22.147,0.357,32.938,0.705
			c8.947,0.29,17.165,2.139,24.764-2.423c-0.396-3.522-4.219-5.62-6.885-7.694c6.623-8.009,30.362-3.458,39.879-3.486
			c17.137-0.046,49.252,9.174,62.151-6.868c3.719-4.625,3.073-11.023-1.215-15.154c-2.529-2.44-11.638-3.145-12.284-7.476
			c-1.012-6.797,16.552-7.389,21.142-10.868c6.828-5.175,3.983-8.861,2.473-15.499c-3.814-16.759,27.866-12.229,35.862-21.206
			c12.408-13.926-19.66-16.148-24.524-25.009c-5.863-10.676,13.308-9.221,20.122-10.531
			C381.028,149.701,405.801,139.563,383.628,129.918z"/>
		<g>
			<path class="st3" d="M250.283,204.286c-0.12-9.572,3.67-15.471,2.322-25.447c-1.104-8.202-6.676-14.648-8.491-23.025
				c-2.922-13.516,1.134-16.844,4.755-24.519c3.627-7.673,3.815-8.324,4.261-12.366c0.804-7.262-3.14-12.905-7.185-4.823
				c-1.648,3.292-4.046,6.795-6.243,9.997c-1.901,2.768-5.646,6.764-7.657,10.385c-0.976-6.016,2.677-14.46-0.035-23.229
				c-1.111-3.579-3.023-6.797-5.799-8.902c3.139-10.593,8.296-23.251,11.673-32.1c3.713-9.732,5.996-43.833,2.74-44.796
				c-3.253-0.963-15.144,26.548-17.939,43.733c-1.993,12.249-2.607,24.842-2.848,30.419c-3.822-0.934-10.955-0.314-14.824,2.394
				c-3.044-8.649-5.105-23.145-6.7-31.383c-1.688-8.724-11.71-24.811-14.84-28.653c-3.134-3.844-3.863,3.545-2.446,8.959
				c1.416,5.417,6.131,20.453,6.995,29.142c0.639,6.409,8.864,18.741,13.139,24.776c-3.125,2.954-4.587,6.48-4.746,10.193
				c-0.282,6.582,0.711,7.447-0.065,11.124c-0.76,3.602-0.773,6.714,1.224,9.94c1.635,2.644,4.731,4.94,8.603,5.93
				c1.422,0.474,1.785,2.079,0.886,3.335c-3.286,4.597-6.847,11.965-8.759,16.93c-2.446,6.357-3.894,13.982-0.369,14.446
				c3.918,0.515,3.906-6.353,9.087-11.902c0.189,14.842,5.462,17.633,4.427,22.533c-1.033,4.9-8.224,14.069-6.108,22.4
				c1.622,6.397,8.316,12.718,9.267,19.351c0.951,6.633-1.65,9.612-3.092,14.495c-1.446,4.883-1.42,18.686,3.74,18.494
				c7.418-0.275,7.347-9.891,8.234-19.116c0.743-7.694,4.908-8.749,3.439-12.933c-1.469-4.183-5.933-10.881-5.966-14.677
				c-0.034-4.019,2.618-13.073,7.802-18.62c0.856-0.914,4.66-2.212,5.25-1.556c1.769,1.969-3.494,8.636,0.304,16.215
				c2.81,5.606,8.767,6.967,10.114,14.029c0.672,3.532-1.579,7.206-2.906,14.915c-1.37,7.976,1.077,14.494,4.964,14.016
				c4.972-0.612,5.28-7.812,5.568-14.595c0.493-11.516,0.904-9.892,1.867-14.755C254.977,219.732,250.375,211.708,250.283,204.286z"
				/>
			<path class="st2" d="M252.605,178.84c-1.104-8.202-6.676-14.648-8.491-23.025c-2.922-13.516,1.134-16.844,4.755-24.519
				c3.627-7.673,3.815-8.324,4.262-12.366c0.804-7.262-3.14-12.905-7.185-4.823c-1.648,3.292-4.046,6.795-6.243,9.997
				c-1.901,2.768-5.646,6.764-7.657,10.385c-0.113-0.701-0.16-1.438-0.164-2.202c-1.873,3.028-3.86,5.134-6.85,7.07
				c-2.717,1.76-6.331,4.654-9.48,4.984c-1.637,0.171-5.426,0.017-8.029-0.684c0.07,0.559-0.066,1.166-0.46,1.713
				c-3.286,4.597-6.847,11.965-8.759,16.93c-2.446,6.357-3.894,13.982-0.369,14.445c3.918,0.515,3.906-6.353,9.087-11.902
				c0.189,14.842,5.462,17.633,4.427,22.533c-1.033,4.9-8.224,14.069-6.108,22.4c1.622,6.397,8.316,12.718,9.267,19.351
				c0.951,6.633-1.562,9.639-3.092,14.495c-2.39,7.569-1.42,18.686,3.74,18.494c7.418-0.275,7.347-9.891,8.234-19.116
				c0.743-7.694,4.908-8.749,3.439-12.933c-1.469-4.183-5.933-10.881-5.966-14.677c-0.034-4.019,2.618-13.073,7.802-18.62
				c0.856-0.914,4.041-0.446,5.098-0.75c-1.13,4.706-3.087,9.839-0.407,14.937c2.918,5.551,9.63,7.439,10.976,14.5
				c0.672,3.532-1.579,7.206-2.906,14.915c-1.37,7.976,1.077,14.494,4.964,14.016c4.972-0.612,5.28-7.812,5.568-14.595
				c0.493-11.516,0.904-9.892,1.867-14.755c1.051-5.312-3.551-13.334-3.643-20.757C250.163,194.714,253.952,188.816,252.605,178.84z
				"/>
			<path class="st3" d="M207.027,153.505c-2.587,0.311-2.898,3.377-3.239,5.391c-0.284,1.693,0.111,3.839-0.853,5.325
				c-0.515,0.793-1.763,1.013-2.165,1.571c-0.99,1.373-0.397,3.29-0.893,4.83c-0.61,1.901-2.428,2.977-2.096,5.156
				c4.473,1.522,8.971-15.352,9.096-18.357l-0.142-2.093C206.974,154.902,207.127,154.175,207.027,153.505z"/>
			<path class="st3" d="M250.665,237.763c-0.084-0.312-0.161-0.622-0.183-0.979c-0.053-0.812-1.511,0.8-1.558,0.885
				c-0.36,0.664-0.218,1.655-0.364,2.382c-0.319,1.59-1.105,2.627-1.267,4.273c-0.12,1.243,0.012,2.511-0.316,3.701
				c-0.383,1.406-2.11,2.71-1.586,4.408c1.119,3.631,4.599-1.315,4.927-3.036c0.433-2.252,0.467-4.549,0.503-6.834
				c0.018-1.111,0.036-2.221,0.065-3.333C250.902,238.643,250.78,238.201,250.665,237.763z"/>
			<path class="st3" d="M231.703,136.235c-0.552-0.078-0.084,0.214-0.285,0.439c0,0-6.787,6.898-22.838,8.066
				c-1.635,0.119-1.841,1.569-1.475,3.181c0.159,0.692,0.78,1.082,0.808,1.89c0.024,0.792-0.831,0.943-0.786,1.592
				c0.379,5.572,7.491,1.939,9.932,1.177c1.983-0.62,4.282-0.312,6.176-1.413c1.593-0.925,2.869-2.759,4.444-3.944
				c2.001-1.503,1.994-2.903,3.082-5.017C231.625,140.529,234.359,137.828,231.703,136.235z"/>
			<path class="st3" d="M251.226,119.899c-0.799,0.585-0.917,3.364-2.272,6.086c-1.535,3.092-4.38,7.748-6.127,10.696
				c-1.028,1.736-1.846,2.963-3.165,4.356c-1.252,1.323-1.935,3.827-1.91,5.644c0.045,3.518,0.529,6.918,2.316,9.995
				c0.366,0.631,1.542,3.117,2.672,2.714c1.174-0.419,0.038-3.879-0.07-4.756c-0.458-3.636-2.622-7.097-1.286-10.723
				c0.24-0.644,0.567-1.092,0.96-1.657c1.263-1.824,2.028-3.701,3.073-5.659c0.698-1.315,1.191-3.466,2.045-4.645
				c2.053-2.838,3.005-5.275,3.878-8.539C251.6,122.446,253.664,118.114,251.226,119.899z"/>
			<path class="st3" d="M223.344,223.75c-1.728-4.012-4.923-7.432-3.949-11.998c0.611-2.862,2.014-5.485,3.533-7.913
				c0.736-1.175,2.999-3.386,2.807-4.8c-0.246-1.8-3.931-2.604-5.472-3.475c-2.066-1.168-3.614-2.507-4.617-4.61l-1.166,0.183
				c-1.336,3.62,1.647,4.562,2.011,7.493c0.136,1.101-0.563,1.703-0.59,2.532c-0.05,1.584,0.856,1.955,1.213,3.327
				c1.011,3.882-4.075,5.512-4.293,9.067c-0.121,1.95,1.824,2.776,2.388,4.536c0.265,0.832-0.06,1.659,0.098,2.527
				c0.284,1.588,1.28,2.726,2.54,3.871c2.663,2.426,2.458,2.08,2.395,5.314c-0.043,2.184,1.082,4.684,0.641,6.819
				c-0.455,2.212-1.033,3.898-2.109,5.939c-1.595,3.031-4.734,8.78-4.008,12.351c0.521,2.554,0.538,7.194,4.472,3.858
				c2.499-2.116,2.737-9.31,3.075-12.268c0.698-6.053,2.27-9.953,3.299-12.072C227.308,230.949,225.196,228.052,223.344,223.75z"/>
			<path class="st3" d="M251.937,226.129c0.186-1.774,1.334-3.743,0.701-5.534c-0.541-1.528-1.48-6.061-2.161-7.757
				c-0.631-1.568-1.35-3.039-1.88-4.718c-1.148-3.65-0.332-7.581,0.663-11.321c1.357-5.095,2.276-10.103,2.504-15.428l-1.059-2.364
				c0.116-1.465-0.99-5.074-2.284-5.905c-2.314-1.485-3.995,1.194-4.319,3.072c-0.41,2.38,0.75,5.602,1.326,7.911
				c0.414,1.66,1.187,2.831,0.758,4.48c-0.347,1.329-1.971,2.573-2.277,4.057c-0.537,2.586,0.563,4.874-0.144,7.408
				c-0.484,1.732-1.371,3.541-1.097,5.473c0.309,2.202,2.168,3.696,3.014,5.739c1.219,2.951,1.731,6.128,2.846,9.177
				c1.308,3.572-1.653,12.342,1.402,14.667c1.686-1.558,0.989-1.417,1.083-3.663C251.097,229.506,251.737,228.035,251.937,226.129z"
				/>
			<path class="st6" d="M204.79,159.336c-0.36-0.658-0.733-1.333-1.101-1.993c-0.208-0.373-0.621-0.973-1.098-1.668
				c-0.26-0.38-0.545-0.796-0.809-1.192c-0.208,0.417-0.412,0.835-0.613,1.25c0.143,0.208,0.285,0.416,0.428,0.625
				c0.443,0.642,0.859,1.247,1.039,1.57c0.366,0.66,0.737,1.333,1.099,1.988c0.686,1.253,1.685,4.179,2.116,5.55l0.874-0.274
				c0.076-0.084,0.143-0.171,0.221-0.255C206.453,163.384,205.499,160.623,204.79,159.336z"/>
			<path class="st6" d="M207.377,155.924c0.811-3.537,3.229-0.088,2.304,3.812C208.822,163.374,206.307,160.617,207.377,155.924z"/>
			<path class="st1" d="M201.855,127.535c-1.338-0.072-3.523,0.468-3.558,1.289c-0.037,0.823,1.35,2.508,2.127,2.315
				c0.697-0.172,0.92-1.578,1.98-2.035C203.944,128.44,203.913,127.646,201.855,127.535z"/>
			<path class="st1" d="M207.669,124.076c0,0,2.488-4.014,5.771-1.248C212.507,122.942,209.879,122.985,207.669,124.076z"/>
			<path class="st1" d="M199.272,125.312c0,0-1.586-1.458-2.727-1.196c-0.475,0.105-0.489,0.595-0.177,1.023
				C196.809,125.74,197.442,124.77,199.272,125.312z"/>
			<path class="st1" d="M207.028,167.98c-0.377-5.733,0.707-6.924,0.62-14.498c-0.091-7.574-2.124,13.507-2.124,13.507"/>
			<path class="st1" d="M234.979,129.21c-1.748,2.295-3.47,6.444-4.266,8.161c-0.562,1.217-1.011-3.443,1.454-8.076
				c2.465-4.634,3.318-4.698,3.318-4.698"/>
			<path class="st1" d="M224.725,169.272c0.256-0.754-0.69-2.604-0.855-3.376c-0.385-1.797-0.828-3.525-1.355-5.318
				c-0.313-1.052-0.406-3.53-0.927-4.357c-0.683-1.09-1.618-0.9-2.85-0.873c-1.318,0.032-2.99,0.164-4.19,0.176
				c-1.426,0.018-2.995,0.4-3.031-0.014c-0.037-0.411,1.855-0.32,1.855-0.32c1.281-0.211,3.133-0.177,4.471-0.276
				c0.872-0.062,4.227-0.8,5.031-0.04c0.81,0.766,0.801,4.274,1.105,5.363c0.463,1.66,0.982,3.286,1.551,4.925
				c0.346,0.999,1.225,2.515,1.232,3.559c0.012,1.478-1.694,2.773-3.188,3.065c-0.664,0.13-6.469,1.259-10.061,1.222
				c-0.999-0.01-1.694-0.268-1.886-0.916c0.705-0.309,2.668-0.51,4.869-0.747C220.092,170.959,224.316,170.477,224.725,169.272z"/>
			<path class="st1" d="M214.696,166.391c0.755,1.701,4.21,1.03,4.803-0.019c0.508-0.906,0.56-2.366,0.343-3.384
				c-0.18-0.838-0.911-2.394-1.515-2.944c0.842,0.045,1.656,1.341,1.92,2.053c0.283,0.766,0.532,1.569,0.614,2.387
				c0.114,1.174-0.107,1.974-0.921,2.933c-0.963,1.13-3.251,1.182-4.139,0.474C215.27,167.464,214.923,167.03,214.696,166.391z"/>
			<path class="st1" d="M220.424,151.314l0.445,0.056c0.48,0.556,0.401,2.107-0.697,1.76
				C219.163,152.808,219.781,151.384,220.424,151.314z"/>
			<path class="st1" d="M216.681,151.548l0.445,0.058c0.478,0.553,0.401,2.104-0.697,1.757
				C215.42,153.042,216.036,151.617,216.681,151.548z"/>
			<path class="st1" d="M213.065,151.843l0.447,0.058c0.48,0.554,0.401,2.104-0.695,1.756
				C211.805,153.337,212.418,151.912,213.065,151.843z"/>
			<path class="st1" d="M224.89,174.587c1.27,0.885,2.179-0.667,1.451-1.618C227.789,173.871,226.623,176.679,224.89,174.587z"/>
			<path class="st1" d="M220.109,175.584c1.066,0.747,1.835-0.561,1.219-1.36C222.545,174.983,221.565,177.344,220.109,175.584z"/>
			<path class="st1" d="M216.434,176.01c1.005,0.705,1.731-0.531,1.151-1.286C218.739,175.441,217.812,177.674,216.434,176.01z"/>
			<path class="st1" d="M244.167,141.37c-1.518,2.948-2.956,7.676-3.303,10.365c-0.342,2.658,0.874-0.581,1.416-2.411
				c0.795-2.68,2.582-4.37,2.582-4.37"/>
			<path class="st1" d="M231.591,196.474c-2.99-0.08-7.162-1.346-10.341-3.479c1.869,2.806,7.005,4.958,8.134,4.91"/>
			<path class="st6" d="M244.722,139.513c-1.712-0.691-4.644-2.936-5.314-3.758c-1.234-1.515-3.261-5.167-3.245-7.085
				c-0.513,0.643-1.02,1.295-1.522,1.956c0.738,2.53,2.533,5.326,3.329,6.3c0.808,0.991,4.02,3.491,6.104,4.323
				C244.269,140.653,244.486,140.075,244.722,139.513z"/>
			<path class="st6" d="M247.578,165.197c-1.101,1.324-4.24,4.663-5.112,5.361c-2.476,1.982-5.383,3.839-8.636,5.528
				c-3.542,1.837-7.058,2.651-10.334,3.255c-4.108,0.76-11.753,2.173-14.351-1.592l-0.156,0.108
				c0.382,1.165,0.777,2.173,1.136,3.079c1.441,0.73,3.156,1.058,4.937,1.135c3.139,0.133,6.461-0.481,8.772-0.909
				c3.25-0.601,7.082-1.479,10.851-3.433c3.359-1.742,6.367-3.668,8.939-5.726c0.813-0.652,3.354-3.3,4.827-4.978
				C248.161,166.42,247.871,165.81,247.578,165.197z"/>
			<path class="st6" d="M252.788,216.357c0.018,3.026-0.945,5.129-2.965,6.398c-1.55,0.973-4.25,2.123-5.419,1.634
				c-0.094-0.039-0.191-0.095-0.278-0.197c0.119,0.401,0.22,0.825,0.307,1.268c0.051,0.28,0.081,0.562,0.1,0.844
				c0.115,0.017,0.23,0.037,0.349,0.042c2.452,0.105,5.531-1.772,5.926-2.02c1.388-0.871,2.396-2.055,3.035-3.532
				C253.608,219.396,253.223,217.905,252.788,216.357z"/>
			<path class="st6" d="M224.518,224.812c-0.549-1.086-1.106-2.195-1.615-3.281c0.467,3.239-1.496,6.215-3.576,7.64
				c-0.892,0.613-2.746,1.216-3.903,0.75c-0.371-0.148-0.631-0.405-0.814-0.769c0.13,0.901,0.188,1.73,0.198,2.509
				c0.426,0.163,0.881,0.251,1.343,0.272c1.639,0.07,3.349-0.632,4.226-1.234C222.139,229.489,223.839,227.351,224.518,224.812z"/>
			<path class="st1" d="M211.743,145.656c-2.078,0.052-4.004-0.247-5.495-0.916l0.8-1.786c2.794,1.254,7.687,0.912,11.628-0.806
				c3.818-1.665,11.327-6.362,12.065-9.403l1.901,0.462c-1.034,4.253-10.025,9.356-13.184,10.733
				C217.004,145.01,214.264,145.593,211.743,145.656z"/>
			<path class="st1" d="M217.489,261.753c-2.232,0.366-2.52-2.58-2.13-4.418c-1.913,1.309-0.976,4.75-0.976,4.75l2.369,2.42
				L217.489,261.753z"/>
			<path class="st1" d="M212.016,255.955c0,0-1.005,1.811,0.413,4.811c-2.932-0.126-2.224-2.26-2.224-2.26
				S210.15,256.184,212.016,255.955z"/>
			<path class="st1" d="M248.481,249.167c0,0,0.264,4.648-1.474,5.503c2.409,1.493,2.307,0.252,2.307,0.252
				S250.084,251.4,248.481,249.167z"/>
			<path class="st1" d="M244.01,248.822c0,0-1.232,3.503,0.245,5.11c-1.776,1.781-2.326,0.212-2.326,0.212
				S242.046,251.366,244.01,248.822z"/>
			<path class="st4" d="M222.185,101.344c0,0,2.024-25.575,5.958-38.081c3.935-12.508,10.466-35.106,11.996-34.732
				s-0.882,28.724-3.837,39.099c-4.002,14.051-11.651,33.819-11.651,33.819l-0.496-2.805L222.185,101.344z"/>
			<path class="st1" d="M206.013,99.958c-4.061,0.985-6.722,5.353-6.722,5.353l0.666,0.725c1.953-2.311,6.31-4.831,6.31-4.831
				L206.013,99.958z"/>
			<path class="st3" d="M235.667,193.7c-2.785,0.351-2.045-1.735-2.832-3.346c-1.388-2.835-3.643-0.87-6.224-1.25
				c-1.766-0.258-3.157-0.848-4.585-2.028c-1.03-0.848-0.974-1.641-2.429-1.749c-1.07-0.08-2.47,0.175-1.451,1.329l0.664,0.724
				c1.708,2.991,4.453,5.453,7.587,6.992C227.896,195.106,236.441,197.848,235.667,193.7z"/>
			<path class="st4" d="M232.021,122.556c-0.205-6.037,0.106-7.89-0.693-10.927c-0.461-1.755-2.082-7.206-3.755-4.335
				c-0.985,1.693,0.945,6.555,1.032,8.392c0.252,5.446-1.142,10.65-3.18,15.874c-1.556,3.995-5.491,9.019-10.389,8.588l-2.565,0.353
				c-1.092,1.278-3.325-0.479-3.95,0.98c-0.742,1.73,2.232,2.123,3.205,2.235c3.217,0.363,6.331-0.98,9.11-2.444
				c3.977-2.098,7.218-4.733,9.193-8.784C231.446,129.581,232.134,125.809,232.021,122.556z"/>
			<path class="st1" d="M251.231,178.369c-0.132-0.929-1.308-8.521-3.025-6.043c-0.759,1.096,0.217,4.451,0.224,5.731
				c0.004,1.46,0.222,2.889,0.278,4.339c0.052,1.376-0.463,2.473-0.624,3.715c-0.193,1.513,0.277,3.033,0.112,4.599
				c-0.15,1.422-0.702,2.865-0.373,4.325c0.531,2.375,1.337,0.205,1.639-1.155c0.482-2.173,0.668-4.535,1.087-6.763
				c0.098-0.522,0.169-1.036,0.229-1.55c0.129-0.323,0.242-0.626,0.314-0.895C251.582,182.78,251.509,180.336,251.231,178.369z"/>
			<path class="st1" d="M249.089,203.491c0-1.149,0.221-2.36,0.12-3.501c-0.289-3.291-2.367-1.126-2.561,1.046
				c-0.131,1.468-0.074,3.449,0.669,4.653c0.257,0.419,1.087,1.229,1.703,0.419C249.442,205.557,249.095,204.166,249.089,203.491z"
				/>
			<path class="st1" d="M247.495,225.165c-0.215-1.428-1.856-7.189-4.537-5.914c-1.244,0.591,0.713,3.071,1.605,5.789
				c1.036,3.153-0.907,6.953,1.43,6.417C248.332,230.919,247.679,226.389,247.495,225.165z"/>
			<path class="st1" d="M225.093,197.627c-0.574-1.122-2.072-1.65-3.063-2.429c-0.855-0.671-1.634-1.87-2.662-2.133
				c-0.381,1.504,1.04,2.307,1.329,3.592c0.339,1.515-0.873,1.91-0.73,3.37c0.068,0.655,0.624,0.871,0.558,1.652
				c-0.084,0.925-0.862,1.491-1.535,2.186c-0.797,0.822-0.856,5.644-0.869,6.904c-0.011,1.376,1.788,1.43,2.201-0.833
				c0.185-1.013,1.02-2.978,1.367-3.849c0.465-1.16,0.815-2.301,1.411-3.384c0.663-1.202,2.186-2.526,2.229-3.985
				C225.343,198.297,225.256,197.939,225.093,197.627z"/>
			<path class="st1" d="M216.422,225.227l-0.404-1.41c-0.36-0.885-1.339-1.082-1.853-0.239c-0.477,0.782,0.351,2.177,0.663,2.819
				c0.758,1.567,0.832,4.896,1.91,5.973C217.805,231.368,217.225,226.223,216.422,225.227z"/>
			<path class="st1" d="M236.763,194.25c-0.488-0.955-4.536,0.23-5.848-0.434c-1.103-0.562-3.32-1.945-4.569-1.727
				c-3.323,0.574-0.625,3.702,3.236,3.711C230.451,195.803,237.33,195.359,236.763,194.25z"/>
			<path class="st1" d="M204.864,163.173c-0.219-0.121-0.566,0.055-1.106,0.713c-1.07,1.308-1.34,3.256-2.078,4.746
				c-0.849,1.715-3.273,4.358-3.026,6.344c1.279,0.308,2.741-2.577,3.258-3.549c0.826-1.547,2.289-2.667,2.835-4.385
				C205.025,166.157,205.463,163.513,204.864,163.173z"/>
			<path class="st1" d="M242.712,138.24c-1.184,2.323-3.417,4.466-4.127,6.927c-0.192,0.668-0.504,1.862-0.027,2.487
				c1.156,1.528,1.947-0.764,2.595-1.906l0.021-0.463c1.119-2.665,2.367-5.641,3.888-8.018c1.774-2.775,4.483-7.524,3.132-7.913
				C246.842,128.968,244.079,135.563,242.712,138.24z"/>
			<path class="st1" d="M251.551,123.323c-0.239-0.987-1.23-1.059-1.707-0.08l-0.856,1.971c-1.479,1.736,0.523,2.308,1.717,0.572
				C251.006,125.352,251.669,123.812,251.551,123.323z"/>
			<path class="st1" d="M230.089,129.888c-1.556-2.538-3.465,3.848-4.215,4.927c-1.172,1.676-4.738,4.796-6.863,4.575l-1.197,0.877
				c-0.47,4.512,6.369-0.51,7.704-1.735C227.121,137.06,231.741,132.585,230.089,129.888z"/>
			<path class="st1" d="M231.097,79.498c-1.565,0.607-2.253,2.411-4.004,2.222c0.124-1.071-1.345-3.157-1.729-4.046
				c-2.667,4.523-1.914,15.836-2.133,20.933l-0.039,0.927c0.311,0.411,0.441,0.743,0.884,0.994c2.078-1.55,2.897-6.999,3.495-9.463
				C228.405,87.628,231.376,82.79,231.097,79.498z"/>
			<path class="st1" d="M228.953,66.224c-1.683,0.098-3.096,6.373-1.912,8.08c1.846,2.662,3.996-5.836,2.803-7.508
				C229.548,66.379,229.246,66.208,228.953,66.224z"/>
			<path class="st4" d="M201.633,95.75c-1.063-4.392-1.649-10.384-2.846-14.715c-0.559-2.036-1.121-3.997-1.541-6.054
				c-0.714-3.477-1.928-8.315-3.272-11.558c-0.95-2.283-4.816-8.97-7.434-9.569c-2.094,5.251,1.175,9.97,1.881,15.108
				c0.38,2.774-0.038,5.638,0.369,8.434c0.4,2.758,1.414,5.11,2.926,7.494c2.523,3.979,3.299,8.708,5.431,12.753l2.84,4.063
				c0.138,0.251-0.205,0.389,0.206,0.5C203.008,100.924,202.162,97.929,201.633,95.75z"/>
			<path class="st2" d="M230.847,139.111c1.101-0.885,2.107-1.817,3.012-2.775C232.954,137.293,231.947,138.225,230.847,139.111z"/>
			<path class="st2" d="M214.543,145.419c-0.615,0.068-1.244,0.022-1.87,0.039c-0.626-0.019-1.266,0.037-1.889-0.052
				c-1.263-0.151-2.563-0.214-3.82-0.538c-2.551-0.453-5.051-1.421-7.455-2.598c-2.407-1.204-4.609-2.851-6.65-4.691
				c-2.002-1.898-3.722-4.11-5.173-6.499c-1.406-2.423-2.432-5.066-3.136-7.791c-0.65-2.747-0.849-5.58-0.753-8.397
				c0.174-1.345,0.232-2.899,0.584-4.199c0.166-0.675,0.231-1.358,0.478-2.023l0.635-2.001c1.006-2.606,2.31-5.076,3.939-7.299
				c1.686-2.173,3.562-4.174,5.696-5.831c2.17-1.59,4.437-3.033,6.89-3.999c2.443-0.948,4.954-1.689,7.488-1.918
				c1.258-0.218,2.518-0.16,3.762-0.216l0.431-0.013l0.475,0.034l0.945,0.067c0.621,0.059,1.267,0.057,1.856,0.166
				c1.267,0.179,2.509,0.445,3.715,0.778c0.004-0.379,0.022-0.758,0.015-1.137c0-0.006,0.005-0.009,0.005-0.015
				c-1.156-0.36-2.355-0.66-3.595-0.889c-0.63-0.139-1.242-0.162-1.871-0.248l-0.941-0.11l-0.473-0.055
				c-0.231-0.016-0.344-0.009-0.522-0.014c-1.305-0.005-2.633-0.079-3.962,0.103c-2.679,0.172-5.356,0.873-7.979,1.811
				c-0.647,0.267-1.294,0.536-1.946,0.805c-0.646,0.277-1.252,0.648-1.885,0.97l-0.942,0.504l-0.897,0.586
				c-0.588,0.405-1.201,0.787-1.769,1.229c-2.285,1.759-4.336,3.871-6.076,6.241c-1.713,2.396-3.033,5.073-4.021,7.868
				c-0.415,1.424-0.863,2.837-1.076,4.34c-0.34,1.515-0.339,2.871-0.487,4.396c-0.016,2.967,0.286,5.93,1.052,8.777
				c0.82,2.825,1.969,5.537,3.499,8.001c1.574,2.43,3.415,4.651,5.525,6.536c2.15,1.83,4.452,3.434,6.932,4.596
				c2.483,1.134,5.03,2.044,7.639,2.438c1.288,0.295,2.578,0.32,3.85,0.438c0.642,0.075,1.276-0.004,1.907,0.006
				c0.632-0.022,1.262,0.019,1.879-0.056c4.973-0.402,9.522-2.012,13.22-4.268c1.104-0.677,2.122-1.413,3.075-2.181
				c-0.954,0.766-1.974,1.499-3.081,2.171C224.047,143.503,219.493,145.065,214.543,145.419z"/>
			<path class="st2" d="M233.858,136.336c0.946-1,1.789-2.025,2.528-3.046C235.648,134.31,234.804,135.335,233.858,136.336z"/>
			<path class="st2" d="M241.864,114.165c-0.045-0.414-0.093-0.867-0.143-1.356c-0.06-0.487-0.089-1.017-0.185-1.573
				c-0.115-0.551-0.237-1.137-0.365-1.757c-0.576-2.452-1.48-5.443-3.305-8.488c-1.764-3.057-4.308-6.251-7.806-8.918
				c-0.189-0.143-0.391-0.277-0.586-0.416c-0.072,0.234-0.141,0.469-0.225,0.698c0.135,0.091,0.276,0.176,0.408,0.269
				c3.511,2.475,6.152,5.518,8.005,8.49c1.867,2.983,2.858,5.935,3.451,8.38c0.134,0.617,0.26,1.202,0.378,1.752
				c0.1,0.554,0.132,1.083,0.196,1.569c0.055,0.489,0.106,0.941,0.152,1.354c0.043,0.414,0.02,0.794,0.033,1.132
				c0.014,1.355,0.024,2.077,0.024,2.077s-0.003-0.723-0.008-2.078C241.878,114.96,241.905,114.579,241.864,114.165z"/>
		</g>
		<path class="st6" d="M289.914,159.262c0.022,0.288-0.069,0.343-0.422,0.472c-0.353,0.127-0.664,0-0.727,0.173
			c-0.065,0.167,0.178,0.553,0.311,0.76c0.135,0.208,0.323,0.531,0.283,0.845c-0.044,0.314-0.36,0.359-0.53,0.294
			c-0.171-0.062-0.312-0.156-0.447-0.42c-0.131-0.267-0.328-0.36-0.579-0.546c-0.249-0.183-0.559-0.425-0.736-0.259
			c-0.179,0.166-0.654,0.489-1.021,0.271c-0.364-0.216-0.224-0.786-0.099-1.039c0.128-0.256,0.359-0.304,0.107-0.455
			c-0.252-0.157-0.987-0.505-0.995-0.965c-0.007-0.46,0.37-0.587,0.767-0.486c0.4,0.106,0.624,0.257,1.025,0.275
			c0.402,0.018,0.123-0.167,0.339-0.502c0.215-0.337,0.566-0.495,0.566-0.495s-0.162-0.931,0.502-0.931
			c0.659,0.001,0.484,0.77,0.468,1.145c-0.016,0.372-0.071,1.033,0.006,1.15C288.816,158.668,289.879,158.772,289.914,159.262z"/>
		<path class="st6" d="M135.079,190.728c0.021,0.289-0.076,0.343-0.424,0.473c-0.353,0.13-0.663,0-0.727,0.17
			c-0.065,0.171,0.178,0.556,0.311,0.763c0.135,0.209,0.324,0.533,0.281,0.846c-0.042,0.315-0.36,0.36-0.532,0.295
			c-0.168-0.066-0.31-0.159-0.44-0.424c-0.133-0.264-0.33-0.357-0.581-0.541c-0.251-0.185-0.557-0.428-0.738-0.262
			c-0.181,0.165-0.652,0.49-1.02,0.273c-0.363-0.219-0.226-0.787-0.099-1.038c0.126-0.254,0.357-0.303,0.107-0.457
			c-0.252-0.154-0.985-0.503-0.995-0.966c-0.009-0.459,0.37-0.586,0.768-0.484c0.398,0.104,0.624,0.259,1.025,0.276
			c0.404,0.017,0.121-0.169,0.339-0.503c0.213-0.338,0.566-0.497,0.566-0.497s-0.161-0.929,0.5-0.93
			c0.663,0.001,0.486,0.771,0.47,1.145c-0.016,0.373-0.075,1.033,0.006,1.149C133.981,190.136,135.04,190.24,135.079,190.728z"/>
		<path class="st0" d="M243.288,89.082c-0.249,0.141-0.338,0.083-0.607-0.177c-0.269-0.261-0.29-0.595-0.469-0.58
			c-0.182,0.016-0.424,0.403-0.552,0.613c-0.127,0.211-0.339,0.522-0.638,0.621c-0.304,0.098-0.482-0.168-0.496-0.351
			c-0.014-0.183,0.007-0.346,0.186-0.581c0.182-0.235,0.179-0.453,0.239-0.762c0.054-0.302,0.138-0.684-0.086-0.776
			c-0.226-0.088-0.726-0.375-0.69-0.796c0.037-0.425,0.611-0.548,0.894-0.545c0.283,0.003,0.425,0.19,0.456-0.102
			c0.029-0.293,0.024-1.107,0.435-1.314c0.41-0.21,0.689,0.078,0.771,0.48c0.08,0.403,0.04,0.672,0.2,1.041
			c0.161,0.373,0.204,0.038,0.6,0.087c0.394,0.047,0.691,0.301,0.691,0.301s0.764-0.553,1.054,0.045
			c0.287,0.593-0.483,0.769-0.826,0.915c-0.34,0.149-0.961,0.385-1.033,0.509C243.346,87.836,243.717,88.833,243.288,89.082z"/>
		<path class="st0" d="M310.07,201.982c-0.289-0.007-0.333-0.103-0.43-0.466c-0.097-0.361,0.06-0.659-0.102-0.739
			c-0.164-0.082-0.57,0.13-0.787,0.245c-0.219,0.114-0.559,0.269-0.87,0.198c-0.309-0.068-0.325-0.39-0.243-0.555
			c0.078-0.162,0.184-0.293,0.46-0.402c0.274-0.106,0.388-0.294,0.593-0.53c0.206-0.23,0.478-0.516,0.328-0.708
			c-0.146-0.196-0.426-0.698-0.177-1.043c0.249-0.341,0.803-0.15,1.045-0.002c0.239,0.149,0.267,0.386,0.445,0.148
			c0.175-0.238,0.59-0.938,1.05-0.904c0.459,0.034,0.551,0.423,0.412,0.811c-0.14,0.387-0.312,0.596-0.366,0.994
			c-0.053,0.398,0.157,0.136,0.47,0.383c0.317,0.244,0.442,0.61,0.442,0.61s0.937-0.075,0.878,0.582
			c-0.058,0.66-0.809,0.414-1.179,0.361c-0.372-0.047-1.023-0.166-1.149-0.095C310.76,200.945,310.561,201.989,310.07,201.982z"/>
		<path class="st6" d="M325.744,152.988c0.038-0.436,0.181-1.076-0.223-1.362c-0.331-0.238-0.93-0.044-1.012,0.292l-0.599-0.114
			c-0.539,0.605-0.945,1.408-0.062,1.878C324.865,154.219,325.027,153.263,325.744,152.988z"/>
		<path class="st0" d="M274.942,245.091c0.04-0.433,0.183-1.077-0.221-1.36c-0.331-0.24-0.934-0.046-1.015,0.29l-0.597-0.114
			c-0.539,0.607-0.943,1.409-0.06,1.879C274.063,246.324,274.226,245.369,274.942,245.091z"/>
		<path class="st0" d="M151.809,93.377c0.042-0.433,0.183-1.077-0.221-1.36c-0.331-0.241-0.933-0.045-1.014,0.289l-0.599-0.113
			c-0.539,0.607-0.943,1.409-0.06,1.878C150.932,94.61,151.092,93.655,151.809,93.377z"/>
		<path class="st0" d="M180.732,236.596c0.026-0.276,0.119-0.687-0.14-0.87c-0.212-0.153-0.597-0.029-0.649,0.185l-0.38-0.072
			c-0.346,0.387-0.604,0.899-0.039,1.2C180.17,237.385,180.273,236.773,180.732,236.596z"/>
		<path class="st0" d="M173.855,172.537c0.03-0.277,0.119-0.687-0.14-0.869c-0.21-0.153-0.597-0.029-0.647,0.185l-0.382-0.072
			c-0.346,0.387-0.602,0.9-0.039,1.2C173.296,173.325,173.4,172.715,173.855,172.537z"/>
		<path class="st0" d="M95.895,220.551c0.028-0.277,0.121-0.687-0.14-0.869c-0.21-0.153-0.595-0.029-0.647,0.185l-0.38-0.073
			c-0.346,0.387-0.604,0.9-0.041,1.2C95.336,221.339,95.439,220.728,95.895,220.551z"/>
		<path class="st0" d="M75.471,177.948c0.026-0.277,0.119-0.688-0.142-0.869c-0.212-0.153-0.595-0.029-0.645,0.185l-0.386-0.073
			c-0.343,0.387-0.602,0.9-0.035,1.2C74.91,178.735,75.013,178.125,75.471,177.948z"/>
		<path class="st0" d="M102.324,145.162c0.026-0.277,0.117-0.688-0.14-0.87c-0.212-0.153-0.597-0.029-0.649,0.185l-0.382-0.073
			c-0.346,0.388-0.602,0.9-0.039,1.2C101.763,145.95,101.868,145.34,102.324,145.162z"/>
		<path class="st0" d="M201.211,265.483c0.028-0.276,0.119-0.687-0.14-0.87c-0.212-0.152-0.595-0.029-0.647,0.185l-0.382-0.072
			c-0.346,0.388-0.604,0.9-0.039,1.2C200.653,266.272,200.754,265.661,201.211,265.483z"/>
		<path class="st0" d="M336.924,128.612c0.028-0.277,0.119-0.687-0.142-0.87c-0.21-0.152-0.595-0.028-0.645,0.185l-0.382-0.072
			c-0.344,0.387-0.604,0.9-0.041,1.2C336.364,129.4,336.469,128.788,336.924,128.612z"/>
		<path class="st0" d="M340.493,99.091c0.03-0.277,0.121-0.687-0.138-0.869c-0.212-0.153-0.597-0.029-0.647,0.185l-0.382-0.073
			c-0.344,0.388-0.602,0.9-0.039,1.201C339.936,99.878,340.039,99.268,340.493,99.091z"/>
		<path class="st0" d="M272.463,71.623c0.026-0.277,0.117-0.688-0.142-0.869c-0.21-0.153-0.595-0.029-0.647,0.185l-0.382-0.072
			c-0.344,0.387-0.602,0.899-0.037,1.199C271.902,72.41,272.005,71.799,272.463,71.623z"/>
		<path class="st0" d="M242.255,47.112c0.028-0.278,0.119-0.687-0.14-0.869c-0.212-0.153-0.597-0.029-0.647,0.185l-0.382-0.072
			c-0.346,0.387-0.604,0.9-0.039,1.2C241.694,47.901,241.799,47.289,242.255,47.112z"/>
		<path class="st0" d="M203.978,65.121c0.028-0.276,0.117-0.688-0.142-0.869c-0.21-0.154-0.595-0.03-0.645,0.185l-0.384-0.073
			c-0.344,0.387-0.602,0.9-0.039,1.2C203.417,65.908,203.522,65.298,203.978,65.121z"/>
		<path class="st0" d="M122.215,76.805c0.028-0.278,0.117-0.688-0.14-0.869c-0.214-0.154-0.597-0.029-0.649,0.184l-0.382-0.073
			c-0.343,0.387-0.604,0.9-0.039,1.201C121.656,77.592,121.757,76.981,122.215,76.805z"/>
		<path class="st0" d="M321.504,232.223c0.064-0.436,0.231-1.066-0.154-1.374c-0.321-0.25-0.929-0.09-1.023,0.242l-0.596-0.143
			c-0.57,0.578-1.015,1.358-0.152,1.873C320.566,233.408,320.772,232.464,321.504,232.223z"/>
		<path class="st0" d="M130.257,137.314c-0.186-0.104-0.805,0.312-1.337,0.596c-0.536,0.288-4.005,2.351-4.594,2.616
			c-0.591,0.263-1.645,0.969-1.945,1.147c-0.299,0.182-0.428,0.523-0.042,0.542c0.384,0.015,0.835,0.287,0.889,0.404
			c0.052,0.118-0.436,0.617-1.135,1.26c-0.708,0.646-1.807,1.986-2.311,2.348c-0.498,0.365-0.557,0.442-0.765,0.72
			c-0.203,0.282-0.592,0.786-0.24,0.628c0.356-0.157,0.536-0.287,1.013-0.593c0.478-0.305,6.181-4.357,6.474-4.537
			c0.299-0.179,0.439-0.288,0.195-0.415c-0.244-0.127-0.599-0.395-0.599-0.395s3.906-3.628,4.209-3.905
			C130.37,137.456,130.257,137.314,130.257,137.314z"/>
		<path class="st0" d="M284.104,109.983c2.345-1.869,4.852-3.736,7.087-5.695c1.411-1.241,6.265-4.733,6.577-5.965
			c-2.148,0.668-4.771,3.58-6.677,5.187C288.682,105.54,284.104,109.983,284.104,109.983z"/>
	</g>
	<path class="st1" d="M155.36,309.774c0,0,33.416-18.772,63.702-33.773C191.95,291.884,155.36,309.774,155.36,309.774z"/>
	<path class="st1" d="M147.46,305.021c0,0,17.781-20.315,41.326-44.563C168.527,284.479,147.46,305.021,147.46,305.021z"/>
	<path class="st1" d="M143.039,303.203c0,0,13.588-37.234,30.625-66.424C159.762,264.958,143.039,303.203,143.039,303.203z"/>
</g>
</svg>
