<?xml version="1.0" encoding="utf-8"?>
<!-- Generator: Adobe Illustrator 17.0.0, SVG Export Plug-In . SVG Version: 6.00 Build 0)  -->
<!DOCTYPE svg PUBLIC "-//W3C//DTD SVG 1.1//EN" "http://www.w3.org/Graphics/SVG/1.1/DTD/svg11.dtd">
<svg version="1.1" id="Layer_1" xmlns="http://www.w3.org/2000/svg" xmlns:xlink="http://www.w3.org/1999/xlink" x="0px" y="0px"
	 width="408px" height="580.007px" viewBox="0 0 408 580.007" enable-background="new 0 0 408 580.007" xml:space="preserve">
<g id="RULES">
</g>
<g>
	<g>
		<g>
			<path fill="#BEBCC2" d="M227.962,380.171c0.007-1.134,0.209-2.815-0.889-3.456c-0.919-0.52-2.404,0.107-2.539,0.985l-1.556-0.138
				c-1.251,1.678-2.092,3.834,0.291,4.831C225.996,383.537,226.197,381.057,227.962,380.171z"/>
			<g>
				<g>
					<path fill="#0B1F28" d="M395.829,0.189L11.262,0.192C5.148,0.189,0.175,5.16,0.187,11.272L0.19,568.874
						c0.003,6.096,4.97,11.078,11.082,11.067l384.572-0.003c6.115,0.004,11.073-4.955,11.071-11.07l-0.004-557.597
						C406.908,5.157,401.941,0.192,395.829,0.189z"/>
					<path fill="#E7555E" d="M395.455,2.021L10.883,2.024c-5.239-0.009-9.494,4.248-9.488,9.498l0.009,557.601
						c-0.002,5.235,4.25,9.493,9.488,9.486l384.572-0.002c5.253,0.009,9.504-4.247,9.498-9.497l-0.004-557.598
						C404.955,6.275,400.699,2.016,395.455,2.021z"/>
					<path fill="#C73447" d="M135.869,9.495c-11.01-0.379-22.165-1.172-33.111-2.358C85.045,5.198,68.647,6.793,50.82,8.194
						C34.44,9.49,7.739,7.632,9.06,18.007c1.648,13.024-3.746,48.338,1.218,60.925L7.597,94.971
						c0.31,15.564-2.756,37.248,2.185,51.751c0.58-0.059,2.106-0.123,2.672-0.086c5.986-8.829-4.636-30.823,5.662-37.724
						c5.126-3.424,8.532,3.263,13.757-1.175c3.87-3.283-0.614-31.748,1.234-36.256c4.802-11.73,29.971,8.491,31.656-2.575
						c0.446-2.86-14.277-18.187-13.161-21.777c0.97-3.103,31.654,0.739,38.829-1.986c-1.492-8.177-11.607-6.365-1.981-13.507
						c6.463-4.792,19.751-4.966,27.37-6.738c9.162-2.141,17.996-4.376,27.132-5.551c5.401-0.704,14.756-0.343,18.898-4.303
						C174.455,3.04,140.792,9.667,135.869,9.495z"/>
					<path fill="#0B1F28" d="M23.29,20.803l-2.948,7.516c9.658,3.766,46.687,5.722,52.588-4.79
						C66.682,14.844,33.396,17.388,23.29,20.803z"/>
					<path fill="#C73447" d="M394.639,381.38c-0.413-8.44,1.669-25.702-3.578-31.917c-5.314,7.532-4.197,25.421-4.142,34.442
						c0.078,12.861-4.791,21.724-7.156,33.548c-1.319,6.564-1.417,9.365-6.085,14.782c-2.907,3.382-7.745,7.051-8.61,11.282
						c-1.241,6.162,1.874,9.939-0.844,16.191c-3.095,7.144-3.521,9.702-4.116,17.382c-0.418,5.497-3.88,9.933-3.271,15.505
						c0.633,5.882,3.851,10.036,1.003,16.612c-5.373,12.395-21.484,9.165-32.862,10.42c-2.324,9.464-9.265,10.747-17.473,12.91
						c-6.395,1.684-22.226,5.359-25.248,12.571c-1.918,4.573,3.241,4.652-3.227,8.528c-4.347,2.612-8.508,2.487-13.519,2.211
						c-14.723-0.802-29.308,1.255-43.895,2.85c-23.556,2.583-50.319-4.258-73.735-5.033c-21.655-0.702-40.973,6.038-62.819,7.128
						c-6.932,0.337-14.043,0.515-20.801,0.516c-4.538-0.001-12.056-0.788-15.958,1.297c-14.342,7.641,13.952,9.986,19.174,9.725
						c0,0,274.005-1.283,280.636-0.637c11.383,1.14,22.749,0.857,34.688,0.286c14.633-0.721,13.263-1.103,13.27-14.664
						c0.001-22.071,0.485-50.929,0.349-73.347c-0.144-22.853,2.159-45.757-0.048-68.002
						C395.225,404.525,395.215,392.862,394.639,381.38z"/>
					<path fill="#C73447" d="M393.898,567.549l-1.423-0.005l-380.02,0.014l0.011-1.424l-0.008-553.05l1.414,0.007l380.014-0.004
						l-0.001,1.414L393.898,567.549z M15.306,564.714l375.753-0.016l-0.01-548.778L15.304,15.935L15.306,564.714z"/>
				</g>
			</g>
			<path fill="#0B1F28" d="M392.002,530.259c-12.492-0.02-11.362,6.17-17.106,14.701c-6.716,9.991-13.396,9.56-24.379,12.226
				c-9.24,2.25-17.801,7.299-27.596,8.397c-10.86,1.195-30.086-5.205-32.819,1.789c-2.745,6.99,53.31,1.952,62.053,2.746
				l3.938-1.211c7.991-1.488,31.101,1.604,35.836-3.756C396.957,559.423,392.759,537.73,392.002,530.259z"/>
			<path fill="#0B1F28" d="M263.731,563.841c-8.497-0.906-18.464-0.117-26.419,0.523c-9.191,0.727-27.57-1.139-27.409,1.258
				c0.144,2.408,4.634,2.059,13.713,2.84l27.568,0.305C254.516,568.746,264.834,568.467,263.731,563.841z"/>
			<path fill="#0B1F28" d="M187.341,564.356c-3.041,2.658,1.796,4.231,4.167,2.816l-0.968,0.547
				c2.538,0.144,5.242-0.477,5.259-3.185C194.438,564.178,188.587,563.272,187.341,564.356z"/>
		</g>
		<g>
			<path fill="#0B1F28" d="M230.663,331.839c2.918,7.871,5.998,29.48,3.569,37.439c-2.603,8.499-4.079,20.102,7.514,24.571
				c11.757,4.535,34.736,3.384,46.476-0.969c18.421-6.83,25.923-15.442,35.29-26.459c6.482-7.619,13.634-21.844,16.818-34.265
				L230.663,331.839z"/>
			<path fill="#0B1F28" d="M120.802,303.838c12.596,14.103-0.502,42.339,10.474,48.384c10.97,6.059,41.256-0.436,54.961-5.327
				c13.691-4.878,34.971-10.797,50.211-5.747c15.228,5.055,37.592,11.461,37.592,11.461s29.819-5.54-11.189-25.49
				C221.855,307.157,144.309,284.157,120.802,303.838z"/>
			<path fill="#0B1F28" d="M303.403,173.66c-9.539-8.208-20.163-14.985-31.607-20.101c-3.459-4.004-10.008-7.278-19.503-9.762
				c-7.777-2.028-17.325-3.438-25.568-3.752c-3.891-0.15-7.394-0.21-10.719-0.164c-13.423,0.137-23.621,1.798-31.976,5.231
				c-25.913,3.415-49.917,17.874-62.681,29.302c-21.58,19.321-31.649,45.411-36.292,63.902c-5.743,22.818-5.429,41.451-4.475,48.112
				c0.747,5.207,2.884,8.91,6.52,11.337c3.494,2.337,8.268,3.466,15.461,3.663c12.881,0.353,53.256,7.823,70.485,11.018
				c11.162,2.062,37.165,11.033,62.317,19.699c29.766,10.272,57.896,19.983,68.918,21.168c1.63,0.18,3.24,0.265,4.794,0.241
				c23.45-0.251,32.92-21.692,36.757-39.635C358.063,256.615,343.388,208.119,303.403,173.66z"/>
			<path fill="#E7555E" d="M85.509,285.725c-2.046-14.208,0.654-73.108,39.163-107.6c14.078-12.607,37.679-25.301,60.647-28.162
				c10.865-4.618,24.709-5.575,41.216-4.937c14.471,0.56,36.81,4.814,42.11,12.577c11.043,4.822,21.666,11.358,31.508,19.836
				c55.999,48.256,45.777,112.146,40.807,135.445c-4.968,23.297-16.191,37.639-36.135,35.483
				c-19.941-2.166-106.626-36.342-130.863-40.825c-24.24-4.474-58.924-10.751-71.262-11.096
				C90.364,296.103,86.534,292.828,85.509,285.725z"/>
			<path fill="#C73447" d="M128.812,190.044c0.327-3.501,2.043-6.087,4.844-8.175c1.668-1.248,3.475-2.282,5.171-3.478
				c1.837-1.277,3.321-3.121,4.453-5.037c1.919-3.256,3.707-6.029,6.641-8.472c1.781-1.475,3.832-2.986,5.284-4.866
				c-0.235,0.098-0.479,0.193-0.694,0.289c-10.523,4.306-20.826,9.618-28.668,17.761c-2.581,2.68-8.684,8.845-8.142,12.934
				c0.593,4.442,7.227,4.697,11.594,3.108C128.842,193.006,128.648,191.674,128.812,190.044z"/>
			<path fill="#C73447" d="M166.01,279.903c-2.248-6.774-5.611-12.584-12.281-15.546c-3.402-1.513-7.229-2.246-10.92-2.626
				c-4.449-0.47-7.939-0.879-12.133,1.286c-2.14,1.091-8.97,5.44-7.725,8.435l12.44-0.493c-8.414,4.779-17.102,8.843-25.778,13.082
				c-4.388,2.142-6.735,3.92-8.458,8.201c7.254,1.677,14.307,3.318,21.681,0.54c7.068-2.655,16.041-4.042,19.575,2.468
				c3.138,5.812,11.893,6.215,18.393,7.629C172.19,305.383,168.097,286.179,166.01,279.903z"/>
			<path fill="#C73447" d="M341.55,258.114c-4.59-8.738-2.475-16.196-4.495-22.029c-5.497-15.95-10.188-21.118-18.134-33.471
				c-5.504-8.56-19.044-23.695-20.483-19.47c-1.443,4.238,2.025,11.339,1.85,12.244c-0.876,4.394-5.065,3.839-2.181,8.98
				c1.648,2.953,6.097,5.944,5.689,9.73c-0.338,3.084-4.239,2.703-4.421,5.949c-0.18,3.544,4.477,5.831,5.494,9.003
				c1.221,3.829-0.403,6.534-1.796,9.961c-1.667,4.102-1.345,7.091-0.276,11.366c0.642,2.568,1.468,5.712,1.028,8.371
				c-0.444,2.668-2.464,4.431-3.141,6.966c-0.602,2.239,0.41,4.681-0.318,6.831c-0.886,2.667-3.693,3.711-5.168,5.953
				c-3.689,5.681-2.971,12.89-4.878,19.193c-1.586,5.219-4.288,12.75-9.353,15.567c-4.783,2.671-11.525,2.616-17.029,1.854
				c-6.879-0.942-16.148-1.664-22.044,3.014c-4.341,3.436-0.212,6.535,11.149,11.341c7.492,3.172,22.591,8.859,24.647,9.624
				c4.968,1.859,10.17,2.499,15.253,3.898c10.515,2.923,22.193,4.522,31.249-2.977c9.252-7.666,14.632-18.997,15.787-30.314
				c1.183-11.534-0.931-18.121,0.638-29.536C341.46,274.032,344.338,263.403,341.55,258.114z"/>
			<path fill="#0B1F28" d="M319.018,343.825c-0.87,0.005-1.778-0.015-2.715-0.104c-18.584-1.558-39.759-9.119-47.997-12.298
				c-5.204-2.015-10.675-3.76-15.958-5.437c-8.594-2.75-17.485-5.578-25.737-9.689c-6.511-3.244-11.719-4.842-17.747-6.691
				c-3.063-0.94-6.222-1.903-9.798-3.174c-10.712-3.759-21.206-5.216-32.304-6.737c-4.196-0.581-8.531-1.189-12.966-1.929
				c-5.54-0.921-11.261-1.803-16.791-2.657c-13.993-2.165-28.455-4.408-42.06-7.57c-6.742-1.573-12.813-3.339-18.618-9.11
				l3.004-3.036c5.027,4.992,10.267,6.51,16.586,7.995c13.444,3.122,27.831,5.351,41.734,7.503
				c5.555,0.853,11.287,1.734,16.847,2.67c4.368,0.729,8.68,1.32,12.844,1.902c11.328,1.559,22.021,3.043,33.142,6.947
				c3.496,1.232,6.611,2.195,9.625,3.12c5.956,1.823,11.576,3.554,18.404,6.946c7.97,3.964,16.684,6.738,25.128,9.435
				c5.344,1.706,10.874,3.478,16.186,5.519c16.826,6.496,34.33,10.993,46.833,12.048c8.561,0.717,13.643-2.896,20.561-10.248
				l3.108,2.928C334.391,338.467,328.61,343.727,319.018,343.825z"/>
			<path fill="#0B1F28" d="M341.893,289.164c-3.961-1.711-11.453-4.493-15.262-6.695c-3.65-2.09-7.71-3.387-11.654-5.057
				c-7.45-3.135-16.099-5.855-22.905-9.989c0,0,0.28,18.285-10.848,33.166c-2.428,3.274-7.063,8.417-5.92,9.407
				c2.348,2.019,10.324,2.739,13.162,3.448c8.705,2.169,17.802,4.31,26.824,5.642c5.17,0.762,20.293,8.614,23.71,7.276
				c1.987-6.921,6.019-17.559,7.521-25.402C347.587,295.42,348.396,291.966,341.893,289.164z"/>
			<path fill="#0B1F28" d="M286.826,233.888c-7.88-12.841-23.546-23.749-46.544-32.442c-17.736-6.706-39.72-11.81-60.332-14.042
				c-7.896-0.84-16.246-1.235-24.851-1.142c-25.044,0.276-55.771,4.85-64.03,14.26c-7.782,8.867-12.437,21.66-14.968,30.831
				c-3.135,11.317-4.839,23.594-4.678,33.679c0.408,25.988,12.072,30.682,18.983,31.167c0.753,0.06,1.52,0.085,2.29,0.08
				c11-0.122,21.423-6.566,29.802-11.751c4.781-2.962,10.208-6.321,12.8-6.337l0.106-0.001c6.413,0.283,13.769,7.431,28.488,22.274
				c13.528,13.639,44.808,28.183,71.76,27.898c10.327-0.102,19.387-2.352,26.911-6.668c14.876-8.533,25.959-23.481,30.431-41.013
				C297.211,264.174,294.96,247.113,286.826,233.888z"/>
			<path fill="#EA7873" d="M95.085,204.051c7.409-8.462,48.208-15.227,84.291-11.337c36.088,3.888,86.991,18.042,102.919,43.957
				c15.924,25.922,5.425,64.442-22.391,80.393c-28.515,16.36-76.405-4.397-92.223-20.367c-15.818-15.954-23.484-23.46-32.039-23.839
				c-9.763-0.441-27.298,19.257-44.858,18.019c-6.393-0.447-13.711-5.922-14.034-25.933
				C76.463,246.487,82.893,217.927,95.085,204.051z"/>
			<path fill="#C73447" d="M288.551,276.117c-0.018-1.077-0.099-2.127-0.261-3.122c-1.104-6.715-2.822-14.646-8.302-19.164
				c-6.972-5.737-15.826-10.532-24.736-11.891c-15.035-2.304-30.921-4.094-46.115-2.372c-10.09,1.139-22.419,3.327-30.525,9.866
				c-7.687,6.176-15.341,20.602-16.088,30.49l3.668,10.28c0.49,3.094,1.931,6.087,3.919,8.769
				c15.269,13.319,50.278,28.511,77.103,22.828c1.115-0.382,2.201-0.796,3.251-1.217c2.235-0.892,4.588-1.537,6.915-2.199
				c0.86-0.409,1.705-0.843,2.523-1.321C275.2,308.303,285.252,292.687,288.551,276.117z"/>
			<path fill="#C73447" d="M138.519,256.343c2.564-7.972,7.361-20.553-1.426-26.22c-5.165-3.337-13.445-3.232-19.295-2.119
				c-4.656,0.876-9.271,3.652-13.004,6.5c-3.773,2.892-5.936,5.893-8.342,9.853c-2.418,3.974-6.542,8.146-7.447,12.867
				l-8.302,22.146c0.302,3.476,2.321,7.434,5.215,10.082c1.609,0.893,3.27,1.314,4.866,1.425c5.301,0.385,10.596-1.157,15.671-3.474
				c1.544-0.807,3.048-1.582,4.486-2.237c7.69-4.169,14.687-9.379,20.216-11.434C134.831,268.89,136.866,261.472,138.519,256.343z"
				/>
			<path fill="#0B1F28" d="M272.155,231.214c-8.585-8.766-22.783-18.566-33.688-22.538c-12.902-4.689-27.242-8.172-37.408-9.063
				c-1.144-0.113-2.302-0.151-3.45-0.144c-23.96,0.254-36.156,25.228-38.228,40.887c-3.162,23.986-0.919,36.106,9.545,51.865
				c5.402,8.1,16.617,15.547,32.461,21.562c13.234,5.012,27.519,8.048,37.294,7.948c10.907-0.106,21.436-4.817,30.417-13.622
				c16.151-15.855,17.547-40.126,16.52-48.227C284.197,248.672,280.595,239.835,272.155,231.214z"/>
			<path fill="#0B1F28" d="M262.732,223.111c-8.584-8.781-23.374-15.344-34.28-19.304c-12.908-4.703-27.243-8.17-37.415-9.077
				c-1.146-0.103-2.305-0.147-3.448-0.129c-23.952,0.256-36.157,25.213-38.223,40.885c-3.162,23.973-0.925,36.081,9.559,51.853
				c5.383,8.086,16.598,15.547,32.45,21.552c13.225,5.021,27.516,8.073,37.291,7.973c10.913-0.121,21.43-4.846,30.417-13.639
				c6.856-6.706,12.623-15.791,15.814-24.885C281.827,258.626,277.28,237.971,262.732,223.111z"/>
			<path fill="#D6DAE2" d="M259.714,226.322c-8.012-8.193-22.196-14.447-32.677-18.278c-12.585-4.567-26.522-7.956-36.363-8.828
				c-1.011-0.074-2.026-0.121-3.029-0.115c-21.248,0.222-32.126,22.815-34.008,37.007c-3.01,22.91-1.039,33.832,8.832,48.651
				c4.799,7.229,15.587,14.301,30.38,19.907c12.767,4.836,26.466,7.784,35.77,7.688c9.818-0.113,19.323-4.398,27.51-12.408
				c6.385-6.26,11.753-14.695,14.733-23.156C277.175,258.787,273.021,239.922,259.714,226.322z"/>
			<path fill="#0B1F28" d="M265.24,274.629c5.5-15.628,1.866-32.02-9.699-43.851c-7.608-7.764-22.357-13.885-30.467-16.824
				c-12.144-4.423-25.523-7.682-34.902-8.515c-0.828-0.075-1.642-0.11-2.463-0.105c-17.491,0.187-26.551,19.498-28.141,31.628
				c-2.813,21.306-1.132,30.815,7.803,44.252c4.051,6.076,14.073,12.493,27.503,17.583c11.964,4.532,25.185,7.399,33.682,7.307
				c8.281-0.076,16.405-3.789,23.486-10.725C257.772,289.784,262.58,282.214,265.24,274.629z"/>
			<path fill="#BEC3CB" d="M193.581,214.562c-18.153-1.6-26.439,19.068-27.757,29.132c-2.195,16.672-1.549,25.529,2.882,34.616
				c0.273,0.442,0.557,0.872,0.845,1.316c8.337,12.54,42.13,23.887,58.973,23.719c16.838-0.184,29.612-16.555,34.225-29.669
				c3.232-9.191,3.254-19.669-1.066-29.268c-1.275-1.825-2.728-3.593-4.382-5.279C245.516,227.081,211.722,216.176,193.581,214.562z
				"/>
			<path fill="#0B1F28" d="M140.794,213.053c-3.518-6.376-7.011-10.367-13.703-13.613c-4.591-2.233-3.308,1.894-3.773,1.938
				l-2.732,2.52c-8.278,0.629-25.496-5.488-33.451,16.885c-2.69,7.547-5.331,18.577-6.726,28.09
				c-2.98,20.285-7.506,18.925-5.362,26.05c3.58,11.827,19.905,13.788,27.466,11.573c7.562-2.226,17.656-7.457,23.982-13.299
				c7.009-6.479,12.229-16.261,14.406-25.107C144.452,233.644,144.519,219.817,140.794,213.053z"/>
			<path fill="#0B1F28" d="M131.633,203.602c-3.9-4.798-9.424-7.404-15.541-7.34c-0.465,0.017-0.951,0.032-1.417,0.075l-0.879,0.059
				c-8.277,0.628-27.673,2.107-35.618,24.47c-2.687,7.557-5.327,18.587-6.729,28.104c-2.983,20.282,0.672,25.593,2.044,27.575
				c1.673,2.432,5.29,6.244,11.909,7.348l0.002,0.339l8.267-0.078l-0.002-0.311c7.924-1.218,16.76-5.472,23.078-11.33
				c7.018-6.478,12.692-15.562,15.191-24.315c2.42-8.498,3-11.264,4.658-20.415C138.289,218.372,136.486,209.564,131.633,203.602z"
				/>
			<path fill="#D6DAE2" d="M128.466,206.354c-3.338-4.099-8.178-6.186-13.486-5.763l-0.876,0.061
				c-8.116,0.614-25.008,1.902-32.043,21.697c-2.603,7.304-5.164,18.009-6.521,27.268c-2.73,18.572,0.319,23,1.32,24.458
				c1.528,2.225,5.206,5.933,12.629,5.848l0,0c7.778-0.086,17.844-4.43,24.505-10.582c6.461-5.979,11.683-14.332,13.97-22.356
				c2.381-8.311,2.95-11.022,4.566-19.986C134.002,218.858,132.522,211.323,128.466,206.354z"/>
			<path fill="#0B1F28" d="M89.441,274.942c6.6-0.067,15.564-3.988,21.328-9.312c5.832-5.383,10.533-12.886,12.576-20.063
				c2.322-8.13,2.844-10.586,4.448-19.497c1.198-6.659,0.096-12.685-3.011-16.515c-2.157-2.639-5.194-4.078-8.587-4.044
				c-0.276,0.002-0.561,0.017-0.848,0.034l-0.891,0.072c-7.651,0.585-21.911,1.667-27.867,18.442
				c-2.497,7.017-4.966,17.344-6.277,26.31c-1.554,10.523-1.385,18.116,0.488,20.827C81.997,272.928,84.467,274.998,89.441,274.942
				L89.441,274.942z"/>
			<path fill="#BEC3CB" d="M125.419,225.628c1.002-5.595,0.217-10.531-1.957-13.75c-1.338-0.678-2.894-0.993-4.624-0.863
				c-7.636,0.611-21.039,1.018-26.681,16.89c-5.171,14.518-8.805,37.822-6.506,43.989c5.953,2.159,17.101-2.191,23.516-8.114
				c4.472-4.134,9.603-11.021,11.856-18.911C123.278,236.98,123.777,234.7,125.419,225.628z"/>
			<path fill="#0B1F28" d="M260.021,249.721c-4.266-8.322-11.489,15.205-14.609,20.316c-3.04,4.961-7.421,8.919-12.883,9.503
				c-7.403,0.787-14.429,2.148-21.232,5.286c-2.659,1.241-5.266,2.078-6.352,5.007c-3.418,9.205,17.695,11.176,23.24,10.727
				c10.433-0.82,16.3-5.608,21.466-10.889c7.977-8.158,10.602-16.953,11.834-25.026
				C262.421,258.433,262.323,254.193,260.021,249.721z"/>
			<path fill="#0B1F28" d="M197.245,284.722c-3.511-1.903-9.469-4.034-13.613-3.607c-5.161,0.544-1.487,6.014,1.285,7.587
				c2.762,1.573,7.357,4.468,10.476,4.623c2.345-0.028,4.999,0.427,5.548-2.444C201.408,288.332,199.332,285.857,197.245,284.722z"
				/>
			<path fill="#0B1F28" d="M118.488,224.015c-4.286,3.686-4.172,11.457-6.189,16.466c-2.753,6.841-7.262,12.688-11.873,18.371
				c-1.244,1.515-6.645,5.468-4.744,8.08c1.153,1.583,6.231-0.239,8.137-1.449c9.604-6.064,15.447-18.878,17.393-29.34
				C121.828,232.894,124.77,218.604,118.488,224.015z"/>
			<path fill="#0B1F28" d="M91.572,266.244c-0.104-0.027-0.211-0.054-0.32-0.078c-2.606-0.565-4.664,2.263-2.36,3.581
				c0.643,0.374,2.614,0.374,3.453-0.143C94.183,268.478,93.256,266.785,91.572,266.244z"/>
			<path fill="#EEF0F8" d="M210.502,218.228c0.311-0.002,0.62-0.004,0.923-0.006l-7.85-2.278c-2.031,1.451-6.15,1.826-7.783,3.561
				c-1.525,1.61-1.015,5.634-1.102,7.857c-0.096,2.168-0.127,4.835-1.287,6.702c-1.887,3.014-3.364,2.617-3.321,6.44
				c0.052,4.176,1.446,12.691-1.486,15.901c-1.833,1.987-3.463,1.863-4.225,4.548c-0.711,2.536,0.09,3.865-0.582,6.414
				c-0.857,3.183-0.37,4.405-0.225,7.582c0.114,2.153-1.496,3.94,1.709,4.015c5.826,0.126,4.598-6.545,6.471-10.016
				c2.598-4.838,5.5-8.101,6.516-13.6c0.403-2.224-0.233-5.196,0.427-7.301c0.679-2.174,3.757-4.425,5.105-6.334
				c1.556-2.163,2.908-4.717,3.767-7.131c1.178-3.362,2.852-3.936,5.401-6.229c1.664-1.518,4.638-3.918,4.447-6.423
				C217.146,218.648,212.877,218.917,210.502,218.228z"/>
			<path fill="#EEF0F8" d="M185.782,223.04c-0.733-0.872-1.85-0.825-3.182,1.34c-1.574,2.54-1.785,5.609-2.797,8.353
				c-1.079,2.928-1.823,5.841-2.753,8.86c-0.781,2.577-0.458,4.719-0.576,7.373c-0.132,2.907,0.855,3.548,2.564,1.142
				c1.282-1.813,1.934-4.35,2.843-6.399c1.271-2.851,0.93-5.461,1.748-8.307c0.766-2.646,2.367-4.955,2.989-7.682
				C186.973,226.183,186.616,224.033,185.782,223.04z"/>
			<path fill="#EEF0F8" d="M109.981,213.414c-1.995-0.016,2.063-0.364,2.033-0.297l-6.154,1.251
				c-2.148,0.242-6.181,4.684-6.807,6.707c-1.111,3.588-1.542,7.78-1.534,11.576c-0.01,4.039-2.665,6.818-2.977,10.764
				c-0.274,3.652-1.481,6.957-1.269,10.658c2.1,0.056,3.316-1.796,3.722-3.563c0.484-2.173,0.778-4.004,1.543-6.189
				c0.655-1.864,0.913-3.887,1.353-5.759c0.44-1.848,0.113-3.73,0.471-5.643c0.398-2.133,1.806-3.069,3.089-4.775
				c1.342-1.773,2.365-3.866,3.621-5.731c1.202-1.784,2.848-3.247,3.98-5.034C111.855,216.122,111.972,213.428,109.981,213.414z"/>
			<path fill="#EEF0F8" d="M105.81,231.687l-0.249-0.729c-1.064,2.082-1.727,4.563-2.481,6.832c-0.65,1.93-2.576,5.98-2.303,7.89
				c3.572,1.879,4.891-3.584,5.094-5.876C106.092,237.515,108.487,232.383,105.81,231.687z"/>
			<path fill="#0B1F28" d="M146.418,270.854c-2.579-3.016-2.039-18.762-7.922-8.465c-2.406,4.205-0.947,4.989,3.002,6.649
				c3.449,1.448,4.245,3.946,7.092,6.058L146.418,270.854z"/>
			<g>
				<path fill="#0B1F28" d="M147.642,286.573c-2.952-3.051-5.54-4.343-9.642-3.551c-2.172,0.443-8.223,1.572-7.809,3.496
					c0.409,1.923,11.273,2.302,13.859,2.933C147.869,290.369,151.546,290.604,147.642,286.573z"/>
			</g>
			<path fill="#0B1F28" d="M122.669,287.076c1.484,0.812,6.768-2.669,7.856-3.321c0.98-0.584,5.431-3.859,4.871-5.144
				c-0.752-1.75-8.129,1.81-9.283,2.543c-1.428,0.926-2.769,1.997-3.431,3.62C122.117,286.121,122.201,286.821,122.669,287.076z"/>
			<path fill="#0B1F28" d="M157.278,299.051c-2.788-0.133-4.647-0.553-7.372-1.208c-0.552-0.132-5.518-0.788-5.669,0.075
				c-0.382,2.413,9.399,4.198,11.341,4.671c1.551,0.368,3.078,0.761,4.7,0.335c2.031-0.539,1.778-1.745,0.353-2.815
				C159.616,299.348,158.465,299.11,157.278,299.051z"/>
			<path fill="#0B1F28" d="M325.508,328.421c-5.083-3.174-10.968-5.615-16.698-6.657c-7.951-1.446-18.265-1.048-25.995-2.494
				c-3.418-0.641-8.793-0.985-11.762,1.229c-1.053,0.788-2.644,2.95-1.853,4.36c1.333,2.334,18.78,6.04,22.289,7.04
				c8.133,2.336,15.78,4.321,24.235,5.077c2.353,0.216,8.491-0.118,10.668-1.609C329.457,333.289,327.903,329.943,325.508,328.421z"
				/>
			<path fill="#0B1F28" d="M309.043,344.522c0,0,4.27-0.042-0.358-0.349c-4.629-0.309-10.105-2.08-13.55-3.126
				c-4.162-1.253-10.297-4.484-14.559-3.641c-1.642,5.976,10.045,7.79,13.193,8.703c5.458,1.595,13.793,2.93,18.81,1.876
				C317.609,346.931,311.682,344.206,309.043,344.522z"/>
			<path fill="#0B1F28" d="M268.738,332.147c-5.081-1.923-10.338-3.264-15.66-3.689c-0.514,4.177,11.846,8.21,15.699,8.672
				l3.563,1.391C281.856,338.705,272.2,333.47,268.738,332.147z"/>
			<path fill="#EA7873" d="M290.524,177.603c0.915-0.396-14.958-9.74-16.003-10.125c-6.452-2.436-14.94-5.254-21.765-5.237
				c0.11,0.495,1.103,4.529,0.982,4.53c-5.329,0.315-11.051-0.417-16.151,1.08c-0.348,7.112,10.184,8.583,15.677,11.661
				c6.66,3.717,12.863,7.207,19.211,11.531c5.198,3.551,17.92,11.661,20.016,1.831C293.55,187.872,283.018,180.678,290.524,177.603z
				"/>
			<path fill="#0B1F28" d="M137.413,171.584c-9.887,5.299-16.249,11.072-18.34,14.655c-2.086,3.581-2.56,4.296-0.666,4.756
				c1.154,0.264,7.191-5.348,12.704-10.338C134.727,177.376,139.658,175.625,137.413,171.584z"/>
			<path fill="#0B1F28" d="M130.164,337.415c-0.296,15.664-31.346,9.23-41.166,8.506c-17.217-1.267-34.063-1.463-49.252,7.653
				c-4.112,2.462-7.037,6.694-6.529,9.56c0.971,5.554,1.349,6.778,6.704,6.18c9.393-1.039,17.784-5.4,27.55-6.092
				c23.613-1.678,66.518,13.128,82.292-11.313c2.563-3.959,4.646-9.065,6.028-14.282"/>
			<path fill="#0B1F28" d="M236.841,377.786c-0.549,0.447-23.274-5.46-26.163-6.358c-35.469-11.189-50.944,10.543-74.804,11.698
				c-4.49,0.218-6.896-0.16-8.474,3.903c-1.253,3.252,0.218,8.388,3.408,10.415c7.517,4.777,29.636-2.601,35.985-6.116
				c8.225-4.534,19.952-4.927,29.357-4.096c9.726,0.844,20.393,5.585,29.018,8.697c8.17,2.94,36.069,1.506,42.166-4.711"/>
			<path fill="#D6DAE2" d="M147.295,386.558c0.542,0.777,0.495,2.891,0.041,3.554c-0.968,1.381-3.123,1.445-4.353,0.499
				c1.317,2.092,3.835,1.616,4.834,0.09C148.532,389.605,149.085,387.611,147.295,386.558z"/>
			<path fill="#D6DAE2" d="M162.163,380.594c0.546,0.764,0.503,2.896,0.051,3.559c-0.969,1.378-3.123,1.432-4.362,0.482
				c1.326,2.093,3.84,1.62,4.837,0.108C163.409,383.63,163.96,381.635,162.163,380.594z"/>
			<path fill="#D6DAE2" d="M180.2,374.911c0.451,0.833,0.158,2.937-0.375,3.53c-1.118,1.275-3.261,1.073-4.385-0.012
				c1.079,2.243,3.622,2.063,4.785,0.657C181.068,378.073,181.852,376.168,180.2,374.911z"/>
			<g>
				<path fill="#BEC3CB" d="M251.619,336.574c-3.067-1.41-7.497,0.477-8.751,3.472c-0.425,1.015-1.025,3.064,0.054,3.864
					c1.463,1.084,3.617-1.178,4.69-1.898c1.348-0.91,4.106-2.301,5.663-1.127c1.894,1.431,1.011,4.585-0.293,7.14
					C257.231,345.182,255.803,338.5,251.619,336.574z"/>
				<g>
					<path fill="#BEC3CB" d="M245.947,341.765c0.06,0.026,0.13,0.04,0.182,0.051c0.009,0,0.009,0,0.014-0.011L245.947,341.765z"/>
					<path fill="#BEC3CB" d="M250.951,341.06c-0.976-2.255-4.648,0.784-5.036,2.132C244.869,346.887,252.542,344.73,250.951,341.06z
						"/>
				</g>
			</g>
			<g>
				<path fill="#0B1F28" d="M268.656,156.084c-5.785-1.028-10.269-1.325-16.326-1.583c-12.888-0.569-28.917,3.058-39.786,9.425
					c-8.072,4.706-19.663,13.975-26.057,26.686c0.098,0.346,0.359,0.306,0.64,0.629c0,0,9.6-0.058,9.611-0.058
					c1.361-0.239,3.972-4.711,4.807-5.739c2.213-2.707,4.404-5.386,6.947-7.813c14.633-13.944,35.132-17.907,54.697-18.172
					c6.531-0.08,15.114,3.273,21.529,5.348C280.391,163.068,273.961,157.006,268.656,156.084z"/>
				<path fill="#0B1F28" d="M281.534,162.604l-0.007,0c0.007,0.016,0.013,0.016,0.013,0.016L281.534,162.604z"/>
			</g>
			<g>
				<path fill="#0B1F28" d="M137.699,187.889l-0.35,0.178C137.553,188.079,137.659,188.025,137.699,187.889z"/>
				<path fill="#0B1F28" d="M162.486,159.517c-4.458,3.255-12.69,9.5-16.032,14.047c-3.28,4.437-7.517,9.658-9.813,14.332
					c0,0.067,1.072-0.06,1.058-0.006l1.074-0.558c5.713-10.43,16.889-21.663,27.441-28.148c8.671-5.333,14.156-6.94,23.238-10.458
					C181.93,148.64,172.782,151.994,162.486,159.517z"/>
			</g>
			<path fill="#C73447" d="M198.306,165.45c-2.393,0.716-9.099,4.983-10.321,1.086c-1.167-3.693,5.543-5.123,2.705-9.292
				c2.178-1.441,8.314-3.243,7.757-6.418c-9.267-2.851-18.536,3.546-26.55,7.34c-4.903,2.319-11.085,7.298-15.471,10.489
				c-2.956,2.16-9.319,7.597-9.2,11.473l-3.518,3.59c5.965,2.4,14.92-0.721,21.355-0.141c3.3,0.302,5.3,1.798,8.277,2.603
				c2.987,0.789,5.818-0.656,8.425-1.44c3.428-1.017,4.59-0.459,6.808-3.275c2.232-2.825,3.838-5.852,6.521-8.25
				c1.89-1.695,4.924-3.032,6.427-4.968C203.96,165.135,201.438,164.518,198.306,165.45z"/>
			<path fill="#0B1F28" d="M180.611,181.623c-0.863-1.137-6.723-1.44-8.205-1.688c-3.437-0.556-6.657-0.712-10.245-0.676
				c-2.707,0.028-7.31,1.509-7.839-1.326c-0.39-2.087,4.366-6.422-1.13-5.34c-3.125,0.611-8.258,7.147-8.421,10.055l-2.106,2.518
				c7.055-0.256,14.317-0.867,21.586-0.951C166.399,184.202,183.787,185.872,180.611,181.623z"/>
			<path fill="#EA7873" d="M219.439,148.694c-2.888-0.103-8.087-1.675-10.734-0.257c-6.192,3.321,2.915,2.916,4.749,3.606
				l6.744-0.432c6.606,1.35,13.909,2.058,20.591,0.427C239.263,146.622,224.007,148.867,219.439,148.694z"/>
			<path fill="#0B1F28" d="M254.607,291.958c-1.88,0.846-3.621,3.751-5.167,5.215c-2.686,2.519-5.426,4.586-8.827,5.696
				c-3.588,1.18-8.172,0.991-11.377,2.263l-5.312,2.187c-2.22-0.809-6.279-0.594-8.476,0.158
				c-1.451,2.892,11.745,4.791,14.572,4.759c6.408-0.08,11.85-1.956,17.379-5.264c3.985-2.379,11.869-7.909,12.309-12.838
				C260.005,290.808,257.857,290.495,254.607,291.958z"/>
			<path fill="#0B1F28" d="M204.568,302.95l1.928,0.447c-2.871-0.602-5.606-2.847-8.369-3.085c-4.244-0.38-4.63,2.194-1.803,4.641
				c2.363,2.033,6.258,3.543,9.361,2.772C209.901,306.677,207.755,304.294,204.568,302.95z"/>
			<path fill="#0B1F28" d="M109.701,269.514c-3.553-1.905-6.953,3.476-10.569,3.255l-1.416,1.087
				c-1.111,1.189-2.441,1.778-2.387,3.514C99.013,278.787,111.356,274.726,109.701,269.514z"/>
			<path fill="#0B1F28" d="M88.94,275.282c-1.041-1.531-4.593-2.005-6.18-3.044c-2.189-1.444-2.346-2.64-3.746-4.53
				c-0.11-0.726-0.184-1.453-0.24-2.194c-0.169-2.167,0.893-6.857-1.572-8.086c-3.268-1.619-4.476,2.599-4.846,4.623
				c-0.966,5.244-0.946,12.678,3.44,16.571C78.87,281.336,92.926,281.153,88.94,275.282z"/>
			<g>
				<g>
					<path fill="#0B1F28" d="M74.624,377.13c5.678-3.86,13.152-4.701,20.056-4.377c20.123,0.941,40.299,1.519,60.459,1.867
						c-0.311,1.739-0.47,2.628-0.766,4.394c2.376,9.856,5.059,19.63,7.974,29.334c0.572-0.003,1.129-0.007,1.634-0.01
						c-0.213,3.624-0.308,5.443-0.516,9.024c-15.902,0.073-32.11,0.683-47.765-0.166c-0.443-0.025-0.894-0.048-1.324-0.072
						c-4.197-0.246-9.336-0.536-11.964-6.444c-5.527-1.084-8.58-2.684-10.653-8.151c-7.785-1.326-9.513-6.459-10.063-10.469
						c-4.853-0.792-12.989-2.361-11.277-9.265C70.941,380.678,72.432,378.608,74.624,377.13z"/>
					<path fill="#BEC3CB" d="M154.372,379.014c-20.35-0.401-40.766-0.842-61.053-1.811c-7.648-0.371-17.011,1.409-18.014,5.548
						c-1.021,4.128,7.312,4.59,10.911,5.337c0.458,4.504,0.497,9.811,9.372,10.189c1.792,6.438,3.641,7.208,10.623,8.35
						c1.62,6.078,5.138,5.762,10.318,6.053c15.465,0.863,31.484,0.238,47.19,0.184"/>
					<path fill="#0B1F28" d="M83.663,387.873c8.574,0.311,17.143,0.462,25.648,0.235c4.806-0.137,9.686,0.023,14.583,0.019
						c3.393-0.006,6.769,0.364,10.235,0.384c1.178-0.007,6.879,0.388,6.829,1.346c-0.063,0.943-10.015,0.733-13.234,0.737
						c-6.126,0.026-12.937,0.416-18.921,0.668c-5.222,0.221-12.7,0.671-17.928,0.434C88.223,391.575,81.976,391.708,83.663,387.873z
						"/>
					<path fill="#0B1F28" d="M91.856,398.045c7.49,0.477,15.02,0.891,22.492,0.656c4.415-0.147,8.903-0.015,13.385-0.026
						c3.118-0.004,6.223,0.325,9.387,0.332c1.098,0.005,6.293,0.366,6.248,1.201c-0.026,0.848-9.105,0.673-12.039,0.691
						c-5.609,0.023-11.848,0.398-17.326,0.63c-4.766,0.205-11.566,0.623-16.291,0.41C95.302,401.819,90.504,401.497,91.856,398.045z
						"/>
					<path fill="#0B1F28" d="M102.63,406.608c5.978,0.328,12.243,0.747,18.471,0.509c3.655-0.144,7.33-0.018,11.02-0.041
						c2.559-0.002,5.119,0.239,7.697,0.247c0.89,0.009,5.113,0.295,5.089,0.996c-0.022,0.686-7.402,0.528-9.827,0.542
						c-4.577,0.028-9.714,0.343-14.209,0.547c-3.909,0.169-9.482,0.513-13.348,0.348
						C105.541,409.662,101.635,409.402,102.63,406.608z"/>
					<path fill="#0B1F28" d="M279.936,374.24c-6.974-4.24-16.404-3.806-18.955-3.601c-17.713,1.358-35.642,2.544-53.48,3.138
						c0.321,1.788,0.476,2.69,0.775,4.491c-2.261,10.02-4.773,19.986-7.459,29.898c-0.572,0.003-1.133,0.007-1.636,0.01
						c0.309,3.633,0.456,5.439,0.788,8.994c15.686-0.086,31.685,0.225,47.077-1.028c0.425-0.031,0.855-0.074,1.257-0.116
						c4.013-0.32,8.925-0.7,10.692-6.771c5.041-1.242,7.678-2.968,8.794-8.668c7.005-1.607,7.823-6.985,7.689-11.131
						c4.405-0.983,12.059-3.037,9.394-9.821C284.043,377.54,282.301,375.694,279.936,374.24z"/>
					<path fill="#BEC3CB" d="M208.275,378.269c18.183-0.499,36.454-1.903,54.509-3.372c6.595-0.552,15.707,0.806,17.292,4.877
						c1.594,4.069-6.212,4.899-9.375,5.766c0.269,4.618,0.989,10.122-7.012,10.776c-0.746,6.709-2.356,7.542-8.705,8.886
						c-0.849,6.267-4.219,6.017-9.105,6.437c-15.127,1.276-30.879,0.981-46.314,1.063"/>
					<path fill="#0B1F28" d="M216.329,372.916c-3.205-3.415-11.373-5.951-14.361-6.861c-4.891-1.493-11.635-3.176-18.997-2.967
						c-0.412,0.003-0.831,0.014-1.239,0.047c-10.191,0.653-36.332,6.681-38.06,16.994c-1.428,8.522,3.937,20.647,7.145,29.891
						c1.629,4.703,6.179,8.784,10.446,11.934c6.237,4.609,14.116,8.439,21.807,8.594c0.31-0.002,0.646-0.019,0.942-0.046
						c7.631-0.668,15.207-3.716,21.182-8.503c5.164-4.139,9.614-7.965,10.911-12.777c1.066-3.956,2.231-11.703,2.653-18.843
						C219.595,376.046,217.393,374.039,216.329,372.916z"/>
					<path fill="#BEC3CB" d="M148.425,380.075c1.969-7.526,24.161-12.752,33.402-13.28c9.835-0.542,26.332,2.198,30.826,8.216
						c4.557,6.113,1.314,23.343-1.105,33.038c-0.949,3.763-4.704,7.005-9.748,11.183c-5.047,4.191-13.003,7.497-18.282,7.609
						c-6.556,0.15-13.692-3.753-19.075-7.775c-3.462-2.576-7.841-6.375-9.218-10.376
						C152.154,399.751,146.622,386.952,148.425,380.075z"/>
					<path fill="#0B1F28" d="M200.344,390.128c-1.436-3.32-8.849-2.196-11.852-5.478c-1.213-1.31-5.736-12.353-8.323-8.311
						c-3.481,5.449-2.404,10.1-9.079,11.756c-12.438,3.094-6.289,4.51-1.857,12.698c2.145,3.946-2.393,13.763,0.5,15.699
						c3.46,2.305,11.985-6.202,18.397-3.791c9.732,3.66,12.405,3.765,8.507-6.299C193.766,398.987,201.653,393.137,200.344,390.128z
						"/>
					<path fill="#0B1F28" d="M199.706,387.289c-1.066-2.47-3.708-3.073-6.163-3.636c-1.697-0.397-3.58-0.84-4.482-1.832
						c-0.147-0.19-0.598-0.98-0.952-1.609c-2.219-3.932-4.049-7.114-6.255-7.075c-0.6,0.018-1.487,0.279-2.262,1.522
						c-1.132,1.811-1.783,3.486-2.38,4.971c-1.032,2.644-1.55,3.981-4.494,4.754c-4.209,1.089-6.79,2.061-7.584,4.113
						c-0.741,1.915,0.451,3.526,1.877,5.413c0.883,1.168,1.981,2.629,2.943,4.44c0.62,1.193,0.177,4.054-0.171,6.345
						c-0.52,3.463-1.057,6.726,1.098,8.232c0.658,0.442,1.441,0.666,2.335,0.661c1.764-0.011,3.772-0.955,5.846-1.935
						c2.135-1.021,4.496-2.182,6.476-2.194c0.566-0.003,1.067,0.089,1.524,0.274c3.454,1.354,5.883,2.132,7.669,2.135l0,0
						c1.689-0.01,2.546-0.769,2.973-1.405c1.014-1.541,0.664-3.855-1.129-8.627c-1.192-3.182,0.435-6.099,1.818-8.653
						C199.554,391.036,200.526,389.197,199.706,387.289z"/>
					<path fill="#BEC3CB" d="M198.147,387.906c-1.228-2.929-7.578-1.934-10.167-4.84c-1.044-1.154-4.982-10.96-7.208-7.363
						c-3.008,4.837-2.061,8.952-7.776,10.429c-10.641,2.758-5.361,4.004-1.541,11.279c1.846,3.505-1.977,12.281,0.496,14.016
						c2.97,2.071,10.222-5.556,15.7-3.394c8.302,3.288,10.598,3.356,7.285-5.646C192.514,395.764,199.269,390.577,198.147,387.906z"
						/>
					<path fill="#0B1F28" d="M273.006,385.244c-7.542,0.719-15.12,1.073-22.684,1.026c-4.232-0.03-8.431,0.294-12.816,0.453
						c-3.042,0.1-6.088,0.588-9.32,0.73c-1.117,0.047-6.527,0.685-6.467,1.658c0.073,0.967,9.508,0.37,12.439,0.272
						c5.593-0.195,11.626,0.024,16.92,0.1c4.612,0.078,11.252,0.323,15.936-0.085C269.396,389.182,275.153,389.082,273.006,385.244z
						"/>
					<path fill="#0B1F28" d="M267.045,395.956c-6.625,0.647-13.368,1.389-20.25,1.336c-4.045-0.03-8.096,0.265-12.29,0.399
						c-2.902,0.098-5.821,0.533-8.864,0.661c-1.052,0.03-6.123,0.589-6.078,1.461c0.061,0.862,8.877,0.351,11.669,0.266
						c5.312-0.165,11.078,0.042,16.101,0.117c4.382,0.084,10.611,0.317,14.904-0.05C264.432,399.972,268.78,399.488,267.045,395.956
						z"/>
					<path fill="#0B1F28" d="M258.296,405.101c-5.491,0.488-11.252,1.077-17.123,1.006c-3.44-0.049-6.912,0.189-10.461,0.29
						c-2.457,0.07-4.914,0.405-7.457,0.506c-0.867,0.016-5.049,0.432-5.01,1.118c0.038,0.701,7.335,0.333,9.676,0.278
						c4.452-0.12,9.36,0.054,13.617,0.133c3.71,0.073,8.96,0.282,12.563,0.004C255.94,408.304,259.538,407.931,258.296,405.101z"/>
					<path fill="#D6DAE2" d="M194.053,386.733c-2.152-0.905-4.423-0.164-6.387-1.672c-1.188-0.923-2.462-3.337-3.207-4.868
						c-0.777-1.613-1.523-4.88-3.77-3.451c-1.145,0.719-1.772,4.13-2.316,5.414c-2.104,4.996-5.139,4.488-9.393,6.654
						c0.4,0.604,0.618,0.913,1.027,1.516c-0.387,3.032,3.848,3.774,4.99,6.082c1.907,3.828,0.056,6.019,5.427,5.397
						c3.302-0.372,5.46,1.917,8.462,1.832c4.057-0.093,3.558-3.629,4.186-6.8C193.802,393.17,198.637,388.684,194.053,386.733z"/>
					<path fill="#D6DAE2" d="M210.809,375.264c-1.839-1.36-5.877-3.34-7.764-3.721c-4.617-0.93-8.891-0.687-12.802-1.566
						c-4.267-0.958-8.825-1.104-13.117-0.297c-2.637,0.499-5.177,0.985-8.008,1.92c-3.493,1.139-5.075,1.364-9.75,3.346
						c-2.51,1.079-7.471,2.387-8.275,5.422c-0.604,2.266,1.187,7.05,2.979,8.343c3.645,2.645,8.753-3.242,11.705-4.904
						c4.001-2.231,7.442-3.049,10.599-6.393c3.127-3.321,5.456-6.294,9.474-3.289c3.342,2.51,5.058,5.895,9.443,7.106
						c3.857,1.069,10.301,2.349,14.029-0.356C211.239,379.49,213.421,377.201,210.809,375.264z"/>
					<path fill="#D6DAE2" d="M210.999,388.744c-1.62-6.05-5.178-3.255-8.697-1.78c0.179,0.605,0.276,0.915,0.455,1.519
						c3.949,4.92-1.526,8.007-1.826,12.28c-0.349,5.292,7.003,6.62,8.918,2.476C211.429,399.795,212.087,392.774,210.999,388.744z"
						/>
					<path fill="#D6DAE2" d="M268.493,376.921c-5.156-1.086-10.422,0.048-14.851,0.442c-5.187,0.448-10.52,0.414-16.019,0.593
						c-5.357,0.167-10.503,1.252-16.878,1.436c0.407,0.242,0.623,0.348,1.015,0.575c-0.417,1.24-0.373,2.84,0.026,4.228
						c4.778,1.641,10.353,1.971,14.37,0.422c4.246-1.639,8.888-1.776,13.617-0.632c5.367,1.285,8.222,0.123,12.946-1.212
						c3.893-1.088,9.551,1.72,13.348-0.389C281.456,379.401,271.229,377.498,268.493,376.921z"/>
					<path fill="#D6DAE2" d="M268.122,390.107c-7.556-1.101-15.132-0.419-22.711-0.188c-8.039,0.254-15.975,1.256-24.054,1.425
						c-0.391,1-0.591,1.501-0.983,2.512c-0.172,0.447-0.426,0.65-0.139,1.185c5.013,0.615,10.673-1.06,15.03-1.651
						c4.387-0.607,7.678,0.303,11.826,0.75c4.379,0.484,7.534-1.488,11.273-1.872c1.812-0.188,3.725,1.024,5.63,1.054
						c1.796,0.018,3.302-0.41,4.863-0.836C268.84,391.907,268.456,390.683,268.122,390.107z"/>
					<path fill="#D6DAE2" d="M247.965,400.112c-4.888-0.105-9.545,0.609-14.627,0.764c-2.503,0.067-14.712-0.331-13.873,2.546
						c0.722,0.602,1.083,0.896,1.8,1.484c2.436-0.122,4.59-1.186,6.864-1.348c2.324-0.175,3.6,0.677,5.677,1.014
						c4.662,0.754,8.119-2.027,12.068-1.511c2.568,0.334,13.247,2.341,14.182-0.734C261.02,399.224,249.855,400.156,247.965,400.112
						z"/>
					<path fill="#D6DAE2" d="M113.959,379.839c-9.679-0.574-19.516-3.099-29.304-1.869c-1.523,0.197-5.65,1.245-6.987,2.667
						c-2.59,2.711,0.423,3.407,2.818,3.121c3.135-0.396,5.617-1.92,8.625-1.077c2.7,0.751,3.658,1.583,6.789,1.279
						c5.347-0.515,9.049,1.399,13.981-0.353c5-1.767,11.424-1.591,15.478,0.727c3.1,1.76,5.329-0.115,8.39,0.26
						c0.013,0.014,4.613,1.223,5.221,1.464c2.996,1.194,4.482-2.521,1.946-5.047c-1.555-1.581-7.303-1.29-9.5-1.437
						C125.555,379.148,119.544,380.181,113.959,379.839z"/>
					<path fill="#D6DAE2" d="M117.594,391.801c-4.759,0.512-9.369,0.66-14.106,0.879c-4.248,0.201-10.368,1.356-14.282-0.007
						c-0.424,0.246-0.624,0.367-1.054,0.612c6.038,7.666,19.382,0.892,27.173,1.274c4.562,0.231,9.209,0.74,14.383,0.008
						c2.025-0.28,3.948-0.992,6.142-0.695c2.076,0.281,3.789,1.781,5.936,1.713C137.689,388.042,124.699,391.044,117.594,391.801z"
						/>
					<path fill="#D6DAE2" d="M137.622,401.697c-4.432-0.162-9.13-0.065-13.431,0.056c-8.245,0.238-16.84-0.223-25.119,1.527
						c0.939,0.477,1.412,0.73,2.358,1.209c4.09,1.794,7.701-0.329,12.005,0.008c3.807,0.288,7.954,0.518,11.99,0.884
						c1.952,0.176,3.619,0.666,5.731,0.585c2.123-0.081,3.328-0.895,5.204-1.312c3.436-0.761,6.987,2.032,10.157,0.558
						C145.589,400.977,142.014,401.872,137.622,401.697z"/>
					<path fill="#EEF0F8" d="M178.951,371.149c-3.545-0.676-8.426,1.29-12.293,2.459c-3.419,1.031-10.354,3.187-13.332,6.395
						c-0.091,0.596-0.115,0.892-0.206,1.484c0.668,3.604,12.079-2.148,14.424-3.05C169.849,377.56,179.396,373.542,178.951,371.149z
						"/>
					<path fill="#EEF0F8" d="M186.15,369.827c-0.024,3.152,5.836,3.372,5.836,3.372c1.579,0.648,4.395,0.551,5.95-0.146
						C198.461,368.688,188.085,369.665,186.15,369.827z"/>
					<path fill="#EEF0F8" d="M181.071,378.664c-2.055,0.915-1.762,4.749-3.328,6.132c0.418,0.243,0.626,0.362,1.046,0.586
						c1.964-1.034,2.112-3.767,5.431-2.213C184.034,381.018,183.06,377.791,181.071,378.664z"/>
					<path fill="#EEF0F8" d="M189.415,386.475c0.697,0.846,1.036,1.262,1.748,2.119c0.642,1.156,5.985,3.328,6.157,0.26
						C197.465,386.159,191.014,386.306,189.415,386.475z"/>
					<path fill="#EEF0F8" d="M173.335,388.502c-1.441,0.356-2.944,0.716-4.385,0.928c-0.038,0.47-0.05,0.713-0.074,1.21
						c-0.281-0.066-0.565-0.037-0.84,0.058C169.552,391.985,174.136,391.836,173.335,388.502z"/>
					<g>
						<path fill="#EEF0F8" d="M91.396,379.464c0.187-0.001,0.43-0.017,0.687-0.019c0.416-0.069,0.818-0.151,1.222-0.289
							C92.539,379.282,92.163,379.338,91.396,379.464z"/>
						<path fill="#EEF0F8" d="M92.083,379.445c-2.524,0.391-5.234-0.223-7.799,0.034c-3.994,0.374-4.362,2.33-0.356,2.386
							c5.328,0.063,11.951-0.086,17.196-1.249C100.842,378.665,94.78,379.309,92.083,379.445z"/>
					</g>
					<path fill="#EEF0F8" d="M118.786,379.865c0.264-0.125,0.39-0.178,0.659-0.301c-2.889-0.012-6.826-0.729-9.648,0.316
						c-0.113,0.375-0.162,0.698-0.214,1.09c2.857,0.654,6.016,0.825,9.199,0.684C123.482,381.451,124.254,379.872,118.786,379.865z"
						/>
					<path fill="#EEF0F8" d="M89.723,393.532c0.533,0.065,1.248,0.166,1.826,0.057c-0.026,0.122-0.04,0.173-0.059,0.296
						c2.499,1.115,6.523-0.001,9.343-0.34C101.068,391.173,89.918,391.149,89.723,393.532z"/>
					<path fill="#EEF0F8" d="M122.282,390.992c-2.823,0.744-7.223,0.231-10.235,0.224c-0.261,0.081-0.381,0.122-0.645,0.204
						c-0.502,0.138-0.787,0.115-1.041,0.398c1.256,1.515,3.715,1.768,6.292,1.672C118.182,393.44,125.261,392.859,122.282,390.992z"
						/>
					<g>
						<path fill="#EEF0F8" d="M114.15,403.334c-2.752-0.71-10.367-1.661-12.708,0.845c1.398,1.555,9.632,0.926,12.674,0.178
							C114.14,404.048,114.068,403.619,114.15,403.334z"/>
						<path fill="#EEF0F8" d="M115.297,404.796c-0.226-0.241-0.341-0.375-0.565-0.618c-0.159,0.069-0.375,0.126-0.615,0.179
							c-0.009,0.029,0,0.055-0.008,0.082C114.559,404.477,114.896,404.623,115.297,404.796z"/>
					</g>
					<path fill="#EEF0F8" d="M268.79,376.248c-9.891-0.628-19.829,0.455-29.758,0.918c0.252,0.175,0.373,0.255,0.621,0.443
						c-1.565,0.55-7.744,0.328-3.781,2.419c2.122,1.106,6.062,0.259,8.254,0.179c6.019-0.196,12.159-0.142,18.08-0.837
						c2.651-0.311,5.532-0.408,8.196-0.951C274.017,377.696,272.005,376.454,268.79,376.248z"/>
					<path fill="#EEF0F8" d="M250.313,389.745c0.106-0.001,0.167-0.001,0.276-0.002c-2.612,1.415-7.177,0.137-10.414,0.358
						c-5.343,0.382-1.335,3.158,2.213,3.03c3.365-0.13,19.53,2.05,18.921-2.229C258.23,389.857,253.245,389.497,250.313,389.745z"/>
					<path fill="#EEF0F8" d="M233.965,402.972c1.494,0.03,2.994-0.059,4.477-0.095c0.085-0.244,0.119-0.364,0.203-0.618
						c3.861,1.185,9.737,0.194,13.439-0.152C251.496,399.484,233.804,398.718,233.965,402.972z"/>
					<path fill="#0B1F28" d="M192.338,399.928c-2.966-0.469-2.434,0.887-4.244,2.07c-1.711,1.1-3.517,0.991-5.649,0.991
						c-1.798,0.024-4.147,0.458-5.457-0.561c-1.51-1.176-0.754-4.518-3.028-4.194c-0.416,1.481-0.622,3.086,0.428,4.197
						c-0.24,0.364-0.348,0.555-0.592,0.919c0.648,1.692-0.928,3.924-0.67,6.01c4.861,0.377,8.444-3.821,13.158-3.646
						c1.342,0.043,5.134,1.719,6.221,0.89C193.732,405.668,192.809,401.377,192.338,399.928z"/>
					<path fill="#0B1F28" d="M205.307,409.028c-2.479-2.166-6.859,2.913-9.058,4.191c-2.397,1.361-3.724,4.167-6.472,4.2
						c-0.12,0.001-0.19,0.001-0.31,0.002c-2.389,1.228-4.455-1.55-6.712,0.996c-1.578,1.747-2.917,5.633-0.823,6.373
						c4.14,1.483,12.332-2.522,15.54-4.173C199.632,419.514,209.839,412.988,205.307,409.028z"/>
					<path fill="#0B1F28" d="M174.921,416.903c-1.539-0.744-5.792-2.631-7.48-1.851c-3.301,1.525,1.983,5.763,4.034,6.384
						c0.005,0,2.898,0.939,2.898,0.939c0.833,0.411,3.913-1.168,3.858-2.676C178.173,418.294,176.097,417.475,174.921,416.903z"/>
					<path fill="#0B1F28" d="M244.713,383.797c-5.385,0.156-11.761,0.948-17.108,1.103c0.471-0.018,0.707-0.033,1.172-0.036
						c-1.642,0.32-5.23,0.342-3.463,2.808c11.41-0.014,22.475-0.795,33.726-2.817C256.783,381.975,247.59,383.727,244.713,383.797z"
						/>
					<path fill="#0B1F28" d="M266.288,384.247c-0.072,0.122-0.105,0.188-0.171,0.31c1.794,0.624,4.148,0.219,5.971,0.058
						C271.076,383.005,266.251,382.374,266.288,384.247z"/>
					<path fill="#0B1F28" d="M239.068,395.412c-3.568,0.119-10.178-0.921-13.319,0.823c0.569,0.576,1.44,0.989,2.247,1.091
						c1.197,0.707,1.791,1.053,2.982,1.761c2.888-0.96,6.967-1.281,10.188-1.557c2.419-0.218,9.379,1.047,9.936-1.528
						C247.218,394.53,243.088,395.282,239.068,395.412z"/>
					<path fill="#0B1F28" d="M256.567,395.145c0.31,0.36,0.474,0.548,0.784,0.897c2.105,0.646,13.188,1.75,12.111-1.596
						C264.806,392.981,259.864,393.227,256.567,395.145z"/>
					<g>
						<path fill="#0B1F28" d="M240.164,408.387c0.382-0.045,0.84-0.057,1.344-0.09c0.264-0.083,0.514-0.177,0.729-0.286
							C241.416,408.167,240.997,408.234,240.164,408.387z"/>
						<path fill="#0B1F28" d="M241.508,408.298c-3.432,1.137-9.814,0.302-13.718,0.407c-2.457,0.056-6.36-0.486-8.711,0.213
							c-2.633,0.784-3.529,2.879-0.801,4.452c2.188,1.251,6.69,0.631,9.062,0.792c3.455,0.219,6.762,0.578,10.141,0.666
							c4.743,0.131,12.974,0.824,13.4-4.272C249.091,408.241,244.459,408.16,241.508,408.298z"/>
					</g>
					<path fill="#0B1F28" d="M241.78,403.718c-3.018-0.062-6.734-0.12-11.796,0.032c-2.359,0.054-12.672-0.77-12.618,1.544
						c0.08,3.243,9.667,1.906,12.123,1.837c2.014-0.053,3.003-0.084,4.971-0.137c8.578-0.969,11.796,0.104,19.866-1.213
						c0.059-0.309,0.069-0.914,0.053-1.197C250.97,402.868,245.36,403.778,241.78,403.718z"/>
					<path fill="#0B1F28" d="M211.755,379.205c-0.39-1.224-1.086-2.685-2.232-3.273c-1.502-0.772-3.465-1.796-4.99-2.032
						c-0.501,2.7,1.942,10.372,2.043,11.274c0.354,2.96-0.658,6.225,0.768,9.114c2.711,5.503,4.134-2.101,4.355-4.377
						c0.317-3.191,1.126-6.752,0.264-10.008C211.901,379.69,211.84,379.446,211.755,379.205z"/>
					<path fill="#0B1F28" d="M114.728,385.556c-4.729-2.287-12.889-0.339-18.221-0.105c-5.821,0.251-11.011-1.763-17.385-1.413
						c-0.118,0.391-0.205,0.713-0.258,1.092c3.446,1.945,2.623,3.644,7.045,3.632c3.568-0.251,5.332-0.369,8.824-0.606
						c3.613,1.648,16.132,0.925,20.084-1.133C114.848,386.661,114.811,385.894,114.728,385.556z"/>
					<path fill="#0B1F28" d="M127.068,385.51c-0.396,0.123-0.582,0.178-0.973,0.302c-0.958-0.196-1.794-0.083-2.536,0.62
						c0.917,4.332,8.651,4.189,12.813,2.264C136.817,384.428,129.472,386.437,127.068,385.51z"/>
					<path fill="#0B1F28" d="M126.891,396.323c-3.981-0.19-7.954-0.597-12.069-0.601c-4.382,0.001-8.759-0.12-13.017-0.338
						c-2.903-0.142-6.951-0.549-9.705,0.667c-1.173,4.223,12.022,3.591,15.016,3.584c2.34,0.24,3.525,0.382,5.876,0.625
						c7.656,0.064,20.249,1.656,26.38-3.352C136.117,395.635,130.456,396.478,126.891,396.323z"/>
					<path fill="#0B1F28" d="M145.585,405.515c-1.088-1.743-6.505-1.416-8.997-1.374c-2.06,0.026-12.707,0.938-9.084,3.168
						c1.54,0.959,8.123,0.557,9.655-0.072c-0.705,0.419-1.054,0.627-1.759,1.048C137.893,408.484,147.645,408.786,145.585,405.515z"
						/>
					<path fill="#0B1F28" d="M118.197,404.993c-2.878-0.804-7.259-0.602-10.301-0.489c-3.157,0.086-7.412,1.699-2.864,3.075
						c2.819,0.856,8.783,0.659,11.768,0.09c-0.792,0.165-1.197,0.235-1.975,0.402C118.328,408.534,123.033,406.323,118.197,404.993z
						"/>
					<path fill="#0B1F28" d="M150.959,410.41c-3.782-1.175-9.399-0.158-13.596-0.308c-8.97-0.348-20.035-2.101-28.497,1.4
						c-0.231,4.941,14.674,4.123,17.965,2.932c1.968-0.241,2.95-0.367,4.928-0.635c0.022,0.31,7.743,0.274,7.794,0.571
						c5.703,0.396,7.733,1.058,13.31-0.067C156.217,413.636,154.61,411.546,150.959,410.41z"/>
				</g>
			</g>
		</g>
	</g>
</g>
</svg>
