<?xml version="1.0" encoding="utf-8"?>
<!-- Generator: Adobe Illustrator 17.0.0, SVG Export Plug-In . SVG Version: 6.00 Build 0)  -->
<!DOCTYPE svg PUBLIC "-//W3C//DTD SVG 1.1//EN" "http://www.w3.org/Graphics/SVG/1.1/DTD/svg11.dtd">
<svg version="1.1" xmlns="http://www.w3.org/2000/svg" xmlns:xlink="http://www.w3.org/1999/xlink" x="0px" y="0px"
	 width="407.875px" height="580.007px" viewBox="0 0 407.875 580.007" style="enable-background:new 0 0 407.875 580.007;"
	 xml:space="preserve">
<style type="text/css">
	.st0{fill:#081F29;}
	.st1{fill:#EDF1FA;}
	.st2{fill:#D7DBE3;}
</style>
<g id="RULES">
</g>
<g id="Layer_1">
	<g>
		<path class="st0" d="M300.576,367.15c-0.104-1.151-10.478-115.209-11.366-133.821l-0.165-3.461l-3.091-1.57
			c-15.009-7.616-22.073-17.72-24.384-34.873c-1.509-11.193-0.792-23.577-0.099-35.553c1.263-21.844,2.355-40.71-11.309-46.533
			c-3.232-1.378-6.791-2.018-10.581-1.907c-19.697,0.58-40.874,20.842-47.204,45.166c-2.677,10.281-3.165,19.839-3.558,27.519
			c-0.587,11.484-1.102,17.599-5.592,20.235c-0.387,0.228-2.074,0.983-7.51,1.143c-4.732,0.139-10.881-0.193-17.391-0.548
			c-8.315-0.451-17.738-0.962-27.129-0.685c-20.102,0.592-34.069,4.641-43.956,12.742c-14.497,11.88-13.448,37.746-12.755,54.862
			c0.202,4.991,0.393,9.702,0.059,11.946c-0.252,1.689-0.67,3.813-1.154,6.271c-2.494,12.682-6.671,33.908,1.474,51.797
			c3.715,8.158,3.955,17.841,4.186,27.207c0.277,11.188,0.563,22.759,7.17,31.299c12.736,16.459,38.259,23.891,78.028,22.72
			c0.001,0,0.001,0,0.001,0c7.999-0.236,16.734-0.825,26.698-1.803c24.957-2.448,49.727-12.212,75.731-29.856
			c13.605-9.231,30.1-16.19,30.265-16.259l4.027-1.69L300.576,367.15z"/>
		<path class="st1" d="M283.257,233.614c-15.471-7.852-24.805-18.696-27.593-39.393c-4.189-31.087,7.938-70.676-7.838-77.4
			c-16.189-6.897-42.508,11.721-49.681,39.277c-6.379,24.512,0.456,44.141-11.9,51.394c-12.355,7.25-69.121-9.268-95.224,12.121
			c-16.443,13.475-8.962,52.224-10.579,63.077c-1.618,10.852-8.989,35.308-0.15,54.719c8.838,19.413,0.293,43.948,10.646,57.328
			c18.528,23.948,67.41,21.774,99.432,18.632c32.022-3.14,57.807-18.572,72.965-28.856c14.29-9.697,31.307-16.823,31.307-16.823
			S284.162,252.57,283.257,233.614z"/>
		<path class="st2" d="M84.953,278.124c-0.262,7.96-5.31,22.35-5.519,31.966c-0.197,9.09,3.272,15.713,5.185,24.196
			c2.053,9.107,3.555,17.897,4.279,27.205c0.633,8.13-0.069,19.049,2.776,26.753c5.144,13.931,27.502,20.269,39.88,21.187
			c19.38,1.437,36.282-0.074,56.277-0.663c19.994-0.588,36.224-9.902,53.852-18.855c7.946-4.035,16.098-7.411,23.219-12.611
			c9.353-6.828,5.61-11.533,1.62-20.931c-4.636-10.916-10.871-22.906-13.697-34.369c-0.776-3.146-0.642-15.212-4.644-13.934
			c-3.143,0.999-4.627,13.623-5.23,16.572c-1.085,5.297-0.719,7.538-6.81,8.661c-4.436,0.819-6.664-2.176-10.984-2.159
			c-10.977,0.04-10.294,13.975-19.933,14.997c-5.487,0.581-9.807-0.965-13.662-4.569c-3.5-3.27-6.315-12.235-11.316-12.97
			c-3.305-0.487-10.311,4.664-12.245,7.204c-3.719,4.883-4.268,13.252-7.256,18.711c-4.4,8.036-20.178,20.486-29.735,19.16
			c-6.092-0.845-3.353-5.446-4.773-9.807c-1.462-4.494-5.349-3.722-8.522-6.842c-3.047-2.997-2.416-7.251-4.776-10.281
			c-2.061-2.647-5.653-3.564-8.279-6.493c-6.087-6.792,0.261-14.272,0.828-22.496c0.547-7.925-3.666-17.309-6.661-24.652
			c-3.113-7.629-3.18-14.932-5.13-22.719c-2.132-8.511-6.821-11.269-8.713-8.166C82.708,265.949,85.215,270.166,84.953,278.124z"/>
		<path class="st0" d="M158.809,387.869c-10.601,0.312-21.397-3.158-29.175-10.087c-8.06-7.18-19.731-24.538-12.342-44.056
			c1.36-3.592,5.373-5.399,8.966-4.042c3.591,1.36,5.401,5.374,4.042,8.966c-4.725,12.48,3.551,24.262,8.586,28.747
			c8.28,7.375,22.349,8.787,32.03,3.216c6.727-3.871,11.541-10.421,13.555-18.438c1.995-7.942,0.884-16.389-2.973-22.593
			c-10.933-17.581-29.121-25.073-48.377-33.01l-2.916-1.203c-14.645-6.057-25.454-18.846-27.537-32.584
			c-1.787-11.785,2.807-22.908,12.937-31.321c14.738-12.238,37.017-12.38,52.972-0.337c6.502,4.907,11.677,13.882,14.201,24.62
			c0.879,3.739-1.439,7.483-5.179,8.36c-3.744,0.878-7.482-1.439-8.36-5.177c-1.767-7.519-5.146-13.762-9.042-16.701
			c-10.861-8.199-25.879-8.225-35.707-0.064c-6.323,5.251-9.115,11.661-8.072,18.537c1.346,8.881,9.024,17.647,19.103,21.815
			l2.899,1.197c20.446,8.424,41.589,17.136,54.889,38.525c5.895,9.478,7.59,21.626,4.652,33.324
			c-2.941,11.707-10.082,21.335-20.107,27.104C172.124,385.964,165.505,387.671,158.809,387.869z"/>
		<path class="st0" d="M228.392,376.083c-0.266,0.009-0.533,0.001-0.804-0.023c-3.827-0.324-6.664-3.691-6.338-7.518
			c1.079-12.655-0.214-25.44-1.582-38.974c-1.087-10.745-2.211-21.854-2.037-32.919c0.268-17.115-1.429-34.868-3.071-52.034
			c-0.575-6.011-1.169-12.228-1.675-18.359c-0.315-3.828,2.532-7.187,6.359-7.502c3.82-0.305,7.187,2.533,7.502,6.36
			c0.498,6.04,1.088,12.21,1.658,18.177c1.679,17.545,3.414,35.686,3.133,53.574c-0.161,10.255,0.922,20.955,1.968,31.305
			c1.373,13.572,2.792,27.607,1.603,41.552C234.804,373.279,231.875,375.981,228.392,376.083z"/>
		<path class="st0" d="M343.973,301.046c-0.341-16.625-1.152-34.292-6.872-51.443c-5.356-16.056-17.16-33.034-34.228-32.533
			c-5.331,0.158-10.751,2.046-16.11,5.612c-13.929,9.269-16.996,25.774-19.461,39.036c-0.49,2.641-0.953,5.133-1.475,7.452
			c-4.463,19.863-4.31,41.874,0.444,63.651c2.956,13.551,6.307,28.908,19.349,42.112c4.729,4.788,12.495,7.386,21.308,7.126l0.002,0
			c6.227-0.183,12.197-1.845,16.377-4.559c9.297-6.034,14.251-15.955,16.772-23.218c4.141-11.936,4.554-24.227,4.415-34.676
			c-0.047-3.505-0.166-7.031-0.282-10.44C344.12,306.448,344.028,303.738,343.973,301.046z"/>
		<path class="st1" d="M338.535,319.686c-0.084-6.201-0.395-12.404-0.521-18.518c-0.343-16.75-1.188-33.553-6.568-49.679
			c-5.506-16.509-20.039-38.049-41.381-23.844c-14.3,9.515-15.263,28.772-18.422,42.832c-4.475,19.916-3.867,41.289,0.451,61.073
			c3.156,14.463,6.322,27.609,17.767,39.193c6.9,6.988,22.575,6.709,30.202,1.757c7.188-4.664,11.747-12.569,14.385-20.173
			C338.104,341.791,338.683,330.74,338.535,319.686z"/>
		<path class="st0" d="M340.432,292.455l-1.558-5.524c0.275-12.939,0.919-28.329-4.482-40.247
			c-4.605-10.163-15.328-21.306-25.47-10.893c-18.111,18.592-14.439,56.288-12.439,80.424c1.097,13.256,3.209,28.894,8.057,41.354
			c4.249,10.919,18.142,15.986,26.827,5.481c6.337-7.668,7.863-22.198,9.36-31.619c0.888-5.596,1.166-11.298,1.752-16.917
			C343.308,306.571,340.536,300.034,340.432,292.455z"/>
		<path class="st2" d="M300.147,357.754c-3.076-6.369-7.47-21.546-6.636-28.461l-0.915-8.584c-1.014-4.79-0.902-17.064-4.969-15.687
			c-4.066,1.377-1.024,7.647-3.305,10.379c-4.43-3.443-1.663-7.988-4.118-11.588c-4.831-7.082-7.243-4.274-8.014-1.055
			c-2.539,10.591,2.823,34.405,6.64,45.523c6.026,17.541,13.758,25.329,34.926,23.352
			C308.163,368.038,302.995,363.651,300.147,357.754z"/>
		<path class="st0" d="M299.537,359.626c-5.987-6.483-3.883-17.213-12.117-15.48c-0.37,3.33-3.112,3.935-5.88,2.828
			c-1.1,7.206,8.745,26.018,16.586,26.573l9.267-0.272C321.939,372.184,307.058,367.77,299.537,359.626z"/>
		<path class="st2" d="M246.325,121.974c6.722,9.367,5.253,20.883,5.589,32.301c0.336,11.389-3.386,20.639-3.055,31.231
			c0.302,9.677,4.516,18.816,9.244,27.056c2.439,4.249,16.664,20.427,8.786,22.762c-8.11,2.403-16.068-15.284-20.64-19.748
			c-2.291-2.238-8.725-5.742-10.025-9.164c-1.522-4.005,1.161-3.992,1.784-7.338c1.072-5.751-0.12-4.318-4.308-9.177
			c-7.995-9.279,5.793-16.88,8.688-26.582c2.287-7.668-2.975-7.319-4.366-13.27c-1.398-5.974,5.638-6.934,1.41-14.615
			c-2.972-5.401-7.816-8.652-13.94-8.834c4.558-3.95,11.059-6.766,16.84-5.168"/>
		<path class="st0" d="M122.582,402.734c-1.649-0.46-5.887-1.795-6.607-3.248c-1.23-2.482,1.958-5.661,1.202-7.372
			c-2.011-4.556-9.851-3.311-13.316-5.718c-5.904-4.102-1.22-5.683-0.592-10.969c-12.799-2.586-5.848-22.338-15.008-26.887
			c-2.167,2.554-0.725,9.948-0.433,15.966c0.403,8.316,0.414,15.744,1.927,19.786c2.275,6.08,9.555,16.403,15.15,20.128
			c4.643,3.09,34.563,12.569,33.719,0.447C133.544,403.183,127.587,404.133,122.582,402.734z"/>
		<path class="st0" d="M172.117,404.955c-4.377,0.232-28.536-2.159-24.463,3.954c3.626,5.442,27.413,4.037,32.818,1.022
			C189.462,404.917,176.979,404.691,172.117,404.955z"/>
		<path class="st0" d="M266.286,354.761c-1.125-4.484-1.456-14.621-4.307-18.043c-6.346,4.787-2.285,17.175-1.995,24.043
			c0.161,3.815,1.035,7.84-1.489,10.824c-2.18,2.577-7.688,1.415-9.196,5.938c1.266-0.318,3.139,0.307,4.447,0.085
			c1.03-0.174-2.159,3.961-2.342,4.143c-1.788,1.765-5.022,2.328-7.262,3.26c-4.775,1.986-12.278,4.861-12.205,10.989
			c2.205,0.891,4.424,0.83,6.748,0.206c4.027-1.086,7.799-3.392,11.453-5.34c6.578-3.503,19.421-12.034,22.754-19.222
			C275.003,367.094,267.652,360.21,266.286,354.761z"/>
		<path class="st0" d="M246.864,173.971l-3.767,7.068c-6.226,3.943,3.196,23.399,5.987,29.465c1.519,0.441,4.867,0.489,6.434,0.055
			C250.989,199.006,251.401,185.175,246.864,173.971z"/>
	</g>
</g>
</svg>
