<?xml version="1.0" encoding="utf-8"?>
<!-- Generator: Adobe Illustrator 17.0.0, SVG Export Plug-In . SVG Version: 6.00 Build 0)  -->
<!DOCTYPE svg PUBLIC "-//W3C//DTD SVG 1.1//EN" "http://www.w3.org/Graphics/SVG/1.1/DTD/svg11.dtd">
<svg version="1.1" xmlns="http://www.w3.org/2000/svg" xmlns:xlink="http://www.w3.org/1999/xlink" x="0px" y="0px"
	 width="407.875px" height="580.007px" viewBox="0 0 407.875 580.007" style="enable-background:new 0 0 407.875 580.007;"
	 xml:space="preserve">
<style type="text/css">
	.st0{fill:#081F29;}
	.st1{fill:#EDF1FA;}
	.st2{fill:#D7DBE3;}
</style>
<g id="RULES">
</g>
<g id="Layer_1">
	<g>
		<path class="st0" d="M302.931,202.995c-0.11,1.159-11.063,115.921-12.04,134.655l-0.182,3.483l-3.119,1.565
			c-15.142,7.602-22.298,17.741-24.701,34.997c-1.569,11.26-0.903,23.728-0.259,35.789c1.173,21.994,2.189,40.988-11.592,46.788
			c-3.26,1.372-6.845,2.002-10.659,1.873c-19.826-0.674-41.051-21.162-47.315-45.677c-2.648-10.361-3.097-19.985-3.458-27.718
			c-0.538-11.561-1.03-17.721-5.538-20.393c-0.39-0.231-2.084-0.997-7.556-1.184c-4.762-0.162-10.952,0.147-17.508,0.472
			c-8.372,0.417-17.86,0.891-27.311,0.57c-20.232-0.687-34.273-4.825-44.189-13.025c-14.541-12.025-13.37-38.057-12.595-55.283
			c0.226-5.021,0.44-9.765,0.114-12.023c-0.246-1.702-0.657-3.839-1.133-6.316c-2.454-12.778-6.562-34.164,1.715-52.135
			c3.776-8.195,4.061-17.942,4.335-27.367c0.331-11.263,0.669-22.907,7.359-31.474c12.893-16.512,38.618-23.878,78.646-22.52
			c0.001,0,0.001,0,0.002-0.001c8.051,0.271,16.839,0.906,26.866,1.934c25.11,2.576,50.002,12.518,76.097,30.393
			c13.654,9.355,30.226,16.433,30.392,16.501l4.047,1.721L302.931,202.995z"/>
		<path class="st1" d="M284.898,337.337c-15.607,7.834-25.052,18.708-27.953,39.531c-4.356,31.272,7.675,71.179-8.236,77.876
			c-16.327,6.868-42.738-11.989-49.834-39.76c-6.311-24.701,0.657-44.432-11.75-51.786c-12.404-7.356-69.619,9.019-95.799-12.631
			c-16.492-13.637-8.788-52.609-10.366-63.54c-1.58-10.931-8.89-35.582,0.094-55.083c8.984-19.5,0.492-44.234,10.973-57.658
			c18.758-24.022,67.954-21.616,100.174-18.311c32.219,3.304,58.106,18.954,73.317,29.375c14.341,9.825,31.44,17.074,31.44,17.074
			S285.895,318.258,284.898,337.337z"/>
		<path class="st2" d="M238.524,441.048c-6.267-1.323-5.844-3.271-5.968-9.313c-5.492-2.975-8.435-4.53-7.552-11.424
			c0.819-6.402,3.283-8.181-1.243-13.669c-4.117-4.992-7.349-5.062-5.325-12.089c2.665-9.258,2.57-6.081-4.324-13.107
			c-15.348-15.643,32.213-41.079-0.581-44.814c-4.952-0.563-12.35-0.324-14.603-4.903c-1.049-2.129,1.153-5.872,0.174-8.027
			c-1.159-2.551-4.47-3.1-5.962-5.345c-3.038-4.568-0.687-13.985-8.425-14.188c-6.609-0.176-7.227,8.93-11.701,12.495
			c-10.922,8.703-17.762-11.365-26.961-8.631c-2.056,0.61-4.69,4.453-6.824,4.133c-2.456-0.364-5.111-6.138-6.036-8.156
			c-2.307-5.042-1.936-10.818-4.076-16.069c-0.762-1.87-1.011-3.467-2.229-5.304c-7.823,7.837-16.74,11.384-16.456-2.999
			c0.126-6.331,0.095-7.81-4.349-11.552c-4.423-3.727-6.89-4.426-8.113-10.503c-1.319-6.558,7.787-53.399-7.045-50.269l-0.677,0.656
			c-0.204,12.742-4.703,21.288-8.012,33.061c-2.951,10.5-3.449,21.91-1.862,32.79c1.631,11.191,2.547,21.895,2.93,33.399
			c0.363,10.899,0.076,22.002,6.013,31.453c12.331,19.635,36.245,20.55,57.871,20.897c11.09,0.179,21.75,1.029,32.617,1.19
			c13.212,0.198,16.634,5.603,17.04,18.279c0.586,18.324-1.34,37.675,11.168,52.182c12.636,14.654,29.857,30.888,44.274,10.164
			C247.956,441.059,242.805,441.952,238.524,441.048z"/>
		<path class="st0" d="M110.562,328.974c-0.081-0.002-0.163-0.004-0.243-0.008c-3.861-0.194-6.833-3.481-6.64-7.343
			c0.268-5.317,0.621-10.705,0.962-15.914c0.97-14.793,1.972-30.087,1.035-44.699c-0.268-4.165-0.657-8.51-1.033-12.713
			c-1.551-17.325-3.155-35.241,2.084-52.283c0.962-3.135,3.747-5.238,6.93-5.239c0.052,0.001,0.105-0.001,0.156,0.001
			c5.541,0.089,7.219,5.034,9.161,10.756c1.326,3.904,3.038,9.457,5.019,15.888c7.316,23.741,19.559,63.472,32.685,85.327
			c0.876,1.458,1.669,2.691,2.383,3.733c0.876-28.866,4.863-105.984,5.046-109.511c0.201-3.861,3.479-6.839,7.353-6.627
			c3.861,0.198,6.829,3.489,6.629,7.352c-0.049,0.932-4.831,93.383-5.178,115.015c-0.155,9.641-5.546,12.125-7.857,12.745
			c-8.445,2.267-15.328-7.09-20.378-15.498c-12.428-20.695-23.719-55.128-31.346-79.634c0.26,5.568,0.762,11.182,1.259,16.73
			c0.383,4.285,0.78,8.719,1.059,13.06c0.995,15.52-0.037,31.274-1.036,46.512c-0.337,5.158-0.687,10.49-0.949,15.702
			C117.472,326.106,114.317,329.033,110.562,328.974z"/>
		<path class="st0" d="M346.318,269.731c-0.417,16.734-1.312,34.512-7.147,51.754c-5.463,16.137-17.421,33.175-34.6,32.593
			c-5.366-0.183-10.814-2.107-16.192-5.72c-13.979-9.396-16.993-26.022-19.414-39.384c-0.482-2.659-0.937-5.17-1.452-7.508
			c-4.403-20.014-4.15-42.17,0.732-64.071c3.037-13.625,6.479-29.07,19.667-42.303c4.781-4.798,12.61-7.379,21.48-7.078
			c0.001,0,0.001,0,0.002,0c6.268,0.212,12.27,1.911,16.465,4.662c9.332,6.117,14.275,16.127,16.779,23.449
			c4.114,12.032,4.476,24.407,4.288,34.924c-0.063,3.528-0.199,7.077-0.33,10.509C346.492,264.296,346.387,267.022,346.318,269.731z
			"/>
		<path class="st1" d="M340.927,250.942c-0.112,6.242-0.452,12.485-0.606,18.641c-0.421,16.86-1.348,33.769-6.834,49.977
			c-5.617,16.594-20.343,38.21-41.762,23.816c-14.352-9.644-15.235-29.028-18.352-43.197c-4.415-20.066-3.708-41.581,0.728-61.476
			c3.242-14.544,6.488-27.764,18.059-39.373c6.977-7.003,22.755-6.653,30.411-1.634c7.214,4.727,11.767,12.704,14.39,20.371
			C340.593,228.692,341.126,239.816,340.927,250.942z"/>
		<path class="st0" d="M342.716,278.362l-1.594,5.554c0.219,13.024,0.798,28.52-4.691,40.492
			c-4.68,10.21-15.523,21.38-25.685,10.852c-18.148-18.798-14.282-56.724-12.163-81.013c1.164-13.339,3.36-29.069,8.296-41.591
			c4.325-10.972,18.334-16.011,27.029-5.393c6.345,7.742,7.815,22.375,9.28,31.867c0.869,5.639,1.123,11.378,1.688,17.038
			C345.674,264.168,342.855,270.732,342.716,278.362z"/>
		<path class="st0" d="M221.153,335.195c-0.002,0-0.003,0-0.005,0c-2.328-0.037-4.769-0.407-7.253-1.099
			c-18.061-5.024-22.555-29.593-24.363-47.636c-0.234-2.33-5.467-57.372,16.665-81.441c7.221-7.854,16.4-11.396,27.091-10.452
			c16.727,1.484,24.195,17.899,22.929,33.353c-0.328,3.983-0.852,7.888-1.361,11.664c-0.674,5.01-1.311,9.739-1.506,14.56
			c-0.071,1.773-0.116,3.958-0.167,6.449C252.678,284.969,251.626,335.685,221.153,335.195z M230.348,208.423
			c-5.478-0.088-10.005,1.897-13.844,6.07c-5.973,6.499-10.238,18.155-12.331,33.714c-1.861,13.83-1.586,28.106-0.71,36.859
			c2.692,26.863,9.2,34.156,14.185,35.543c1.336,0.371,2.591,0.568,3.728,0.587c16.543,0.27,17.463-44.165,17.811-60.893
			c0.054-2.598,0.102-4.876,0.176-6.725c0.221-5.475,0.932-10.754,1.619-15.864c0.507-3.764,0.985-7.318,1.282-10.939
			c1.118-13.631-6.19-17.905-10.21-18.264C231.477,208.461,230.903,208.431,230.348,208.423z"/>
		<path class="st2" d="M293.012,276.235l-0.016,1c-0.396-2.22-0.197-5.018-1.895-6.58c-4.927,5.084-1.147,10.071-3.367,15.883
			c-0.938,2.461-2.765,4.108-3.494,6.559c-0.85,2.858,0.695,6.473-2.629,8.018c-1.744-2.033-3.65-4.641-5.826-6.113
			c-1.891,11.564,3.869,28.324,9.94,38.015c6.934,11.069,19.436,15.86,31.185,8.987
			C295.528,328.197,292.628,300.091,293.012,276.235z"/>
		<path class="st0" d="M296.315,324.358c0.204,4.672-3.114,2.3-4.479,0.755c-1.516-1.718-5.275-9.62-7.433-11.012
			c-6.464-4.172-1.758,11.767-0.741,14.991c2.332,7.383,13.709,18.222,27.255,15.438l4.548-2.927
			C306.19,341.79,302.849,324.968,296.315,324.358z"/>
		<path class="st0" d="M224.845,441.689c-3.617-4.791,1.411-2.992,0.647-7.543c-0.48-2.866-4.4-3.523-6.34-4.689
			c-5.976-3.591-7.58-8.415-7.373-15.007c0.154-4.941-3.754-12.376-9.326-12.749c-4.514,9.774,3.07,24.587,8.131,32.72
			c3.645,5.855,7.624,10.206,13.531,13.854c3.855,2.379,13.038,7.349,16.645,2.629C237.758,445.854,228.479,446.5,224.845,441.689z"
			/>
		<path class="st0" d="M252.602,426.654c-6.077,2.25,0.158,15.348-7.767,15.828l0.468,2.008c-1.365,2.808,1.356,4.084,3.412,4.028
			c3.499-0.094,4.124-2.484,5.138-5.393C255.678,437.904,255.142,431.546,252.602,426.654z"/>
		<path class="st2" d="M271.698,328.374c-0.717-8.95-5.829-16.993-6.607-26.085c-0.378-4.387-0.427-8.191-2.823-11.935
			c-3.313-5.178-5.302-3.138-6.634,2.171c-2.292,9.142-1.753,21.395-1.389,31.091c0.332,8.815,3.567,16.5-1.258,24.621
			c-3.132,5.27-7.244,16.778-0.072,20.826c1.81-4.858,1.656-10.112,4.466-14.863c2.41-4.073,6.641-7.434,9.094-11.656
			c0.868-0.709,1.69-1.46,2.381-2.312C271.717,336.709,272.066,332.987,271.698,328.374z"/>
		<path class="st0" d="M267.73,326.311c-0.844-4.366-1.137-10.564-4.202-13.992c-1.31,4.809-0.713,10.168,0.16,14.94
			c0.25,1.365,1.972,6.175,0.806,7.425c-2.46,2.633-5.404-1.995-7.253-2.965c-3.983,5.587,0.765,12.528-2.292,18.037
			c-1.588,2.861-3.157,2.582-3.724,6.308c-0.361,2.377-0.432,11.668,2.95,11.864c3.76,0.219,0.984-7.79,9.135-17.159
			c3.241-3.725,8.174-5.666,8.675-10.862C272.427,335.336,268.586,330.745,267.73,326.311z"/>
		<path class="st0" d="M134.638,352.824c-5.987-4.585-17.486-0.494-23.275-5.622c-2.903-2.574-3.143-7.346-5.229-9.921
			c-2.086-2.574-5.713,2.513-6.605-2.139c-0.509-2.65-3.701-3.731-6.228-9.191c-2.527-5.458-1.136-16.482-2.849-16.465
			c-5.898,0.057-4.353,19.205-3.824,22.605c0.731,4.704,2.017,8.054,5.261,12.421c2.373,3.195,2.882,3.877,6.312,5.855
			c6.336,3.655,13.716,5.827,20.993,6.585C122.598,357.31,142.025,358.48,134.638,352.824z"/>
		<path class="st0" d="M142.77,352.33l-1.024,1.484c-0.591,0.457-1.165,0.945-1.583,1.475c4.617,5.081,22.151,3.925,27.471,0.355
			C168.893,350.139,146.508,353.56,142.77,352.33z"/>
		<path class="st0" d="M190.576,357.75c0.141,1.006,0.681,0.112,1.271,0.538l-1.344,0.646c3.291,2.633,4.965,8.844,8.403,9.351
			C202.218,362.318,196.843,356.416,190.576,357.75z"/>
	</g>
</g>
</svg>
