<?xml version="1.0" encoding="utf-8"?>
<!-- Generator: Adobe Illustrator 17.0.0, SVG Export Plug-In . SVG Version: 6.00 Build 0)  -->
<!DOCTYPE svg PUBLIC "-//W3C//DTD SVG 1.1//EN" "http://www.w3.org/Graphics/SVG/1.1/DTD/svg11.dtd">
<svg version="1.1" xmlns="http://www.w3.org/2000/svg" xmlns:xlink="http://www.w3.org/1999/xlink" x="0px" y="0px"
	 width="260.079px" height="59.439px" viewBox="0 0 260.079 59.439" style="enable-background:new 0 0 260.079 59.439;"
	 xml:space="preserve">
<style type="text/css">
	.st0{fill:#D7DBE3;}
</style>
<g id="RULES">
</g>
<g id="Layer_1">
	<path class="st0" d="M199.303,18.412c1.562-2.616,0.163-6.13,1.034-9.082c-32.129-5.182-64.85-7.228-98.054-8.476
		c-16.016-0.603-33.598-0.66-49.143,1.022C43.212,2.947-0.463,9.288,1.038,25.895c1.5,16.608,59.703,5.894,74.313,18.933
		c-2.98,0.837-5.385,3-8.514,3.766c0.052,0.33,0.06,2.891-0.032,3.155c20.179,5.731,48.146,3.388,69.428,4.874
		c17.239,1.204,47.326,5.693,61.598-3.541c-3.331-1.811-7.462-4.891-11.275-6.017c12.627,0.421,66.513-0.833,71.723-12.146
		C262.487,25.782,210.573,21.12,199.303,18.412z"/>
</g>
</svg>
