<?xml version="1.0" encoding="utf-8"?>
<!-- Generator: Adobe Illustrator 17.0.0, SVG Export Plug-In . SVG Version: 6.00 Build 0)  -->
<!DOCTYPE svg PUBLIC "-//W3C//DTD SVG 1.1//EN" "http://www.w3.org/Graphics/SVG/1.1/DTD/svg11.dtd">
<svg version="1.1" id="Layer_1" xmlns="http://www.w3.org/2000/svg" xmlns:xlink="http://www.w3.org/1999/xlink" x="0px" y="0px"
	 width="408px" height="580.007px" viewBox="0 0 408 580.007" enable-background="new 0 0 408 580.007" xml:space="preserve">
<g id="RULES">
</g>
<g>
	<g>
		<path fill="#0B1F28" d="M396.837,0.216H12.465c-6.103,0-11.071,4.968-11.071,11.074v557.302c0,6.103,4.968,11.083,11.071,11.083
			h384.372c6.106,0,11.073-4.98,11.073-11.083V11.29C407.91,5.184,402.943,0.216,396.837,0.216z"/>
		<g>
			<path fill="#EEF0F8" d="M396.837,1.798H12.465c-5.243,0-9.488,4.249-9.488,9.492v557.302c0,5.245,4.245,9.495,9.488,9.495
				h384.372c5.239,0,9.487-4.25,9.487-9.495V11.29C406.324,6.047,402.076,1.798,396.837,1.798z"/>
		</g>
		<path fill="#D6DAE2" d="M224.083,115.469c-27.395-3.259-48.338,56.631-43.924,77.862c4.807,23.143,22.626-2.622,26.981-11.927
			c6.294-13.435,8.401-43.48,19.937-51.959L224.083,115.469z"/>
		<path fill="#D6DAE2" d="M179.229,312.158c-3.452-18.84-7.108-34.106-7.054-53.325c0.047-18.691-1.45-41.235-7.959-59.045
			c-11.641-31.842-27.783-62.544-40.958-93.992l-3.257-6.61c0.451-6.317-11.471-42.302-22.594-33.353
			c-11.029,6.251,4.303,21.513,6.661,63.199c1.018,17.99,11.205,31.953,17.194,48.417c2.644,7.27-9.416,17.472-10.988,25.17
			c-1.419,6.969-6.67,11.95-9.983,18.348c-7.42,14.34-7.256,28.578-0.772,42.632c7.426,16.088,12.832,28.079,21.742,36.817
			c6.096,5.976-0.895,23.761-2.995,33.891c-3.231,15.556-8.057,63.555-2.569,80.114c5.809,17.535,26.285,11.493,42.44,14.478
			c7.71,1.421-3.114-2.954,2.831-9.384c6.793-7.351,7.313-19.178,9.157-28.035c2.367-11.392,4.665-22.639,6.064-34.122
			C177.946,342.911,181.877,326.587,179.229,312.158z"/>
		<path fill="#D6DAE2" d="M244.118,15.577c-4.189-7.449-42.27-3.001-49.986-4.142c-21.27-3.155-40.564-0.236-61.917,0.217
			c-21.759,0.461-43.586,1.998-65.837,1.998c-8.302,0-16.681,0.315-24.978,0c-5.66-0.226-18.08-3.126-22.761,0.196
			c-8.819,6.266-2.074,37.576-1.252,47.704c1.56,19.237-2.78,47.092,4.584,64.498c9.415-3.887,6.385-19.323,7.505-27.464
			c0.52-3.812,5.245-34.147,12.671-21.125c5.516-12.59-4.684-26.5,9.238-32.811c6.116-2.773,16.817-0.049,21.949-3.272
			c6.439-4.047,3.083-8.359,11.99-10.755c13.009-3.505,29.703,1.441,42.703,2.043c13.632,0.636,27.035,2.89,40.021,0.794
			c-9.37-15.873,23.575-11.379,34.071-11.826c8.381-0.353,16.486-0.996,24.958-0.996C231.459,20.636,248.417,23.208,244.118,15.577z
			"/>
		<path fill="#D6DAE2" d="M397.329,454.291c1.211-24.35,0.089-48.596-0.214-74.279c-0.293-24.877,4.107-48.917,1.784-73.879
			c-0.909-9.722-3.896-28.183-11.892-14.89c-4.732,7.867-1.555,24.946-1.579,34.351c-0.066,24.081,8.687,44.369,1.497,67.379
			c-6.415,20.514-2.679,45.945-9.348,65.923c-3.9,11.669-0.263,24.435-3.91,36.085c-1.8,5.743-4.968,9.487-10.614,11.757
			c-3.3,1.324-7.707,0.618-10.78,2.131c-5.346,2.65-1.787,3.524-4.662,9.119c-3.886,7.536-14.844,7.143-22.078,6.755
			c-14.272-0.757-21.063-4.968-33.28,2.584c-10.49,6.481-19.404,17.627-31.439,21.031c-12.23,3.467-27.411-0.934-40.129,0.303
			c-24.338,2.37-43.562,7.411-67.814,5.04c-25.532-2.493-56.549,8.284-80.524,5.988c-9.248-0.882-42.595-6.644-43.262,5.334
			c-0.666,11.978,101.762,0.971,149.075,3.329c35.461,1.752,72.823-4.161,107.814-0.681c24.845,2.496,46.925,1.84,72.499,0.492
			c10.115-0.542,26.496,3.644,34.065-3.303c8.175-7.49,4.867-25.541,4.867-35.629C397.405,504.368,396.093,479.114,397.329,454.291z
			"/>
		<path fill="#D6DAE2" d="M395.345,567.105H13.958V12.781h381.387V567.105z M16.953,564.117h375.399V15.769H16.953V564.117z"/>
	</g>
	<g>
		<path fill="#EEF0F8" d="M185.165,463.24v0.605c-1.781,0.775-3.799,1.428-5.785,1.856c7.168-0.104,14.957-0.224,20.965-3.555
			C195.374,461.818,189.811,461.503,185.165,463.24z"/>
		<path fill="#EEF0F8" d="M171.901,458.455c-3.798-0.442-15.912-3.109-15.78,1.172l7.313,0.911
			C164.976,461.739,172.216,460.961,171.901,458.455z"/>
		<g>
			<path fill="#0B1F28" d="M166.356,168.969c-0.274-2.247-6.761-55.587-19.376-83.041c-12.444-27.09-35.35-50.296-45.378-50.296
				c-1.308,0-2.459,0.338-3.429,1c-6.21,4.28-2.358,15.41,3.467,32.271c2.742,7.933,5.85,16.927,7.754,25.266
				c0.634,2.772,1.29,5.848,1.995,9.139c5.063,23.665,12.716,59.435,33.262,83.281l2.291,2.657l19.612-18.597L166.356,168.969z"/>
			<path fill="#D6DAE2" d="M143.935,87.327c-13.81-30.058-38.465-51.637-43.865-47.93c-6.499,4.473,7.31,30.872,12.593,54.02
				c5.28,23.156,11.776,64.581,34.522,90.989l15.839-15.036C163.024,169.37,156.474,114.613,143.935,87.327z"/>
			<path fill="#0B1F28" d="M252.786,395.007c-3.085-55.527-15.183-153.939-16.205-162.179c2.096-12.016,4.104-29.182-1.579-41.806
				c-6.57-14.597-22.427-23.401-35.515-29.437c-5.135-2.37-11.896-3.619-19.565-3.619c-15.215,0-35.209,5.085-45.589,16.455
				c-10.506,11.504-15.187,30.262-17.699,40.334l-0.208,0.845c-0.879,3.518-2.843,7.338-4.92,11.373
				c-3.265,6.354-6.969,13.56-7.37,21.624c-0.853,17.122,10.059,32.971,14.788,38.997c0.731,0.927,1.935,2.175,3.325,3.619
				c1.696,1.752,4.533,4.693,5.144,5.863c0.284,0.541,0.584,1.084,0.895,1.642c1.881,3.369,3.83,6.849,3.565,15.133
				c-0.264,8.432-2.884,21.586-4.289,28.656c-0.335,1.686-0.609,3.07-0.782,4.028c-0.725,4.012-1.548,8.287-2.336,12.409
				c-2.651,13.819-5.39,28.107-5.69,37.778c-0.372,11.912,3.2,22.497,8.832,28.738c1.785,1.982,4.723,3.814,2.743,0.612
				c2.437-2.434,15.231-1.828,18.279-1.828c10.963,0,21.932,3.051,33.507,0.614c11.574-1.828,22.541-3.052,34.118-5.482
				c11.688-2.345,22.632-5.926,33.781-8.044C251.983,406.675,253.13,401.247,252.786,395.007z"/>
			<path fill="#EEF0F8" d="M249.136,395.205c-3.234-58.237-16.248-162.47-16.248-162.47c1.828-10.355,4.264-28.023-1.216-40.205
				c-5.485-12.191-18.414-20.562-33.712-27.619c-15.843-7.313-48.136-2.031-60.928,11.975
				c-10.172,11.139-14.625,29.857-17.059,39.603c-2.437,9.752-11.575,20.104-12.186,32.289c-0.7,14.009,7.313,28.023,14.011,36.559
				c1.677,2.131,7.486,7.468,8.835,10.052c2.03,3.881,5.213,7.877,4.876,18.582c-0.34,10.704-4.208,28.107-5.134,33.211
				c-3.118,17.235-7.581,37.402-7.969,49.655c-0.419,13.481,2.32,23.883,9.532,31.152c2.276-0.296,4.577-0.423,6.921-0.089
				c3.657,0.615,4.262,4.873,6.702,7.313c2.439,1.217,6.092,1.217,7.31-0.611c6.093-5.478,12.795-5.478,18.887,0
				c0.612,0.611,2.437,0.611,3.657,0c1.829-1.217,3.044-3.045,4.873-3.045c8.529-2.434,17.671,3.045,25.588-1.214
				c6.093-3.048,13.406-5.484,20.107-1.22c3.045,1.832,4.873-4.264,8.53-6.093c1.049-0.451,2.102-0.571,3.146-0.527
				C243.771,416.703,249.83,407.719,249.136,395.205z"/>
			<path fill="#D6DAE2" d="M206.079,309.913l-3.654-7.72c-1.639,1.651-5.503,1.588-7.716,4.378c-2.014,2.531-1.825,5.884-3.65,8.615
				c-1.81,2.71-3.896,2.887-4.858,6.096c-0.741,2.472-0.851,5.245-1.34,7.684c-0.993,4.943-4.047,14.317,1.226,17.615
				c3.789,2.38,6.853,0.482,9.45-2.97c2.972-3.94,5.544-8.284,6.429-13.176C202.756,326.051,200.358,310.972,206.079,309.913z"/>
			<path fill="#D6DAE2" d="M209.328,238.42l-9.34-25.589c-4.823,4.155-9.249,10.705-8.098,16.653
				c1.182,6.168-0.025,13.995-0.025,20.804c0,3.883,0.442,7.94,0.404,11.691c-0.035,3.76-2.266,6.761-2.03,10.559
				c0.227,3.572,1.986,5.813,0.504,9.444c-1.494,3.682-3.237,3.701-1.721,7.616c0.911,2.351,2.771,4.39,3.309,6.85
				c4.534-0.316,7.663,2.632,11.629-0.349c3.458-2.604,4.249-7.686,5.075-11.821c1.245-6.235,1.365-12.747,1.897-19.058
				C211.692,256.158,213.826,246.858,209.328,238.42z"/>
			<path fill="#BEC3CB" d="M244.607,406.055c-1.39-4.763-9.916-4.104-13.79-4.861c-12.703-2.484-24.675-8.186-37.368-10.899
				c-5.705-1.223-11.218-3.108-17.003-4.315c-6.263-1.321-11.388-4.87-17.453-6.566c-4.741-1.324-11.66-0.861-15.465-0.861
				l-4.057,6.906c1.715,6.544,4.568,13.005,10.925,16.353c3.499,1.854,6.588,2.651,9.879,5.17c3.084,2.371,4.824,3.265,8.842,3.656
				c9.239,0.892,15.855,7.301,26.808,5.283c7.814-1.444,10.14-5.623,17.873-4.877c6.752,0.646,24.009,2.708,30.058-0.81
				C246.545,408.664,245.678,409.736,244.607,406.055z"/>
			<path fill="#0B1F28" d="M346.508,362.616c-0.681-0.797-1.672-1.276-2.73-1.252l-162.304,1.623
				c-1.005,0.013-1.958,0.445-2.622,1.201c-0.669,0.744-0.987,1.747-0.882,2.743c0.227,2.131,0.479,4.426,0.734,6.802
				c0.551,5.091,1.122,10.348,1.585,15.168c0.933,9.728,8.353,17.034,18.049,17.778c4.387,0.328,11.313,0.586,20.589,0.769
				c0.004,0,0.004,0,0.004,0c35.905,0.668,98.638-0.101,106.72-0.87c11.612-1.109,17.107-5.264,18.957-14.348
				c0.997-4.86,1.57-12.691,2.036-18.982c0.24-3.32,0.474-6.468,0.681-7.741C347.492,364.466,347.191,363.413,346.508,362.616z"/>
			<path fill="#C73447" d="M181.505,366.556c0.7,6.604,1.636,14.856,2.32,22.005c0.694,7.149,5.983,13.878,14.784,14.56
				c23.773,1.818,117.104,0.828,126.702-0.088c10.08-0.971,14.31-4.133,15.814-11.512c1.507-7.382,2.072-22.755,2.69-26.578
				L181.505,366.556z"/>
			<g>
				<path fill="#0B1F28" d="M199.582,403.732l-0.06-0.148c-0.479,0.082-0.996,0.157-1.589,0.249
					C198.539,404.554,198.845,403.848,199.582,403.732z"/>
				<path fill="#0B1F28" d="M203.664,398.023c-0.051-3.656,0.274-3.871-1.655-6.572c-1.063-1.491-1.599-1.214-2.14-2.843
					c-0.227-0.678,1.629-1.951,0.586-3.476c-0.996-1.463-8.202-2.522-9.809-2.923l8.877,21.375
					C203.734,402.934,203.734,402.72,203.664,398.023z"/>
			</g>
			<path fill="#0B1F28" d="M332.147,216.702c-1.45-15.552-13.465-15.552-18.604-15.552c-11.401,0-95.477,1.705-102.043,2.169
				c-7.064,0.486-15.233,2.922-15.703,17.481c-0.281,8.685-1.605,63.616-0.747,70.323c1.286,9.999,7.079,12.092,11.71,12.092
				c0.652,0,1.342-0.038,2.048-0.127l111.643-3c0.208,0.016,0.407,0.019,0.609,0.019c3.24,0,6.317-1.657,8.666-4.664
				c1.901-2.436,3.202-5.592,3.571-8.66C334.886,273.56,333.313,229.272,332.147,216.702z"/>
			<path fill="#EEF0F8" d="M329.036,217.051c-0.994-10.706-7.323-12.482-15.493-12.482c-11.616,0-95.647,1.728-101.844,2.147
				c-6.195,0.438-12.394,2.156-12.779,14.209c-0.388,12.051-1.551,63.698-0.776,69.722c0.776,6.027,3.487,9.901,10.456,9.039
				l111.918-3.013c5.419,0.428,9.113-5.621,9.678-10.336C331.75,273.436,330.196,229.534,329.036,217.051z"/>
			<path fill="#BEC3CB" d="M266.196,292.649c-9.555,0-20.813,0.604-30.368,0.604c-5.632,0-11.272,0.256-16.908,0.083
				c-2.896-0.083-5.784-0.29-8.656-0.687c-1.901-0.259-3.259-1.085-3.903,1.071c-1.238,4.161,2.711,4.048,5.592,4.3
				c3.599,0.312,7.376,0.429,10.981,0.11c11.653-1.04,21.529-0.812,36.152-1.627c11.742-0.652,22.117-0.809,33.926-0.809
				c3.146,0,17.047,0.766,24.354-0.612c7.517-1.421,4.925-5.721,4.878-6.905c-0.037-0.925-3.763,2.2-8.335,2.19
				C301.985,290.366,278.791,292.649,266.196,292.649z"/>
			<path fill="#D6DAE2" d="M318.785,221.102c-2.004-5.865-4.867-7.369-11.489-7.054c-7.991,0.376-14.374-1.046-22.248,0.234
				c-8.716,1.432-47.035-0.366-49.072-0.614c-7.549-0.928-19.583,1.515-23.363,0.822c-2.991-0.543-3.023,1.922-5.579,3.832
				c-2.951,2.207-2.333,6.463-2.519,9.614c-0.369,6.298-1.673,12.118-1.011,18.604c0.794,7.789,0.249,15.688,1.623,23.272
				c0.574,3.129,0.933,6.257,0.965,9.538c0.019,2.088-0.498,6.783,0.943,8.142l0.315,3.404c3.41,3.272,13.84,1.753,18.247,1.551
				c8.038-0.353,16.107-0.208,24.237-0.598c16.069-0.773,32.299-1.574,48.356-2.743c5.824-0.429,12.302,0.363,16.435-4.098
				c3.959-4.271,3.789-9.698,4.085-15.193c0.593-11.171-0.804-22.5,0.313-33.51C319.554,231.069,320.518,226.171,318.785,221.102z"
				/>
			<path fill="#0B1F28" d="M347.242,359.671c-1.703-11.925-7.994-38.017-13.971-51.77l-0.296-0.687
				c-1.866-4.3-2.991-6.885-5.602-8.489c-2.439-1.493-5.314-1.635-11.051-1.941l-0.206-0.01c-1.015-0.053-2.628-0.078-4.939-0.078
				c-20.724,0-100.019,2.421-104.738,3.606c-5.475,1.371-10.172,8.355-12.532,13.916c-4.744,11.194-9.002,26.717-11.827,36.988
				c-1.32,4.819-2.465,8.98-3.092,10.613c-1.463,3.801-1.164,7.628,0.841,10.786c2.468,3.884,7.279,6.433,12.87,6.841
				c7.357,0.523,21.428,0.81,39.628,0.81c0.006,0,0.004,0,0.006,0c36.674,0,83.489-1.163,98.35-3.123
				c5.292-0.69,11.147-1.977,14.379-6.241C347.205,368.066,347.92,364.403,347.242,359.671z"/>
			<path fill="#BEC3CB" d="M207.238,303.492c-3.413,0.858-7.678,5.838-10.298,12.016c-6.947,16.401-12.801,42.087-14.875,47.493
				c-2.862,7.432,3.452,12.624,10.868,13.16c24.032,1.715,115.575,0.567,137.318-2.292c9.643-1.27,15.114-4.056,13.731-13.733
				c-1.718-12.01-8.012-37.762-13.731-50.919c-3.763-8.649-3.436-8.586-14.306-9.154
				C305.079,299.489,211.815,302.352,207.238,303.492z"/>
			<path fill="#0B1F28" d="M333.417,367.586c0.069-6.083-3.569-14.809-4.767-20.71c-1.125-5.557-3.619-14.827-5.49-20.11
				c-1.768-4.98-0.561-7.754-4.341-11.877c-2.057-2.236-4.724-2.285-7.832-2.459c-6.156-0.359-12.338-0.29-18.516-0.29
				c-9.403,0-18.758-0.604-28.114-0.604c-16.384,0-32.851,0.207-48.97,2.421c-2.733,0.365-6.298,0.47-8.493,2.398
				c-3.155,2.772-4.391,7.539-5.355,11.399c-1.643,6.541-2.887,13.11-3.956,19.652c-0.907,5.583-8.233,18.554-9.677,24.139
				c-1.393,5.365,5.532,5.327,11.269,6.096c16.584,2.203,34.692,0.284,51.483,0.303c14.944,0.013,29.946-0.611,44.778-0.611
				c4.735,0,10.856,0.107,15.537-0.609l18.38-0.81C334.227,375.297,333.391,369.597,333.417,367.586z"/>
			<g>
				<g>
					<path fill="#0B1F28" d="M269.508,323.652c0.019-0.255,0.032-0.39,0.057-0.643c0.092-1.097,0.142-2.77,0.023-3.707
						c-0.181-1.306-0.959-2.011-2.781-2.378c-1.957-0.397-3.47,0.197-3.975,1.63h0.004c-0.114,0.319-0.17,0.671-0.158,1.031
						c0.05,1.396,0.221,3.596,0.224,3.613c0.029,0.283,0.041,0.424,0.07,0.702C265.59,323.77,266.891,323.71,269.508,323.652z"/>
					<path fill="#E7555E" d="M268.901,322.947c0.094-1.065,0.138-2.685,0.028-3.517c-0.114-0.833-0.514-1.425-2.269-1.753
						c-2.043-0.385-3.357,0.428-3.313,1.829c0.045,1.399,0.217,3.581,0.217,3.581C265.701,323.003,266.766,322.981,268.901,322.947z
						"/>
					<path fill="#0B1F28" d="M271.844,364.53c-0.168-4.666,0.05-9.438-0.054-13.967c-0.002-0.287-0.17-0.558-0.409-0.716
						c-1.456-0.914-2.175-1.418-3.581-2.49c-0.353-0.265-0.803-0.189-1.015,0.17c-0.911,1.582-1.339,2.408-2.137,4.11
						c-0.088,0.183-0.102,0.416-0.044,0.637c0.012,0.038,0.031,0.081,0.044,0.129c1.598,4.208,3.584,8.293,5.701,12.233
						c0.199,0.372,0.59,0.621,0.937,0.586C271.63,365.204,271.857,364.908,271.844,364.53z"/>
					<path fill="#EEF0F8" d="M271.049,350.534c-1.475-0.921-2.2-1.425-3.625-2.497c-0.891,1.589-1.311,2.409-2.092,4.116
						c1.614,4.212,3.6,8.208,5.699,12.199C270.899,359.737,271.005,355.148,271.049,350.534z"/>
					<path fill="#0B1F28" d="M268.988,351.763c0.404,0.202,0.605,0.302,1.012,0.497c0.277,0.142,0.576,0.07,0.757-0.163
						c0.321-0.417,0.481-0.619,0.813-1.031c0.11-0.136,0.164-0.319,0.145-0.504c-0.271-3.092-0.579-6.251-0.813-9.372
						c-0.256-3.47-0.461-6.982-0.936-10.424c-0.023-0.167-0.108-0.331-0.237-0.438c-0.029-0.032-0.773-0.675-1.939-1.04
						c-1.081-0.347-2.774-0.551-4.608,0.882c-0.158,0.114-0.259,0.309-0.287,0.517c-0.006,0.056-0.002,0.12-0.006,0.177
						c-0.18,4.193,0.167,7.931,0.694,12.476c0.371,3.197,0.591,6.084,1.058,8.737c0.05,0.29,0.179,0.584,0.42,0.755
						c0.232,0.157,0.503,0.16,0.703,0.015c0.413-0.302,0.621-0.444,1.034-0.75c0.331,0.248,0.491,0.365,0.822,0.611
						c0.328,0.227,0.718,0.157,0.904-0.158C268.708,352.235,268.802,352.076,268.988,351.763z"/>
					<path fill="#E7555E" d="M263.551,330.814c-0.415,3.307,0.769,14.55,1.781,21.339c0.558-0.393,0.838-0.599,1.4-0.989
						c0.476,0.372,0.719,0.555,1.201,0.901c0.299-0.51,0.45-0.757,0.766-1.26c0.602,0.321,0.908,0.485,1.519,0.776
						c0.324-0.416,0.492-0.618,0.826-1.018c-0.633-6.557-0.87-13.167-1.733-19.698C269.31,330.865,264.433,328.885,263.551,330.814z
						"/>
					<path fill="#0B1F28" d="M271.248,356.964c0,0-2.2-2.061-4.025,0.681c1.125,2.771,1.787,4.135,3.297,6.802
						c0.349,0.145,0.529,0.227,0.882,0.372C271.094,361.591,271.071,360.009,271.248,356.964z"/>
					<path fill="#0B1F28" d="M266.74,332.208c0.297,0.005,0.366,3.31,0.706,8.256c0.167,2.461,0.914,8.498,0.577,8.513
						c-0.337,0.012-0.59-3.83-0.94-8.442C266.671,335.08,266.441,332.194,266.74,332.208z"/>
					<path fill="#0B1F28" d="M263.809,332.28c0.844-1.012,2.04-1.415,3.517-1.298c1.163,0.085,2.074,0.463,2.084,0.463
						c0.23,0.1,0.347,0.151,0.58,0.239c0.103-0.233,0.151-0.353,0.258-0.576c0.023-0.048,0.192-0.426,0.278-0.97
						c0.015-0.105,0.025-0.205,0.034-0.307c0.038-0.403-0.079-0.794-0.189-1.162c-0.098-0.344-0.189-0.678-0.136-0.937
						c0.145-0.686-0.111-1.163-0.27-1.487c-0.038-0.076-0.092-0.183-0.105-0.227c0.025-0.092,0.048-0.17,0.07-0.25
						c0.025-0.098,0.05-0.18,0.075-0.258c0.089-0.356,0.152-0.785-0.066-1.289c0.003-0.032,0.013-0.102,0.022-0.153
						c0.053-0.295,0.161-0.845-0.305-1.399c-1.173-1.425-4.436-1.472-5.835-0.908c-0.202,0.082-0.829,0.341-1.043,1.151
						c-0.113,0.429-0.082,0.88,0.013,1.422c0.101,0.592,0.125,0.949,0.066,1.21c-0.019,0.088-0.051,0.183-0.095,0.28
						c-0.349,0.779-0.318,1.737,0.067,2.437c0.022,0.069,0.044,0.309-0.013,0.668c-0.041,0.252-0.113,0.507-0.196,0.668
						c-0.113,0.233-0.195,0.511-0.239,0.809c-0.085,0.679,0.037,1.564,0.611,1.987c0.182,0.129,0.271,0.202,0.45,0.328
						C263.591,332.542,263.661,332.454,263.809,332.28z"/>
					<path fill="#BEC3CB" d="M269.654,330.802c0,0-3.913-1.93-6.321,0.926c-0.378-0.283-0.394-1.216-0.144-1.718
						c0.315-0.626,0.445-1.723,0.202-2.165c-0.241-0.441-0.306-1.072-0.045-1.659c0.265-0.592,0.249-1.141,0.095-2.03
						c-0.151-0.889-0.12-1.361,0.583-1.651c1.229-0.517,4.205-0.488,5.138,0.636c0.426,0.511-0.035,0.902,0.17,1.368
						c0.202,0.457,0.022,0.794-0.117,1.349c-0.135,0.564,0.539,0.936,0.378,1.721c-0.167,0.787,0.363,1.585,0.309,2.187
						C269.849,330.379,269.654,330.802,269.654,330.802z"/>
					<path fill="#0B1F28" d="M266.617,324.195c-1.154-0.114-1.926,0.189-1.934-0.139c-0.009-0.318,0.86-0.308,1.907-0.283
						c1.049,0.031,1.793,0.511,1.752,0.655C268.307,324.567,267.601,324.295,266.617,324.195z"/>
					<path fill="#0B1F28" d="M266.702,326.275c-1.156-0.075-1.916,0.26-1.938-0.063c-0.019-0.328,0.848-0.34,1.895-0.353
						c1.052-0.019,1.812,0.428,1.781,0.573C268.408,326.568,267.686,326.338,266.702,326.275z"/>
					<path fill="#0B1F28" d="M266.744,328.299c-1.16-0.026-1.907,0.334-1.939,0.018c-0.035-0.321,0.832-0.378,1.879-0.434
						c1.046-0.051,1.825,0.359,1.797,0.514C268.452,328.532,267.728,328.324,266.744,328.299z"/>
					<path fill="#0B1F28" d="M265.219,341.578c0.122-1.339,0.416-1.815,0.034-3.137c-0.372-1.293-0.11-2.206-0.002-3.429
						c0.053-0.634-0.148-1.434,0.22-1.986c0.18-0.278,1.673-1.04,0.718-1.381c-0.703-0.252-2.118,0.791-2.276,1.305
						c-0.328,1.091,0.12,2.68,0.155,3.742c0.082,2.632,0.35,5.173,0.696,7.826C265.799,344.28,265.149,342.363,265.219,341.578z"/>
					<path fill="#0B1F28" d="M265.824,347.482c0.06-0.088,0.088-0.126,0.139-0.227c-0.266-0.517-0.284-1.229-0.4-1.822
						c-0.666-0.1-0.508,1.201-0.439,1.791C265.256,348.32,266.242,348.668,265.824,347.482z"/>
					<g>
						<path fill="#0B1F28" d="M264.61,322.624c0.019,0.029,0.034,0.044,0.047,0.063c0.029-0.005,0.05-0.005,0.079-0.012
							C264.685,322.657,264.657,322.644,264.61,322.624z"/>
						<path fill="#0B1F28" d="M265.149,329.9c-0.605-0.192-0.135-1.475,0.148-1.739c-0.857-0.007-0.504-2.094-0.104-2.541
							c-0.451-0.435-0.469-1.778,0.145-1.952c0.454-0.155,0.256-1.027-0.681-0.981c-1.756,0.108-0.355,1.886-0.841,3.411
							c-0.116,0.36-0.262,0.855-0.249,1.226c0.013,0.341,0.208,0.684,0.224,1.094c0.029,0.719-0.65,1.678-0.233,2.19
							C263.97,331.123,264.307,330.339,265.149,329.9z"/>
					</g>
					<g>
						<path fill="#0B1F28" d="M264.834,320.954c-0.003,0-0.009,0-0.009,0c-0.016,0.014-0.034,0.02-0.048,0.032
							C264.799,320.974,264.811,320.967,264.834,320.954z"/>
						<path fill="#0B1F28" d="M264.831,320.986c0.287-0.069,0.82-0.546,0.486-0.533c-0.94,0.035-0.139-0.634-0.162-0.656
							c-0.147-0.142-0.485-0.202-0.554-0.428c-0.079-0.268,0.271-0.596,0.303-0.851c0.123-0.968-0.769-0.261-0.99,0.136
							c-0.275,0.485-0.196,1.478-0.161,2.042c0.048,0.807,0.69,0.514,1.068,0.29C264.821,320.986,264.824,320.986,264.831,320.986z"
							/>
					</g>
					<path fill="#EA7873" d="M268.878,332.393c-0.47,0.917,0.094,2.481,0.191,3.509c0.092,0.964,0.171,1.929,0.139,2.912
						c-0.828-0.334-0.724-2.765-0.813-3.623c-0.098-0.911-0.678-2.67,0.094-3.353c0.18,0.117,0.105,0.227,0.136,0.413"/>
					<path fill="#EEF0F8" d="M269.121,329.099c-0.378-0.075-1.529-0.511-1.665,0c-0.091,0.373,1.214,0.788,1.573,0.782
						c0.183-0.185,0.372-0.567,0.221-0.757"/>
					<path fill="#EEF0F8" d="M269.18,328.009c0.265-0.725-0.059-1.179-0.772-1.242c-0.221-0.019-0.659-0.119-0.867,0.029
						c-0.22,0.158-0.346,0.599,0.058,0.609c0.015,0.062,0.028,0.094,0.053,0.163C268.21,327.681,268.623,328.081,269.18,328.009z"/>
					<path fill="#EEF0F8" d="M268.859,325.808c0.447-0.299,0.056-0.838-0.249-1.008c-0.315-0.161-0.93-0.215-1.258-0.076
						c-0.461,0.195-0.349,0.58,0.139,0.706c0.108,0.085,0.157,0.139,0.265,0.227C268.087,325.632,268.588,325.985,268.859,325.808z"
						/>
					<path fill="#EEF0F8" d="M267.678,323.51c0.296,0.01,0.595,0.384,0.907,0.332c0.425-0.073,0.353-0.417,0.072-0.682
						c-0.261-0.249-0.735-0.434-1.091-0.407c-0.271,0.016-0.965,0.35-0.388,0.543c0,0.063,0,0.128-0.003,0.198
						C267.378,323.502,267.478,323.502,267.678,323.51z"/>
					<path fill="#EA7873" d="M267.204,320.84c-0.003,0.064-0.003,0.098-0.006,0.157c0.195-0.185,1.349,0.729,1.462,0.121
						c0.029-0.133-0.183-0.605-0.192-0.788c-0.018-0.375,0.091-0.791-0.015-1.154c-0.126-0.45-1.029-1.216-1.459-0.618
						c-0.24,0.328,0.22,0.58,0.126,0.914c-0.108,0.382-0.567,0.155-0.697,0.511c0.11,0.044,0.179,0.17,0.299,0.199
						c-0.066,0.129-0.186,0.23-0.33,0.287C266.536,320.853,266.993,320.728,267.204,320.84z"/>
				</g>
				<path fill="#BEC3CB" d="M271.166,360.144c0-1.024,0.12-1.75-0.637-2.484c-0.795,0.385-0.215,2.254-0.151,2.973
					c0.039,0.472,0.286,2.654,0.558,2.547l0.365,0.239C271.607,362.701,271.163,361.043,271.166,360.144z"/>
			</g>
			<path fill="#0B1F28" d="M229.524,291.413c0,0-10.225,0.836-15.902,0.419c-5.68-0.419-6.437,0-6.818-9.516
				c-0.378-9.512-0.757-48.798-0.378-55.83c0.378-7.029,2.65-11.577,6.054-11.996c-5.295-0.822-7.949,3.725-8.327,8.69
				c-0.378,4.958,0.378,53.349,0,58.726c-0.378,5.378,0,11.991,7.953,12.404C220.058,294.722,229.524,291.413,229.524,291.413z"/>
			<path fill="#0B1F28" d="M294.264,289.352c-5.21,0-10.345,0.353-15.511,0.408c-5.34,0.064-10.547,0.417-15.899,0.417
				c-3.638,0-9.848,2.477-9.848,2.477c9.614,0,18.727-0.823,28.401-0.823c4.945,0,9.56-0.541,14.392-0.828
				c3.212-0.193,11.139,1.557,13.295-0.814C307.053,287.82,297.477,289.352,294.264,289.352z"/>
			<path fill="#0B1F28" d="M320.32,251.715c0-10.169,0.382-25.645,0.382-30.606c0-4.955-4.624-10.636-9.053-5.872
				c2.14,1.094,4.309,0.904,5.561,3.485c0.967,2.002,0.949,6.56,1.131,8.678c0.521,5.913,0.06,12.28-0.208,18.105
				c-0.28,6.141,0.227,12.085,0.29,18.2c0.05,4.167-1.05,14.245,1.141,17.64c1.922-3.689,0.757-10.494,0.757-14.743
				C320.32,261.645,320.32,256.676,320.32,251.715z"/>
			<path fill="#0B1F28" d="M116.723,252.229c-3.25-5.279-3.25-8.123,3.656-7.719c6.904,0.417,16.652,0.417,17.06,4.47
				c0.403,4.067-10.156,4.067-12.593,5.687C122.406,256.293,119.617,256.936,116.723,252.229z"/>
			<path fill="#0B1F28" d="M181.152,231.964c-1.791-3.391-5.951-5.343-11.424-5.343c-5.948,0-12.192,2.257-15.543,5.602
				c-0.214,0.214-0.239,0.554-0.059,0.801c0.119,0.154,0.303,0.239,0.492,0.239c0.101,0,0.199-0.025,0.29-0.073
				c0.06-0.029,6.137-3.3,13.803-3.3c4.201,0,8.107,0.975,11.606,2.894c0.239,0.127,0.529,0.091,0.722-0.101
				C181.228,232.493,181.275,232.204,181.152,231.964z"/>
			<path fill="#0B1F28" d="M160.707,235.706c-1.21-0.482-2.468-0.911-3.624-1.396c0.025,0.768,3.218,3.835,7.064,2.458
				C162.948,236.463,161.779,236.125,160.707,235.706z"/>
			<path fill="#0B1F28" d="M124.811,229.714c-0.164-0.158-4.06-3.82-8.416-3.82c-0.706,0-1.397,0.098-2.046,0.29
				c-0.088,0.032-0.164,0.082-0.227,0.145l-1.948,2.194c-0.139,0.154-0.163,0.385-0.056,0.571c0.104,0.179,0.312,0.274,0.52,0.237
				c0.02-0.007,1.901-0.391,4.357-0.391c2.935,0,5.371,0.526,7.249,1.554c0.073,0.041,0.152,0.06,0.233,0.06
				c0.148,0,0.299-0.069,0.391-0.202C125.013,230.155,124.991,229.878,124.811,229.714z"/>
			<path fill="#0B1F28" d="M296.635,192.803c-0.507-5.788-1.928-13.642-4.107-22.711c-4.555-18.96-11.544-40.041-18.695-56.384
				c-7.975-18.235-14.904-25.876-23.903-26.381c-0.39-0.018-0.791-0.028-1.191-0.028c-6.605,0-13.208,3.228-25.706,19.298
				c-12.926,16.614-31.774,64.898-32.996,68.158c-0.914,2.439,0.762,3.959,2.131,1.065c0,0,29.702,10.206,28.183,12.488
				c-1.529,2.288-1.223,4.268,1.062,0.914c4.804-7.032,14.578-20.513,25.028-29.197c4.873,6.897,9.44,13.588,13.602,19.918
				c4.34,6.617,9.573,13.145,14.358,17.929c6.237,6.235,11.312,9.271,15.512,9.271c0,0,0.003,0,0.006,0
				c1.185,0,2.295-0.256,3.304-0.728C296.32,204.945,297.338,200.866,296.635,192.803z"/>
			<path fill="#EEF0F8" d="M270.762,115.051c-9.008-20.596-15.536-24.073-21.018-24.375c-5.482-0.303-11.272,1.525-24.066,17.976
				c-12.795,16.443-34.421,69.147-34.421,69.147l25.892,16.45c0,0,13.084-26.878,30.005-39.02
				c4.595,6.456,10.143,14.425,15.691,22.875c8.75,13.331,22.541,28.328,28.94,25.284
				C298.18,200.342,285.691,149.168,270.762,115.051z"/>
			<path fill="#BEC3CB" d="M245.805,156.239l-3.172-3.518c-0.564-2.595-1.49-6.948-3.234-8.959c-2.36-2.716-2.742-1.759-5.396,0.321
				c-4.58,3.606-7.439,8.05-10.761,12.785c-3.203,4.556-6.449,9.305-9.151,14.109c-2.216,3.943-7.823,11.764-7.136,16.202
				c1.245,0.038,2.452,0.151,3.65-0.407c0.34,1.072,0.347,2.305,0.366,3.546l1.412,0.901c0.678-0.177,1.34-0.397,1.939-1.103
				c0.207,0.776,0.292,1.646,0.324,2.541l2.503,1.592C217.149,194.25,229.546,168.796,245.805,156.239z"/>
			<path fill="#0B1F28" d="M250.356,159.983c-4.879-7.622-12.595-23.71-17.876-26.35c4.877,6.896,11.376,21.121,13.813,25.582"/>
			<g>
				<path fill="#231F20" d="M238.845,142.377c0,0-0.144,0.12-0.413,0.345c-0.263,0.228-0.648,0.563-1.138,0.99
					c-0.978,0.887-2.381,2.169-3.978,3.809c-1.613,1.622-3.425,3.591-5.288,5.773c-0.919,1.101-1.885,2.227-2.799,3.427
					c-0.464,0.595-0.931,1.194-1.4,1.796l-1.352,1.855c-0.924,1.225-1.754,2.513-2.602,3.763c-0.869,1.238-1.597,2.533-2.366,3.75
					c-0.78,1.211-1.409,2.452-2.064,3.598c-0.662,1.143-1.221,2.258-1.725,3.294c-0.504,1.035-1.002,1.97-1.382,2.826
					c-0.374,0.859-0.699,1.607-0.968,2.224c-0.537,1.234-0.845,1.94-0.845,1.94l-0.018,0.042c-0.192,0.442-0.707,0.644-1.148,0.452
					c-0.429-0.187-0.631-0.679-0.467-1.112c0,0,0.28-0.732,0.769-2.012c0.245-0.641,0.543-1.419,0.884-2.312
					c0.348-0.89,0.81-1.864,1.277-2.945c0.467-1.081,0.986-2.246,1.608-3.443c0.615-1.199,1.203-2.5,1.943-3.773
					c0.728-1.278,1.417-2.641,2.246-3.946c0.809-1.318,1.602-2.678,2.49-3.975c0.434-0.656,0.868-1.312,1.3-1.965
					c0.453-0.639,0.905-1.276,1.352-1.907c0.883-1.274,1.821-2.476,2.716-3.651c1.814-2.33,3.59-4.445,5.183-6.2
					c1.575-1.77,2.977-3.175,3.967-4.158c0.513-0.489,0.917-0.873,1.191-1.135c0.278-0.254,0.427-0.39,0.427-0.39
					c0.816-0.745,2.082-0.688,2.827,0.128s0.688,2.082-0.128,2.827c-0.02,0.019-0.041,0.037-0.062,0.054L238.845,142.377z"/>
			</g>
			<path fill="#0B1F28" d="M142.718,295.284c-10.966-2.03-21.123-8.12-26.402-17.866l6.91,14.619
				c4.293,4.444,9.591,6.166,23.552,8.123c11.577,1.627,25.592,0.813,33.715-6.093C167.497,298.13,153.685,297.317,142.718,295.284z
				"/>
			<path fill="#0B1F28" d="M265.247,369.286l-0.054-0.202c-1.021-3.823-5.169-55.177-5.169-57.828c0-1.926,0-4.312-4.11-4.312
				c-0.697,0-1.564,0.058-2.654,0.173c-2.566,0.265-11.109,0.334-19.427,0.403c-8.376,0.069-17.04,0.139-20.879,0.411
				c-0.391,0.03-0.889-0.013-1.425-0.058l-0.075-0.005c-0.539-0.051-1.088-0.095-1.648-0.095c-2.957,0-3.896,1.598-4.165,2.931
				c-0.356,1.781-5.573,22.052-9.387,36.858c-1.917,7.448-3.575,13.881-4.047,15.782c-0.385,1.529-0.952,2.894-1.463,4.098
				c-0.886,2.128-1.588,3.799-0.731,5.27c0.747,1.271,2.298,1.577,3.398,1.699c2.099,0.23,13.491,0.35,33.851,0.35
				c11.221,0,22.528-0.034,28.605-0.056h1.289c1.711-0.006,2.888-0.013,3.389-0.013l1.373,0.007c1.407,0,2.736,0,3.478-0.977
				C266.164,372.728,265.839,371.501,265.247,369.286z"/>
			<path fill="#EEF0F8" d="M213.054,309.33c-1.992,0.145-5.488-1.097-6.037,1.654c-0.547,2.742-12.078,47.209-13.452,52.694
				c-1.371,5.491-4.939,8.791,0,9.336c4.942,0.549,62.588,0.271,66.979,0.271c4.393,0,4.393,0.277,3.29-3.84
				c-1.094-4.125-5.213-55.72-5.213-58.191c0-2.473,0-3.295-5.213-2.742C248.187,309.052,220.742,308.782,213.054,309.33z"/>
			<path fill="#0B1F28" d="M260.544,375.574c-11.383,0.038-22.8-0.359-34.182-0.359c-6.541,0-12.87,0.246-19.439,0
				c-2.824-0.104-5.778-0.498-8.602-0.372c-1.456,0.063-3.577,0.268-4.942-0.546l-2.377,0.18c6.039,1.163,12.315,1.809,18.692,2.021
				c9.601,0.315,19.042-0.644,28.564-0.742c7.921-0.069,15.909,0.234,23.697-0.182C261.486,375.574,261.014,375.574,260.544,375.574
				z"/>
			<path fill="#0B1F28" d="M182.927,374.411c-3.392-2.499-6.591-4.863-8.662-6.824c-5.327-5.05-12.237-16.289-15.726-25.595
				c-1.623-4.336-2.446-4.924-3.03-4.924c-0.119,0-0.236,0.026-0.346,0.088c-0.605,0.328-0.7,1.394-0.243,2.708
				c0.596,1.715-13.84,28.684-16.315,30.68c-0.144-0.668-0.557-2.226-1.314-2.226c-0.716,0-0.836,1.254-0.867,2.2
				c-0.091,2.853-0.07,5.826,0.725,8.328c4.457,14.096,15.88,19.353,29.107,25.45l1.866,0.858c6.496,3,12.854,4.583,18.38,4.583
				h0.002c9.245,0,15.377-4.517,16.01-11.802C203.257,389.409,192.455,381.44,182.927,374.411z"/>
			<path fill="#EEF0F8" d="M153.685,335.088c3.656,12.186,10.562,27.625,18.275,34.932c7.72,7.313,28.028,18.282,27.215,27.619
				c-0.813,9.343-13.809,11.783-29.649,4.479c-15.841-7.316-29.651-13.409-31.278-32.501"/>
			<path fill="#EEF0F8" d="M141.908,428.088c6.115,0.054,11.966-0.848,18.222-1.418c6.736-0.606,13.277,0.8,20.025,0.157
				c13.645-1.305,27.326-2.629,41.066-3.442c3.649-0.214,14.052-0.501,17.588-1.043c2.113-0.319,1.693-0.092,3.342,1.434
				c1.182,1.084,3.35,5.393,2.459,7.178c-1.914,3.836-12.501,2.899-15.71,3.085c-7.789,0.46-15.571,0.921-23.351,1.381
				c-10.808,0.64-21.633,2.277-32.492,2.194c-5.459-0.031-10.824,0.038-16.287,0.36c-5.128,0.309-10.341,1.569-15.404,1.585
				L141.908,428.088z"/>
			<path fill="#EEF0F8" d="M237.398,423.341c-6.061,0.845-11.978,0.7-18.256,0.945c-6.758,0.265-13.06,2.512-19.836,2.74
				c-13.705,0.457-27.436,0.915-41.167,1.873c-3.647,0.258-14.001,1.308-17.579,1.232c-2.13-0.038-1.682,0.132-3.127,1.853
				c-1.03,1.226-2.628,5.775-1.513,7.433c2.396,3.556,12.766,1.264,15.975,1.037c7.78-0.545,15.559-1.094,23.338-1.636
				c10.799-0.756,21.747-0.535,32.501-2.008c5.41-0.749,10.739-1.355,16.199-1.743c5.125-0.356,10.462,0.221,15.48-0.409
				L237.398,423.341z"/>
			<path fill="#EEF0F8" d="M218.766,430.244c-4.656,1.26-9.304,1.532-14.197,2.213c-5.264,0.731-9.939,3.404-15.225,4.104
				c-10.679,1.412-21.387,2.824-32.038,4.741c-2.827,0.508-10.815,2.27-13.627,2.449c-1.677,0.104-1.308,0.236-2.235,2.052
				c-0.665,1.289-1.381,5.913-0.312,7.483c2.292,3.367,10.15,0.363,12.64-0.088c6.03-1.084,12.063-2.169,18.093-3.253
				c8.375-1.51,16.977-2.049,25.233-4.265c4.151-1.112,8.252-2.096,12.486-2.856c3.974-0.716,8.223-0.514,12.085-1.491
				L218.766,430.244z"/>
			<path fill="#EEF0F8" d="M156.988,437.052c4.81,0.287,9.419-0.409,14.346-0.75c5.305-0.359,10.427,1.293,15.745,0.889
				c10.742-0.807,21.513-1.623,32.328-1.939c2.868-0.085,11.051,0,13.837-0.4c1.664-0.239,1.327-0.028,2.61,1.545
				c0.914,1.129,2.563,5.513,1.844,7.263c-1.554,3.769-9.862,2.448-12.391,2.508c-6.124,0.183-12.252,0.36-18.38,0.542
				c-8.498,0.24-17.031,1.475-25.567,1.002c-4.29-0.233-8.508-0.359-12.806-0.233c-4.038,0.114-8.152,1.185-12.133,1.021
				L156.988,437.052z"/>
			<path fill="#EEF0F8" d="M202.967,450.581c-6.468,0.596-12.973,1.368-19.839,1.611c-0.762-0.054-1.46-0.035-2.08,0.047
				c-0.655,0.013-1.311,0.031-1.977,0.031h1.781c-3.911,0.63-4.476,3.738,1.264,4.877c4.403,0.866,10.755-0.284,15.234-0.747
				c4.524-0.472,29.649-0.763,29.74-5.85C222.407,448.142,208.591,450.064,202.967,450.581z"/>
			<path fill="#EEF0F8" d="M237.562,449.222h1.216c-0.466,0.546-1.024-0.564-1.295,0.6c2.149,3.454,4.488,0.419,6.724-1.321
				C242.504,446.521,238.659,446.729,237.562,449.222z"/>
			<path fill="#0B1F28" d="M200.846,315.29c-0.404-0.034-0.788-0.048-1.173,0.04c-3.543,8.051-6.594,16.379-8.416,25.085
				c-0.986,4.684-8.193,21.837-1.652,24.379c4.146-5.869,3.692-14.701,5.561-21.56c2.452-9.002,6.606-18.182,7.499-27.6
				L200.846,315.29z"/>
			<path fill="#0B1F28" d="M301.798,207.46c-4.708-0.261-9.321-0.358-14.062-0.406c-13.478-0.155-27.196-1.507-40.863-0.841
				c-6.153,0.299-12.262,1.247-18.578,1.247c-2.96,0-15.462-1.418-15.005,2.074l-0.413,2.475c9.727-2.427,22.272-0.375,32.287-0.823
				c11.029-0.488,22.135-0.161,33.047-0.838c5.031-0.309,10.181,0.005,15.219,0.005c3.429,0,7.527,1.174,10.848,0.417
				C309.889,209.49,305.467,207.675,301.798,207.46z"/>
			<path fill="#0B1F28" d="M326.886,223.18c0.699-1.793-0.013-6.849-0.779-8.678c-1.162-2.761-2.997-3.372-5.727-2.842
				c-1.239,4.952,0.461,13.081,0.69,18.49c6.046,0.335,5.853-2.156,7.196-7.799L326.886,223.18z"/>
			<g>
				<path fill="#D6DAE2" d="M207.812,321.311c0.015,0.022,0.028,0.06,0.044,0.091l0.529-0.1
					C208.046,321.21,207.828,320.576,207.812,321.311z"/>
				<path fill="#D6DAE2" d="M221.423,366.171c-3.051-1.298-4.293-2.953-7.477-3.871c-3.294-0.96-4.176-1.251-5.056-4.422
					c-0.665-2.371-1.869-4.822-1.935-7.37c-0.095-3.385,0.513-7.274,0.611-10.792c0.094-3.316,0.041-6.676,0.28-9.986
					c0.186-2.516,1.201-5.945,0.01-8.328l-2.225,0.422c0.655,2.487-0.933,7.244-1.567,10.015c-0.646,2.841-1.57,5.695-2.311,8.439
					c-1.509,5.592-1.576,11.178-3.433,16.699c-0.809,2.415-1.077,4.861-1.503,7.266c-0.545,3.086-1.251,4.46,2.61,4.964
					c5.557,0.738,11.518,0.391,17.04,0.769c6.695,0.457,15.678,2.307,21.926-0.36C237.884,365.544,224.408,367.436,221.423,366.171z
					"/>
			</g>
			<path fill="#0B1F28" d="M202.901,366.6c-2.213-1.592-1.236-4.996-3.107-6.667c-1.388,0.826-3.231,5.053-3.058,6.739l-1.52,2.433
				c2.516,1.078,5.986-0.577,8.842-0.302c1.908,0.182,6.405,1.998,7.273-0.857C208.916,366.935,205.108,368.192,202.901,366.6z"/>
			<path fill="#0B1F28" d="M213.536,368.292c-0.274,0.791,0.274,1.208,1.479,1.298l2.436,0.196
				c-0.557,0.453,2.408,0.227,3.657,0.189c1.166-0.035,2.238-0.044,3.351-0.182c1.846-0.224,4.869-0.53,5.14-1.885
				C224.723,367.741,218.073,367.379,213.536,368.292z"/>
			<path fill="#0B1F28" d="M313.105,303.616c-1.526-0.533-4.747-0.08-6.402,0c-4.476,0.202-9.201,0.393-13.717,0.62
				c-9.063,0.451-18.122-0.283-27.096,0.592h-0.608c-2.825,0.208-2.79,2.339-2.084,4.53c8.69,0.374,17.387-0.26,26.14-0.26
				c4.451,0,8.712-0.608,13.068-0.628c4.357-0.024,8.179,0.48,12.483-0.339C315,305.758,315.367,304.406,313.105,303.616z"/>
			<g>
				<path fill="#0B1F28" d="M318.905,308.378c-0.101,0.031-0.205,0.066-0.312,0.107L318.905,308.378z"/>
				<path fill="#0B1F28" d="M323.854,305.357c-2.018-1.169-5.87-0.176-4.35,2.828l-0.599,0.193c2.692-0.675,3.565,5.45,6.638,2.799
					C325.697,308.585,326.158,306.7,323.854,305.357z"/>
			</g>
			<path fill="#BEC3CB" d="M211.743,312.318c12.699,0,25.008-0.82,37.611-0.82c3.407,0,3.993-0.154,4.998,2.958
				c0.782,2.443,0.627,4.756,0.76,7.412c0.255,4.975-0.192,10.315,0.492,15.153c0.697,4.987,0.816,10.588,1.973,15.383
				c0.517,2.156,1.834,4.057,0.486,6.241c-1.503,2.427-4.489,2.695-7.073,2.808c-15.42,0.706-31.836,0.691-46.72-2.13
				c-1.586-0.303-2.78,0.151-3.849-1.097c-1.056-1.23,0.684-4.208,0.886-5.876c0.466-3.808,1.075-7.294,1.85-11.209
				c1.05-5.276,2.342-9.783,4.413-14.773c1.441-3.464,2.547-8.325,2.253-12.126"/>
			<path fill="#BEC3CB" d="M257.357,366.256c-6.296-0.614-19.127-0.914-19.127-0.914c-2.594-0.196-7.937,0.56-3.174,2.115
				c1.822,0.586,5.088,0.161,7.013,0.161c4.627,0.009,10.932,0.504,15.234-0.523C257.363,366.799,257.37,366.556,257.357,366.256z"
				/>
			<path fill="#D6DAE2" d="M189.946,298.833c-8.756-0.171-16.965,3.587-26.105,3.563c-7.162-0.023-23.424,2.042-28.637-3.049
				l1.828,4.875c1.656,2.321,1.847,8.376,2.557,11.436c0.624,2.717,1.04,1.967,0.643,5.031c-0.183,1.406-2.603,2.831-2.651,4.212
				c-0.179,5.226,4.555,5.346,3.259,11.02c-0.498,2.175-5.897,9.027,1.097,5.616c2.667-1.301,3.716-5.756,6.08-7.925
				c2.194-2.011,9.724-3.758,10.856-5.786c2.342-4.186-4.031-3.786,1.447-8.221c3.032-2.458,7.643-3.07,10.739-5.755
				C165.625,306.575,191.374,308.479,189.946,298.833z"/>
			<path fill="#0B1F28" d="M137.032,302.596l2.034,2.033c-0.395,0.048-0.716-0.053-1.091,0.06c1.702,2.471-0.848,4.703,2.701,6.04
				c2.381,0.901,5.52-0.511,6.175-2.787c4.192-1.084,8.728-1.367,12.864-2.155C159.736,303.038,139.828,302.596,137.032,302.596z"/>
			<path fill="#D6DAE2" d="M196.273,396.485c-3.842-0.675-6.723,0.996-10.531-1.173c-3.457-1.961-5.258-3.127-9.29-3.76
				c-4.927-0.779-7.104-0.495-9.768-4.467c-1.693-2.506-4.375-5.576-5.595-8.533c-0.649-1.57-0.192-4.312-0.968-5.699
				c-0.977-1.756-3.048-2.421-4.381-3.735c-2.704-2.654-3.155-6.298-5.273-8.939c-6.66-8.275-8.967-3.556-10.185,2.534l1.217,7.307
				c-1.636,12.89,11.936,21.478,21.525,26.002C169.64,399.127,197.234,413.853,196.273,396.485z"/>
			<path fill="#BEC3CB" d="M153.347,137.251c-1.674-7.974-2.455-20.066-6.446-26.71c1.731,6.88,1.696,15.549,1.708,23.092
				c0.003,3.391,0.797,10.49-2.408,12.838c-2.051,1.491-3.275-1.263-5.39,0.072c-0.268,0.177-1.293,4.703-1.447,5.272
				c-2.078,0.29-4.161,0.113-5.989-0.517v3.044c0.775,4.04,3.757,8.7,5.501,12.603c0.381-1.864,2.71-6.444,4.236-7.175
				c2.383-1.142,6.912,3.934,6.806-2.317C159.645,161.528,154.23,141.474,153.347,137.251z"/>
			<path fill="#0B1F28" d="M242.681,151.113c-0.999,0.17-2.465-0.473-3.461-0.297c-0.06-1.374-0.335-3.453,0.063-4.785l-1.809-0.669
				c-6.853,1.71-13.101,11.948-15.169,18.302c1.041-0.139,2.453,0.422,3.496,0.309c0.085,3.196-2.02,6.008-2.559,8.87
				c0.734-0.094,1.487-0.119,2.282-0.38c-0.545,1.408-0.514,3.413-1.188,4.731C229.864,174.436,243.478,157.44,242.681,151.113z"/>
			<path fill="#E7555E" d="M252.018,388.302c7.52-0.372,15.905-0.467,23.253-1.917c-0.038-0.296-0.083-1.362-0.044-1.633
				c-9.53-2.433-20.789-1.331-30.998-1.331c-5.27,0-10.54,0-15.808,0c-6.115,0-17.144,2.087-22.544,0h-1.828
				c-0.63,0.417-1.047,1.032-1.761,1.387c3.287,3.24,8.533,4.318,12.119,6.991c-12.221,0.707,1.062,6.557,5.484,7.449
				c6.294,1.269,12.857,1.478,19.405,1.141c-0.751-5.349,4.653-4.164,8.311-4.142C240.423,389.695,243.91,388.686,252.018,388.302z"
				/>
			<path fill="#0B1F28" d="M340.32,378.348c-2.008,0.05-6.988,0.778-8.844,1.547c0.45,0.861,0.078,2.493,0.425,3.42
				c-3.963,0.851-8.328,0.593-12.029,2.093c0.558,0.53,1.211,1.728,1.822,2.285c-2.853,2.285-13.27,0.757-12.763,5.999
				c5.056-0.882,5.828,2.061,1.752,3.745c-4.224,1.74-12.536,0.384-17.245,0.744c-7.307,0.561-15.477,2.424-22.371-0.138
				l-15.511,0.519c-0.388,0.464-0.99,0.259-1.112,1.044c0.091,0.344,0.39,1.541,0.58,1.891c14.849,3.726,39.659,0.788,55.24,0
				c6.837-0.341,17.286-0.069,23.558-3.045C339.696,395.665,339.305,386.468,340.32,378.348z"/>
			<path fill="#0B1F28" d="M314.327,268.711c-0.122-4.665-1.953-7.363-4.062-2.464c-0.697,1.619,0.215,2.73-1.188,4.072
				c-1.358,1.289-3.452,0.65-4.905,1.299c-4.338,1.929-2.2,4.867-4.961,7.136c-2.157,1.769-7.565,3.114-10.273,2.926
				c0,0-7.703,0-7.713,0c-2.434-0.165-6.903,1.859-5.892,3.453c1.495,2.342,6.094,2.03,13.929,1.967
				c5.221-0.032,17.179-0.807,22.424-1.16C314.732,285.739,314.517,276.139,314.327,268.711z"/>
			<path fill="#0B1F28" d="M337.682,346.865l-0.407-0.403c-1.368-1.198-1.472-8.089-4.479-2.85
				c-1.267,2.213,2.455,8.306,2.853,10.878c2.134,13.702-1.916,12.644-1.56,19.537C348.242,374.896,339.459,351.24,337.682,346.865z
				"/>
			<g>
				<path fill="#0B1F28" d="M327.712,335.415c-0.43-1.83-1.21-3.857-1.962-5.818c-0.668-1.747-1.361-3.559-1.78-5.16l-0.069-0.271
					c-1.081-4.165-1.68-5.494-6.957-5.813c-1.415-0.092-2.831-0.186-4.252-0.28c-5.122-0.341-10.425-0.69-15.694-0.656
					c-1.463,0.01-2.884,0.045-4.233,0.114c-1.592,0.076-3.228,0.202-4.816,0.315c-2.487,0.18-5.056,0.366-7.547,0.411h-0.132
					c-0.561,0.005-1.308-0.026-2.097-0.058c-0.951-0.038-2.026-0.081-3.013-0.081c-2.071,0.022-3.197,0.246-3.884,0.782
					l-0.284,0.227l-1.472,4.125v0.217c0.037,5.154,0.192,9.838,1.778,14.972c1.1,3.568,5.765,3.657,9.513,3.72
					c0.366,0,0.735,0.015,1.088,0.029c3.859,0.1,10.585,0.054,17.709,0.009c8.126-0.05,16.533-0.107,20.94,0.057
					c0.295,0.012,0.585,0.034,0.869,0.038c0.652,0.032,1.265,0.069,1.86,0.057l0,0c1.334,0,2.992-0.174,3.994-1.45
					C328.181,339.741,328.32,338.001,327.712,335.415z"/>
				<path fill="#EEF0F8" d="M326.715,331.357c-0.793-3.367-3.044-3.133-3.949-6.6c-1.033-3.96-1.159-4.873-5.9-5.161
					c-7.934-0.485-15.969-1.225-24.042-0.822c-4.056,0.212-8.272,0.656-12.403,0.732c-2.229,0.037-7.234-0.517-8.375,0.378
					l-1.277,3.583c0.034,4.978,0.167,9.561,1.721,14.614c0.92,2.984,5.673,2.759,9.44,2.858c8.285,0.224,30.402-0.239,38.664,0.076
					c2.266,0.092,4.64-0.158,5.572-0.62C326.634,340.156,327.327,333.96,326.715,331.357z"/>
				<path fill="#0B1F28" d="M333.099,365.912c-0.429-1.828-1.207-3.861-1.958-5.822c-0.668-1.753-1.365-3.559-1.781-5.157
					l-0.069-0.271c-1.085-4.166-1.681-5.499-6.96-5.815c-1.412-0.092-2.83-0.193-4.252-0.281c-5.118-0.34-10.42-0.69-15.694-0.655
					c-1.456,0.006-2.881,0.044-4.233,0.114c-1.588,0.079-3.228,0.202-4.814,0.315c-2.483,0.179-5.058,0.365-7.553,0.409
					l-0.129,0.006c-0.558,0-1.305-0.031-2.1-0.062c-0.945-0.039-2.02-0.083-3.006-0.076c-2.072,0.015-3.196,0.243-3.887,0.782
					l-0.281,0.221l-1.469,4.129v0.215c0.035,5.154,0.189,9.837,1.771,14.966c1.1,3.575,5.765,3.653,9.513,3.726
					c0.369,0.007,0.733,0.016,1.088,0.019c3.859,0.101,10.588,0.066,17.709,0.019c8.128-0.057,16.536-0.11,20.942,0.057
					c0.297,0.013,0.583,0.025,0.874,0.038c0.645,0.032,1.26,0.066,1.853,0.057l0,0c1.336-0.003,2.991-0.182,3.997-1.456
					C333.568,370.235,333.707,368.488,333.099,365.912z"/>
				<path fill="#EEF0F8" d="M332.789,358.893c-0.794-3.36-3.728-0.176-4.633-3.647c-1.034-3.956-1.163-4.869-5.901-5.157
					c-7.933-0.485-15.969-1.226-24.041-0.822c-4.057,0.208-8.271,0.655-12.403,0.721c-2.231,0.048-7.234-0.512-8.375,0.389
					l-1.277,3.584c0.032,4.971,0.162,9.56,1.721,14.603c0.92,3.001,5.677,2.768,9.441,2.868c8.283,0.224,30.398-0.239,38.664,0.069
					c2.739,0.11,5.302-0.694,6.077-2.531C332.402,368.16,333.228,360.765,332.789,358.893z"/>
				<path fill="#0B1F28" d="M327.459,328.781c-0.428-1.828-1.207-3.862-1.957-5.828c-0.671-1.744-1.362-3.556-1.781-5.154
					l-0.069-0.274c-1.086-4.167-1.681-5.503-6.96-5.819c-1.416-0.088-2.831-0.18-4.253-0.272
					c-5.125-0.346-10.421-0.699-15.694-0.664c-1.456,0.009-2.884,0.047-4.234,0.116c-1.592,0.085-3.227,0.199-4.813,0.316
					c-2.483,0.183-5.059,0.371-7.55,0.412l-0.135,0.004c-0.554,0-1.301-0.032-2.092-0.06c-0.949-0.041-2.027-0.085-3.011-0.079
					c-2.071,0.013-3.2,0.24-3.886,0.782l-0.28,0.224l-1.472,4.127l0.004,0.221c0.031,5.15,0.189,9.828,1.774,14.966
					c1.097,3.574,5.765,3.654,9.51,3.719c0.369,0,0.734,0.012,1.091,0.025c3.855,0.1,10.582,0.056,17.705,0.012
					c8.129-0.047,16.535-0.113,20.942,0.066c0.297,0.01,0.586,0.022,0.871,0.029c0.649,0.037,1.261,0.063,1.859,0.056l0,0
					c1.33-0.006,2.989-0.177,3.994-1.449C327.932,333.097,328.071,331.357,327.459,328.781z"/>
				<path fill="#EEF0F8" d="M326.248,329.055c-0.794-3.36-2.826-7.474-3.731-10.944c-1.038-3.956-1.161-4.869-5.902-5.163
					c-7.936-0.485-15.968-1.22-24.04-0.813c-4.06,0.195-8.274,0.65-12.401,0.725c-2.235,0.038-7.237-0.517-8.378,0.382l-1.276,3.577
					c0.031,4.981,0.164,9.57,1.719,14.611c0.923,2.997,5.676,2.763,9.44,2.865c8.284,0.22,30.406-0.24,38.667,0.075
					C324.291,334.521,327.687,335.179,326.248,329.055z"/>
				<path fill="#0B1F28" d="M333.455,356.769c-0.428-1.828-1.204-3.852-1.957-5.819c-0.672-1.752-1.365-3.556-1.781-5.157
					l-0.069-0.271c-1.084-4.167-1.677-5.501-6.96-5.815c-1.415-0.092-2.831-0.18-4.253-0.281c-5.122-0.341-10.42-0.691-15.693-0.655
					c-1.457,0.009-2.884,0.044-4.233,0.113c-1.589,0.078-3.229,0.201-4.814,0.314c-2.487,0.18-5.059,0.366-7.549,0.41l-0.135,0.006
					c-0.556,0-1.299-0.032-2.092-0.063c-0.949-0.038-2.028-0.083-3.011-0.073c-2.07,0.012-3.198,0.236-3.883,0.778l-0.284,0.221
					l-1.472,4.129v0.221c0.035,5.148,0.193,9.831,1.778,14.966c1.101,3.578,5.765,3.65,9.513,3.719
					c0.366,0.006,0.728,0.016,1.085,0.019c3.861,0.101,10.588,0.066,17.708,0.013c8.132-0.044,16.536-0.111,20.942,0.063
					c0.297,0.013,0.584,0.025,0.87,0.038c0.649,0.032,1.265,0.06,1.86,0.06l0,0c1.333-0.007,2.991-0.177,3.99-1.454
					C333.928,361.093,334.066,359.359,333.455,356.769z"/>
				<path fill="#EEF0F8" d="M332.245,357.059c-0.791-3.37-2.827-7.483-3.736-10.951c-1.031-3.959-1.16-4.873-5.894-5.16
					c-7.94-0.485-15.969-1.226-24.041-0.823c-4.06,0.207-8.277,0.655-12.403,0.731c-2.232,0.045-7.237-0.524-8.381,0.378
					l-1.27,3.585c0.028,4.983,0.161,9.57,1.714,14.609c0.924,2.989,5.681,2.771,9.444,2.862c8.284,0.224,30.401-0.24,38.663,0.072
					C330.284,362.518,333.681,363.171,332.245,357.059z"/>
				<path fill="#BEC3CB" d="M293.615,321.626c-0.012-3.612-0.513-6.295-4.977-6.064c-4.381,0.236-8.834,0.451-13.336,0.479
					l0.205-0.584c-3.657,1.989-1.708,7.868-1.172,11.023c0.741,4.372,2.203,5.63,7.095,5.545c2.141-0.032,4.133-0.602,6.235-0.816
					c1.517-0.156,3.695,0.438,4.981-0.407C295.258,329.068,293.625,324.182,293.615,321.626z"/>
				<path fill="#BEC3CB" d="M300.651,349.399c-0.016-3.606-0.514-6.285-4.981-6.052c-4.382,0.23-8.837,0.444-13.333,0.473
					l0.205-0.586c-3.656,1.991-1.708,7.874-1.176,11.026c0.741,4.376,2.203,5.636,7.095,5.557c2.14-0.041,4.135-0.614,6.236-0.828
					c1.513-0.158,3.694,0.441,4.984-0.41C302.294,356.85,300.661,351.965,300.651,349.399z"/>
				<path fill="#BEC3CB" d="M324.941,348.775c-1.478-4.142-2.632-5.592-7.095-5.352c-4.382,0.233-5.262,0.618-9.756,0.643
					l0.201-0.58c-3.653,1.992-1.706,7.867-1.173,11.019c0.744,4.376,2.203,5.64,7.096,5.555c2.14-0.038,4.133-0.611,6.237-0.826
					c1.513-0.152,3.692,0.448,4.982-0.404C328.046,357.096,325.802,351.189,324.941,348.775z"/>
				<path fill="#BEC3CB" d="M298.359,316.762l0.625,0.202c-0.869,0.047-1.642,0.434-1.835,1.22
					c2.613,0.936,21.841,2.317,21.951-0.271C312.768,315.485,305,318.206,298.359,316.762z"/>
				<path fill="#BEC3CB" d="M300.061,322.984l0.625,0.202c-0.873,0.038-1.642,0.429-1.834,1.223
					c2.612,0.933,21.843,2.307,21.947-0.283C314.467,321.705,306.703,324.428,300.061,322.984z"/>
				<path fill="#BEC3CB" d="M301.761,328.58l0.62,0.202c-0.87,0.041-1.639,0.431-1.831,1.22c2.617,0.94,21.844,2.314,21.949-0.271
					C316.165,327.303,308.405,330.023,301.761,328.58z"/>
				<path fill="#0B1F28" d="M280.465,336.264c-1.866-0.085-6.414,0.104-7.641-1.409l-0.62-0.469c0.87,2.064,3.158,1.963,5.371,2.193
					c2.928,0.287,6.789,0.227,9.737,0.227c3.095,0,7.379,0.202,10.43,0.079c2.32-0.091,7.245,0.079,7.78-0.29
					C299.598,336.264,282.832,336.365,280.465,336.264z"/>
				<path fill="#0B1F28" d="M286.176,364.403c-1.869-0.082-6.415,0.101-7.643-1.403l-0.622-0.47
					c0.874,2.061,3.159,1.961,5.375,2.185c2.928,0.286,6.79,0.23,9.731,0.23c3.101,0,7.388,0.202,10.439,0.076
					c2.317-0.092,7.24,0.078,7.774-0.284C305.31,364.403,288.546,364.504,286.176,364.403z"/>
				<path fill="#0B1F28" d="M281.007,338.908c-1.864-0.082-6.414,0.108-7.634-1.4l-0.628-0.467c0.873,2.065,3.158,1.954,5.375,2.179
					c2.927,0.294,6.789,0.236,9.733,0.236c3.099,0,7.386,0.202,10.437,0.078c2.316-0.1,7.24,0.073,7.773-0.286
					C300.143,338.915,283.377,339.016,281.007,338.908z"/>
				<path fill="#0B1F28" d="M286.303,367.46c-1.863-0.081-6.414,0.111-7.638-1.399l-0.624-0.47c0.872,2.065,3.158,1.964,5.374,2.178
					c2.929,0.296,6.786,0.234,9.733,0.234c3.099,0,7.386,0.211,10.438,0.081c2.32-0.094,7.243,0.076,7.773-0.283
					C305.439,367.47,288.676,367.571,286.303,367.46z"/>
				<path fill="#0B1F28" d="M316.513,336.106c-2.531,0-5.012,0.231-7.552,0.231h-0.083c-0.262-0.044-0.532-0.012-0.768,0.094
					c-0.085,0.375,5.027,0.161,5.992,0.063c1.339-0.129,3,0.142,4.34,0.085c0.817-0.041,2.087,0.227,2.797-0.085
					C321.496,336.106,317.811,336.106,316.513,336.106z"/>
				<path fill="#0B1F28" d="M292.09,369.232c-3.096,0-6.131,0.227-9.249,0.227h-0.09c-0.325-0.045-0.656-0.013-0.946,0.101
					c-0.104,0.372,6.157,0.144,7.328,0.056c1.646-0.126,3.676,0.139,5.318,0.076c0.996-0.032,2.553,0.24,3.423-0.076
					C298.19,369.232,293.685,369.232,292.09,369.232z"/>
				<path fill="#0B1F28" d="M311.062,337.065c-1.005-0.053-2.03-0.044-3.045-0.056c-1.349-0.041-2.717-0.016-4.06,0
					c-0.653,0.003-2.553-0.195-2.863,0.085l-1.165-0.029c-0.313,0-0.625-0.016-0.934-0.009c0.59,0.466,3.134,0.302,4.07,0.324
					c1.324,0.029,2.641,0.003,3.943,0.035c1.264,0.034,2.497,0.037,3.739-0.013c0.915-0.044,2.314,0.063,3.129-0.122
					C313.269,337.037,311.828,337.106,311.062,337.065z"/>
				<path fill="#0B1F28" d="M299.85,366.345c-1.009-0.051-2.033-0.038-3.045-0.06c-1.349-0.034-2.717-0.012-4.059,0.004
					c-0.653,0.006-2.553-0.189-2.866,0.082l-1.169-0.025c-0.309-0.004-0.624-0.016-0.93-0.013c0.593,0.467,3.133,0.302,4.073,0.324
					c1.324,0.029,2.638,0.007,3.94,0.045c1.264,0.022,2.499,0.028,3.738-0.022c0.914-0.038,2.317,0.063,3.131-0.123
					C302.057,366.32,300.614,366.386,299.85,366.345z"/>
				<path fill="#0B1F28" d="M299.85,370.606c-1.009-0.057-2.033-0.05-3.045-0.067c-1.349-0.034-2.717-0.009-4.059,0.004
					c-0.653,0.006-2.553-0.186-2.866,0.084l-1.169-0.021c-0.309-0.012-0.624-0.019-0.93-0.012c0.593,0.466,3.133,0.305,4.073,0.322
					c1.324,0.025,2.638,0.006,3.94,0.031c1.264,0.038,2.499,0.038,3.738-0.013c0.914-0.034,2.317,0.063,3.131-0.126
					C302.057,370.574,300.614,370.644,299.85,370.606z"/>
				<path fill="#0B1F28" d="M296.969,337.85c-1.008-0.057-2.033-0.051-3.042-0.073c-1.352-0.028-2.72,0-4.067,0.01
					c-0.649,0.006-2.549-0.19-2.861,0.082l-1.167-0.019c-0.311-0.012-0.623-0.026-0.929-0.012c0.586,0.46,3.133,0.302,4.066,0.317
					c1.324,0.029,2.641,0.01,3.944,0.039c1.264,0.027,2.503,0.034,3.742-0.017c0.911-0.038,2.314,0.063,3.127-0.126
					C299.176,337.812,297.729,337.884,296.969,337.85z"/>
				<path fill="#0B1F28" d="M276.72,337.28c-0.703-0.042-2.238-0.054-2.651-0.628l-0.778-0.231c0.025,1.006,1.355,1.234,2.184,1.315
					c0.703,0.076,2.134,0.348,2.786,0C279.415,337.137,277.184,337.295,276.72,337.28z"/>
				<path fill="#0B1F28" d="M281.59,365.676c-0.697-0.088-2.225-0.205-2.601-0.804l-0.762-0.293
					c-0.041,1.012,1.27,1.336,2.087,1.478c0.699,0.114,2.111,0.486,2.785,0.187C284.288,365.714,282.05,365.73,281.59,365.676z"/>
				<path fill="#0B1F28" d="M319.702,338.026c-1.8,0-3.597,0-5.393,0c-0.599,0.129-1.217,0.114-1.834,0.101
					c1.023,1.059,5.279,0.516,6.688,0.516c0.959,0,1.838-0.151,2.717-0.207c0.779-0.051,2.387,0.526,2.91,0.031
					C323.507,337.566,321.215,338.026,319.702,338.026z"/>
				<path fill="#0B1F28" d="M308.49,369.591c-1.803,0-3.6,0-5.403,0c-0.589,0.136-1.207,0.107-1.828,0.101
					c1.024,1.062,5.283,0.524,6.692,0.524c0.958,0,1.837-0.162,2.713-0.215c0.779-0.051,2.389,0.526,2.91,0.031
					C312.291,369.131,310.004,369.591,308.49,369.591z"/>
				<path fill="#0B1F28" d="M331.336,365.528c-1.349,0.937-3.861,0.328-5.506,0.328c-1.823,0-3.622,0.047-5.438,0.104
					c-1.711,0.063-3.442-0.003-5.154-0.003c-0.428,0-1.79,0.158-1.556-0.101l-1.662,0.101c-0.595,0-1.84-0.223-2.064,0.4
					c1.566,0.258,3.146,0.142,4.766,0.221c1.79,0.095,5.547,0.107,7.373,0.107c2.076,0,2.701-0.177,4.775-0.315
					C327.702,366.313,331.734,366.43,331.336,365.528z"/>
				<path fill="#0B1F28" d="M324.065,367.927c-0.968,0.05-1.916,0.063-2.875,0.107c-1.227,0.05-3.868,0.542-4.81,0l-0.208-0.205
					c-0.529,0-1.302-0.23-1.223,0.498c1.731,0.589,4.111,0.22,6.002,0.22c1.251,0,2.547,0.01,3.738-0.098
					c0.82-0.075,2.682,0.139,3.227-0.523C327.236,367.246,324.972,367.886,324.065,367.927z"/>
				<path fill="#0B1F28" d="M326.776,370.007c-1.359-0.066-5.368,0.398-6.137-0.416h-0.208c-0.419,0.044-0.914,0.082-1.129,0.498
					c3.761,0.731,7.984,0.586,11.707-0.306c0.016-0.123,0.016-0.236,0.02-0.362C329.798,369.95,328.165,370.077,326.776,370.007z"/>
				<path fill="#0B1F28" d="M324.569,364.504c0.778,0.495,3.257,0.315,4.376,0.315c1.629-0.013,3,0.113,4.258-0.933l0.104-1.147
					C333.111,365.321,326.275,364.504,324.569,364.504z"/>
			</g>
			<path fill="#0B1F28" d="M154.901,139.721l-0.81-3.25c-0.195-0.643-1.219-1.837-1.627-2.471
				c-3.864,2.393,2.926,13.948-1.157,14.718c-0.136,1.645,0.852,5.238,0.06,6.455c-0.943,1.453-4.315,1.456-5.806,2.109
				c-6.544,2.821-5.365,6.086-0.81,5.185c4.141-0.817,12.892-3.43,13.403-8.126C158.7,149.317,154.86,144.8,154.901,139.721z"/>
		</g>
	</g>
	<path fill="#D6DAE2" d="M390.961,230.451c-1.119,6.62-5.191,12.079-6.158,18.799c-1.695,11.789,7.549,30.652,12.876,11.005
		C399.211,254.609,400.456,231.069,390.961,230.451z"/>
	<path fill="#0B1F28" d="M385.311,521.938c-2.103,10.863-3.313,15.522-12.155,20.788c-9.544,5.684-44.769,0.148-26.95,10.977
		c17.816,10.83-48.57,6.405-56.047,13.944c4.631,5.081,21.671,1.639,29.091,2.031c9.5,0.504,19.486,2.874,28.951,1.992
		c0,0,36.054,1.639,40.931-3.997C393.588,562.528,394.756,520.816,385.311,521.938z"/>
	<path fill="#0B1F28" d="M275.768,566.827c-5.41-1.21-42.367-1.803-42.367,2.181c0,3.997,16.482,1.916,24.094,1.072l5.44,0.732
		c3.676,0.92,9.595,0.151,13.117-1.576C276.024,568.378,275.935,567.659,275.768,566.827z"/>
	<path fill="#0B1F28" d="M214.766,570.345v-0.668c2.603,1.55,5.298,0.592,6.717-2.005
		C216.746,561.973,207.951,569.299,214.766,570.345z"/>
	<path fill="#0B1F28" d="M262.961,10.6c-12.784,0.636-29.418,4.551-41.872,2.049l-9.986-0.997c-1.639,1.614-2.862,2.175-1.822,4.816
		c13.57,5.835,34.843,2.169,49.741,2.169c13.639,0,37.014,4.357,47.763-5.238C302.264,4.824,272.188,10.149,262.961,10.6z"/>
</g>
</svg>
