<?xml version="1.0" encoding="utf-8"?>
<!-- Generator: Adobe Illustrator 17.0.0, SVG Export Plug-In . SVG Version: 6.00 Build 0)  -->
<!DOCTYPE svg PUBLIC "-//W3C//DTD SVG 1.1//EN" "http://www.w3.org/Graphics/SVG/1.1/DTD/svg11.dtd">
<svg version="1.1" xmlns="http://www.w3.org/2000/svg" xmlns:xlink="http://www.w3.org/1999/xlink" x="0px" y="0px"
	 width="407.875px" height="580.007px" viewBox="0 0 407.875 580.007" style="enable-background:new 0 0 407.875 580.007;"
	 xml:space="preserve">
<style type="text/css">
	.st0{fill:#00B1EC;}
</style>
<g id="RULES">
</g>
<g id="Layer_1">
	<g>
		<path class="st0" d="M249.165,208.122L129.461,330.127l-43.742-41.441l-17.948,7.838c0,0,57.083,76.868,59.39,80.105
			c2.3,3.224,6.442,2.293,9.207-0.93c2.759-3.224,113.256-148.243,113.256-148.243L249.165,208.122z"/>
		<path class="st0" d="M189.31,337.951l17.955-25.321l13.355,16.568l122.458-120.617l-0.46,18.873
			c0,0-110.492,145.019-112.333,147.785c-1.841,2.765-6.901,5.531-10.588,0.459C216.014,370.64,189.31,337.951,189.31,337.951z"/>
	</g>
</g>
</svg>
