<?xml version="1.0" encoding="utf-8"?>
<!-- Generator: Adobe Illustrator 17.0.0, SVG Export Plug-In . SVG Version: 6.00 Build 0)  -->
<!DOCTYPE svg PUBLIC "-//W3C//DTD SVG 1.1//EN" "http://www.w3.org/Graphics/SVG/1.1/DTD/svg11.dtd">
<svg version="1.1" id="Layer_1" xmlns="http://www.w3.org/2000/svg" xmlns:xlink="http://www.w3.org/1999/xlink" x="0px" y="0px"
	 width="408px" height="580.007px" viewBox="0 0 408 580.007" style="enable-background:new 0 0 408 580.007;" xml:space="preserve"
	>
<style type="text/css">
	.st0{fill:#E7555E;}
	.st1{fill:#0B1F28;}
	.st2{fill:#EEF0F8;}
	.st3{fill:#D6DAE2;}
	.st4{fill:#BEC3CB;}
	.st5{fill:#BEBCC2;}
	.st6{fill:#C73447;}
	.st7{fill:#EA7873;}
	.st8{fill:#231F20;}
	.st9{fill:none;stroke:#000000;stroke-width:3;stroke-miterlimit:10;}
</style>
<g id="RULES">
</g>
<path class="st0" d="M288.849,445.406c0.056-1.076,0.329-2.661-0.687-3.319c-0.838-0.538-2.288-0.005-2.449,0.822l-1.478-0.212
	c-1.255,1.539-2.163,3.543,0.048,4.6C286.825,448.513,287.123,446.157,288.849,445.406z"/>
<g>
	<path class="st1" d="M382.296,19.606l-371.521,0.19C4.873,19.795,0.076,24.603,0.078,30.503l0.277,538.683
		c0.001,5.899,4.806,10.697,10.709,10.696l371.519-0.191c5.904,0,10.698-4.805,10.696-10.707l-0.276-538.681
		C393,24.4,388.198,19.602,382.296,19.606z"/>
	<path class="st2" d="M381.936,21.375L10.414,21.566c-5.065,0.002-9.17,4.111-9.167,9.176l0.277,538.684
		c0.003,5.066,4.11,9.171,9.177,9.167l371.52-0.193c5.068-0.003,9.17-4.11,9.169-9.177l-0.277-538.682
		C391.11,25.476,387.002,21.372,381.936,21.375z"/>
	<path class="st3" d="M46.772,38.379c-12.522-0.005-28.839-2.016-31.096,1.987c-1.375,2.434-3.334,23.353-4.273,43.264
		l-0.754,23.328c-0.754,9.492,0.09,31.127,6.042,24.226c4.587-5.317,3.682-36.328,6.948-42.01
		c7.253-12.625,26.899-5.563,33.327-17.979c-3.584-1.718-5.915-5.911-8.678-7.889c9.76-4.655,51.188-8.889,52.658-18.742
		c8.223-0.567,18.247-1.676,25.377-6.16C113.24,28.822,64.161,38.386,46.772,38.379z"/>
	<path class="st3" d="M381.335,387.865c-0.41-8.151,1.598-24.831-3.482-30.832c-5.131,7.282-4.04,24.559-3.981,33.283
		c0.086,12.417-4.617,20.985-6.903,32.407c-1.268,6.345-1.363,9.044-5.87,14.29c-2.805,3.268-7.478,6.807-8.304,10.899
		c-1.203,5.947,1.809,9.592-0.809,15.639c-2.99,6.905-3.399,9.368-3.97,16.804c-0.407,5.298-3.741,9.592-3.158,14.972
		c0.615,5.678,3.73,9.692,0.977,16.052c-5.18,11.966-20.751,8.861-31.74,10.08c-2.241,9.143-8.945,10.378-16.877,12.473
		c-6.168,1.627-21.459,5.188-24.379,12.158c-1.855,4.432,3.127,4.489-3.113,8.241c-4.2,2.525-8.224,2.401-13.065,2.138
		c-14.226-0.767-28.305,1.22-42.402,2.775c-22.752,2.511-48.608-4.093-71.233-4.823c-20.92-0.673-39.579,5.852-60.681,6.913
		c-6.703,0.337-13.564,0.508-20.1,0.51c-4.384,0.002-11.646-0.75-15.412,1.26c-13.855,7.389,13.479,9.643,18.522,9.39
		c0,0,264.702-1.376,271.12-0.742c10.994,1.088,21.976,0.813,33.504,0.247c14.132-0.694,12.818-1.064,12.815-14.17
		c-0.009-21.312,0.445-49.206,0.301-70.866c-0.147-22.078,2.07-44.198-0.077-65.69C381.91,410.227,381.893,398.955,381.335,387.865z
		"/>
	<path class="st4" d="M380.776,567.787l-1.447,0.002l-367.194,0.19l-0.001-1.447L11.859,32.178l1.447-0.001l367.192-0.189
		l0.002,1.449L380.776,567.787z M15.031,565.082l362.851-0.188l-0.273-530.009L14.757,35.072L15.031,565.082z"/>
</g>
<g>
	<path class="st1" d="M345.548,300.204c-6.732-13.234,23.693-11.43,31.79-12.941c0,0-1.98-11.542-0.142-29.84
		c-12.957-6.067-27.784,2.028-28.921-14.226c-1.112-15.923,16.444-6.269,19.084-17.399c2.674-11.277-25.559-14.804-32.361-15.552
		c-6.637-0.729-67.664-2.417-53.293-18.599c3.679-4.144,17.702-0.094,18.493-8.987c0.795-8.894-49.597-2.521-47.553-14.957
		c3.945-1.94,15.016-6.267,15.417-10.684c0.881-10.302-99.663-10.821-109.614-10.786c-12.01,0.041-23.001,1.846-35.012,1.736
		c-6.347-0.058-29.215,2.169-16.573,11.451c7.061,5.185,20.006,2.42,25.564,10.385c-13.091,4.407-29.341,4.252-43.329,5.546
		c-14.43,1.336-33.8-1.1-47.527,4.251c-5.694,2.221-13.181,8.125-8.778,15.037c2.818,4.427,12.974,6.508,17.542,9.423
		c5.123,3.269,14.928,8.279,11.073,15.327c-3.309,6.048-13.732,4.925-18.768,8.174c-11.516,7.426-1.257,12.413,5.357,17.436
		c13.799,10.481-2.202,16.075-12.017,20.426c-3.498,1.551-12.823,3.812-20.403,6.905c-0.047,6.117-0.021,12.236,0.004,18.357
		c3.273,1.428,6.262,3.175,7.271,6.524c-1.458,2.015-4.026,3.591-7.239,4.843c0.002,8.449-0.082,16.896-0.427,25.331
		c11.319,0.222,30.039-1.393,33.746,8.695c5.794,15.764-28.214,9.91-28.95,24.529c-0.928,18.37,35.182,13.568,47.575,14.279
		c5.988,0.344,15.521-0.136,20.477,3.651c9.253,7.072-0.47,8.36-5.331,12.3c-16.626,13.486,22.424,19.396,31.979,20.405
		c9.178,0.968,22.93,2.533,14.474,14.24c-1.879,2.598-7.016,3.859-6.026,7.911c0.914,3.746,10.723,5.278,13.662,5.756
		c12.82,2.077,26.23,0.771,39.005,1.363c10.593,0.491,20.295,2.893,29.386-2.611c-0.4-4.343-4.887-6.983-8.005-9.578
		c8.005-9.761,36.038-3.801,47.313-3.689c20.303,0.201,58.166,12.037,73.763-7.523c4.496-5.637,3.859-13.525-1.14-18.676
		c-2.95-3.043-13.726-4.049-14.406-9.39c-1.063-8.386,19.755-8.85,25.26-13.064c8.192-6.27,4.894-10.852,3.237-19.047
		c-4.188-20.693,33.253-14.638,42.903-25.571C389.081,314.408,351.136,311.187,345.548,300.204z"/>
	<path class="st0" d="M274.369,296.48c0.021,0.356-0.095,0.421-0.529,0.574c-0.436,0.15-0.817-0.012-0.899,0.2
		c-0.081,0.205,0.212,0.684,0.371,0.942c0.163,0.258,0.387,0.659,0.332,1.046c-0.058,0.386-0.45,0.434-0.656,0.352
		c-0.211-0.079-0.38-0.197-0.541-0.524c-0.159-0.331-0.399-0.451-0.706-0.683c-0.303-0.229-0.679-0.533-0.902-0.332
		c-0.223,0.202-0.813,0.591-1.261,0.316c-0.444-0.273-0.264-0.972-0.103-1.282c0.161-0.312,0.446-0.368,0.138-0.558
		c-0.307-0.198-1.205-0.64-1.206-1.205c-0.003-0.566,0.467-0.715,0.952-0.585c0.491,0.136,0.764,0.328,1.259,0.357
		c0.495,0.028,0.155-0.203,0.426-0.614c0.271-0.411,0.707-0.598,0.707-0.598s-0.183-1.149,0.633-1.138
		c0.814,0.013,0.584,0.958,0.558,1.419c-0.025,0.458-0.106,1.272-0.012,1.416C273.027,295.729,274.334,295.877,274.369,296.48z"/>
	<path class="st0" d="M83.14,332.484c0.022,0.357-0.099,0.421-0.53,0.575c-0.435,0.154-0.815-0.013-0.898,0.196
		c-0.082,0.208,0.209,0.687,0.369,0.945c0.163,0.259,0.391,0.662,0.332,1.046c-0.058,0.388-0.451,0.436-0.661,0.354
		c-0.208-0.083-0.379-0.2-0.537-0.529c-0.157-0.328-0.401-0.447-0.705-0.678c-0.308-0.231-0.679-0.537-0.905-0.335
		c-0.225,0.199-0.813,0.593-1.26,0.318c-0.444-0.275-0.264-0.973-0.102-1.28c0.157-0.311,0.446-0.368,0.138-0.561
		c-0.305-0.194-1.204-0.637-1.205-1.205c-0.006-0.566,0.464-0.715,0.952-0.584c0.489,0.136,0.763,0.33,1.258,0.359
		s0.153-0.206,0.425-0.615c0.271-0.412,0.709-0.601,0.709-0.601s-0.183-1.146,0.632-1.135c0.815,0.012,0.584,0.956,0.558,1.417
		c-0.025,0.46-0.111,1.273-0.012,1.415C81.798,331.735,83.1,331.882,83.14,332.484z"/>
	<path class="st5" d="M218.195,209.23c-0.308,0.171-0.418,0.096-0.745-0.227c-0.326-0.326-0.347-0.739-0.568-0.724
		c-0.222,0.018-0.525,0.488-0.688,0.747c-0.161,0.26-0.426,0.636-0.798,0.755c-0.374,0.116-0.592-0.218-0.605-0.441
		c-0.016-0.223,0.014-0.427,0.24-0.713c0.227-0.285,0.228-0.556,0.307-0.935c0.073-0.372,0.182-0.84-0.094-0.958
		c-0.275-0.113-0.886-0.475-0.836-0.993c0.053-0.523,0.763-0.663,1.11-0.655c0.349,0.009,0.52,0.243,0.565-0.118
		c0.04-0.361,0.05-1.362,0.559-1.611c0.511-0.251,0.849,0.107,0.941,0.605c0.092,0.498,0.038,0.829,0.227,1.284
		c0.19,0.462,0.251,0.052,0.738,0.119c0.485,0.066,0.846,0.383,0.846,0.383s0.95-0.666,1.297,0.074
		c0.341,0.734-0.608,0.938-1.032,1.113c-0.421,0.177-1.192,0.458-1.281,0.609C218.289,207.699,218.727,208.934,218.195,209.23z"/>
	<path class="st5" d="M298.431,349.446c-0.353-0.015-0.406-0.134-0.52-0.583c-0.113-0.446,0.085-0.81-0.114-0.911
		c-0.2-0.102-0.703,0.151-0.973,0.287c-0.271,0.135-0.694,0.322-1.074,0.23c-0.381-0.09-0.393-0.487-0.291-0.687
		c0.1-0.198,0.231-0.358,0.575-0.487c0.34-0.124,0.482-0.354,0.738-0.642c0.26-0.278,0.598-0.626,0.417-0.865
		c-0.175-0.245-0.511-0.866-0.199-1.289c0.313-0.416,0.992-0.171,1.287,0.016c0.292,0.188,0.32,0.482,0.545,0.19
		c0.221-0.289,0.743-1.144,1.308-1.094c0.565,0.05,0.672,0.53,0.493,1.006c-0.178,0.474-0.395,0.729-0.468,1.219
		c-0.075,0.49,0.188,0.171,0.572,0.48c0.386,0.307,0.532,0.76,0.532,0.76s1.155-0.076,1.07,0.732
		c-0.082,0.81-1.005,0.496-1.459,0.423c-0.457-0.066-1.254-0.222-1.412-0.137C299.298,348.18,299.035,349.463,298.431,349.446z"/>
	<path class="st0" d="M318.599,289.388c0.056-0.536,0.243-1.321-0.249-1.681c-0.404-0.3-1.145-0.072-1.25,0.34l-0.736-0.15
		c-0.675,0.736-1.188,1.716-0.111,2.312C317.498,290.892,317.713,289.718,318.599,289.388z"/>
	<path class="st5" d="M254.408,401.91c0.06-0.533,0.244-1.323-0.248-1.68c-0.403-0.301-1.147-0.073-1.253,0.337l-0.735-0.15
		c-0.674,0.738-1.187,1.718-0.107,2.313C253.304,403.412,253.521,402.238,254.408,401.91z"/>
	<path class="st5" d="M105.468,212.899c0.058-0.532,0.243-1.323-0.248-1.68c-0.405-0.301-1.148-0.071-1.253,0.338l-0.735-0.15
		c-0.674,0.737-1.188,1.718-0.108,2.311C104.367,214.401,104.581,213.228,105.468,212.899z"/>
	<path class="st5" d="M138.545,389.777c0.036-0.34,0.159-0.844-0.157-1.073c-0.261-0.191-0.734-0.046-0.802,0.217l-0.468-0.094
		c-0.432,0.47-0.76,1.096-0.069,1.476C137.839,390.737,137.979,389.986,138.545,389.777z"/>
	<path class="st5" d="M131.214,310.77c0.039-0.34,0.157-0.844-0.158-1.072c-0.257-0.193-0.733-0.045-0.8,0.216l-0.47-0.096
		c-0.432,0.47-0.758,1.098-0.068,1.478C130.511,311.731,130.648,310.981,131.214,310.77z"/>
	<path class="st5" d="M34.359,368.513c0.038-0.34,0.159-0.845-0.157-1.073c-0.259-0.191-0.732-0.046-0.802,0.217l-0.467-0.096
		c-0.434,0.472-0.759,1.099-0.071,1.478C33.656,369.473,33.795,368.723,34.359,368.513z"/>
	<path class="st5" d="M9.961,315.688c0.038-0.34,0.159-0.846-0.159-1.073c-0.258-0.191-0.731-0.046-0.799,0.217l-0.471-0.097
		c-0.428,0.471-0.757,1.099-0.065,1.478C9.257,316.647,9.394,315.898,9.961,315.688z"/>
	<path class="st5" d="M43.61,275.791c0.037-0.341,0.157-0.845-0.158-1.073c-0.259-0.191-0.733-0.045-0.801,0.218l-0.469-0.097
		c-0.432,0.472-0.758,1.099-0.069,1.477C42.907,276.75,43.046,276.001,43.61,275.791z"/>
	<path class="st5" d="M163.252,425.714c0.036-0.34,0.157-0.844-0.159-1.072c-0.259-0.193-0.733-0.047-0.8,0.216l-0.469-0.095
		c-0.431,0.471-0.759,1.098-0.068,1.476C162.547,426.674,162.686,425.922,163.252,425.714z"/>
	<path class="st5" d="M332.802,259.572c0.037-0.341,0.157-0.845-0.16-1.074c-0.257-0.19-0.731-0.046-0.798,0.217l-0.47-0.096
		c-0.43,0.47-0.758,1.097-0.071,1.476C332.097,260.532,332.236,259.78,332.802,259.572z"/>
	<path class="st5" d="M337.721,223.28c0.038-0.341,0.159-0.844-0.155-1.071c-0.261-0.193-0.733-0.046-0.802,0.215l-0.468-0.095
		c-0.429,0.471-0.758,1.098-0.069,1.478C337.02,224.242,337.157,223.492,337.721,223.28z"/>
	<path class="st5" d="M254.433,188.249c0.036-0.341,0.156-0.845-0.16-1.072c-0.257-0.193-0.732-0.045-0.798,0.217l-0.471-0.096
		c-0.43,0.47-0.757,1.097-0.065,1.476C253.726,189.209,253.866,188.459,254.433,188.249z"/>
	<path class="st5" d="M217.668,157.531c0.037-0.34,0.158-0.845-0.158-1.073c-0.26-0.193-0.735-0.046-0.801,0.217l-0.469-0.096
		c-0.429,0.471-0.759,1.099-0.069,1.477C216.962,158.492,217.103,157.741,217.668,157.531z"/>
	<path class="st5" d="M170.212,179.029c0.039-0.34,0.156-0.845-0.159-1.072c-0.257-0.194-0.734-0.047-0.799,0.216l-0.471-0.096
		c-0.428,0.472-0.757,1.098-0.07,1.476C169.509,179.987,169.648,179.238,170.212,179.029z"/>
	<path class="st5" d="M69.317,191.965c0.038-0.34,0.157-0.845-0.159-1.073c-0.259-0.193-0.733-0.045-0.8,0.217l-0.469-0.096
		c-0.431,0.47-0.76,1.097-0.07,1.477C68.615,192.925,68.753,192.173,69.317,191.965z"/>
	<path class="st5" d="M311.974,386.887c0.086-0.535,0.305-1.308-0.165-1.695c-0.39-0.314-1.144-0.127-1.266,0.279l-0.731-0.186
		c-0.713,0.702-1.274,1.654-0.22,2.305C310.796,388.331,311.071,387.171,311.974,386.887z"/>
	<path class="st5" d="M78.149,266.623c-0.228-0.132-0.997,0.37-1.658,0.712c-0.664,0.343-4.973,2.824-5.705,3.139
		c-0.731,0.313-2.043,1.162-2.414,1.377c-0.371,0.219-0.536,0.636-0.062,0.666c0.474,0.026,1.023,0.368,1.088,0.515
		c0.064,0.146-0.547,0.754-1.422,1.533c-0.883,0.783-2.262,2.413-2.885,2.851c-0.62,0.441-0.695,0.535-0.955,0.873
		c-0.256,0.342-0.745,0.957-0.307,0.767c0.44-0.186,0.664-0.344,1.256-0.712c0.594-0.368,7.689-5.257,8.054-5.472
		c0.371-0.215,0.546-0.347,0.246-0.508c-0.299-0.161-0.73-0.498-0.73-0.498s4.874-4.396,5.251-4.734
		C78.285,266.798,78.149,266.623,78.149,266.623z"/>
	<path class="st5" d="M268.088,235.695c2.922-2.262,6.041-4.517,8.826-6.889c1.76-1.501,7.799-5.718,8.205-7.231
		c-2.656,0.785-5.937,4.324-8.314,6.269C273.803,230.304,268.088,235.695,268.088,235.695z"/>
</g>
<g>
	<path class="st1" d="M94.042,416.4c0.165,0.083,0.317,0.189,0.475,0.284c0.002-0.015-0.003-0.032,0-0.05L94.042,416.4z"/>
</g>
<path class="st1" d="M372.544,532.621c-11.871-0.017-10.798,5.858-16.258,13.977c-6.38,9.485-12.723,9.078-23.171,11.617
	c-8.773,2.131-16.902,6.931-26.21,7.966c-10.321,1.146-28.589-4.932-31.187,1.711c-2.598,6.642,50.652,1.856,58.963,2.596
	l3.743-1.137c7.596-1.427,29.558,1.515,34.051-3.588C377.257,560.335,373.261,539.712,372.544,532.621z"/>
<path class="st1" d="M265.444,565.703c-8.076-0.868-17.548-0.114-25.106,0.488c-8.732,0.696-26.194-1.082-26.047,1.203
	c0.145,2.286,4.402,1.947,13.029,2.688l26.205,0.294C256.688,570.357,266.49,570.085,265.444,565.703z"/>
<path class="st1" d="M192.86,566.191c-2.888,2.523,1.7,4.027,3.957,2.675l-0.924,0.521c2.421,0.141,4.986-0.463,5.002-3.031
	C199.597,566.013,194.039,565.162,192.86,566.191z"/>
<path class="st1" d="M18.003,51.968l-2.914-1.279c6.394,12.296,35.526,2.232,44.171-3.645
	C53.406,40.049,11.484,39.329,18.003,51.968z"/>
<g>
	<path class="st1" d="M321.268,111.079c-6.783-7.623-13.715-8.76-18.339-8.372c-4.759,0.399-9.4,2.629-12.807,6.138
		c-5.056,2.842-17.598,15.66-20.346,21.973c-1.438,1.051-4.078,3.711-9.091,10.947c-3.93,5.673-10.457,15.09-13.524,22.586
		c-2.967,3.389-5.068,8.262-6.929,12.582c-0.648,1.501-1.26,2.92-1.857,4.156c-2.351,4.94-3.431,8.976-1.056,12.62
		c0.962,1.477,3.005,3.161,7.261,2.805c3.211-0.27,6.778-1.628,9.203-2.72c6.381-2.873,33.09-19.014,51.371-33.738
		c0.32-0.258,0.635-0.498,0.942-0.732c1.329-1.015,2.806-2.145,3.874-4.054c2.996-1.274,5.227-3.76,7.062-5.803
		c0.311-0.346,0.61-0.68,0.899-0.988c2.588-2.774,4.172-4.592,5.395-8.215c2.476-2.546,3.498-6.335,4.114-9.423
		C328.882,123.592,326.979,117.497,321.268,111.079z"/>
	<path class="st0" d="M319.212,112.907c4.774,5.364,6.891,10.562,5.531,17.395c-0.519,2.604-1.461,6.413-3.82,8.45
		c-1.081,3.54-2.419,5.079-5.003,7.849c-2.018,2.163-4.57,5.49-7.939,6.462c-0.95,2.378-2.65,3.318-4.549,4.85
		c-18.658,15.027-44.938,30.744-50.776,33.372c-5.651,2.545-11.226,3.692-13.032,0.922c-1.385-2.126-1.251-4.712,1.236-9.936
		c2.353-4.855,4.832-12.307,8.674-16.442c2.804-7.118,9.124-16.306,13.415-22.498c4.989-7.201,7.923-10.238,9.075-10.636
		c1.178-4.886,15.303-19.527,19.783-21.627C297.34,105.084,308.93,101.352,319.212,112.907z"/>
	<path class="st6" d="M273.028,176.984c-0.499-1.103-2.358-1.462-3.253-2.181c-1.108-0.886-2.076-2.386-3.529-2.753
		c-0.219,1.818,1.707,2.534,1.689,4.3c-1.378,0.079-1.652,1.312-2.704,1.852c-1.216,0.623-2.418,0.165-3.496-0.425
		c0.225,2.018,2.261,1.982,2.824,3.51c-3.761,0.945-7.304-1.126-10.755-1.284c-0.084,1.206-1.489,1.428-2.415,1.91
		c0.325-0.037,0.667-0.04,0.99-0.092l-1.186,0.272c1.888,6.639,8.929,3.938,13.152,2.045c2.384-1.07,4.963-2.681,7.158-4.137
		C272.495,179.343,273.693,178.454,273.028,176.984z"/>
	<path class="st1" d="M327.707,130.143c-0.104-0.094-0.253-0.096-0.365-0.024l-0.896-1.374c0.004-0.002,0.007-0.004,0.011-0.007
		c0.137-0.098,0.169-0.287,0.07-0.423c-0.098-0.135-0.289-0.166-0.424-0.069c-1.257,0.904-3.364,1.858-7.158-0.302
		c-4.478-2.549-8.098-7.107-8.133-7.153c-0.092-0.117-0.256-0.15-0.384-0.078c-0.13,0.072-0.189,0.227-0.14,0.368
		c0.104,0.29,2.605,7.129,8.276,9.844c2.185,1.046,4.079,1.502,5.672,1.368c1.401-0.118,2.568-0.693,3.494-1.721
		C327.843,130.448,327.833,130.255,327.707,130.143z"/>
	<path class="st1" d="M322.771,138.767c-1.091,0.336-2.559,0.393-4.594-0.159c-4.974-1.348-9.617-4.854-9.664-4.89
		c-0.119-0.091-0.286-0.081-0.392,0.021c-0.107,0.101-0.126,0.267-0.044,0.391c0.174,0.255,4.305,6.25,10.476,7.46
		c1.257,0.247,2.39,0.349,3.406,0.317C322.401,140.894,322.65,139.846,322.771,138.767z"/>
	<path class="st1" d="M299.599,128.843c-0.043-0.059-4.29-5.882-5.913-10.53c-1.575-4.514-1.661-7.621-0.265-9.503
		c0.078-0.104,0.08-0.243,0.013-0.351c-0.069-0.108-0.2-0.161-0.325-0.134l-2.843,0.609c-0.086,0.02-0.161,0.073-0.203,0.151
		c-0.072,0.126-1.789,3.215,1.018,9.9c2.196,5.233,7.937,10.223,8.137,10.318c0.045,0.022,0.092,0.031,0.139,0.031
		c0.087-0.001,0.172-0.04,0.233-0.113C299.677,129.113,299.682,128.957,299.599,128.843z"/>
	<path class="st1" d="M311.947,151.615c0.115-0.114,0.118-0.3,0.003-0.417c-0.114-0.115-0.302-0.116-0.416-0.003
		c-0.219,0.217-1.595,0.505-3.919,0.229c-2.486-0.294-8.646-1.586-12.146-7.196c-0.08-0.127-0.246-0.176-0.381-0.108
		c-0.136,0.067-0.199,0.226-0.143,0.368c2.252,5.914,7.427,9.522,14.197,9.9c0.025,0.002,0.05,0,0.073-0.005
		c0.131-0.025,0.232-0.134,0.238-0.273c0.005-0.088-0.032-0.167-0.093-0.227l1.865-1.944
		C311.556,151.858,311.809,151.75,311.947,151.615z"/>
	<path class="st1" d="M304.919,142.104c-11.147-4.867-15.531-17.929-15.587-18.061c-0.068-0.157-0.235-0.238-0.405-0.195
		c-0.164,0.043-0.273,0.202-0.254,0.371c0.019,0.162,1.878,15.76,16.034,18.53c0.028,0.007,0.058,0.006,0.085,0.004
		c0.135-0.012,0.254-0.102,0.298-0.235C305.145,142.355,305.075,142.171,304.919,142.104z"/>
	<path class="st1" d="M281.822,136.011c-0.036-0.169-0.192-0.285-0.363-0.271h-0.001c-0.171,0.014-0.307,0.153-0.315,0.326
		c-0.318,6.366,3.73,16.484,11.886,18.123c0.033,0.006,0.066,0.008,0.097,0.005c0.13-0.011,0.245-0.094,0.293-0.22
		c0.058-0.156-0.004-0.334-0.148-0.419C284.559,148.466,281.849,136.135,281.822,136.011z"/>
	<path class="st1" d="M272.022,132.694c-0.164,4.8,2.046,12.634,5.588,16.823c-3.927-1.569-8.543-11.358-7.597-17.561"/>
	<path class="st1" d="M281.887,164.359c-9.356-3.466-12.982-14.288-13.018-14.396c-0.066-0.199-0.239-0.307-0.474-0.285
		c-0.206,0.036-0.355,0.22-0.349,0.429c0.005,0.138,0.593,13.819,13.655,15.066c0.036,0.003,0.072,0.002,0.105-0.004
		c0.166-0.027,0.305-0.152,0.344-0.321C282.199,164.64,282.087,164.431,281.887,164.359z"/>
	<path class="st1" d="M281.017,175.411l-0.234-0.53c-2.325,1.023-5.739,0.163-9.136-2.303c-2.167-1.573-4.441-5.52-4.461-5.558
		c-0.073-0.125-0.223-0.178-0.358-0.127c-0.133,0.052-0.208,0.193-0.178,0.332c0.034,0.155,0.861,3.81,3.142,6.549
		c3.053,3.664,7.562,4.995,7.752,5.049l0.078-0.278l2.821-2.925C280.64,175.561,280.833,175.492,281.017,175.411z"/>
	<path class="st1" d="M264.932,179.913c-8.05-3.345-11.784-13.271-11.822-13.372c-0.068-0.186-0.262-0.296-0.457-0.256
		c-0.2,0.037-0.333,0.213-0.326,0.41c0.241,6.341,5.318,13.488,12.497,14.024c0.064,0.006,0.125-0.005,0.182-0.029
		c0.004-0.002,0.005-0.002,0.008-0.003c0.235-0.089,0.313-0.32,0.227-0.528C265.186,180.024,265.066,179.935,264.932,179.913z"/>
	<path class="st1" d="M259.955,188.607c-0.049-0.137-0.191-0.224-0.333-0.198c-2.262,0.346-6.879-1.766-8.779-6.148
		c-0.055-0.131-0.187-0.206-0.334-0.18c-0.14,0.026-0.244,0.145-0.249,0.288c-0.218,5.011,3.839,7.682,6.273,8.471
		c0.037,0.013,0.077,0.017,0.115,0.015c0.048-0.003,0.094-0.017,0.139-0.043l3.04-1.838
		C259.949,188.897,260.004,188.744,259.955,188.607z"/>
	<path class="st1" d="M406.384,61.374c-2.315-2.218-10.23-4.115-20.343-3.265c-5.811,0.487-11.757,1.818-17.675,3.953
		c-3.171,1.145-6.631,3.182-9.766,5.328c0.475-0.867,0.945-1.745,1.397-2.617c2.752-5.313,4.576-13.098,2.789-15.777
		c-0.592-0.889-1.56-1.368-2.586-1.282c-2.202,0.184-2.913,2.229-3.814,4.816c-0.798,2.292-1.89,5.427-4.099,9.02
		c-4.691,7.629-13.628,17.391-17.105,20.485c-6.911,6.151-23.662,26.614-24.37,27.482l-0.454,0.553l-0.075,0.709
		c-0.318,2.911,0.698,4.633,1.607,5.564c1.803,1.846,4.427,2.046,6.311,1.887c0.786-0.067,1.335-0.187,1.438-0.211l0.668-0.153
		l0.486-0.483c0.158-0.157,15.94-15.72,26.52-19.449c4.865-1.715,10.918-1.331,17.805,1.127c1.312,0.468,4.219,4.64,5.957,7.133
		c3.259,4.677,5.413,7.766,8.137,7.537h0.002c0.804-0.068,1.527-0.424,2.092-1.03c3.135-3.371-3.258-14.478-7.783-19.403
		c-2.011-2.186-4.313-3.999-6.432-5.42c4.531-0.227,10.804-0.127,18.04,1.132c5.918,1.028,9.471,2.802,11.824,3.976
		c1.664,0.829,2.864,1.428,4.171,1.319l0,0c0.595-0.049,1.14-0.243,1.621-0.574c0.92-0.633,1.683-1.967,1.066-3.809
		c-1.555-4.648-13.007-13.543-38.618-13.72c7.983-6.69,19.051-9.349,25.085-9.857c3.629-0.304,6.91-0.014,9.546,0.218
		c1.732,0.153,3.1,0.273,4.168,0.183c3.139-0.262,3.391-2.573,3.409-3.034C407.43,63.118,407.273,62.226,406.384,61.374z"/>
	<path class="st2" d="M312.674,111.041c0,0,17.26-21.112,24.108-27.208c3.626-3.229,12.665-13.072,17.554-21.022
		c4.339-7.057,4.663-12.58,6.063-12.698c1.37-0.115,0.824,7.06-2.54,13.552c-3.366,6.493-7.834,13.538-7.834,13.538
		s10.837-9.874,19.158-12.876c20.759-7.493,35.894-2.553,35.819-0.707c-0.075,1.845-6.701-0.358-14.922,0.332
		c-6.885,0.577-22.189,4.162-30.727,14.768c33.686-1.447,44.073,11.627,42.031,13.032c-1.522,1.048-5.073-3.24-15.839-5.11
		c-15.17-2.636-26.246-0.327-26.246-0.327s7.323,3.034,12.452,8.615c5.601,6.095,9.005,14.833,7.794,16.136
		c-2.319,2.494-9.299-12.726-13.616-14.267c-7.825-2.793-14.277-2.942-19.414-1.13c-11.222,3.956-27.414,20.009-27.414,20.009
		S311.992,117.307,312.674,111.041z"/>
	<path class="st6" d="M249.769,186.033c-1.586-0.012-2.576,1.428-3.942,1.991c-1.313,0.542-3.315,0.112-4.278,0.398l-0.872-0.099
		c-0.651,3.41,1.172,4.201,4.289,3.783c2.435-0.327,5.693-0.833,7.916-1.906C252.524,188.73,250.402,187.655,249.769,186.033z"/>
	<path class="st6" d="M301.009,152.901c-2.192-1.578-5.656-5.735-7.941-6.551c0.007,2.337,1.95,3.483,2.317,5.618
		c-0.927,0.296-1.755-0.197-2.571-0.426c-0.228,1.734,2.921,2.03,2.371,3.754c-0.408,1.282-2.715,1.336-3.758,1.529
		c-1.914,0.354-2.585,0.92-3.52,2.767c-0.261,0.515-0.189,1.033-0.49,1.461c-1.121,1.584-3.296,3.682-4.799,4.912
		c-1.507,1.232-4.678,0.162-6.326,0.424c-0.146,1.748,2.459,2.041,1.888,4.3c-0.282,1.115-0.223,1.232-1.613,1.344
		c-0.772,0.062-1.946-0.153-2.297-0.67l-3.284-0.068c1.363,1.668,4.18,3.02,6.299,3.132c3.016,0.158,5.321-2.212,7.649-3.919
		c5.091-3.735,10.418-7.057,15.672-10.621c0.925-0.627,4.046-3.231,4.416-4.386C305.535,153.882,302.15,153.723,301.009,152.901z"/>
	<path class="st6" d="M316.975,141.729c-2.484-0.827-6.466-4.533-8.346-5.318c-0.111,2.563,5.881,6.198,3.983,8.315
		c-0.985,1.1-2.741,0.362-3.843,1.533c-0.441,0.469-0.433,1.184-0.889,1.631c-0.591,0.58-1.503,0.677-2.191,1.168l-1.471,0.987
		c4.618,0.701,8.18,0.405,11.089-3.653C316.996,144.037,319.452,142.554,316.975,141.729z"/>
	<path class="st6" d="M323.195,133.617c-2.27-0.327-3.049-1.223-4.198-0.682c-1.393,0.656-1.939,2.791-3.323,3.556l0.557,0.47
		c1.419,1.338,3.001,2.063,4.596,0.86C321.535,137.287,324.214,133.765,323.195,133.617z"/>
	<path class="st7" d="M268.265,138.883c-3.219,1.544-6.315,8.122-8.366,11.086c-2.266,3.279-4.25,6.84-6.323,10.267
		c-2.025,3.349-3.713,6.779-5.33,10.367c-1.564,3.469-4.78,7.08-5.702,11.181l0.343-0.028c-0.038,0.351,0.006,0.691,0.137,1.012
		c2.621-1.184,5.425-7.365,6.636-9.937c0.825-1.749,2.294-10.23,5.272-6.948c0.49-1.61,0.786-4.736,2.11-5.584
		c2.533-1.623,2.781,1.457,5.105,0.813c-0.629-4.664-0.26-10.276,3.295-13.771c1.195-1.176,4.096-1.731,4.685-3.053
		C270.816,142.731,269.477,139.697,268.265,138.883z"/>
	<path class="st7" d="M286.244,122.281c3.956-0.997,4.072,3.915,6.526,5.229c-0.037-2.008-2.455-6.083-3.28-8.045
		c-1.853-4.398-3.543-1.988-6.66,0.886c-2.403,2.212-3.685,5.01-5.924,7.406c-1.17,1.25-2.501,2.062-3.129,3.721
		c-0.523,1.382-1.401,3.282-0.229,4.581c0.839,0.93,3.186,3.253,3.485,4.536c0.713,3.069,1.819,8.782,5.524,9.919
		c-2.613-4.649-7.843-20.868-0.709-23.346c4.001-1.391,4.887,4.078,7.056,6.911c1.582,2.064,4.015,7.588,7.338,6.646
		C290.957,136.469,287.101,128.686,286.244,122.281z"/>
	<path class="st7" d="M268.363,152.363l-0.686,0.058c-0.122,0.01-0.589-0.1-0.971,0.143c-0.272,4.55,2.33,13.801,8.455,12.355
		C270.922,161.368,268.835,157.775,268.363,152.363z"/>
	<path class="st7" d="M310.97,107.85c-1.292,0.028-2.483-0.753-3.771-1.062c-1.631-0.392-3.17-0.191-4.834-0.055
		c-2.516,0.205-5.835,0.702-7.666,2.428c-3.375,3.181-1.745,12.742,2.813,14.286c0.543-3.444-5.119-9.233-1.697-12.496
		c0.91-0.868,2.128-0.992,3.374-0.96c2.256,0.057,1.752,0.327,3.099,1.981c3.123,3.834,1.536-0.805,3.292-1.793
		c1.189,2.271,2.524-0.417,3.619-1.489"/>
	<path class="st1" d="M301.244,156.318c-3.15,1.849-6.057,4.038-8.898,6.278c-3.235,2.552-8.726,4.296-11.106,7.545l-1.543,0.82
		c-2.38,0.465-2.09,2.607,0.002,2.758c0.929,0.068,2.092-0.927,2.861-1.383c2.43-1.438,4.59-3.199,6.782-4.894
		c2.891-2.233,6.094-4.314,9.053-6.618c1.501-1.168,4.094-2.281,5.193-3.822C305.466,154.368,302.8,155.403,301.244,156.318z"/>
	<path class="st1" d="M271.556,178.085c-1.817-1.93-6.462,1.491-4.681,4.049c1.696-0.653,3.679-2.249,4.948-3.612L271.556,178.085z"
		/>
	<path class="st1" d="M261.853,183.038c-0.955,0.376-7.195,1.825-5.17,3.618c1.178,1.044,5.164-1.701,5.723-2.516L261.853,183.038z"
		/>
	<path class="st1" d="M311.634,146.606c-0.525,0.585-1.722,1.55-1.634,2.443c0.093,0.94,0.682,1.385,1.469,0.388
		c2.064-1.175,4.176-2.816,5.12-5.03C315.07,143.01,312.661,145.457,311.634,146.606z"/>
	<path class="st3" d="M360.815,90.44c-3.839-1.073-8.729-5.131-11.698-3.501c-2.967,1.629-7.761,3.035-11.13,3.023
		c-5.079-0.021-3.437,3.879-7.395,6.216c-1.562,0.92-3.395,0.583-4.585,2.085c-0.884,1.117-0.847,3.419-1.496,4.8
		c-1.717,3.648-5.634,4.98-7.583,7.277l-2.995,1.287c0.649,6.89,9.516-1.583,11.537-3.298c3.66-3.104,6.542-7.181,10.861-9.353
		c4.622-2.324,9.897-4.631,15.076-5.328c2.725-0.367,5.839-0.798,8.356-0.089c2.077,0.585,3.756,2.084,5.733,2.624
		c1.097,0.299,2.236,0.399,3.349,0.425C370.594,92.788,362.892,91.021,360.815,90.44z"/>
	<path class="st3" d="M389.754,85.166c-3.588-1.355-6.841-3.441-10.72-3.498c-6.974-0.103-18.061-1.783-23.857,2.75
		c0.242,1.316,1.359,1.563,2.789,1.087l1.685-0.486c7.191-0.604,14.218-0.821,21.022-0.021c3.269,0.384,6.402,0.944,9.541,2.276
		c2.824,1.196,5.913,3.277,9.151,2.983C400.019,87.032,392.12,86.061,389.754,85.166z"/>
	<path class="st3" d="M357.618,77.255l1.428,0.57c0.67-3.709,8.442-7.522,11.679-8.925c2.967-1.284,11.488-2.79,12.568-5.816
		C374.531,63.288,359.549,67.582,357.618,77.255z"/>
	<path class="st1" d="M356.929,91.71c-2.852-0.812-4.759-1.183-7.728-0.758c-2.789,0.398-5.306,0.827-7.598,2.628
		c-1.752,1.375-5.269,4.975-0.551,3.982l1.04-0.848c2.926-2.172,7.709-2.979,11.207-3.285c3.198-0.279,8.894,1.718,9.242,0.888
		C362.891,93.487,358.109,92.046,356.929,91.71z"/>
	<path class="st1" d="M368.129,94.641c-1.244-0.945-4.658-0.907-3.168,0.386c0.549,0.476,2.905,1.892,3.485,0.779
		C368.695,95.326,368.517,94.935,368.129,94.641z"/>
</g>
<g>
	<path class="st1" d="M225.418,119.645c-0.783-2.046-2.226-2.6-3.017-2.749c-3.451-0.647-5.902,1.957-8.735,4.974
		c-1.262,1.341-2.69,2.862-4.429,4.398c-6.693,5.915-19.438,11.967-29.677,16.83c-3.106,1.476-6.038,2.869-8.547,4.136
		c-12.657,6.388-13.798,16.123-13.874,24.745c-0.082,9.307,3.726,31.546,9.653,43.859l1.89-0.909l7.674,0.934
		c0.036,0.282,0.062,0.467,0.071,0.545l4.157-0.566c-0.038-0.282-3.759-28.34,2.575-39.645c2.413-4.306,7.606-7.926,13.622-12.116
		c6.431-4.48,13.721-9.557,19.228-16.765C224.242,136.533,227.305,124.56,225.418,119.645z"/>
	<path class="st3" d="M178.506,216.122c0,0-3.93-28.895,2.823-40.953c5.403-9.647,22.603-15.507,33.013-29.131
		c9.787-12.807,11.429-26.374,7.674-27.079c-3.444-0.647-5.823,3.962-11.389,8.881c-8.969,7.925-27.808,15.785-38.666,21.264
		c-11.206,5.657-12.642,13.772-12.721,22.892c-0.079,9.059,3.615,30.818,9.446,42.931"/>
	<path class="st4" d="M180.53,176.787c-6.699,2.839-13.688,5.085-20.025,8.64c1.543,9.846,4.416,21.681,8.179,29.499l9.823,1.195
		C178.506,216.122,174.903,189.62,180.53,176.787z"/>
	<path class="st1" d="M240.876,227.235c-0.852-0.4-1.698-0.68-2.516-0.834c-6.906-1.296-10.369,5.957-13.718,12.972l-0.618,1.293
		c-4.712,9.803-16.65,28.654-22.86,33.614l-18.603,17.567l4.42,36.04l1.409,0.511c0.085,0.031,2.089,0.754,4.557,1.217
		c3.937,0.738,6.922,0.418,8.873-0.953c1.279-0.898,2.092-2.224,2.352-3.832c1.143-7.066,4.868-16.806,8.3-21.714
		c2.98-4.263,6.272-8.282,9.757-12.537c8.84-10.796,17.983-21.961,22.295-37.75C249.305,235.335,245.179,229.255,240.876,227.235z"
		/>
	<path class="st2" d="M242.165,252.184c-5.829,21.339-20.995,34.231-31.696,49.529c-3.888,5.557-7.593,15.823-8.709,22.725
		c-0.952,5.865-12.533,1.661-12.533,1.661l-4.085-33.323l17.551-16.586c6.596-5.27,18.676-24.353,23.536-34.465
		c3.913-8.141,6.923-15.415,13.607-12.276C243.634,231.233,246.214,237.367,242.165,252.184z"/>
	<path class="st1" d="M205.226,341.545c0.271-4.747,0.03-11.877-0.221-18.634c-0.562-15.034-7.55-25.052-5.369-31.934
		c1.786-5.639-3.345-8.305,3.514-11.053c11.084-4.437,13.329-11.868,14.741-14.992c4.536-10.048,5.083-23.096,1.248-29.708
		c-1.947-3.353-4.271-5.119-5.811-6.289c-0.536-0.408-1.043-0.791-1.25-1.038c-0.661-0.787-1.637-2.89-2.669-5.116
		c-2.137-4.611-5.064-10.924-9.615-15.784c-4.3-4.594-11.007-7.937-18.89-9.415c-5.536-1.039-11.4-1.075-16.952-0.102l-0.319,0.076
		c-0.368,0.118-8.127,2.599-13.475,5.625c-1.089-1.495-1.886-3.137-2.663-4.742c-1.416-2.925-2.883-5.952-6.01-7.732l-1.789-1.018
		l-1.309,1.59c-0.724,0.879-1.361,1.683-1.948,2.455c-2.539,3.347-4.469,6.403-5.9,9.341l-1.217,2.498l2.633,0.891
		c1.902,0.645,4.204,3.214,6.429,5.699c0.717,0.802,1.45,1.619,2.202,2.416c-5.84,11.74-7.645,22.265-6.222,35.868
		c0.614,5.874,2.075,10.506,3.366,14.591c1.374,4.357,2.459,7.8,1.829,10.879c-1.349,6.58-9.083,28.871-17.17,44.086
		c-1.317,2.482-2.663,4.89-3.962,7.216c-6.587,11.79-13.116,22.941-12.222,38.339c0.481,8.308,6.765,13.521,3.696,6.188
		c0-0.001,28.361,18.479,28.361,18.479c1.11,0.208,3.651,1.152,4.745,1.246c2.216,0.19,43.265-19.265,51.017-16.033
		c-2.184,2.792-1.062,6.35,1.78,0.855C202.445,363.465,204.79,349.198,205.226,341.545z"/>
	<path class="st2" d="M202.784,341.407c1.555-18.082-1.287-52.666,0.367-61.481c2.898-5.627,7.907-5.801,12.51-15.999
		c4.133-9.154,4.867-21.431,1.361-27.472c-2.488-4.289-5.613-5.549-6.816-6.978c-2.413-2.87-5.491-13.643-12.196-20.804
		c-6.706-7.162-20.318-11.111-33.635-8.78c0,0-9.805,3.114-14.729,6.483c-4.523-4.681-4.854-10.968-9.369-13.537
		c-0.643,0.781-1.276,1.573-1.888,2.38c-2.09,2.755-4.1,5.748-5.651,8.934c3.606,1.219,7.045,6.277,10.83,9.975
		c-6.1,11.657-8.244,21.963-6.768,36.07c1.282,12.244,6.562,19.366,5.159,26.217c-1.405,6.849-9.158,29.22-17.407,44.744
		c-8.035,15.124-16.571,26.664-15.901,44.313c0.469,12.305,16.335,26.459,32.179,27.822c14.863,1.279,27.027,9.193,41.692,0.256
		C191.199,388.26,201.336,358.234,202.784,341.407z"/>
	<path class="st3" d="M194.316,347.814c-3.669,0.122-6.949-0.367-10.534-0.56c-1.833-0.098-10.285,0.817-10.643-1.44l-1.762-1.488
		c1.131,2.748-3.54,4.785-0.039,7.2c1.144,0.79,2.9,0.589,4.075,1.283c1.586,0.935,1.481,1.488,3.361,1.653
		C182.695,354.804,196.131,354.227,194.316,347.814z"/>
	<path class="st3" d="M186.828,358.458c-0.333-0.833-3.98-0.028-3.099-2.076l-0.167-1.974c0.202,0.963-1.129,2.777-1.278,3.966
		c-0.174,1.408,0.267,3.008,1.96,2.758C185.007,361.02,187.221,359.445,186.828,358.458z"/>
	<path class="st3" d="M172.409,356.631l-0.611-1.702c-0.935,1.056-1.896,4.529-0.329,5.492c1.695,1.042,4.439-0.757,4.532-2.554
		C174.735,357.879,171.81,359.408,172.409,356.631z"/>
	<g>
		<path class="st3" d="M196.048,337.665c-4.157-0.295-7.035,3.166-10.303-1.146c-1.707-2.252-3.904-7.402-3.252-10.198l0.298-1.059
			c-0.829,1.916-2.032,3.795-2.244,5.887c-0.295,2.91-0.394,6.629,1.193,9.271C184.428,344.895,197.169,343.859,196.048,337.665z"/>
	</g>
	<path class="st3" d="M201.432,317.951l-0.319,0.378c0.015-2.293-1.219-8.592-4.121-8.019c-0.612,2.458-0.668,4.78-1.476,7.161
		c-0.68,2.003-2.168,3.612-2.419,5.74c-0.174,1.476,0.298,3.065,0.783,4.415c0.306,0.854,1.504,0.731,1.788,1.683
		c0.081,0.276-0.376,1.023-0.254,1.425c0.255,0.828,0.096,2.132,0.407,3.114c0.352,1.106,1.463,1.388,1.623,2.405
		c0.228,1.477-0.474,4.546-0.612,6.288c-0.146,1.857-0.838,3.646-1.302,5.371c-0.289,1.07-0.001,2.078-0.512,3.111
		c-0.413,0.833-1.73,0.46-2.291,1.316c-1.174,1.792-0.854,3.975,1.177,4.84c-0.857,1.089-2.104,1.353-3.01,2.346
		c-0.86,0.946-0.981,2.103-1.761,3.05c-1.691,2.048-4.014,3.559-6.364,4.735c-0.865,0.433-3.483,1.014-3.983,1.74
		c-1.02,1.473,0.615,2.017,0.541,3.013c-0.149,2.017,0.341,1.298-0.882,3.163c-0.768,1.175-2.11,1.418-2.42,3.026
		c2.733,1.369,5.97,0.71,8.718,0.023c5.684-1.423,7.282-5.798,9.901-10.653c1.262-2.34,2.48-4.625,3.626-7.046
		c1.54-3.251,1.137-5.626,1.498-9.099c0.548-5.268,2.123-10.515,2.422-16.056C202.49,329.827,201.912,323.671,201.432,317.951z"/>
	<path class="st3" d="M217.022,236.455c-2.488-4.289-5.613-5.549-6.816-6.978c-2.413-2.87-5.491-13.643-12.196-20.804
		c-6.706-7.162-20.318-11.111-33.635-8.78c0,0-9.805,3.114-14.729,6.483c-4.523-4.681-4.854-10.968-9.369-13.537
		c-0.643,0.781-1.276,1.573-1.888,2.38c-2.09,2.755-4.1,5.748-5.651,8.934c3.606,1.219,7.045,6.277,10.83,9.975
		c-6.1,11.657-8.244,21.963-6.768,36.07c1.282,12.244,6.562,19.366,5.159,26.217c-0.356,1.732-1.118,4.458-2.19,7.814
		c3.781,3.096,9.363,4.511,13.756,5.428c6.133,1.281,12.414,1.822,18.65,2.374c9.603,0.849,18.333,1.671,27.596-2.231
		c0.015-4.198-0.479-7.566-0.103-9.579c5.417-2.325,11.389-6.094,15.993-16.293C219.794,254.773,220.528,242.494,217.022,236.455z"
		/>
	<path class="st1" d="M116.914,345.446l-0.76-2.276l-1.734-6.745l-1.022,0.896c-0.168,0.144-0.72,0.403-1.125,0.589
		c-1.106,0.513-2.483,1.152-3.344,2.442c-0.914,1.369-0.922,2.991-0.929,4.295c-0.004,0.526-0.006,1.18-0.089,1.458
		c-0.144,0.488-0.435,1.014-0.769,1.623c-0.435,0.79-0.929,1.685-1.24,2.764c-0.54,1.867-0.341,3.267-0.165,4.501
		c0.062,0.433,0.12,0.842,0.148,1.279c0.064,0.944-0.008,1.905-0.082,2.922c-0.201,2.736-0.451,6.14,2.417,9.322
		c1.297,1.439,0.487-6.83,1.807-6.58l0.959,3.735c3.392,0.636,0.732-2.428,1.69-3.951
		C117.272,354.416,116.746,355.166,116.914,345.446z"/>
	<path class="st2" d="M123.082,341.626l-8.073-2.464c-1.038,0.91-3.226,1.318-4.045,2.549c-0.865,1.296-0.268,3.611-0.708,5.093
		c-0.451,1.515-1.544,2.77-2.005,4.367c-0.554,1.92-0.047,3.115,0.074,4.94c0.258,3.868-1.335,7.386,1.711,10.767
		c2.87,3.184,4.535,1.66,6.342-1.213C120.999,358.328,122.934,350.283,123.082,341.626z"/>
	<path class="st1" d="M211.916,245.479c0.628-4.233,0.27-4.822-4.416-3.904c-4.411,0.864-9.472,5.193-8.577,7.865
		c0.495,1.482,5.313-0.131,8.502-0.209C209.446,249.18,211.357,249.251,211.916,245.479z"/>
	<path class="st1" d="M171.221,247.317c0,0,10.518,4.079,13.79-5.054C176.782,238.996,171.178,246.798,171.221,247.317z"/>
	<path class="st1" d="M209.791,225.128c-0.107-0.155-0.215-0.314-0.321-0.467c-2.625,1.815-3.635,7.203-3.635,7.203
		c3.458-0.023,5.606-1.342,6.683-2.885C211.531,227.903,210.344,226.554,209.791,225.128z"/>
	<path class="st1" d="M213.76,268.371c-2.147,3.864-7.44,8.072-14.451,9.735c-6.698,1.588-14.269,2.124-14.269,2.124
		s7.428,2.042,15.599,0.259c9.641-2.103,13.71-9.218,13.71-9.218L213.76,268.371z"/>
	<g>
		<path class="st1" d="M183.802,170.387c-0.36-0.9-1.165-1.528-2.209-1.723c-1.424-0.268-3.319,0.203-6.46,0.98
			c-3.214,0.795-7.615,1.884-12.464,2.265c-5.16,0.405-10.982-0.008-16.612-0.409c-5.466-0.387-11.119-0.788-16.256-0.451
			c-11.065,0.723-16.39,2.924-18.379,7.598c-1.599,3.754-1.3,7.869,4.962,17.797c6.214,9.855,26.184,28.102,28.72,29.881
			c2.591,1.82,3.999,0.484,0.596-1.754c3.752-3.754,13.021-10.854,14.574-9.445c2.181,1.979,2.498,0.712,0.827-1.091
			c-9.392-10.119-11.934-19.643-12.231-19.631l1.886-0.386c0.328-0.073,0.662-0.146,0.997-0.221
			c3.118-0.688,6.653-1.468,10.132-2.746c10.418-3.825,19.091-10.15,21.576-15.735C184.467,173.05,184.203,171.383,183.802,170.387z
			"/>
	</g>
	<g>
		<path class="st2" d="M129.938,173.14c-12.375,0.811-15.401,3.543-16.588,6.33c-1.188,2.787-1.325,6.133,4.808,15.856
			c6.131,9.725,29.411,30.835,29.411,30.835l13.395-10.346c0,0-11.489-11.83-14.612-22.885c4.208-1.175,9.574-1.925,14.808-3.847
			c13.651-5.014,22.391-13.688,20.696-17.916c-0.727-1.814-8.655,2.02-19.024,2.831C152.464,174.81,140.187,172.471,129.938,173.14z
			"/>
		<path class="st3" d="M153.915,208.375c-3.064-4.302-6.845-7.135-12.187-5.675c0.189-0.121,0.37-0.261,0.537-0.442l-0.563,0.448
			c-0.375,0.103-0.758,0.225-1.15,0.373c0.404-0.021,0.768-0.139,1.101-0.334l-0.375,0.299c-0.919,0.29-2.58,0.531-3.401,1.338
			c-1.091,1.073-0.292,2.722-1.792,3.662c-1.269,0.798-5.056-0.202-6.196,1.036c3.386,3.492,6.913,6.946,9.922,9.824
			c2.272,1.817,4.507,3.604,6.683,5.533c0.516,0.458,8.159,9.597,8.65,10.061l13.024-11.968c-0.396-0.618-4.186-3.743-4.241-4.554
			C163.687,214.364,156.285,211.699,153.915,208.375z"/>
		<path class="st4" d="M146.621,193.818l-2.42,0.985c-1.451-0.193-3.885-0.531-5.253-0.002c-1.851,0.717-1.427,1.093-0.843,2.858
			c1.012,3.054,2.778,5.371,4.61,7.984c1.763,2.514,3.617,5.088,5.601,7.393c1.63,1.892,4.635,6.268,7.068,6.744
			c0.253-0.639,0.535-1.245,0.469-1.972c0.619,0.024,1.264,0.254,1.914,0.477l0.732-0.565c0.033-0.383,0.043-0.77-0.213-1.213
			c0.446,0.04,0.911,0.16,1.383,0.31l1.297-1C160.964,215.815,150.081,204.609,146.621,193.818z"/>
		<path class="st1" d="M149.416,192.161c-4.866,1.098-14.664,2.083-17.025,4.326c4.498-1.233,13.092-1.937,15.866-2.363"/>
		<path class="st8" d="M151.74,217.165c-3.28-3.396-6.164-7.046-8.608-11.089c-1.184-1.96-2.248-3.995-3.202-6.077
			c-0.533-1.163-1.031-2.347-1.478-3.549c-0.182-0.491-0.357-0.984-0.52-1.481c-0.743,0.12-1.488,0.225-2.235,0.318
			c1.572,4.578,4.139,9.009,6.927,12.943c1.586,2.238,3.284,4.421,5.181,6.407c0.886,0.928,1.788,1.828,2.714,2.711
			c0.193,0.184,0.427,0.506,0.689,0.608C151.685,218.144,152.089,217.53,151.74,217.165z"/>
	</g>
	<path class="st1" d="M143.351,313.113c-3.125,3.278-3.753-24.273-3.753-24.273c0.97-1.772-1.463-2.558-0.98-4.049l3.218-7.188l0,0
		l0,0l-2.53-0.821c-2.285,7.042-13.057,20.215-22.098,29.475c-3.566,3.653-9.389,8.238-14.067,11.923
		c-2.342,1.844-4.363,3.438-5.804,4.674c-4.04,3.464-5.047,6.648-5.183,8.709c-0.129,2.008,0.49,3.884,1.744,5.28
		c1.37,1.527,3.924,3.63,7.992,4.394c5.422,1.017,13.539-0.348,25.14-8.642c12.309-8.801,15.747-14.895,17.314-17.558
		C145.909,312.375,146.479,309.835,143.351,313.113z"/>
	<path class="st2" d="M119.11,308.113c-5.465,5.594-15.741,13.07-20.044,16.76c-5.157,4.422-4.847,8.349-3.191,10.194
		c5.224,5.813,15.626,5.364,29.609-4.635c12.067-8.627,18.261-17.697,18.261-17.697l-1.908-35.131
		C139.393,285.13,128.677,298.318,119.11,308.113z"/>
	<path class="st3" d="M142.245,285.116l-0.408-7.512c-0.51,1.574-1.387,3.397-2.536,5.382
		C140.211,283.784,141.196,284.51,142.245,285.116z"/>
	<path class="st1" d="M139.323,280.877l-1.1,0.18c-1.514,0.249-4.668,0.765-6.413,3.611c-0.736,1.202-0.875,2.492-1.001,3.63
		c-0.076,0.701-0.148,1.361-0.344,1.765c-0.235,0.485-0.72,0.755-1.631,1.229c-0.45,0.233-0.958,0.5-1.462,0.837
		c-1.998,1.338-3.484,3.538-4.544,6.724c-0.837,2.518-1.199,2.748-2.722,3.72c-0.666,0.422-1.494,0.951-2.53,1.754
		c-1.516,1.176-2.461,2.616-3.459,4.141c-1.125,1.716-2.287,3.49-4.513,5.312l-6.374,5.211l17.565-8.138l15.377-21.298
		L139.323,280.877z"/>
	<path class="st2" d="M138.564,283.126c-1.87,0.307-3.845,0.81-4.966,2.638c-0.919,1.501-0.489,3.651-1.244,5.212
		c-0.776,1.603-2.422,1.962-3.815,2.895c-1.923,1.286-3.032,3.572-3.719,5.643c-1.472,4.43-2.43,3.735-5.955,6.469
		c-2.773,2.15-3.451,5.754-7.932,9.417l10.077-1.902l25.468-22.012L138.564,283.126z"/>
	<path class="st3" d="M185.049,293.706c-7.367,0.617-15.799,0.006-25.482-1.811c-15.598-2.925-28.192-10.875-36.425-22.989
		c-7.619-11.213-11.272-25.457-10.559-41.19c0.448-9.859,3.153-17.786,8.521-24.942l2.238,1.677
		c-5.015,6.686-7.545,14.119-7.965,23.39c-1.465,32.366,15.392,57.58,44.434,63.029c21.426,4.019,36.638,0.276,47.264-8.08
		c4.331-4.499,14.581-16.697,17.866-34.192c2.872-15.311-0.041-30.513-8.206-42.807c-8.213-12.366-21.082-20.741-36.237-23.584
		l0.516-2.748c15.903,2.982,29.417,11.786,38.05,24.787c8.569,12.902,11.632,28.837,8.625,44.869
		c-3.437,18.326-14.198,31.062-18.666,35.687l-0.138,0.126C202.475,289.99,194.67,292.898,185.049,293.706z"/>
	<path class="st0" d="M165.569,313.931c-9.011-5.848-21.781,8.123-11.637,14.486C163.394,334.353,177.51,321.683,165.569,313.931z"
		/>
	<path class="st0" d="M140.279,299.917c-0.053-1.56-1.373-3.377-2.784-4.091c-4.204-2.113-11.576,7.023-10.589,10.842
		c0.866,3.356,5.846,2.784,8.317,1.205C137.317,306.534,140.366,302.479,140.279,299.917z"/>
	<path class="st1" d="M174.941,344.498c-0.845-1.645,0.689-6.213,0.807-8.044c0.272-4.26,0.697-8.376,1.3-12.673
		c0.355-2.522-0.271-8.238,0.633-10.318c1.193-2.739,3.414-2.622,6.247-2.975c3.036-0.378,6.919-0.651,9.677-1.029
		c3.285-0.452,7.014-0.108,6.957-1.066c-0.056-0.958-4.365-0.108-4.365-0.108c-3.02-0.039-7.261,0.668-10.363,0.901
		c-2.02,0.151-9.979-0.394-11.567,1.623c-1.601,2.037-0.378,10.083-0.706,12.691c-0.497,3.971-1.14,7.884-1.883,11.834
		c-0.453,2.416-1.95,6.194-1.613,8.597c0.478,3.397,4.835,5.787,8.367,5.947c1.572,0.071,9.081,0.062,13.363-0.457
		c2.304-0.278,3.805-1.195,4.016-2.747C191.281,345.432,177.118,348.727,174.941,344.498z"/>
	<path class="st1" d="M196.981,334.457c-1.156,4.164-9.316,3.806-11.034,1.598c-1.479-1.906-2.093-5.244-1.941-7.655
		c0.125-1.986,1.268-5.808,2.469-7.276c-1.914,0.389-3.338,3.644-3.703,5.367c-0.393,1.857-0.69,3.79-0.596,5.695
		c0.139,2.728,0.918,4.496,3.117,6.414c2.596,2.265,7.867,1.602,9.661-0.32C196.035,337.118,196.679,335.998,196.981,334.457z"/>
	<path class="st1" d="M178.684,301.796l-1.003,0.286c-0.914,1.433-0.204,4.97,2.196,3.796
		C182.09,304.798,180.188,301.737,178.684,301.796z"/>
	<path class="st1" d="M187.358,301.053l-1.001,0.286c-0.913,1.432-0.204,4.97,2.196,3.796
		C190.763,304.055,188.862,300.994,187.358,301.053z"/>
	<path class="st1" d="M195.761,300.496l-1.002,0.286c-0.916,1.432-0.204,4.97,2.195,3.795
		C199.165,303.497,197.265,300.437,195.761,300.496z"/>
	<path class="st1" d="M176.375,356.753c-2.609,2.469-5.23-0.789-3.881-3.219C169.477,356.099,173.111,362.147,176.375,356.753z"/>
	<path class="st1" d="M187.691,357.412c-2.194,2.078-4.4-0.662-3.266-2.705C181.894,356.863,184.948,361.948,187.691,357.412z"/>
	<path class="st1" d="M196.278,357.131c-2.074,1.966-4.16-0.625-3.085-2.558C190.793,356.613,193.684,361.422,196.278,357.131z"/>
	<g>
		<path class="st2" d="M146.562,414.59c-4.063-1.02-8.509-2.301-12.663-2.205"/>
		<path class="st2" d="M124.573,405.984c-2.815-1.317-11.072-6.723-12.317-4.033c2.067,1.201,3.114,1.781,5.239,2.91
			C118.32,406.085,124.16,407.674,124.573,405.984z"/>
		<path class="st2" d="M112.669,377.888c3.775,2.052,7.778,3.261,11.992,4.595c4.534,1.435,8.613,3.984,13.303,4.863
			c9.649,1.81,19.519,2.755,29.363,3.042c2.619,0.077,10.23,0.074,12.82-0.333c1.547-0.244,1.23-0.082,2.464,0.927
			c0.885,0.721,2.587,3.624,1.925,4.891c-1.428,2.722-9.646,2.168-12.086,2.181c-5.893,0.032-11.86-0.157-17.771-0.799
			c-8.215-0.892-16.338-1.969-24.031-4.423c-3.781-1.206-7.581-2.739-11.381-4.161c-3.571-1.336-7.454-2.259-10.771-4.025
			C110.196,381.958,111.031,380.606,112.669,377.888z"/>
		<path class="st2" d="M179.11,390.755c-4.461,0.619-8.79,0.356-13.342,0.127c-4.9-0.248-9.735,0.701-14.505-0.128
			c-9.65-1.679-19.201-4.238-28.508-7.405c-2.438-0.828-9.393-3.418-11.596-4.669c-1.316-0.745-1.085-0.488-2.577,0.036
			c-1.065,0.373-3.69,2.49-3.566,3.882c0.266,2.988,7.955,5.235,10.199,6.117c5.449,2.138,11.038,3.965,16.694,5.416
			c8.064,2.066,16.106,3.908,24.235,4.324c4.051,0.207,8.258,0.113,12.452,0.117c3.936,0.002,8.032,0.496,11.932-0.009
			C179.954,395.44,179.673,393.875,179.11,390.755z"/>
		<path class="st2" d="M165.046,394.954c-3.552,0.553-7.035,0.302-10.712,0.169c-3.959-0.143-7.844,0.981-11.778,0.454
			c-8.002-1.072-16.024-2.715-23.893-4.662c-2.089-0.517-8.105-2.055-10.05-2.931c-1.162-0.525-0.955-0.308-2.205,0.439
			c-0.894,0.531-3.02,3.019-2.833,4.354c0.403,2.867,7.045,3.874,8.979,4.422c4.69,1.33,9.433,2.431,14.191,3.307
			c6.74,1.241,13.398,2.434,20.018,2.505c3.264,0.035,6.686-0.197,10.059-0.255c3.17-0.052,6.468,0.443,9.572,0.004
			C165.834,399.637,165.566,398.078,165.046,394.954z"/>
		<path class="st2" d="M119.679,388.159c3.173,1.597,6.545,2.412,10.071,3.402c3.796,1.065,7.129,3.318,11.038,4.015
			c8.007,1.43,16.2,2.317,24.344,2.863c2.174,0.145,8.46,0.51,10.62,0.264c1.291-0.146,1.023-0.003,1.98,1.09
			c0.685,0.781,1.897,3.805,1.27,5.02c-1.351,2.615-8.053,1.546-10.087,1.476c-4.937-0.169-9.829-0.571-14.661-1.197
			c-6.809-0.881-13.536-1.779-19.869-3.743c-3.1-0.961-6.272-2.227-9.443-3.305c-2.981-1.014-6.259-1.546-9.042-2.899
			C117.444,392.363,118.202,390.966,119.679,388.159z"/>
		<path class="st2" d="M150.567,407.195c-5.308-0.465-10.629-1.234-15.82-2.518c-0.576-0.205-1.118-0.348-1.61-0.433
			c-0.508-0.145-1.014-0.285-1.523-0.443c0.546,0.169,0.816,0.252,1.365,0.417c-3.145-0.487-4.376,1.417-0.129,3.48
			c3.258,1.584,8.65,2.051,12.267,2.546c6.246,0.854,20.011,4.403,24.936-0.862C163.969,407.201,156.912,407.747,150.567,407.195z"
			/>
		<path class="st2" d="M178.724,408.665c0.4-0.002,0.6-0.003,1.002-0.008c-0.395,0.38-0.824-0.382-1.085,0.42
			c1.657,2.389,3.713,0.244,5.58-1.038C182.832,406.728,179.71,406.932,178.724,408.665z"/>
	</g>
	<path class="st3" d="M241.495,244.485c-3.733,2.669-2.587,13.531-9.358,9.091c-1.116,3.172-3.172,6.04-4.572,9.143
		c-0.57,1.265-0.798,3.715-1.607,4.789c-0.804,1.063-2.201,1.24-3.245,2.096c-3.431,2.813-3.732,8.238-6.378,12.048
		c-1.065,1.532-2.681,3.001-3.478,4.547c-0.98,1.901-0.53,5.263-3.983,3.42l-1.103-0.61c0.955,4.642-0.808,9.29-0.166,14.017
		c6.954-7.416,12.343-17.017,18.861-25.108c4.754-5.9,8.357-11.651,11.528-18.374C239.658,256.016,243.944,247.997,241.495,244.485z
		"/>
	<path class="st3" d="M133.94,329.401c-4.796,2.856-9.021,6.792-13.869,9.496c-1.735,0.968-3.666,1.548-5.406,2.472
		c-3.109,1.65-1.846,1.457-2.875,4.372c-0.434,1.228-1.626,2.117-2.082,3.402c-0.564,1.59-0.6,3.588-0.628,5.303
		c-0.057,3.5-0.22,7.535,1.322,10.719c0.534,0.069,1.109,0.018,1.63-0.129c0.166-1.967,0.16-3.809,1.256-5.41
		c1.459-2.133,2.389-0.763,2.327-3.693c-0.071-3.275-1.873-2.406,0.82-4.982c1.574-1.502,3.591-2.631,5.324-3.955
		c-0.511,0.39-0.896-1.839-0.895-2.017c0.002-0.97,1.553-2.474,2.151-3.17c1.76-2.048,4.035-3.715,5.987-5.597
		C130.885,334.398,134.556,332.398,133.94,329.401z"/>
	<path class="st1" d="M202.203,279.773c0,0-1.97,4.375-2.123,8.129c0,0-2.286-4.953-1.205-8.784"/>
	<path class="st9" d="M132.118,211.494c-2.631,3.968-2.13,9.962,3.483,8.868c7.255-1.417,19.707-11.333,21.478-18.666
		c1.694-7.011-5.539-6.197-7.858-3.919"/>
	<path class="st3" d="M128.238,323.384c-4.13,1.712-7.306-0.143-10.759,2.568c-2.9,2.28-6.034,4.616-9.498,5.954
		c-2.156,0.833-6.266-0.567-7.989,1.194c-3.642,3.719,4.67,3.478,6.681,3.07c4.303-0.873,9.045-2.371,12.86-4.603
		c4.817-2.818,13.426-6.701,15.691-12.198C132.472,319.18,130.604,322.403,128.238,323.384z"/>
	<path class="st0" d="M119.32,307.899c-0.07,0.072-0.386-1.986-0.454-1.915c-0.62,0.635-2.177,2.48-1.791,4.102
		c0.323,1.525,0.862,3.118,1.224,3.856c0.929,1.889,2.845,3.397,4.454,4.712c2.664,2.179,9.403,6.787,12.604,3.489
		c-3.001,0.008-8.146-2.759-10.642-4.576C121.411,315.158,119.963,311.71,119.32,307.899z"/>
	<path class="st0" d="M180.373,365.843c-6.105-0.972-13.072-0.407-19.101-1.904c-4.752-1.182-10.961-3.136-15.764-3.939
		c-3.566-0.595-10.901-2.416-25.761-10.738c-3.337-1.869-6.155-4.83-9.327-6.834c0,0,0.123,2.764-0.287,3.531
		c2.17,0.386,6.3,4.463,8.334,5.79c4.251,2.773,8.269,5.527,13.188,7.253c8.143,2.857,16.505,5.18,24.937,6.973
		c8.847,1.883,17.614,2.04,26.613,2.261c3.522,0.085,14.542-1.017,15.193-4.957C193.52,365.791,186.951,366.891,180.373,365.843z"/>
	<path class="st2" d="M216.419,212.44c-3.855-6.84-8.75-13.243-15.171-17.861c-3.234-2.325-6.805-4.162-10.563-5.474
		c-4.14-1.446-11.174-7.071-15.314-4.645c-12.038,7.055,10.435,18.07,15.825,19.92c5.845,2.003,9.729,5.929,13.731,10.705
		c2.953,3.522,3.744,7.219,5.884,10.886c1.223,2.095,3.79,2.373,4.343,4.145C225.506,229.691,219.622,218.123,216.419,212.44z"/>
	<path class="st2" d="M135.338,223.28c-0.922,0.495-1.816,0.857-2.728,1.129c-0.385-0.171-0.768-0.358-1.127-0.596
		c-2.074-1.363-3.457-5.699-5.136-6.545c-6.583-3.315-3.221,14.917-2.771,17.119c1.106,5.38,4.952,8.416,7.004,13.145
		c1.206,2.78,0.475,6.299,2.276,8.833c2.826,3.981,3.873,0.246,3.869-3.122c-0.009-4.306,0.114-8.65-0.034-12.913
		c-0.124-3.616-0.583-6.963,0.458-10.358c0.662-2.156,4.288-5.418,4.392-7.289C141.776,218.462,137.021,222.379,135.338,223.28z"/>
	<path class="st2" d="M143.768,265.212c-1.758-1.224-5.139-6.935-7.795-5.395c-3.201,1.855-0.751,5.212,0.909,7.174
		c3.025,3.573,10.022,7.421,13.517,5.671C153.762,270.976,144.866,265.977,143.768,265.212z"/>
	<path class="st4" d="M219.801,130.043c-2.103,0.382-5.992,4.425-6.982,5.976c-0.758,1.192-1.537,2.748-3.052,3.23
		c-1.237,0.395-2.466-0.413-3.705-0.107c-3.57,0.878-5.775,9.238-7.725,12.144c-1.899,2.832-4.057,1.785-6.928,2.653
		c-1.888,0.571-1.182,0.145-1.934,1.977c-0.785,1.907-0.423,1.887-2.101,2.864c-3.779,2.203-8.867,3.194-10.389,8.006
		c-0.219,0.69-0.35,1.402-0.176,2.159c2.338-2.262,5.396-0.324,7.897-0.563l-0.486,0.193c2.508,0.828,5.234-2.991,7.096-4.395
		c2.359-1.779,4.847-3.303,7.07-5.27c2.84-2.512,5.571-5.264,8.268-7.832C211.967,146.018,220.842,137.942,219.801,130.043z"/>
	<path class="st3" d="M168.54,293.821c-6.458,0.213-13.611-2.236-19.76-4.188l-0.967-0.386c-1.552-1.021-6.884-3.77-8.389-2.107
		c1.872,1.877,10.226,2.539,10.25,5.208c-0.471-0.191-1.074,0.056-1.57-0.048c-0.019,2.986,8.153,1.621,9.166,4.065
		c-0.943-0.104-1.327,0.229-1.794,0.892c2.041,1.968,9.405,2.551,12.008,1.533c-1.029-1.023-3.279-0.813-3.372-2.455
		c2.989-0.658,8.527,1.19,11.13-0.684C178.109,293.582,170.208,293.765,168.54,293.821z"/>
	<path class="st3" d="M201.378,292.662c0.403-2.486-7.113,0.234-8.721,0.591c-2.451,0.544-5.845,2.06-8.383,1.352l-0.697,0.058
		c-1,0.001-2.072,0.17-2.799,0.697c1.849,1.099,4.39,1.174,6.458,1.101c1.837-0.065,4.495-1.312,5.994-0.789
		c-0.969,0.029-1.039,0.482-1.568,1.125c1.842,1.46,4.91-0.127,7.01-0.162c-0.171-1.362-1.576-0.929-2.628-1.37
		C196.576,293.843,199.992,293.485,201.378,292.662z"/>
	<path class="st1" d="M200.738,316.845c-2.118-1.173-2.936,9.667-2.933,10.654c0.005,1.674,0.64,8.279,2.263,8.833
		c1.375-2.315,1.599-5.597,1.755-8.308c0.151-2.63,1.039-8-0.346-10.337C201.216,317.244,200.97,316.973,200.738,316.845z"/>
	<path class="st1" d="M200.451,338.431c-1.306-0.681-2.766,3.193-2.618,4.963c0.068,0.837,0.336,2.562,1.347,2.677
		c1.864,0.21,2.631-4.914,2.161-6.265C201.071,339.023,200.766,338.594,200.451,338.431z"/>
	<path class="st1" d="M227.762,275.945c-0.662-2.534-2.52-1.377-3.919,0.063c-2.646,2.719-5.079,6.574-7.269,9.715
		c-3.455,4.947-7.582,9.586-10.714,14.752c-1.151,1.899-1.634,2.728-1.231,4.86c0.284,1.51,0.384,2.927,2.337,1.825l-0.463,0.057
		c3.972-7.83,9.195-13.947,15.068-20.456C223.514,284.608,228.614,279.21,227.762,275.945z"/>
	<path class="st1" d="M233.49,265.724c-2.379,0.011-5.333,4.407-4.749,6.641c0.742,0.122,1.297-0.096,1.787-0.583l0.675-0.29
		C233.029,270.478,234.038,267.859,233.49,265.724z"/>
	<path class="st3" d="M173.001,177.652c-1.769,0.727-3.85,0.095-5.787,0.064c-4.414-0.068-6.886,3.376-10.788,5.179
		c-4.33,2.002-9.547,3.089-14.363,3.714c-3.332,0.432-9.102-0.024-12.088,1.534c-1.608,0.838-3.475,3.858-2.794,5.799
		c1.102,3.14,3.378-0.009,5.366-0.221l3.464-0.524c3.812,0.037,7.762-1.718,11.408-2.543c3.69-0.836,7.746-1.705,11.212-3.149
		c1.566-0.652,3.034-1.828,4.499-2.723c2.228-1.358,4.512-1.646,6.798-2.596c2.007-0.835,7.574-4.202,8.095-6.27
		C175.596,175.291,174.934,176.858,173.001,177.652z"/>
	<path class="st1" d="M209.155,145.71c-3.518-1.255-6.731,5.885-9.655,7.147c-1.881,0.811-4.116,0.262-5.964,1.373
		c-2.126,1.281-3.157,3.829-4.859,5.563c-2.659,2.707-6.315,3.517-10.015,3.868c-4.048,0.385-8.394,2.037-12.097,3.535
		c-0.847,0.343-3.034,0.905-3.624,1.589c-2.046,2.38,6.369,1.536,7.551,1.343c1.869-0.308,3.683-0.88,5.504-1.385
		c1.949-0.541,3.798-1.413,5.744-1.833c2.038-0.439,3.694-0.198,5.572-1.111c3.875-1.883,7.116-5.061,10.528-7.671
		c2.35-1.798,4.205-3.632,6.318-5.669c1.377-1.329,3.776-2.528,4.715-4.253C209.317,147.391,209.465,146.711,209.155,145.71z"/>
	<path class="st4" d="M196.321,282.136c-5.726,0.481-10.84-0.108-16.332-0.261c-5.179-0.144-11.149,1.16-16.468,1.88
		c0.036,3.033,5.19,2.632,7.251,2.642c3.371,0.017,4.706-0.195,7.579,1.683c1.956,1.279,2.435,1.563,4.776,1.249
		c1.961-0.264,3.716-0.582,5.744-0.546c2.096,0.037,5.497-0.532,7.434-1.266C197.928,286.899,196.321,282.136,196.321,282.136z"/>
</g>
<path class="st1" d="M198.869,294.34c-8.688,3.28-19.104,2.871-28.413,2.543c-5.449-0.192-11.006-0.702-16.333-1.886
	c-4.602-1.023-8.906-2.865-13.361-3.969l0.64,1.89c2.955,2.249,6.085,4.277,9.122,6.601c4.367,3.344,9.795,3.152,15.233,3.067
	c7.795-0.121,16.052-2.098,23.729-3.655C191.857,298.45,199.613,297.724,198.869,294.34z"/>
</svg>
