<?xml version="1.0" encoding="utf-8"?>
<!-- Generator: Adobe Illustrator 16.0.0, SVG Export Plug-In . SVG Version: 6.00 Build 0)  -->
<!DOCTYPE svg PUBLIC "-//W3C//DTD SVG 1.1//EN" "http://www.w3.org/Graphics/SVG/1.1/DTD/svg11.dtd">
<svg version="1.1" id="Layer_1" xmlns="http://www.w3.org/2000/svg" xmlns:xlink="http://www.w3.org/1999/xlink" x="0px" y="0px"
	 width="253.292px" height="86.5px" viewBox="0 0 253.292 86.5" enable-background="new 0 0 253.292 86.5" xml:space="preserve">
<g id="RULES">
</g>
<g id="Layer_1_1_">
	<g>
		<g>
			<path fill="#0E1F27" d="M94.842,73.042l2.312-0.242l-0.939,10.445l-2.305,0.258L94.842,73.042z"/>
			<path fill="#0E1F27" d="M102.563,72.315l4.532-0.5c2.719-0.281,4.605,1.195,4.299,4.656c-0.27,3.031-2.037,5.449-5.231,5.806
				l-4.539,0.497L102.563,72.315z M104.106,80.583l2.063-0.228c1.332-0.144,2.689-1.11,2.896-3.399
				c0.192-2.121-0.434-3.387-2.718-3.129l-1.65,0.182L104.106,80.583z"/>
			<path fill="#0E1F27" d="M117.549,76.956l-0.199,2.219l5.919-0.654l-0.164,1.938l-8.167,0.881l0.938-10.475l7.664-0.842
				l-0.177,1.938l-5.416,0.601l-0.213,2.358l3.472-0.455l-0.192,2.035L117.549,76.956z"/>
			<path fill="#0E1F27" d="M126.6,80.073l5.721-10.729l2.22-0.317l3.851,9.75l-2.397,0.199l-0.498-1.494l-5.316,0.526l-0.952,1.736
				L126.6,80.073z M133.283,71.676l-2.215,4.537l3.857-0.455L133.283,71.676z"/>
			<path fill="#0E1F27" d="M143.891,75.206c0.114,1.363,1.332,1.406,2.179,1.32c0.818-0.084,2.079-0.467,2.17-1.523
				c0.192-2.233-6.175-0.113-5.826-4.025c0.186-2.148,2.312-3.373,4.205-3.586c1.813-0.197,3.442,0.27,3.836,1.795l-2.149,1.038
				c-0.157-1.181-1.226-1.11-1.951-1.038c-0.731,0.084-1.614,0.482-1.694,1.363c-0.07,0.785,0.414,0.898,2.99,1.24
				c0.77,0.099,3.059,0.326,2.846,2.703c-0.164,1.922-1.793,3.516-4.668,3.827c-1.893,0.198-3.564-0.342-4.02-1.905L143.891,75.206z
				"/>
		</g>
		<g>
			<polygon fill="#0E1F27" points="201.41,6.793 189.363,7.932 159.632,44.821 161.468,10.777 151.18,11.815 148.417,61.458 
				158.686,60.418 158.712,59.934 175.949,38.358 187.015,57.612 198.755,56.391 183.143,29.364 			"/>
			<polygon fill="#0E1F27" points="237.281,3.192 219.5,32.594 204.632,7.274 197.9,16.071 213.351,42.385 205.345,55.805 
				217.312,54.581 249.449,1.981 			"/>
			<path fill="#0E1F27" d="M83.933,58.066c0,0-8.19,1.384-13.371,1.839c-9.442,0.84-15.691-5.18-15.414-15.582l1.346-23
				l-10.39,0.909l-1.408,24.606c-0.385,13.705,10.467,24.594,26.585,23.045c13.092-1.268,22.373-2.82,22.373-2.82l2.83-49.709
				L86.111,18.35C86.111,18.35,84.032,56.049,83.933,58.066z"/>
			<path fill="#0E1F27" d="M44.496,62.282l-30.057,2.891l2.391-39.864L6.634,26.206L3.61,75.902l51.596-5.053
				C52.217,69.997,46.66,66.096,44.496,62.282z"/>
			<path fill="#0E1F27" d="M98.897,41.647c-0.249,18.174,16.28,24.137,26.48,23.551c13.804-0.794,19.546-6.83,19.546-6.83
				l0.604-12.34c0,0-8.19,9.008-19.092,9.254c-11.514,0.27-16.623-7.232-16.516-14.463c0.141-10.56,9.599-19.269,21.091-19.113
				c8.689,0.131,15.57,5.881,15.57,5.881l0.625-11.545c0,0-4.304-4.083-14.75-4.238C112.525,11.534,99.133,25.038,98.897,41.647z"/>
		</g>
	</g>
</g>
</svg>
