<?xml version="1.0" encoding="utf-8"?>
<!-- Generator: Adobe Illustrator 16.0.0, SVG Export Plug-In . SVG Version: 6.00 Build 0)  -->
<!DOCTYPE svg PUBLIC "-//W3C//DTD SVG 1.1//EN" "http://www.w3.org/Graphics/SVG/1.1/DTD/svg11.dtd">
<svg version="1.1" id="Layer_1" xmlns="http://www.w3.org/2000/svg" xmlns:xlink="http://www.w3.org/1999/xlink" x="0px" y="0px"
	 width="1024px" height="1024px" viewBox="0 0 1024 1024" enable-background="new 0 0 1024 1024" xml:space="preserve">
<path fill="#BFBDC3" d="M64.391,958.354c0.085,0.701-0.142,0.849-0.985,1.198c-0.842,0.348-1.615,0.068-1.76,0.49
	c-0.141,0.428,0.494,1.338,0.849,1.828c0.348,0.499,0.842,1.264,0.772,2.043c-0.076,0.772-0.839,0.913-1.265,0.772
	c-0.425-0.135-0.776-0.35-1.125-0.979c-0.353-0.635-0.846-0.849-1.481-1.271c-0.631-0.418-1.405-0.989-1.828-0.564
	c-0.421,0.423-1.547,1.264-2.464,0.773c-0.914-0.484-0.631-1.896-0.353-2.533c0.286-0.626,0.847-0.766,0.211-1.122
	c-0.627-0.352-2.459-1.124-2.533-2.258c-0.069-1.117,0.846-1.472,1.833-1.259c0.986,0.209,1.548,0.561,2.532,0.561
	c0.988,0,0.283-0.418,0.774-1.268c0.493-0.844,1.338-1.27,1.338-1.27s-0.492-2.252,1.125-2.312c1.616-0.08,1.266,1.813,1.266,2.737
	c0,0.911-0.071,2.532,0.142,2.81C61.646,957.019,64.25,957.158,64.391,958.354z"/>
<path fill="#BFBDC3" d="M544.526,495.673c0.125,0.688-0.089,0.855-0.908,1.255c-0.82,0.406-1.611,0.17-1.73,0.599
	c-0.113,0.433,0.576,1.307,0.955,1.774c0.382,0.466,0.924,1.21,0.897,1.989c-0.019,0.774-0.787,0.963-1.212,0.85
	c-0.432-0.108-0.795-0.305-1.186-0.914c-0.387-0.611-0.896-0.793-1.55-1.17c-0.663-0.383-1.472-0.902-1.87-0.452
	c-0.388,0.444-1.457,1.357-2.401,0.914c-0.943-0.423-0.749-1.847-0.511-2.496c0.241-0.65,0.797-0.828,0.145-1.141
	c-0.652-0.307-2.531-0.972-2.67-2.097c-0.14-1.116,0.755-1.517,1.748-1.37c0.995,0.146,1.58,0.457,2.564,0.403
	c0.985-0.061,0.259-0.433,0.695-1.313c0.439-0.873,1.256-1.341,1.256-1.341s-0.63-2.219,0.983-2.387
	c1.613-0.178,1.377,1.746,1.435,2.654c0.054,0.92,0.081,2.533,0.313,2.801C541.706,494.503,544.314,494.489,544.526,495.673z"/>
<path fill="#BFBDC3" d="M198.792,435.304c0.081,0.699-0.142,0.837-0.98,1.195c-0.852,0.351-1.626,0.075-1.763,0.49
	c-0.142,0.423,0.489,1.338,0.841,1.828c0.348,0.498,0.846,1.264,0.775,2.045c-0.071,0.778-0.849,0.91-1.266,0.778
	c-0.42-0.15-0.774-0.357-1.124-0.987c-0.355-0.641-0.849-0.849-1.48-1.271c-0.637-0.426-1.409-0.983-1.833-0.565
	c-0.423,0.415-1.546,1.264-2.46,0.78c-0.915-0.489-0.637-1.896-0.352-2.533c0.279-0.642,0.846-0.779,0.214-1.132
	c-0.635-0.35-2.463-1.127-2.535-2.242c-0.074-1.139,0.848-1.486,1.828-1.278c0.987,0.221,1.552,0.56,2.533,0.56
	c0.989,0,0.282-0.42,0.773-1.258c0.493-0.848,1.338-1.27,1.338-1.27s-0.493-2.253,1.125-2.318c1.623-0.083,1.267,1.832,1.267,2.74
	c0,0.914-0.067,2.541,0.145,2.824C196.049,433.957,198.651,434.105,198.792,435.304z"/>
<path fill="#BFBDC3" d="M187.434,93.505c0.081,0.697-0.14,0.837-0.984,1.194c-0.846,0.352-1.618,0.076-1.76,0.491
	c-0.139,0.428,0.493,1.337,0.843,1.835c0.35,0.49,0.848,1.269,0.773,2.036c-0.066,0.779-0.839,0.92-1.267,0.779
	c-0.422-0.142-0.774-0.356-1.122-0.984c-0.352-0.642-0.847-0.849-1.482-1.266c-0.632-0.424-1.405-0.984-1.828-0.564
	c-0.42,0.423-1.545,1.269-2.46,0.774c-0.918-0.498-0.636-1.904-0.356-2.534c0.282-0.633,0.846-0.781,0.215-1.131
	c-0.632-0.346-2.464-1.129-2.534-2.245c-0.076-1.129,0.842-1.475,1.83-1.277c0.985,0.215,1.545,0.566,2.533,0.566
	c0.986,0,0.282-0.418,0.772-1.264c0.494-0.839,1.337-1.262,1.337-1.262s-0.491-2.247,1.126-2.327
	c1.619-0.067,1.268,1.834,1.268,2.75c0,0.919-0.073,2.534,0.141,2.814C184.689,92.172,187.294,92.306,187.434,93.505z"/>
<path fill="#BFBDC3" d="M926.507,1015.376c-0.593,0.372-0.817,0.229-1.507-0.376c-0.682-0.604-0.77-1.425-1.21-1.37
	c-0.437,0.068-0.986,1.027-1.277,1.561c-0.288,0.536-0.772,1.317-1.502,1.584c-0.725,0.283-1.188-0.362-1.246-0.8
	c-0.057-0.44-0.018-0.852,0.396-1.442c0.417-0.593,0.393-1.122,0.494-1.881c0.105-0.748,0.278-1.697-0.289-1.89
	c-0.562-0.195-1.81-0.841-1.769-1.882c0.047-1.041,1.439-1.406,2.131-1.423c0.692-0.023,1.061,0.428,1.103-0.298
	c0.043-0.719-0.058-2.709,0.927-3.259c0.982-0.553,1.698,0.113,1.939,1.101c0.233,0.97,0.161,1.643,0.585,2.515
	c0.437,0.889,0.51,0.074,1.485,0.146c0.979,0.083,1.724,0.659,1.724,0.659s1.814-1.422,2.58,0c0.766,1.425-1.099,1.942-1.918,2.326
	c-0.828,0.404-2.313,1.049-2.478,1.363C926.518,1012.32,927.525,1014.717,926.507,1015.376z"/>
<path fill="#BFBDC3" d="M669.733,226.346c-0.491-0.5-0.403-0.765,0.061-1.549c0.453-0.794,1.243-1.031,1.096-1.459
	c-0.143-0.419-1.2-0.76-1.776-0.941c-0.581-0.182-1.445-0.498-1.854-1.157c-0.414-0.664,0.115-1.238,0.54-1.383
	c0.421-0.14,0.826-0.192,1.491,0.106c0.663,0.291,1.183,0.154,1.94,0.107c0.761-0.046,1.716-0.069,1.798-0.657
	c0.084-0.592,0.464-1.952,1.488-2.121c1.028-0.145,1.656,1.14,1.821,1.812c0.156,0.676-0.204,1.12,0.512,1.027
	c0.717-0.107,2.642-0.59,3.376,0.253c0.74,0.856,0.226,1.681-0.688,2.113c-0.907,0.429-1.568,0.489-2.353,1.088
	c-0.785,0.6,0.031,0.505,0.148,1.481c0.121,0.967-0.292,1.815-0.292,1.815s1.756,1.491,0.506,2.525
	c-1.244,1.043-2.112-0.688-2.664-1.41c-0.555-0.733-1.48-2.063-1.821-2.149C672.729,225.748,670.569,227.217,669.733,226.346z"/>
<path fill="#BFBDC3" d="M725.11,687.799c-0.701,0.012-0.826-0.216-1.098-1.093c-0.271-0.872,0.077-1.617-0.329-1.799
	c-0.407-0.184-1.374,0.377-1.901,0.681c-0.521,0.3-1.335,0.718-2.099,0.576c-0.77-0.141-0.837-0.92-0.659-1.325
	c0.179-0.414,0.421-0.737,1.086-1.034c0.662-0.289,0.917-0.765,1.393-1.354c0.483-0.593,1.109-1.314,0.731-1.769
	c-0.383-0.458-1.122-1.658-0.544-2.528c0.57-0.859,1.948-0.452,2.553-0.115c0.602,0.329,0.688,0.909,1.102,0.312
	c0.404-0.6,1.343-2.348,2.474-2.318c1.126,0.031,1.392,0.979,1.096,1.94c-0.306,0.961-0.701,1.486-0.793,2.466
	c-0.091,0.987,0.391,0.314,1.194,0.895c0.788,0.558,1.133,1.446,1.133,1.446s2.296-0.291,2.211,1.326
	c-0.078,1.616-1.939,1.1-2.845,1.01c-0.911-0.085-2.519-0.3-2.812-0.115C726.694,685.191,726.316,687.769,725.11,687.799z"/>
<path fill="#BFBDC3" d="M385.226,212.08c-0.7,0.02-0.83-0.207-1.098-1.087c-0.276-0.876,0.073-1.621-0.329-1.788
	c-0.413-0.185-1.374,0.361-1.898,0.664c-0.527,0.308-1.345,0.733-2.104,0.59c-0.765-0.146-0.836-0.927-0.658-1.338
	c0.181-0.4,0.422-0.737,1.085-1.027c0.665-0.296,0.918-0.765,1.395-1.356c0.477-0.588,1.112-1.313,0.731-1.767
	c-0.386-0.465-1.124-1.661-0.551-2.531c0.578-0.866,1.953-0.453,2.562-0.114c0.602,0.336,0.688,0.908,1.097,0.319
	c0.407-0.613,1.348-2.361,2.477-2.319c1.124,0.031,1.392,0.965,1.09,1.936c-0.301,0.951-0.701,1.484-0.788,2.465
	c-0.096,0.98,0.39,0.322,1.189,0.879c0.793,0.581,1.136,1.461,1.136,1.461s2.292-0.29,2.211,1.323
	c-0.077,1.624-1.938,1.095-2.85,1.013c-0.91-0.08-2.517-0.293-2.816-0.122C386.81,209.479,386.431,212.059,385.226,212.08z"/>
<path fill="#BFBDC3" d="M113.458,300.087c-0.702,0.017-0.827-0.216-1.098-1.093c-0.273-0.865,0.077-1.609-0.329-1.792
	c-0.409-0.175-1.378,0.362-1.902,0.68c-0.52,0.301-1.338,0.712-2.103,0.582c-0.762-0.138-0.831-0.926-0.655-1.345
	c0.178-0.4,0.425-0.729,1.088-1.02c0.662-0.296,0.918-0.764,1.394-1.355c0.477-0.594,1.11-1.321,0.727-1.775
	c-0.381-0.452-1.12-1.653-0.546-2.523c0.577-0.865,1.95-0.454,2.561-0.118c0.602,0.339,0.689,0.912,1.095,0.315
	c0.41-0.597,1.348-2.349,2.473-2.31c1.132,0.025,1.395,0.965,1.093,1.935c-0.296,0.959-0.7,1.492-0.791,2.466
	c-0.086,0.98,0.397,0.314,1.189,0.887c0.797,0.571,1.141,1.445,1.141,1.445s2.287-0.29,2.211,1.334
	c-0.076,1.621-1.939,1.097-2.846,1.009c-0.91-0.085-2.523-0.3-2.816-0.115C115.041,297.472,114.666,300.05,113.458,300.087z"/>
<path fill="#BFBDC3" d="M464.439,862.562c-0.59,0.384-0.822,0.254-1.515-0.344c-0.692-0.594-0.792-1.413-1.231-1.352
	c-0.438,0.067-0.974,1.034-1.256,1.574c-0.277,0.536-0.748,1.322-1.478,1.613c-0.726,0.278-1.196-0.344-1.259-0.78
	c-0.062-0.442-0.031-0.855,0.376-1.453c0.405-0.589,0.379-1.134,0.47-1.88c0.092-0.767,0.242-1.706-0.318-1.891
	c-0.568-0.186-1.827-0.817-1.802-1.846c0.031-1.047,1.415-1.423,2.106-1.459c0.692-0.025,1.07,0.403,1.1-0.316
	c0.03-0.726-0.103-2.708,0.876-3.266c0.976-0.579,1.699,0.085,1.951,1.062c0.253,0.966,0.189,1.624,0.635,2.512
	c0.444,0.88,0.505,0.062,1.48,0.113c0.974,0.069,1.733,0.626,1.733,0.626s1.79-1.445,2.58-0.035c0.79,1.413-1.067,1.958-1.883,2.368
	c-0.818,0.402-2.292,1.066-2.451,1.385C464.396,859.511,465.438,861.898,464.439,862.562z"/>
<path fill="#BFBDC3" d="M854.127,938.146c0.057-1.068,0.33-2.652-0.685-3.318c-0.837-0.547-2.282-0.007-2.444,0.826l-1.479-0.214
	c-1.26,1.538-2.162,3.538,0.049,4.593C852.109,941.25,852.404,938.9,854.127,938.146z"/>
<path fill="#BFBDC3" d="M533.511,959.684c0.055-1.07,0.329-2.664-0.686-3.319c-0.838-0.537-2.284-0.004-2.446,0.826l-1.479-0.222
	c-1.252,1.543-2.159,3.551,0.049,4.6C531.485,962.776,531.786,960.432,533.511,959.684z"/>
<path fill="#BFBDC3" d="M91.048,630.365c0.054-1.067,0.329-2.655-0.685-3.321c-0.835-0.527-2.288-0.004-2.446,0.83l-1.481-0.211
	c-1.256,1.54-2.158,3.535,0.047,4.591C89.024,633.47,89.322,631.114,91.048,630.365z"/>
<path fill="#BFBDC3" d="M661.706,388.596c0.056-1.074,0.332-2.653-0.687-3.312c-0.834-0.54-2.28-0.007-2.445,0.82l-1.477-0.216
	c-1.257,1.545-2.163,3.544,0.051,4.594C659.683,391.692,659.982,389.348,661.706,388.596z"/>
<path fill="#BFBDC3" d="M863.607,191.708c0.056-1.075,0.332-2.654-0.687-3.313c-0.834-0.54-2.281-0.007-2.446,0.82L859,189
	c-1.257,1.545-2.163,3.544,0.05,4.593C861.585,194.804,861.883,192.46,863.607,191.708z"/>
<path fill="#BFBDC3" d="M268.628,732.701c0.057-1.07,0.333-2.657-0.685-3.313c-0.834-0.539-2.285-0.016-2.444,0.812l-1.481-0.2
	c-1.254,1.532-2.161,3.535,0.051,4.591C266.608,735.807,266.903,733.458,268.628,732.701z"/>
<path fill="#BFBDC3" d="M530.767,61.542c0.061-1.077,0.337-2.648-0.683-3.32c-0.836-0.541-2.286,0-2.446,0.825l-1.479-0.207
	c-1.254,1.524-2.161,3.538,0.046,4.588C528.748,64.636,529.043,62.293,530.767,61.542z"/>
<path fill="#BFBDC3" d="M1005,480.056c0.057-1.062,0.332-2.647-0.681-3.307c-0.841-0.537-2.289-0.013-2.446,0.812l-1.481-0.199
	c-1.253,1.53-2.161,3.535,0.046,4.59C1002.98,483.168,1003.277,480.82,1005,480.056z"/>
<path fill="#BFBDC3" d="M69.994,133.059c0.06-1.073,0.336-2.661-0.682-3.32c-0.842-0.537-2.287-0.007-2.452,0.819l-1.473-0.206
	c-1.256,1.53-2.162,3.535,0.049,4.597C67.973,136.158,68.268,133.807,69.994,133.059z"/>
<path fill="#BFBDC3" d="M963.864,634.779c-0.505-0.131-1.728,1.224-2.829,2.213c-1.1,0.994-8.126,7.939-9.374,8.921
	c-1.252,0.972-3.343,3.266-3.941,3.872c-0.6,0.596-0.711,1.491,0.208,1.301c0.933-0.181,2.164,0.197,2.356,0.438
	c0.194,0.257-0.663,1.734-1.959,3.677c-1.297,1.939-3.122,5.771-4.09,6.942c-0.973,1.148-1.078,1.363-1.401,2.15
	c-0.322,0.788-0.947,2.217-0.202,1.632c0.754-0.585,1.103-0.994,2.058-2.002c0.949-1.015,12.109-13.992,12.71-14.597
	c0.602-0.598,0.872-0.941,0.214-1.096c-0.66-0.154-1.657-0.586-1.657-0.586s7.146-10.92,7.698-11.762
	C964.208,635.056,963.864,634.779,963.864,634.779z"/>
<path fill="#BFBDC3" d="M168.52,1017.905c4.798-5.562,9.993-11.18,14.48-16.905c2.836-3.61,12.94-14.208,13.139-17.309
	c-4.87,2.571-9.863,10.763-13.727,15.487C177.526,1005.156,168.52,1017.905,168.52,1017.905z"/>
<path fill="#BFBDC3" d="M659.795,894.757c5.725-4.593,11.857-9.177,17.305-13.989c3.444-3.039,15.297-11.628,16.056-14.658
	c-5.253,1.652-11.647,8.805-16.305,12.757C670.966,883.852,659.795,894.757,659.795,894.757z"/>
<path fill="#BFBDC3" d="M327.591,362.277c4.51-5.78,9.413-11.666,13.596-17.617c2.647-3.749,12.19-14.853,12.234-17.961
	c-4.734,2.822-9.298,11.256-12.917,16.177C335.938,349.091,327.591,362.277,327.591,362.277z"/>
</svg>
