<?xml version="1.0" encoding="utf-8"?>
<!-- Generator: Adobe Illustrator 16.0.0, SVG Export Plug-In . SVG Version: 6.00 Build 0)  -->
<!DOCTYPE svg PUBLIC "-//W3C//DTD SVG 1.1//EN" "http://www.w3.org/Graphics/SVG/1.1/DTD/svg11.dtd">
<svg version="1.1" id="Layer_1" xmlns="http://www.w3.org/2000/svg" xmlns:xlink="http://www.w3.org/1999/xlink" x="0px" y="0px"
	 width="1024px" height="1024px" viewBox="0 0 1024 1024" enable-background="new 0 0 1024 1024" xml:space="preserve">
<path fill="#BFBDC3" d="M275.137,883.812c0.084,0.697-0.142,0.846-0.984,1.195c-0.845,0.361-1.617,0.076-1.757,0.49
	c-0.141,0.428,0.49,1.338,0.846,1.834c0.35,0.492,0.84,1.271,0.773,2.037c-0.071,0.78-0.843,0.92-1.266,0.78
	c-0.425-0.143-0.776-0.351-1.128-0.986c-0.353-0.635-0.845-0.841-1.481-1.257c-0.631-0.434-1.405-0.99-1.828-0.574
	c-0.418,0.422-1.546,1.271-2.462,0.775c-0.914-0.492-0.631-1.892-0.35-2.535c0.279-0.626,0.844-0.772,0.209-1.122
	c-0.632-0.352-2.463-1.123-2.534-2.251c-0.069-1.123,0.843-1.478,1.83-1.271c0.987,0.217,1.55,0.574,2.534,0.574
	c0.986,0,0.279-0.426,0.773-1.27c0.496-0.85,1.339-1.268,1.339-1.268s-0.491-2.259,1.125-2.322c1.62-0.067,1.266,1.825,1.266,2.74
	c0,0.92-0.069,2.533,0.141,2.816C272.396,882.481,274.995,882.615,275.137,883.812z"/>
<path fill="#BFBDC3" d="M926.602,753.317c0.078,0.698-0.143,0.849-0.987,1.195c-0.847,0.351-1.62,0.068-1.753,0.492
	c-0.146,0.424,0.49,1.335,0.839,1.832c0.352,0.499,0.848,1.263,0.772,2.036c-0.065,0.773-0.843,0.916-1.263,0.773
	c-0.427-0.133-0.779-0.347-1.13-0.98c-0.348-0.629-0.84-0.84-1.477-1.271c-0.635-0.422-1.409-0.98-1.83-0.559
	c-0.422,0.426-1.547,1.263-2.459,0.774c-0.918-0.498-0.636-1.901-0.354-2.533c0.279-0.63,0.843-0.774,0.213-1.121
	c-0.636-0.353-2.468-1.131-2.535-2.261c-0.069-1.12,0.84-1.471,1.828-1.263c0.986,0.211,1.546,0.565,2.534,0.565
	c0.984,0,0.282-0.423,0.773-1.263c0.495-0.85,1.337-1.271,1.337-1.271s-0.493-2.25,1.129-2.325c1.621-0.067,1.265,1.836,1.265,2.748
	c0,0.916-0.073,2.533,0.14,2.809C923.86,751.98,926.459,752.122,926.602,753.317z"/>
<path fill="#BFBDC3" d="M783.344,518.575c-0.488-0.516-0.4-0.766,0.059-1.561c0.459-0.79,1.246-1.034,1.098-1.448
	c-0.143-0.418-1.201-0.763-1.778-0.94c-0.581-0.188-1.441-0.498-1.852-1.156c-0.41-0.657,0.117-1.236,0.539-1.386
	c0.419-0.148,0.825-0.188,1.491,0.102c0.664,0.297,1.183,0.154,1.94,0.108c0.761-0.048,1.717-0.061,1.794-0.651
	c0.084-0.59,0.469-1.95,1.493-2.111c1.028-0.161,1.656,1.131,1.815,1.799c0.16,0.674-0.205,1.132,0.516,1.024
	c0.716-0.108,2.633-0.6,3.375,0.254c0.739,0.854,0.227,1.695-0.683,2.116c-0.912,0.431-1.574,0.491-2.355,1.09
	c-0.787,0.597,0.031,0.503,0.146,1.477c0.126,0.97-0.294,1.811-0.294,1.811s1.755,1.503,0.512,2.534
	c-1.244,1.033-2.111-0.681-2.67-1.414c-0.555-0.729-1.479-2.047-1.814-2.157C786.334,517.965,784.179,519.439,783.344,518.575z"/>
<path fill="#BFBDC3" d="M252.858,581.22c-0.697,0.011-0.826-0.211-1.097-1.092c-0.271-0.874,0.077-1.616-0.333-1.792
	c-0.406-0.183-1.374,0.359-1.899,0.672c-0.52,0.3-1.337,0.72-2.1,0.583c-0.771-0.139-0.833-0.925-0.655-1.337
	c0.174-0.4,0.42-0.737,1.085-1.035c0.66-0.274,0.914-0.75,1.395-1.351c0.477-0.591,1.112-1.303,0.726-1.769
	c-0.381-0.453-1.12-1.655-0.546-2.52c0.575-0.872,1.953-0.461,2.555-0.13c0.604,0.345,0.696,0.925,1.098,0.326
	c0.413-0.604,1.351-2.361,2.476-2.317c1.127,0.032,1.395,0.973,1.096,1.936c-0.301,0.959-0.702,1.492-0.795,2.473
	c-0.089,0.974,0.398,0.314,1.194,0.881c0.792,0.568,1.139,1.448,1.139,1.448s2.286-0.278,2.209,1.331
	c-0.074,1.621-1.939,1.102-2.85,1.017c-0.908-0.086-2.517-0.305-2.813-0.115C254.445,578.613,254.062,581.183,252.858,581.22z"/>
<path fill="#BFBDC3" d="M381.556,1011.104c0.054-1.073,0.33-2.651-0.686-3.313c-0.833-0.536-2.282-0.004-2.443,0.815l-1.478-0.208
	c-1.258,1.538-2.169,3.546,0.05,4.603C379.536,1014.209,379.832,1011.859,381.556,1011.104z"/>
<path fill="#BFBDC3" d="M478.285,274.232c0.054-1.073,0.329-2.656-0.682-3.314c-0.837-0.535-2.286-0.007-2.447,0.813l-1.479-0.208
	c-1.257,1.539-2.161,3.535,0.041,4.604C476.263,277.33,476.562,274.983,478.285,274.232z"/>
<path fill="#BFBDC3" d="M935.946,44.558c0.056-1.067,0.331-2.657-0.687-3.315c-0.831-0.535-2.285-0.013-2.441,0.821l-1.48-0.216
	c-1.251,1.546-2.159,3.544,0.045,4.599C933.929,47.655,934.219,45.312,935.946,44.558z"/>
<path fill="#BFBDC3" d="M1011.942,941.305c0.052-1.072,0.333-2.664-0.687-3.312c-0.833-0.545-2.284-0.008-2.441,0.817l-1.482-0.215
	c-1.248,1.536-2.16,3.536,0.048,4.6C1009.921,944.403,1010.215,942.06,1011.942,941.305z"/>
<path fill="#BFBDC3" d="M407,625c0.056-1.075,0.332-2.654-0.686-3.312c-0.834-0.54-2.281-0.008-2.446,0.819l-1.477-0.215
	c-1.257,1.545-2.163,3.544,0.051,4.593C404.977,628.096,405.276,625.752,407,625z"/>
<path fill="#BFBDC3" d="M901.04,336.403c0.055-1.062,0.326-2.647-0.688-3.313c-0.837-0.531-2.28,0-2.443,0.818l-1.479-0.207
	c-1.256,1.54-2.163,3.542,0.047,4.592C899.014,339.509,899.314,337.162,901.04,336.403z"/>
<path fill="#BFBDC3" d="M251.529,265.117c0.054-1.07,0.33-2.656-0.683-3.305c-0.837-0.551-2.286-0.021-2.442,0.812l-1.484-0.22
	c-1.256,1.543-2.158,3.547,0.052,4.604C249.509,268.225,249.804,265.873,251.529,265.117z"/>
<path fill="#BFBDC3" d="M584.691,692.136c-0.018-1.085,0.144-2.682-0.914-3.266c-0.874-0.479-2.277,0.159-2.383,0.987l-1.487-0.102
	c-1.15,1.611-1.905,3.684,0.371,4.584C582.896,695.366,583.026,693.001,584.691,692.136z"/>
<path fill="#BFBDC3" d="M687.56,993.11c0.058-1.07,0.333-2.654-0.682-3.318c-0.841-0.531-2.286,0-2.45,0.818l-1.475-0.2
	c-1.261,1.53-2.161,3.535,0.047,4.59C685.537,996.217,685.835,993.864,687.56,993.11z"/>
<path fill="#BFBDC3" d="M387.56,483.11c0.057-1.07,0.333-2.654-0.682-3.318c-0.841-0.531-2.286,0-2.45,0.818l-1.475-0.2
	c-1.261,1.53-2.161,3.535,0.047,4.59C385.537,486.217,385.835,483.864,387.56,483.11z"/>
<path fill="#BFBDC3" d="M83.709,464.912c0.057-1.066,0.329-2.654-0.686-3.305c-0.836-0.545-2.284-0.008-2.447,0.811l-1.474-0.214
	c-1.259,1.539-2.165,3.542,0.047,4.597C81.682,468.019,81.984,465.66,83.709,464.912z"/>
<path fill="#BFBDC3" d="M318.106,83.972c0.487,0.205,1.878-0.974,3.095-1.815c1.221-0.841,9.102-6.808,10.465-7.62
	c1.365-0.787,3.74-2.794,4.416-3.313c0.673-0.516,0.897-1.385-0.043-1.325c-0.94,0.068-2.113-0.468-2.273-0.744
	c-0.161-0.268,0.885-1.621,2.421-3.38c1.538-1.754,3.854-5.318,4.97-6.347c1.12-1.014,1.245-1.207,1.666-1.948
	c0.424-0.737,1.235-2.068,0.414-1.593c-0.815,0.484-1.22,0.841-2.298,1.722c-1.077,0.866-13.841,12.275-14.518,12.801
	c-0.677,0.513-0.984,0.822-0.356,1.057c0.631,0.246,1.573,0.798,1.573,0.798s-8.518,9.885-9.18,10.641
	C317.799,83.658,318.106,83.972,318.106,83.972z"/>
<path fill="#BFBDC3" d="M99.116,794.88c5.701-4.612,11.807-9.227,17.238-14.061c3.431-3.063,15.249-11.707,15.991-14.725
	c-5.248,1.667-11.612,8.845-16.252,12.81C110.235,783.931,99.116,794.88,99.116,794.88z"/>
<path fill="#BFBDC3" d="M703.404,104.617c4.51-5.78,9.413-11.666,13.596-17.617c2.646-3.749,12.19-14.852,12.234-17.961
	c-4.734,2.822-9.299,11.256-12.917,16.177C711.75,91.431,703.404,104.617,703.404,104.617z"/>
</svg>
