<?xml version="1.0" encoding="utf-8"?>
<!-- Generator: Adobe Illustrator 16.0.0, SVG Export Plug-In . SVG Version: 6.00 Build 0)  -->
<!DOCTYPE svg PUBLIC "-//W3C//DTD SVG 1.1//EN" "http://www.w3.org/Graphics/SVG/1.1/DTD/svg11.dtd">
<svg version="1.1" id="Layer_1" xmlns="http://www.w3.org/2000/svg" xmlns:xlink="http://www.w3.org/1999/xlink" x="0px" y="0px"
	 width="1024px" height="1024px" viewBox="0 0 1024 1024" enable-background="new 0 0 1024 1024" xml:space="preserve">
<path fill="#BFBDC3" d="M781.684,155.553c-0.084-0.698,0.143-0.846,0.984-1.196c0.845-0.361,1.617-0.076,1.757-0.49
	c0.142-0.428-0.489-1.338-0.846-1.834c-0.351-0.492-0.84-1.271-0.773-2.037c0.071-0.78,0.844-0.92,1.267-0.78
	c0.425,0.142,0.775,0.35,1.128,0.986c0.353,0.635,0.845,0.841,1.48,1.257c0.632,0.433,1.405,0.99,1.828,0.574
	c0.418-0.422,1.546-1.271,2.462-0.775c0.914,0.492,0.631,1.891,0.351,2.535c-0.279,0.626-0.845,0.772-0.209,1.122
	c0.632,0.351,2.463,1.123,2.534,2.251c0.068,1.123-0.844,1.477-1.83,1.271c-0.987-0.217-1.551-0.574-2.534-0.574
	c-0.986,0-0.279,0.426-0.773,1.27c-0.496,0.849-1.339,1.267-1.339,1.267s0.491,2.259-1.125,2.322
	c-1.62,0.068-1.266-1.825-1.266-2.74c0-0.92,0.068-2.533-0.142-2.816C784.425,156.884,781.826,156.75,781.684,155.553z"/>
<path fill="#BFBDC3" d="M130.22,286.048c-0.079-0.699,0.142-0.849,0.987-1.196c0.847-0.35,1.62-0.068,1.753-0.492
	c0.145-0.424-0.49-1.335-0.839-1.832c-0.352-0.499-0.848-1.263-0.773-2.036c0.066-0.774,0.843-0.916,1.263-0.774
	c0.427,0.133,0.779,0.347,1.13,0.981c0.348,0.629,0.84,0.84,1.476,1.27c0.635,0.422,1.41,0.981,1.83,0.559
	c0.423-0.426,1.548-1.263,2.459-0.774c0.918,0.498,0.636,1.901,0.354,2.533c-0.279,0.63-0.843,0.774-0.213,1.121
	c0.636,0.352,2.468,1.131,2.535,2.261c0.07,1.12-0.84,1.47-1.828,1.262c-0.986-0.211-1.546-0.565-2.534-0.565
	c-0.984,0-0.282,0.423-0.773,1.263c-0.495,0.849-1.337,1.271-1.337,1.271s0.493,2.25-1.129,2.325
	c-1.621,0.068-1.265-1.836-1.265-2.748c0-0.916,0.074-2.533-0.14-2.808C132.961,287.385,130.362,287.243,130.22,286.048z"/>
<path fill="#BFBDC3" d="M273.477,520.79c0.489,0.515,0.401,0.765-0.058,1.56c-0.459,0.79-1.246,1.035-1.098,1.449
	c0.143,0.418,1.201,0.762,1.778,0.94c0.581,0.188,1.442,0.498,1.852,1.155c0.41,0.658-0.117,1.237-0.539,1.387
	c-0.419,0.148-0.825,0.188-1.491-0.102c-0.665-0.297-1.183-0.154-1.941-0.108c-0.76,0.048-1.717,0.061-1.794,0.65
	c-0.084,0.59-0.468,1.951-1.493,2.112c-1.028,0.161-1.656-1.131-1.815-1.799c-0.16-0.674,0.205-1.132-0.516-1.024
	c-0.716,0.108-2.633,0.6-3.375-0.254c-0.739-0.854-0.226-1.696,0.683-2.117c0.912-0.43,1.574-0.491,2.355-1.089
	c0.787-0.597-0.031-0.503-0.146-1.477c-0.126-0.971,0.294-1.811,0.294-1.811s-1.755-1.503-0.512-2.535
	c1.244-1.032,2.111,0.682,2.67,1.414c0.554,0.729,1.478,2.047,1.814,2.158C270.487,521.4,272.642,519.926,273.477,520.79z"/>
<path fill="#BFBDC3" d="M803.963,458.145c0.697-0.01,0.826,0.212,1.098,1.093c0.271,0.874-0.078,1.615,0.332,1.792
	c0.406,0.183,1.375-0.359,1.899-0.672c0.521-0.301,1.337-0.721,2.1-0.583c0.771,0.139,0.833,0.925,0.655,1.337
	c-0.174,0.4-0.42,0.736-1.085,1.035c-0.66,0.274-0.914,0.75-1.396,1.351c-0.477,0.591-1.111,1.303-0.726,1.768
	c0.381,0.454,1.12,1.656,0.546,2.521c-0.574,0.872-1.953,0.461-2.555,0.13c-0.605-0.345-0.696-0.925-1.098-0.326
	c-0.413,0.604-1.352,2.361-2.477,2.317c-1.127-0.032-1.395-0.974-1.096-1.937c0.301-0.959,0.702-1.492,0.795-2.472
	c0.089-0.974-0.398-0.315-1.194-0.881c-0.792-0.568-1.139-1.448-1.139-1.448s-2.286,0.278-2.209-1.331
	c0.074-1.622,1.938-1.102,2.85-1.017c0.908,0.086,2.518,0.305,2.813,0.114C802.376,460.752,802.759,458.182,803.963,458.145z"/>
<path fill="#BFBDC3" d="M675.265,28.262c-0.054,1.073-0.33,2.651,0.687,3.313c0.833,0.536,2.282,0.004,2.442-0.815l1.479,0.208
	c1.258-1.539,2.169-3.546-0.05-4.603C677.285,25.156,676.989,27.506,675.265,28.262z"/>
<path fill="#BFBDC3" d="M578.536,765.133c-0.054,1.073-0.329,2.656,0.681,3.314c0.837,0.535,2.287,0.007,2.448-0.813l1.479,0.208
	c1.257-1.539,2.16-3.535-0.041-4.604C580.558,762.035,580.259,764.382,578.536,765.133z"/>
<path fill="#BFBDC3" d="M120.875,994.807c-0.056,1.067-0.331,2.657,0.686,3.315c0.831,0.535,2.285,0.013,2.442-0.821l1.48,0.216
	c1.251-1.546,2.159-3.544-0.045-4.599C122.892,991.71,122.602,994.053,120.875,994.807z"/>
<path fill="#BFBDC3" d="M44.879,98.06c-0.052,1.073-0.333,2.664,0.686,3.313c0.833,0.545,2.284,0.008,2.442-0.818l1.482,0.215
	c1.248-1.536,2.16-3.536-0.048-4.599C46.9,94.962,46.606,97.305,44.879,98.06z"/>
<path fill="#BFBDC3" d="M649.821,414.365c-0.057,1.075-0.332,2.653,0.686,3.312c0.834,0.54,2.281,0.007,2.446-0.819l1.476,0.215
	c1.257-1.545,2.163-3.544-0.05-4.593C651.844,411.269,651.545,413.613,649.821,414.365z"/>
<path fill="#BFBDC3" d="M155.781,702.962c-0.055,1.062-0.326,2.647,0.688,3.313c0.837,0.53,2.281,0,2.444-0.818l1.478,0.207
	c1.256-1.54,2.163-3.542-0.047-4.592C157.807,699.856,157.507,702.203,155.781,702.962z"/>
<path fill="#BFBDC3" d="M805.292,774.248c-0.054,1.07-0.33,2.656,0.683,3.305c0.838,0.551,2.286,0.021,2.442-0.812l1.484,0.22
	c1.256-1.543,2.157-3.547-0.053-4.604C807.312,771.14,807.018,773.492,805.292,774.248z"/>
<path fill="#BFBDC3" d="M472.13,347.229c0.017,1.086-0.144,2.683,0.914,3.267c0.874,0.479,2.277-0.159,2.382-0.987l1.488,0.102
	c1.15-1.611,1.905-3.684-0.371-4.584C473.925,343.999,473.795,346.364,472.13,347.229z"/>
<path fill="#BFBDC3" d="M369.261,46.255c-0.057,1.07-0.333,2.654,0.682,3.318c0.841,0.531,2.286,0,2.45-0.818l1.475,0.2
	c1.261-1.53,2.161-3.535-0.047-4.59C371.284,43.148,370.986,45.501,369.261,46.255z"/>
<path fill="#BFBDC3" d="M509.087,577.33c-0.057,1.07-0.333,2.654,0.683,3.318c0.841,0.53,2.285,0,2.449-0.818l1.476,0.2
	c1.261-1.53,2.161-3.535-0.048-4.59C511.11,574.223,510.812,576.576,509.087,577.33z"/>
<path fill="#BFBDC3" d="M973.112,574.453c-0.058,1.065-0.329,2.654,0.686,3.305c0.836,0.544,2.284,0.007,2.447-0.811l1.474,0.214
	c1.26-1.539,2.165-3.542-0.047-4.597C975.139,571.346,974.837,573.705,973.112,574.453z"/>
<path fill="#BFBDC3" d="M738.715,955.393c-0.486-0.205-1.878,0.975-3.095,1.815c-1.221,0.841-9.103,6.808-10.465,7.62
	c-1.365,0.787-3.74,2.794-4.416,3.312c-0.673,0.517-0.897,1.386,0.043,1.325c0.939-0.067,2.112,0.468,2.272,0.744
	c0.161,0.269-0.885,1.621-2.421,3.38c-1.538,1.754-3.854,5.318-4.97,6.348c-1.12,1.014-1.245,1.206-1.666,1.947
	c-0.424,0.737-1.235,2.068-0.414,1.594c0.815-0.484,1.22-0.842,2.298-1.723c1.077-0.866,13.841-12.274,14.519-12.801
	c0.677-0.513,0.983-0.822,0.355-1.057c-0.631-0.246-1.573-0.799-1.573-0.799s8.519-9.885,9.181-10.641
	C739.021,955.707,738.715,955.393,738.715,955.393z"/>
<path fill="#BFBDC3" d="M957.705,244.485c-5.701,4.612-11.807,9.227-17.238,14.061c-3.431,3.063-15.249,11.707-15.99,14.724
	c5.247-1.667,11.611-8.844,16.252-12.809C946.586,255.434,957.705,244.485,957.705,244.485z"/>
<path fill="#BFBDC3" d="M353.417,934.748c-4.51,5.78-9.413,11.666-13.596,17.617c-2.647,3.749-12.19,14.852-12.234,17.961
	c4.734-2.822,9.298-11.256,12.917-16.177C345.071,947.934,353.417,934.748,353.417,934.748z"/>
</svg>
